<?xml version="1.0" encoding="utf-8"?>
<!-- Generator: Adobe Illustrator 24.2.0, SVG Export Plug-In . SVG Version: 6.00 Build 0)  -->
<svg version="1.1" id="Layer_1" xmlns="http://www.w3.org/2000/svg" xmlns:xlink="http://www.w3.org/1999/xlink" x="0px" y="0px"
	 viewBox="0 0 960 131" style="enable-background:new 0 0 960 131;" xml:space="preserve">
<style type="text/css">
	.st0{clip-path:url(#SVGID_2_);}
	.st1{fill-rule:evenodd;clip-rule:evenodd;fill:#FFFFFF;}
	.st2{fill-rule:evenodd;clip-rule:evenodd;fill-opacity:0;}
</style>
<g>
	<defs>
		<rect id="SVGID_1_" width="960" height="130.5"/>
	</defs>
	<clipPath id="SVGID_2_">
		<use xlink:href="#SVGID_1_"  style="overflow:visible;"/>
	</clipPath>
	<g class="st0">
		<path class="st1" d="M0-187h960v540H0V-187z"/>
		<path class="st2" d="M0,9.5h960v121H0V9.5z"/>
		<path d="M48.5,81.2V61.4l-18-27H38l9.2,14.1c1.7,2.6,3.3,5.3,4.8,7.9c1.4-2.4,3.1-5.2,5.1-8.3l9.1-13.8h7.2l-18.7,27v19.8H48.5z
			 M143.5,53.7h-30.9v-5.4h30.9V53.7z M143.5,67.9h-30.9v-5.4h30.9V67.9z M209.8,77c-2.1,1.8-4.2,3.1-6.1,3.8
			c-2,0.7-4.1,1.1-6.3,1.1c-3.7,0-6.6-0.9-8.6-2.7c-2-1.8-3-4.2-3-7c0-1.7,0.4-3.2,1.1-4.5c0.8-1.4,1.7-2.5,3-3.3
			c1.2-0.8,2.6-1.5,4.1-1.9c1.1-0.3,2.8-0.6,5.1-0.9c4.6-0.6,8.1-1.2,10.3-2c0-0.8,0-1.3,0-1.5c0-2.3-0.5-4-1.6-4.9
			c-1.5-1.3-3.7-2-6.5-2c-2.7,0-4.7,0.5-6,1.4c-1.3,0.9-2.2,2.6-2.8,5l-5.6-0.8c0.5-2.4,1.3-4.3,2.5-5.8c1.2-1.5,2.9-2.6,5.1-3.4
			c2.2-0.8,4.8-1.2,7.7-1.2c2.9,0,5.2,0.3,7,1c1.8,0.7,3.1,1.5,4,2.6c0.9,1,1.5,2.3,1.8,3.9c0.2,1,0.3,2.7,0.3,5.3V67
			c0,5.3,0.1,8.7,0.4,10.1c0.2,1.4,0.7,2.8,1.5,4.1h-6C210.4,80,210,78.6,209.8,77z M209.4,64.2c-2.1,0.9-5.2,1.6-9.4,2.2
			c-2.4,0.3-4,0.7-5,1.1c-1,0.4-1.7,1.1-2.3,1.9c-0.5,0.8-0.8,1.7-0.8,2.7c0,1.5,0.6,2.8,1.7,3.8c1.2,1,2.9,1.5,5.1,1.5
			c2.2,0,4.2-0.5,5.9-1.5c1.7-1,3-2.3,3.8-4c0.6-1.3,0.9-3.2,0.9-5.7V64.2z"/>
		<path d="M236,105.7h-3.8V81.3c-0.9,0.9-2.1,1.8-3.6,2.6c-1.5,0.9-2.8,1.5-4,2v-3.7c2.1-1,4-2.2,5.6-3.7c1.6-1.4,2.7-2.8,3.4-4.2
			h2.5V105.7z"/>
		<path d="M244.2,81.2l18.1-24.4l-16-22.4h7.4l8.5,12c1.8,2.5,3,4.4,3.8,5.7c1-1.7,2.3-3.5,3.7-5.3l9.4-12.4h6.7l-16.4,22l17.7,24.7
			h-7.7l-11.8-16.7c-0.7-1-1.3-2-2-3.1c-1,1.7-1.8,2.9-2.2,3.5l-11.7,16.3H244.2z"/>
		<path d="M303.8,105.7h-3.8V81.3c-0.9,0.9-2.1,1.8-3.6,2.6c-1.5,0.9-2.8,1.5-4,2v-3.7c2.1-1,4-2.2,5.6-3.7c1.6-1.4,2.7-2.8,3.4-4.2
			h2.5V105.7z"/>
		<path d="M364.4,73.6V60.8h-12.7v-5.3h12.7V42.7h5.4v12.7h12.7v5.3h-12.7v12.8H364.4z M448.9,77c-2.1,1.8-4.2,3.1-6.1,3.8
			c-2,0.7-4.1,1.1-6.3,1.1c-3.7,0-6.6-0.9-8.6-2.7c-2-1.8-3-4.2-3-7c0-1.7,0.4-3.2,1.1-4.5c0.8-1.4,1.8-2.5,3-3.3
			c1.2-0.8,2.6-1.5,4.1-1.9c1.1-0.3,2.8-0.6,5.1-0.9c4.6-0.6,8.1-1.2,10.3-2c0-0.8,0-1.3,0-1.5c0-2.3-0.5-4-1.6-4.9
			c-1.5-1.3-3.7-2-6.5-2c-2.7,0-4.7,0.5-6,1.4c-1.3,0.9-2.2,2.6-2.8,5l-5.6-0.8c0.5-2.4,1.3-4.3,2.5-5.8c1.2-1.5,2.9-2.6,5.1-3.4
			c2.2-0.8,4.8-1.2,7.7-1.2c2.9,0,5.2,0.3,7,1c1.8,0.7,3.1,1.5,4,2.6c0.9,1,1.5,2.3,1.8,3.9c0.2,1,0.3,2.7,0.3,5.3V67
			c0,5.3,0.1,8.7,0.4,10.1c0.3,1.4,0.7,2.8,1.5,4.1h-6C449.5,80,449.1,78.6,448.9,77z M448.4,64.2c-2.1,0.9-5.2,1.6-9.4,2.2
			c-2.4,0.3-4,0.7-5,1.1c-1,0.4-1.7,1.1-2.3,1.9c-0.5,0.8-0.8,1.7-0.8,2.7c0,1.5,0.6,2.8,1.7,3.8c1.2,1,2.9,1.5,5.1,1.5
			c2.2,0,4.2-0.5,5.9-1.5c1.7-1,3-2.3,3.8-4c0.6-1.3,0.9-3.2,0.9-5.7V64.2z"/>
		<path d="M480.8,102v3.7h-20.6c0-0.9,0.1-1.8,0.5-2.7c0.5-1.4,1.4-2.8,2.5-4.1c1.2-1.4,2.8-2.9,5-4.7c3.4-2.8,5.7-5,6.9-6.6
			c1.2-1.6,1.8-3.2,1.8-4.6c0-1.5-0.5-2.8-1.6-3.8c-1.1-1-2.5-1.6-4.2-1.6c-1.8,0-3.3,0.6-4.4,1.7c-1.1,1.1-1.7,2.6-1.7,4.6
			l-3.9-0.4c0.3-2.9,1.3-5.2,3-6.7c1.8-1.5,4.1-2.3,7.1-2.3c3,0,5.4,0.8,7.1,2.5c1.7,1.7,2.6,3.7,2.6,6.2c0,1.2-0.3,2.5-0.8,3.7
			c-0.5,1.2-1.4,2.5-2.5,3.8c-1.2,1.3-3.1,3.2-5.9,5.5c-2.3,1.9-3.8,3.2-4.4,3.9s-1.2,1.4-1.6,2.1H480.8z"/>
		<path d="M483.3,81.2l18.1-24.4l-16-22.4h7.4l8.5,12c1.8,2.5,3,4.4,3.8,5.7c1-1.7,2.3-3.5,3.7-5.3l9.4-12.4h6.7l-16.4,22l17.7,24.7
			h-7.7l-11.8-16.7c-0.7-1-1.3-2-2-3.1c-1,1.7-1.8,2.9-2.2,3.5l-11.7,16.3H483.3z"/>
		<path d="M548.6,102v3.7h-20.6c0-0.9,0.1-1.8,0.5-2.7c0.5-1.4,1.4-2.8,2.5-4.1c1.2-1.4,2.8-2.9,5-4.7c3.4-2.8,5.7-5,6.9-6.6
			c1.2-1.6,1.8-3.2,1.8-4.6c0-1.5-0.5-2.8-1.6-3.8c-1.1-1-2.5-1.6-4.2-1.6c-1.8,0-3.3,0.6-4.4,1.7s-1.7,2.6-1.7,4.6l-3.9-0.4
			c0.3-2.9,1.3-5.2,3-6.7c1.8-1.5,4.1-2.3,7.1-2.3c3,0,5.4,0.8,7.1,2.5s2.6,3.7,2.6,6.2c0,1.2-0.3,2.5-0.8,3.7s-1.4,2.5-2.5,3.8
			c-1.2,1.3-3.1,3.2-5.9,5.5c-2.3,1.9-3.8,3.2-4.4,3.9s-1.2,1.4-1.6,2.1H548.6z"/>
		<path d="M603.5,73.6V60.8h-12.7v-5.3h12.7V42.7h5.4v12.7h12.7v5.3h-12.7v12.8H603.5z M651.1,81.2v-6.5h6.5v6.5H651.1z M672.9,81.2
			v-6.5h6.5v6.5H672.9z M694.6,81.2v-6.5h6.6v6.5H694.6z M743.3,73.6V60.8h-12.7v-5.3h12.7V42.7h5.4v12.7h12.7v5.3h-12.7v12.8H743.3
			z M827.8,77c-2.1,1.8-4.2,3.1-6.1,3.8c-2,0.7-4.1,1.1-6.3,1.1c-3.7,0-6.6-0.9-8.6-2.7c-2-1.8-3-4.2-3-7c0-1.7,0.4-3.2,1.1-4.5
			c0.8-1.4,1.7-2.5,3-3.3c1.2-0.8,2.6-1.5,4.1-1.9c1.1-0.3,2.8-0.6,5.1-0.9c4.6-0.6,8.1-1.2,10.3-2c0-0.8,0-1.3,0-1.5
			c0-2.3-0.5-4-1.6-4.9c-1.5-1.3-3.7-2-6.5-2c-2.7,0-4.7,0.5-6,1.4c-1.3,0.9-2.2,2.6-2.8,5l-5.6-0.8c0.5-2.4,1.3-4.3,2.5-5.8
			c1.2-1.5,2.9-2.6,5.1-3.4c2.2-0.8,4.8-1.2,7.7-1.2c2.9,0,5.2,0.3,7,1c1.8,0.7,3.1,1.5,4,2.6c0.9,1,1.5,2.3,1.8,3.9
			c0.2,1,0.3,2.7,0.3,5.3V67c0,5.3,0.1,8.7,0.4,10.1c0.2,1.4,0.7,2.8,1.5,4.1h-6C828.4,80,828,78.6,827.8,77z M827.3,64.2
			c-2.1,0.9-5.2,1.6-9.4,2.2c-2.4,0.3-4,0.7-5,1.1c-1,0.4-1.7,1.1-2.3,1.9c-0.5,0.8-0.8,1.7-0.8,2.7c0,1.5,0.6,2.8,1.7,3.8
			c1.2,1,2.9,1.5,5.1,1.5c2.2,0,4.2-0.5,5.9-1.5c1.7-1,3-2.3,3.8-4c0.6-1.3,0.9-3.2,0.9-5.7V64.2z"/>
		<path d="M840.6,105.7V83.1h3.4v3.2c1.7-2.5,4.1-3.7,7.2-3.7c1.4,0,2.6,0.2,3.8,0.7c1.1,0.5,2,1.1,2.6,1.9c0.6,0.8,1,1.7,1.2,2.8
			c0.1,0.7,0.2,1.9,0.2,3.7v13.9h-3.8V92c0-1.6-0.2-2.7-0.5-3.5c-0.3-0.8-0.8-1.4-1.6-1.8c-0.8-0.5-1.7-0.7-2.7-0.7
			c-1.6,0-3,0.5-4.2,1.6c-1.2,1-1.8,3-1.8,5.9v12.3H840.6z"/>
		<path d="M862.2,81.2l18.1-24.4l-16-22.4h7.4l8.5,12c1.8,2.5,3,4.4,3.8,5.7c1-1.7,2.3-3.5,3.7-5.3l9.4-12.4h6.7l-16.4,22l17.7,24.7
			h-7.7l-11.8-16.7c-0.7-1-1.3-2-2-3.1c-1,1.7-1.8,2.9-2.2,3.5l-11.7,16.3H862.2z"/>
		<path d="M908.4,105.7V83.1h3.4v3.2c1.7-2.5,4.1-3.7,7.2-3.7c1.4,0,2.6,0.2,3.8,0.7c1.1,0.5,2,1.1,2.6,1.9c0.6,0.8,1,1.7,1.2,2.8
			c0.1,0.7,0.2,1.9,0.2,3.7v13.9h-3.8V92c0-1.6-0.2-2.7-0.5-3.5c-0.3-0.8-0.8-1.4-1.6-1.8c-0.8-0.5-1.7-0.7-2.7-0.7
			c-1.6,0-3,0.5-4.2,1.6c-1.2,1-1.8,3-1.8,5.9v12.3H908.4z"/>
	</g>
</g>
</svg>
