<svg version="1.1" viewBox="0.0 0.0 960.0 540.0" fill="none" stroke="none" stroke-linecap="square" stroke-miterlimit="10" xmlns:xlink="http://www.w3.org/1999/xlink" xmlns="http://www.w3.org/2000/svg"><clipPath id="g95da32d36d_1_23.0"><path d="m0 0l960.0 0l0 540.0l-960.0 0l0 -540.0z" clip-rule="nonzero"/></clipPath><g clip-path="url(#g95da32d36d_1_23.0)"><path fill="#ffffff" d="m0 0l960.0 0l0 540.0l-960.0 0z" fill-rule="evenodd"/><path fill="#000000" fill-opacity="0.0" d="m42.816273 20.35433l170.86615 0l0 41.41732l-170.86615 0z" fill-rule="evenodd"/><path fill="#000000" d="m53.660023 53.67433l0 -18.125l13.437504 0l0 3.0625l-9.781254 0l0 4.015625l9.109379 0l0 3.0625l-9.109379 0l0 4.921875l10.125004 0l0 3.0625l-13.781254 0zm28.81554 0l-3.46875 0l0 -6.703125q0 -2.125 -0.234375 -2.75q-0.21875 -0.625 -0.71875 -0.96875q-0.5 -0.34375 -1.203125 -0.34375q-0.90625 0 -1.625 0.5q-0.71875 0.484375 -0.984375 1.296875q-0.265625 0.8125 -0.265625 3.015625l0 5.953125l-3.46875 0l0 -13.140625l3.21875 0l0 1.9375q1.71875 -2.234375 4.328125 -2.234375q1.15625 0 2.109375 0.421875q0.953125 0.40625 1.4375 1.0625q0.484375 0.640625 0.671875 1.453125q0.203125 0.8125 0.203125 2.34375l0 8.15625zm2.2995605 -3.75l3.484375 -0.53125q0.21875 1.015625 0.90625 1.546875q0.6875 0.515625 1.90625 0.515625q1.34375 0 2.03125 -0.484375q0.453125 -0.359375 0.453125 -0.9375q0 -0.390625 -0.25 -0.65625q-0.25 -0.234375 -1.15625 -0.453125q-4.203125 -0.921875 -5.328125 -1.6875q-1.5625 -1.0625 -1.5625 -2.96875q0 -1.703125 1.34375 -2.859375q1.34375 -1.171875 4.1875 -1.171875q2.6875 0 4.0 0.890625q1.3125 0.875 1.8125 2.59375l-3.28125 0.609375q-0.21875 -0.765625 -0.8125 -1.171875q-0.578125 -0.421875 -1.65625 -0.421875q-1.375 0 -1.96875 0.390625q-0.40625 0.265625 -0.40625 0.703125q0 0.375 0.359375 0.625q0.46875 0.34375 3.234375 0.984375q2.78125 0.625 3.890625 1.546875q1.078125 0.921875 1.078125 2.578125q0 1.8125 -1.515625 3.109375q-1.5 1.296875 -4.453125 1.296875q-2.6875 0 -4.25 -1.078125q-1.5625 -1.09375 -2.046875 -2.96875zm22.914429 -0.4375l3.46875 0.59375q-0.671875 1.90625 -2.109375 2.90625q-1.4375 0.984375 -3.609375 0.984375q-3.421875 0 -5.0625 -2.234375q-1.3125 -1.796875 -1.3125 -4.53125q0 -3.265625 1.703125 -5.109375q1.71875 -1.859375 4.328125 -1.859375q2.921875 0 4.609375 1.9375q1.703125 1.9375 1.640625 5.9375l-8.71875 0q0.046875 1.546875 0.84375 2.40625q0.8125 0.859375 2.0 0.859375q0.828125 0 1.375 -0.4375q0.5625 -0.453125 0.84375 -1.453125zm0.203125 -3.5q-0.046875 -1.515625 -0.796875 -2.296875q-0.734375 -0.78125 -1.796875 -0.78125q-1.125 0 -1.875 0.828125q-0.734375 0.828125 -0.734375 2.25l5.203125 0zm6.0238037 -5.453125l3.203125 0l0 1.796875q1.71875 -2.09375 4.09375 -2.09375q1.25 0 2.171875 0.53125q0.9375 0.515625 1.53125 1.5625q0.875 -1.046875 1.875 -1.5625q1.0 -0.53125 2.1406174 -0.53125q1.4375 0 2.4375 0.59375q1.0 0.59375 1.5 1.71875q0.359375 0.84375 0.359375 2.734375l0 8.390625l-3.46875 0l0 -7.5q0 -1.96875 -0.359375 -2.53125q-0.484375 -0.734375 -1.4843674 -0.734375q-0.734375 0 -1.375 0.453125q-0.640625 0.4375 -0.9375 1.296875q-0.28125 0.859375 -0.28125 2.703125l0 6.3125l-3.46875 0l0 -7.203125q0 -1.90625 -0.1875 -2.46875q-0.1875 -0.5625 -0.578125 -0.828125q-0.390625 -0.265625 -1.046875 -0.265625q-0.8125 0 -1.453125 0.4375q-0.640625 0.421875 -0.921875 1.234375q-0.28125 0.8125 -0.28125 2.71875l0 6.375l-3.46875 0l0 -13.140625zm22.630135 13.140625l0 -18.125l3.46875 0l0 6.53125q1.609375 -1.84375 3.8125 -1.84375q2.40625 0 3.96875 1.75q1.578125 1.734375 1.578125 4.984375q0 3.359375 -1.609375 5.1875q-1.59375 1.8125 -3.890625 1.8125q-1.125 0 -2.21875 -0.5625q-1.09375 -0.5625 -1.890625 -1.65625l0 1.921875l-3.21875 0zm3.453125 -6.84375q0 2.03125 0.640625 3.015625q0.90625 1.375 2.390625 1.375q1.15625 0 1.96875 -0.984375q0.8125 -0.984375 0.8125 -3.09375q0 -2.25 -0.828125 -3.234375q-0.8125 -1.0 -2.078125 -1.0q-1.25 0 -2.078125 0.96875q-0.828125 0.96875 -0.828125 2.953125zm12.158936 6.84375l0 -18.125l3.484375 0l0 18.125l-3.484375 0zm14.646347 -4.1875l3.46875 0.59375q-0.671875 1.90625 -2.109375 2.90625q-1.4375 0.984375 -3.609375 0.984375q-3.421875 0 -5.0625 -2.234375q-1.3125 -1.796875 -1.3125 -4.53125q0 -3.265625 1.703125 -5.109375q1.71875 -1.859375 4.328125 -1.859375q2.921875 0 4.609375 1.9375q1.703125 1.9375 1.640625 5.9375l-8.71875 0q0.046875 1.546875 0.84375 2.40625q0.8125 0.859375 2.0 0.859375q0.828125 0 1.375 -0.4375q0.5625 -0.453125 0.84375 -1.453125zm0.203125 -3.5q-0.046875 -1.515625 -0.796875 -2.296875q-0.734375 -0.78125 -1.796875 -0.78125q-1.125 0 -1.875 0.828125q-0.734375 0.828125 -0.734375 2.25l5.203125 0z" fill-rule="nonzero"/><path fill="#000000" d="m53.644398 65.54933l6.6875 0q2.265625 0 3.453125 0.34375q1.5937538 0.46875 2.7343788 1.671875q1.140625 1.1875 1.734375 2.9375q0.59375 1.734375 0.59375 4.28125q0 2.234375 -0.5625 3.859375q-0.671875 1.96875 -1.9375 3.203125q-0.953125 0.921875 -2.5781288 1.4375q-1.203125 0.390625 -3.234375 0.390625l-6.890625 0l0 -18.125zm3.65625 3.0625l0 12.0l2.734375 0q1.53125 0 2.21875 -0.171875q0.890625 -0.21875 1.46875 -0.75q0.5937538 -0.53125 0.9687538 -1.75q0.375 -1.21875 0.375 -3.3125q0 -2.109375 -0.375 -3.234375q-0.375 -1.125 -1.0468788 -1.75q-0.65625 -0.640625 -1.6875 -0.859375q-0.765625 -0.171875 -3.0 -0.171875l-1.65625 0zm14.619297 0.140625l0 -3.203125l3.484375 0l0 3.203125l-3.484375 0zm0 14.921875l0 -13.140625l3.484375 0l0 13.140625l-3.484375 0zm6.786972 -13.140625l3.203125 0l0 1.796875q1.71875 -2.09375 4.09375 -2.09375q1.25 0 2.171875 0.53125q0.9375 0.515625 1.53125 1.5625q0.875 -1.046875 1.875 -1.5625q1.0 -0.53125 2.140625 -0.53125q1.4375 0 2.4375 0.59375q1.0 0.59375 1.5 1.71875q0.359375 0.84375 0.359375 2.734375l0 8.390625l-3.46875 0l0 -7.5q0 -1.96875 -0.359375 -2.53125q-0.484375 -0.734375 -1.484375 -0.734375q-0.734375 0 -1.375 0.453125q-0.640625 0.4375 -0.9375 1.296875q-0.28125 0.859375 -0.28125 2.703125l0 6.3125l-3.46875 0l0 -7.203125q0 -1.90625 -0.1875 -2.46875q-0.1875 -0.5625 -0.578125 -0.828125q-0.390625 -0.265625 -1.046875 -0.265625q-0.8125 0 -1.453125 0.4375q-0.640625 0.421875 -0.921875 1.234375q-0.28125 0.8125 -0.28125 2.71875l0 6.375l-3.46875 0l0 -13.140625zm30.380142 8.953125l3.46875 0.59375q-0.671875 1.90625 -2.109375 2.90625q-1.4375 0.984375 -3.609375 0.984375q-3.421875 0 -5.0625 -2.234375q-1.3125 -1.796875 -1.3125 -4.53125q0 -3.265625 1.703125 -5.109375q1.71875 -1.859375 4.328125 -1.859375q2.921875 0 4.609375 1.9375q1.703125 1.9375 1.640625 5.9375l-8.71875 0q0.046875 1.546875 0.84375 2.40625q0.8125 0.859375 2.0 0.859375q0.828125 0 1.375 -0.4375q0.5625 -0.453125 0.84375 -1.453125zm0.203125 -3.5q-0.046875 -1.515625 -0.796875 -2.296875q-0.734375 -0.78125 -1.796875 -0.78125q-1.125 0 -1.875 0.828125q-0.734375 0.828125 -0.734375 2.25l5.203125 0zm18.226929 7.6875l-3.46875 0l0 -6.703125q0 -2.125 -0.234375 -2.75q-0.21875 -0.625 -0.71875 -0.96875q-0.5 -0.34375 -1.203125 -0.34375q-0.90625 0 -1.625 0.5q-0.71875 0.484375 -0.984375 1.296875q-0.265625 0.8125 -0.265625 3.015625l0 5.953125l-3.46875 0l0 -13.140625l3.21875 0l0 1.9375q1.71875 -2.234375 4.328125 -2.234375q1.15625 0 2.109375 0.421875q0.953125 0.40625 1.4375 1.0625q0.484375 0.640625 0.671875 1.453125q0.203125 0.8125 0.203125 2.34375l0 8.15625zm2.299553 -3.75l3.484375 -0.53125q0.21875 1.015625 0.90625 1.546875q0.6875 0.515625 1.90625 0.515625q1.34375 0 2.03125 -0.484375q0.453125 -0.359375 0.453125 -0.9375q0 -0.390625 -0.25 -0.65625q-0.25 -0.234375 -1.15625 -0.453125q-4.203125 -0.921875 -5.328125 -1.6875q-1.5625 -1.0625 -1.5625 -2.96875q0 -1.703125 1.34375 -2.859375q1.34375 -1.171875 4.1875 -1.171875q2.6875 0 4.0 0.890625q1.3125 0.875 1.8125 2.59375l-3.28125 0.609375q-0.21875 -0.765625 -0.8125 -1.171875q-0.578125 -0.421875 -1.65625 -0.421875q-1.375 0 -1.96875 0.390625q-0.40625 0.265625 -0.40625 0.703125q0 0.375 0.359375 0.625q0.46875 0.34375 3.234375 0.984375q2.78125 0.625 3.890625 1.546875q1.078125 0.921875 1.078125 2.578125q0 1.8125 -1.515625 3.109375q-1.5 1.296875 -4.453125 1.296875q-2.6875 0 -4.25 -1.078125q-1.5625 -1.09375 -2.046875 -2.96875zm15.305054 -11.171875l0 -3.203125l3.484375 0l0 3.203125l-3.484375 0zm0 14.921875l0 -13.140625l3.484375 0l0 13.140625l-3.484375 0zm6.240097 -6.75q0 -1.734375 0.84375 -3.34375q0.859375 -1.625 2.421875 -2.484375q1.5625 -0.859375 3.5 -0.859375q2.984375 0 4.875 1.9375q1.90625 1.9375 1.90625 4.890625q0 2.984375 -1.921875 4.953125q-1.921875 1.953125 -4.84375 1.953125q-1.796875 0 -3.4375 -0.8125q-1.640625 -0.8125 -2.5 -2.390625q-0.84375 -1.578125 -0.84375 -3.84375zm3.5625 0.1875q0 1.953125 0.921875 3.0q0.9375 1.03125 2.296875 1.03125q1.359375 0 2.28125 -1.03125q0.921875 -1.046875 0.921875 -3.03125q0 -1.921875 -0.921875 -2.953125q-0.921875 -1.046875 -2.28125 -1.046875q-1.359375 0 -2.296875 1.046875q-0.921875 1.03125 -0.921875 2.984375zm24.658936 6.5625l-3.46875 0l0 -6.703125q0 -2.125 -0.234375 -2.75q-0.21875 -0.625 -0.71875 -0.96875q-0.5 -0.34375 -1.203125 -0.34375q-0.90625 0 -1.625 0.5q-0.71875 0.484375 -0.984375 1.296875q-0.265625 0.8125 -0.265625 3.015625l0 5.953125l-3.46875 0l0 -13.140625l3.21875 0l0 1.9375q1.71875 -2.234375 4.328125 -2.234375q1.15625 0 2.109375 0.421875q0.953125 0.40625 1.4375 1.0625q0.484375 0.640625 0.671875 1.453125q0.203125 0.8125 0.203125 2.34375l0 8.15625zm2.2995605 -3.75l3.484375 -0.53125q0.21875 1.015625 0.90625 1.546875q0.6875 0.515625 1.90625 0.515625q1.34375 0 2.03125 -0.484375q0.453125 -0.359375 0.453125 -0.9375q0 -0.390625 -0.25 -0.65625q-0.25 -0.234375 -1.15625 -0.453125q-4.203125 -0.921875 -5.328125 -1.6875q-1.5625 -1.0625 -1.5625 -2.96875q0 -1.703125 1.34375 -2.859375q1.34375 -1.171875 4.1875 -1.171875q2.6875 0 4.0 0.890625q1.3125 0.875 1.8125 2.59375l-3.28125 0.609375q-0.21875 -0.765625 -0.8125 -1.171875q-0.578125 -0.421875 -1.65625 -0.421875q-1.375 0 -1.96875 0.390625q-0.40625 0.265625 -0.40625 0.703125q0 0.375 0.359375 0.625q0.46875 0.34375 3.234375 0.984375q2.78125 0.625 3.890625 1.546875q1.078125 0.921875 1.078125 2.578125q0 1.8125 -1.515625 3.109375q-1.5 1.296875 -4.453125 1.296875q-2.6875 0 -4.25 -1.078125q-1.5625 -1.09375 -2.046875 -2.96875z" fill-rule="nonzero"/><path fill="#000000" fill-opacity="0.0" d="m209.86942 69.77245l606.2677 0" fill-rule="evenodd"/><path stroke="#000000" stroke-width="4.0" stroke-linejoin="round" stroke-linecap="butt" d="m209.86942 69.77245l582.2677 0" fill-rule="evenodd"/><path fill="#000000" stroke="#000000" stroke-width="4.0" stroke-linecap="butt" d="m792.13715 76.37938l18.152405 -6.606926l-18.152405 -6.60693z" fill-rule="evenodd"/><path fill="#000000" fill-opacity="0.0" d="m132.0918 99.37795l92.37796 0l0 48.566933l-92.37796 0z" fill-rule="evenodd"/><path fill="#000000" d="m146.62305 128.85796l0 -13.46875l-5.03125 0l0 -1.796875l12.09375 0l0 1.796875l-5.046875 0l0 13.46875l-2.015625 0zm8.127029 -13.109375l0 -2.15625l1.875 0l0 2.15625l-1.875 0zm0 13.109375l0 -11.0625l1.875 0l0 11.0625l-1.875 0zm4.722809 0l0 -11.0625l1.671875 0l0 1.546875q0.53125 -0.8125 1.390625 -1.296875q0.859375 -0.5 1.96875 -0.5q1.234375 0 2.015625 0.515625q0.78125 0.5 1.109375 1.421875q1.3125 -1.9375 3.40625 -1.9375q1.65625 0 2.53125 0.921875q0.890625 0.90625 0.890625 2.796875l0 7.59375l-1.859375 0l0 -6.96875q0 -1.125 -0.1875 -1.609375q-0.1875 -0.5 -0.671875 -0.796875q-0.46875 -0.3125 -1.109375 -0.3125q-1.171875 0 -1.9375 0.78125q-0.765625 0.765625 -0.765625 2.484375l0 6.421875l-1.875 0l0 -7.1875q0 -1.25 -0.46875 -1.875q-0.453125 -0.625 -1.5 -0.625q-0.78125 0 -1.453125 0.421875q-0.671875 0.40625 -0.984375 1.21875q-0.296875 0.796875 -0.296875 2.3125l0 5.734375l-1.875 0zm25.34462 -3.5625l1.921875 0.234375q-0.453125 1.703125 -1.6875 2.640625q-1.234375 0.9375 -3.171875 0.9375q-2.421875 0 -3.84375 -1.484375q-1.421875 -1.5 -1.421875 -4.203125q0 -2.796875 1.4375 -4.328125q1.4375 -1.546875 3.734375 -1.546875q2.21875 0 3.609375 1.515625q1.40625 1.5 1.40625 4.25q0 0.15625 0 0.5l-8.25 0q0.109375 1.8125 1.03125 2.78125q0.921875 0.96875 2.3125 0.96875q1.03125 0 1.75 -0.53125q0.734375 -0.546875 1.171875 -1.734375zm-6.15625 -3.03125l6.171875 0q-0.125 -1.390625 -0.703125 -2.09375q-0.90625 -1.078125 -2.328125 -1.078125q-1.296875 0 -2.171875 0.859375q-0.875 0.859375 -0.96875 2.3125zm10.955444 -2.328125l0 -2.140625l2.140625 0l0 2.140625l-2.140625 0zm0 8.921875l0 -2.140625l2.140625 0l0 2.140625l-2.140625 0z" fill-rule="nonzero"/><path fill="#000000" d="m148.68932 180.85796l0 -15.265625l6.78125 0q2.03125 0 3.09375 0.421875q1.0625 0.40625 1.6875 1.453125q0.640625 1.03125 0.640625 2.296875q0 1.609375 -1.046875 2.734375q-1.046875 1.109375 -3.25 1.40625q0.8125 0.390625 1.21875 0.765625q0.890625 0.8125 1.671875 2.03125l2.65625 4.15625l-2.53125 0l-2.015625 -3.171875q-0.890625 -1.375 -1.46875 -2.109375q-0.5625 -0.734375 -1.015625 -1.015625q-0.453125 -0.296875 -0.921875 -0.40625q-0.34375 -0.078125 -1.125 -0.078125l-2.34375 0l0 6.78125l-2.03125 0zm2.03125 -8.53125l4.34375 0q1.375 0 2.15625 -0.28125q0.78125 -0.296875 1.1875 -0.921875q0.40625 -0.625 0.40625 -1.359375q0 -1.09375 -0.78125 -1.78125q-0.78125 -0.703125 -2.484375 -0.703125l-4.828125 0l0 5.046875zm20.355621 8.53125l0 -1.625q-1.296875 1.875 -3.515625 1.875q-0.96875 0 -1.828125 -0.375q-0.84375 -0.375 -1.265625 -0.9375q-0.40625 -0.578125 -0.5625 -1.390625q-0.125 -0.5625 -0.125 -1.75l0 -6.859375l1.875 0l0 6.140625q0 1.46875 0.125 1.96875q0.171875 0.75 0.734375 1.171875q0.578125 0.421875 1.421875 0.421875q0.84375 0 1.578125 -0.4375q0.75 -0.4375 1.046875 -1.171875q0.3125 -0.75 0.3125 -2.171875l0 -5.921875l1.875 0l0 11.0625l-1.671875 0zm4.6116943 0l0 -11.0625l1.6875 0l0 1.578125q1.21875 -1.828125 3.515625 -1.828125q1.0 0 1.84375 0.359375q0.84375 0.359375 1.25 0.953125q0.421875 0.578125 0.59375 1.375q0.09375 0.515625 0.09375 1.828125l0 6.796875l-1.875 0l0 -6.734375q0 -1.140625 -0.21875 -1.703125q-0.21875 -0.578125 -0.78125 -0.90625q-0.546875 -0.34375 -1.296875 -0.34375q-1.203125 0 -2.078125 0.765625q-0.859375 0.75 -0.859375 2.875l0 6.046875l-1.875 0zm12.377319 -8.921875l0 -2.140625l2.140625 0l0 2.140625l-2.140625 0zm0 8.921875l0 -2.140625l2.140625 0l0 2.140625l-2.140625 0z" fill-rule="nonzero"/><path fill="#f6b26b" d="m817.44275 215.26968l0 296.6293l-120.73047 0l0 -296.6293z" fill-rule="evenodd"/><path stroke="#000000" stroke-width="1.0" stroke-linejoin="round" stroke-linecap="butt" d="m817.44275 215.26968l0 296.6293l-120.73047 0l0 -296.6293z" fill-rule="evenodd"/><path fill="#f6b26b" d="m696.6851 215.26968l0 296.6293l-120.73047 0l0 -296.6293z" fill-rule="evenodd"/><path stroke="#000000" stroke-width="1.0" stroke-linejoin="round" stroke-linecap="butt" d="m696.6851 215.26968l0 296.6293l-120.73047 0l0 -296.6293z" fill-rule="evenodd"/><path fill="#f6b26b" d="m575.92755 215.26968l0 296.6293l-120.73047 0l0 -296.6293z" fill-rule="evenodd"/><path stroke="#000000" stroke-width="1.0" stroke-linejoin="round" stroke-linecap="butt" d="m575.92755 215.26968l0 296.6293l-120.73047 0l0 -296.6293z" fill-rule="evenodd"/><path fill="#f6b26b" d="m455.16992 215.26968l0 296.6293l-120.73044 0l0 -296.6293z" fill-rule="evenodd"/><path stroke="#000000" stroke-width="1.0" stroke-linejoin="round" stroke-linecap="butt" d="m455.16992 215.26968l0 296.6293l-120.73044 0l0 -296.6293z" fill-rule="evenodd"/><path fill="#f6b26b" d="m334.41232 215.26968l0 296.6293l-120.73045 0l0 -296.6293z" fill-rule="evenodd"/><path stroke="#000000" stroke-width="1.0" stroke-linejoin="round" stroke-linecap="butt" d="m334.41232 215.26968l0 296.6293l-120.73045 0l0 -296.6293z" fill-rule="evenodd"/><path fill="#000000" fill-opacity="0.0" d="m213.68242 101.85302l119.71654 0l0 41.41732l-119.71654 0z" fill-rule="evenodd"/><path fill="#000000" d="m252.11723 128.77301l0 -5.6562424l-5.15625 -7.703125l2.15625 0l2.640625 4.03125q0.71875 1.125 1.34375 2.265625q0.609375 -1.046875 1.46875 -2.359375l2.5781097 -3.9375l2.0625 0l-5.3281097 7.703125l0 5.6562424l-1.765625 0zm13.386276 -3.1093674l1.6875 0.203125q-0.40625 1.484375 -1.484375 2.3124924q-1.078125 0.8125 -2.765625 0.8125q-2.125 0 -3.375 -1.2968674q-1.234375 -1.3125 -1.234375 -3.671875q0 -2.453125 1.25 -3.796875q1.265625 -1.34375 3.265625 -1.34375q1.9375 0 3.15625 1.328125q1.234375 1.3125 1.234375 3.703125q0 0.15625 0 0.4375l-7.21875 0q0.09375 1.59375 0.90625 2.453125q0.8125 0.84375 2.015625 0.84375q0.90625 0 1.546875 -0.46875q0.640625 -0.484375 1.015625 -1.515625zm-5.390625 -2.65625l5.40625 0q-0.109375 -1.21875 -0.625 -1.828125q-0.78125 -0.953125 -2.03125 -0.953125q-1.125 0 -1.90625 0.765625q-0.765625 0.75 -0.84375 2.015625zm15.453827 4.578125q-0.921875 0.7656174 -1.765625 1.0937424q-0.828125 0.3125 -1.796875 0.3125q-1.59375 0 -2.453125 -0.78125q-0.859375 -0.7812424 -0.859375 -1.9843674q0 -0.71875 0.328125 -1.296875q0.328125 -0.59375 0.84375 -0.9375q0.53125 -0.359375 1.1875 -0.546875q0.46875 -0.125 1.453125 -0.25q1.984375 -0.234375 2.921875 -0.5625q0.015625 -0.34375 0.015625 -0.421875q0 -1.0 -0.46875 -1.421875q-0.625 -0.546875 -1.875 -0.546875q-1.15625 0 -1.703125 0.40625q-0.546875 0.40625 -0.8125 1.421875l-1.609375 -0.21875q0.21875 -1.015625 0.71875 -1.640625q0.5 -0.640625 1.453125 -0.984375q0.953125 -0.34375 2.1875 -0.34375q1.25 0 2.015625 0.296875q0.78125 0.28125 1.140625 0.734375q0.375 0.4375 0.515625 1.109375q0.078125 0.421875 0.078125 1.515625l0 2.1875q0 2.28125 0.109375 2.890625q0.109375 0.5937424 0.40625 1.1562424l-1.703125 0q-0.265625 -0.515625 -0.328125 -1.1874924zm-0.140625 -3.671875q-0.890625 0.375 -2.671875 0.625q-1.015625 0.140625 -1.4375 0.328125q-0.421875 0.1875 -0.65625 0.53125q-0.21875 0.34375 -0.21875 0.78125q0 0.65625 0.5 1.09375q0.5 0.4375 1.453125 0.4375q0.9375 0 1.671875 -0.40625q0.75 -0.421875 1.09375 -1.140625q0.265625 -0.5625 0.265625 -1.640625l0 -0.609375zm4.1882324 4.8593674l0 -9.671867l1.46875 0l0 1.46875q0.5625 -1.03125 1.03125 -1.359375q0.484375 -0.328125 1.0625 -0.328125q0.828125 0 1.6875 0.53125l-0.5625 1.515625q-0.609375 -0.359375 -1.203125 -0.359375q-0.546875 0 -0.96875 0.328125q-0.421875 0.328125 -0.609375 0.890625q-0.28125 0.875 -0.28125 1.921875l0 5.0624924l-1.625 0zm17.13034 0l-1.640625 0l0 -10.453117q-0.59375 0.5625 -1.5625 1.140625q-0.953125 0.5625 -1.71875 0.84375l0 -1.59375q1.375 -0.640625 2.40625 -1.5625q1.03125 -0.921875 1.453125 -1.78125l1.0625 0l0 13.406242z" fill-rule="nonzero"/><path fill="#000000" fill-opacity="0.0" d="m695.1391 101.85302l119.71655 0l0 41.41732l-119.71655 0z" fill-rule="evenodd"/><path fill="#000000" d="m733.5739 128.77301l0 -5.6562424l-5.15625 -7.703125l2.15625 0l2.640625 4.03125q0.71875 1.125 1.34375 2.265625q0.609375 -1.046875 1.46875 -2.359375l2.578125 -3.9375l2.0625 0l-5.328125 7.703125l0 5.6562424l-1.765625 0zm13.3862915 -3.1093674l1.6875 0.203125q-0.40625 1.484375 -1.484375 2.3124924q-1.078125 0.8125 -2.765625 0.8125q-2.125 0 -3.375 -1.2968674q-1.234375 -1.3125 -1.234375 -3.671875q0 -2.453125 1.25 -3.796875q1.265625 -1.34375 3.265625 -1.34375q1.9375 0 3.15625 1.328125q1.234375 1.3125 1.234375 3.703125q0 0.15625 0 0.4375l-7.21875 0q0.09375 1.59375 0.90625 2.453125q0.8125 0.84375 2.015625 0.84375q0.90625 0 1.546875 -0.46875q0.640625 -0.484375 1.015625 -1.515625zm-5.390625 -2.65625l5.40625 0q-0.109375 -1.21875 -0.625 -1.828125q-0.78125 -0.953125 -2.03125 -0.953125q-1.125 0 -1.90625 0.765625q-0.765625 0.75 -0.84375 2.015625zm15.453857 4.578125q-0.921875 0.7656174 -1.765625 1.0937424q-0.828125 0.3125 -1.796875 0.3125q-1.59375 0 -2.453125 -0.78125q-0.859375 -0.7812424 -0.859375 -1.9843674q0 -0.71875 0.328125 -1.296875q0.328125 -0.59375 0.84375 -0.9375q0.53125 -0.359375 1.1875 -0.546875q0.46875 -0.125 1.453125 -0.25q1.984375 -0.234375 2.921875 -0.5625q0.015625 -0.34375 0.015625 -0.421875q0 -1.0 -0.46875 -1.421875q-0.625 -0.546875 -1.875 -0.546875q-1.15625 0 -1.703125 0.40625q-0.546875 0.40625 -0.8125 1.421875l-1.609375 -0.21875q0.21875 -1.015625 0.71875 -1.640625q0.5 -0.640625 1.453125 -0.984375q0.953125 -0.34375 2.1875 -0.34375q1.25 0 2.015625 0.296875q0.78125 0.28125 1.140625 0.734375q0.375 0.4375 0.515625 1.109375q0.078125 0.421875 0.078125 1.515625l0 2.1875q0 2.28125 0.109375 2.890625q0.109375 0.5937424 0.40625 1.1562424l-1.703125 0q-0.265625 -0.515625 -0.328125 -1.1874924zm-0.140625 -3.671875q-0.890625 0.375 -2.671875 0.625q-1.015625 0.140625 -1.4375 0.328125q-0.421875 0.1875 -0.65625 0.53125q-0.21875 0.34375 -0.21875 0.78125q0 0.65625 0.5 1.09375q0.5 0.4375 1.453125 0.4375q0.9375 0 1.671875 -0.40625q0.75 -0.421875 1.09375 -1.140625q0.265625 -0.5625 0.265625 -1.640625l0 -0.609375zm4.1881714 4.8593674l0 -9.671867l1.46875 0l0 1.46875q0.5625 -1.03125 1.03125 -1.359375q0.484375 -0.328125 1.0625 -0.328125q0.828125 0 1.6875 0.53125l-0.5625 1.515625q-0.609375 -0.359375 -1.203125 -0.359375q-0.546875 0 -0.96875 0.328125q-0.421875 0.328125 -0.609375 0.890625q-0.28125 0.875 -0.28125 1.921875l0 5.0624924l-1.625 0zm17.130371 0l-1.640625 0l0 -10.453117q-0.59375 0.5625 -1.5625 1.140625q-0.953125 0.5625 -1.71875 0.84375l0 -1.59375q1.375 -0.640625 2.40625 -1.5625q1.03125 -0.921875 1.453125 -1.78125l1.0625 0l0 13.406242z" fill-rule="nonzero"/><path fill="#000000" fill-opacity="0.0" d="m333.39896 101.85302l119.71652 0l0 41.41732l-119.71652 0z" fill-rule="evenodd"/><path fill="#000000" d="m371.83377 128.77301l0 -5.6562424l-5.15625 -7.703125l2.15625 0l2.640625 4.03125q0.71875 1.125 1.34375 2.265625q0.609375 -1.046875 1.46875 -2.359375l2.578125 -3.9375l2.0625 0l-5.328125 7.703125l0 5.6562424l-1.765625 0zm13.386261 -3.1093674l1.6875 0.203125q-0.40625 1.484375 -1.484375 2.3124924q-1.078125 0.8125 -2.765625 0.8125q-2.125 0 -3.375 -1.2968674q-1.234375 -1.3125 -1.234375 -3.671875q0 -2.453125 1.25 -3.796875q1.265625 -1.34375 3.265625 -1.34375q1.9375 0 3.15625 1.328125q1.234375 1.3125 1.234375 3.703125q0 0.15625 0 0.4375l-7.21875 0q0.09375 1.59375 0.90625 2.453125q0.8125 0.84375 2.015625 0.84375q0.90625 0 1.546875 -0.46875q0.640625 -0.484375 1.015625 -1.515625zm-5.390625 -2.65625l5.40625 0q-0.109375 -1.21875 -0.625 -1.828125q-0.78125 -0.953125 -2.03125 -0.953125q-1.125 0 -1.90625 0.765625q-0.765625 0.75 -0.84375 2.015625zm15.453857 4.578125q-0.921875 0.7656174 -1.765625 1.0937424q-0.828125 0.3125 -1.796875 0.3125q-1.59375 0 -2.453125 -0.78125q-0.859375 -0.7812424 -0.859375 -1.9843674q0 -0.71875 0.328125 -1.296875q0.328125 -0.59375 0.84375 -0.9375q0.53125 -0.359375 1.1875 -0.546875q0.46875 -0.125 1.453125 -0.25q1.984375 -0.234375 2.921875 -0.5625q0.015625 -0.34375 0.015625 -0.421875q0 -1.0 -0.46875 -1.421875q-0.625 -0.546875 -1.875 -0.546875q-1.15625 0 -1.703125 0.40625q-0.546875 0.40625 -0.8125 1.421875l-1.609375 -0.21875q0.21875 -1.015625 0.71875 -1.640625q0.5 -0.640625 1.453125 -0.984375q0.953125 -0.34375 2.1875 -0.34375q1.25 0 2.015625 0.296875q0.78125 0.28125 1.140625 0.734375q0.375 0.4375 0.515625 1.109375q0.078125 0.421875 0.078125 1.515625l0 2.1875q0 2.28125 0.109375 2.890625q0.109375 0.5937424 0.40625 1.1562424l-1.703125 0q-0.265625 -0.515625 -0.328125 -1.1874924zm-0.140625 -3.671875q-0.890625 0.375 -2.671875 0.625q-1.015625 0.140625 -1.4375 0.328125q-0.421875 0.1875 -0.65625 0.53125q-0.21875 0.34375 -0.21875 0.78125q0 0.65625 0.5 1.09375q0.5 0.4375 1.453125 0.4375q0.9375 0 1.671875 -0.40625q0.75 -0.421875 1.09375 -1.140625q0.265625 -0.5625 0.265625 -1.640625l0 -0.609375zm4.188202 4.8593674l0 -9.671867l1.46875 0l0 1.46875q0.5625 -1.03125 1.03125 -1.359375q0.484375 -0.328125 1.0625 -0.328125q0.828125 0 1.6875 0.53125l-0.5625 1.515625q-0.609375 -0.359375 -1.203125 -0.359375q-0.546875 0 -0.96875 0.328125q-0.421875 0.328125 -0.609375 0.890625q-0.28125 0.875 -0.28125 1.921875l0 5.0624924l-1.625 0zm10.958496 -3.4999924l1.71875 -0.140625q0.1875 1.25 0.875 1.890625q0.703125 0.625 1.6875 0.625q1.1875 0 2.0 -0.890625q0.828125 -0.890625 0.828125 -2.359375q0 -1.40625 -0.796875 -2.21875q-0.78125 -0.8125 -2.0625 -0.8125q-0.78125 0 -1.421875 0.359375q-0.640625 0.359375 -1.0 0.9375l-1.546875 -0.203125l1.296875 -6.859375l6.640625 0l0 1.5625l-5.328125 0l-0.71875 3.59375q1.203125 -0.84375 2.515625 -0.84375q1.75 0 2.953125 1.21875q1.203125 1.203125 1.203125 3.109375q0 1.8125 -1.046875 3.140625q-1.296875 1.6249924 -3.515625 1.6249924q-1.8125 0 -2.96875 -1.0156174q-1.15625 -1.03125 -1.3125 -2.71875z" fill-rule="nonzero"/><path fill="#000000" fill-opacity="0.0" d="m455.7047 101.85302l119.71655 0l0 41.41732l-119.71655 0z" fill-rule="evenodd"/><path fill="#000000" d="m488.9517 128.77301l0 -5.6562424l-5.15625 -7.703125l2.15625 0l2.640625 4.03125q0.71875 1.125 1.34375 2.265625q0.609375 -1.046875 1.46875 -2.359375l2.578125 -3.9375l2.0625 0l-5.328125 7.703125l0 5.6562424l-1.765625 0zm13.386261 -3.1093674l1.6875 0.203125q-0.40625 1.484375 -1.484375 2.3124924q-1.078125 0.8125 -2.765625 0.8125q-2.125 0 -3.375 -1.2968674q-1.234375 -1.3125 -1.234375 -3.671875q0 -2.453125 1.25 -3.796875q1.265625 -1.34375 3.265625 -1.34375q1.9375 0 3.15625 1.328125q1.234375 1.3125 1.234375 3.703125q0 0.15625 0 0.4375l-7.21875 0q0.09375 1.59375 0.90625 2.453125q0.8125 0.84375 2.015625 0.84375q0.90625 0 1.546875 -0.46875q0.640625 -0.484375 1.015625 -1.515625zm-5.390625 -2.65625l5.40625 0q-0.109375 -1.21875 -0.625 -1.828125q-0.78125 -0.953125 -2.03125 -0.953125q-1.125 0 -1.90625 0.765625q-0.765625 0.75 -0.84375 2.015625zm15.453857 4.578125q-0.921875 0.7656174 -1.765625 1.0937424q-0.828125 0.3125 -1.796875 0.3125q-1.59375 0 -2.453125 -0.78125q-0.859375 -0.7812424 -0.859375 -1.9843674q0 -0.71875 0.328125 -1.296875q0.328125 -0.59375 0.84375 -0.9375q0.53125 -0.359375 1.1875 -0.546875q0.46875 -0.125 1.453125 -0.25q1.984375 -0.234375 2.921875 -0.5625q0.015625 -0.34375 0.015625 -0.421875q0 -1.0 -0.46875 -1.421875q-0.625 -0.546875 -1.875 -0.546875q-1.15625 0 -1.703125 0.40625q-0.546875 0.40625 -0.8125 1.421875l-1.609375 -0.21875q0.21875 -1.015625 0.71875 -1.640625q0.5 -0.640625 1.453125 -0.984375q0.953125 -0.34375 2.1875 -0.34375q1.25 0 2.015625 0.296875q0.78125 0.28125 1.140625 0.734375q0.375 0.4375 0.515625 1.109375q0.078125 0.421875 0.078125 1.515625l0 2.1875q0 2.28125 0.109375 2.890625q0.109375 0.5937424 0.40625 1.1562424l-1.703125 0q-0.265625 -0.515625 -0.328125 -1.1874924zm-0.140625 -3.671875q-0.890625 0.375 -2.671875 0.625q-1.015625 0.140625 -1.4375 0.328125q-0.421875 0.1875 -0.65625 0.53125q-0.21875 0.34375 -0.21875 0.78125q0 0.65625 0.5 1.09375q0.5 0.4375 1.453125 0.4375q0.9375 0 1.671875 -0.40625q0.75 -0.421875 1.09375 -1.140625q0.265625 -0.5625 0.265625 -1.640625l0 -0.609375zm4.1882324 4.8593674l0 -9.671867l1.46875 0l0 1.46875q0.5625 -1.03125 1.03125 -1.359375q0.484375 -0.328125 1.0625 -0.328125q0.828125 0 1.6875 0.53125l-0.5625 1.515625q-0.609375 -0.359375 -1.203125 -0.359375q-0.546875 0 -0.96875 0.328125q-0.421875 0.328125 -0.609375 0.890625q-0.28125 0.875 -0.28125 1.921875l0 5.0624924l-1.625 0zm17.13031 0l-1.640625 0l0 -10.453117q-0.59375 0.5625 -1.5625 1.140625q-0.953125 0.5625 -1.71875 0.84375l0 -1.59375q1.375 -0.640625 2.40625 -1.5625q1.03125 -0.921875 1.453125 -1.78125l1.0625 0l0 13.406242zm4.4382324 -3.0937424l1.578125 -0.140625q0.203125 1.109375 0.765625 1.609375q0.5625 0.5 1.453125 0.5q0.75 0 1.3125 -0.34375q0.578125 -0.34375 0.9375 -0.921875q0.375 -0.578125 0.609375 -1.5625q0.25 -0.984375 0.25 -2.0q0 -0.109375 0 -0.328125q-0.5 0.78125 -1.359375 1.265625q-0.84375 0.484375 -1.828125 0.484375q-1.671875 0 -2.8125 -1.203125q-1.140625 -1.203125 -1.140625 -3.171875q0 -2.03125 1.1875 -3.265625q1.203125 -1.234375 3.0 -1.234375q1.3125 0 2.390625 0.703125q1.078125 0.703125 1.640625 2.0q0.5625 1.296875 0.5625 3.75q0 2.5625 -0.5625 4.078125q-0.5625 1.515625 -1.65625 2.3124924q-1.09375 0.796875 -2.578125 0.796875q-1.5625 0 -2.5625 -0.875q-0.984375 -0.8749924 -1.1875 -2.4531174zm6.71875 -5.890625q0 -1.40625 -0.75 -2.234375q-0.75 -0.828125 -1.8125 -0.828125q-1.09375 0 -1.90625 0.890625q-0.8125 0.890625 -0.8125 2.3125q0 1.28125 0.765625 2.078125q0.78125 0.796875 1.90625 0.796875q1.140625 0 1.875 -0.796875q0.734375 -0.796875 0.734375 -2.21875z" fill-rule="nonzero"/><path fill="#000000" fill-opacity="0.0" d="m575.42255 103.35171l119.71655 0l0 41.41732l-119.71655 0z" fill-rule="evenodd"/><path fill="#000000" d="m608.66956 130.2717l0 -5.6562424l-5.15625 -7.703125l2.15625 0l2.640625 4.03125q0.71875 1.125 1.34375 2.265625q0.609375 -1.046875 1.46875 -2.359375l2.578125 -3.9375l2.0625 0l-5.328125 7.703125l0 5.6562424l-1.765625 0zm13.38623 -3.1093674l1.6875 0.203125q-0.40625 1.4843674 -1.484375 2.3124924q-1.078125 0.8125 -2.765625 0.8125q-2.125 0 -3.375 -1.296875q-1.234375 -1.3124924 -1.234375 -3.6718674q0 -2.453125 1.25 -3.796875q1.265625 -1.34375 3.265625 -1.34375q1.9375 0 3.15625 1.328125q1.234375 1.3125 1.234375 3.703125q0 0.15625 0 0.4375l-7.21875 0q0.09375 1.59375 0.90625 2.4531174q0.8125 0.84375 2.015625 0.84375q0.90625 0 1.546875 -0.46875q0.640625 -0.484375 1.015625 -1.5156174zm-5.390625 -2.65625l5.40625 0q-0.109375 -1.21875 -0.625 -1.828125q-0.78125 -0.953125 -2.03125 -0.953125q-1.125 0 -1.90625 0.765625q-0.765625 0.75 -0.84375 2.015625zm15.453857 4.5781174q-0.921875 0.765625 -1.765625 1.09375q-0.828125 0.3125 -1.796875 0.3125q-1.59375 0 -2.453125 -0.78125q-0.859375 -0.78125 -0.859375 -1.9843674q0 -0.71875 0.328125 -1.296875q0.328125 -0.59375 0.84375 -0.9375q0.53125 -0.359375 1.1875 -0.546875q0.46875 -0.125 1.453125 -0.25q1.984375 -0.234375 2.921875 -0.5625q0.015625 -0.34375 0.015625 -0.421875q0 -1.0 -0.46875 -1.421875q-0.625 -0.546875 -1.875 -0.546875q-1.15625 0 -1.703125 0.40625q-0.546875 0.40625 -0.8125 1.421875l-1.609375 -0.21875q0.21875 -1.015625 0.71875 -1.640625q0.5 -0.640625 1.453125 -0.984375q0.953125 -0.34375 2.1875 -0.34375q1.25 0 2.015625 0.296875q0.78125 0.28125 1.140625 0.734375q0.375 0.4375 0.515625 1.109375q0.078125 0.421875 0.078125 1.515625l0 2.1875q0 2.2812424 0.109375 2.8906174q0.109375 0.59375 0.40625 1.15625l-1.703125 0q-0.265625 -0.515625 -0.328125 -1.1875zm-0.140625 -3.6718674q-0.890625 0.375 -2.671875 0.625q-1.015625 0.140625 -1.4375 0.328125q-0.421875 0.1875 -0.65625 0.53125q-0.21875 0.34375 -0.21875 0.78125q0 0.6562424 0.5 1.0937424q0.5 0.4375 1.453125 0.4375q0.9375 0 1.671875 -0.40625q0.75 -0.421875 1.09375 -1.1406174q0.265625 -0.5625 0.265625 -1.640625l0 -0.609375zm4.1882324 4.8593674l0 -9.671867l1.46875 0l0 1.46875q0.5625 -1.03125 1.03125 -1.359375q0.484375 -0.328125 1.0625 -0.328125q0.828125 0 1.6875 0.53125l-0.5625 1.515625q-0.609375 -0.359375 -1.203125 -0.359375q-0.546875 0 -0.96875 0.328125q-0.421875 0.328125 -0.609375 0.890625q-0.28125 0.875 -0.28125 1.921875l0 5.0624924l-1.625 0zm19.567871 -1.578125l0 1.578125l-8.828125 0q-0.015625 -0.59375 0.1875 -1.140625q0.34375 -0.90625 1.078125 -1.7812424q0.75 -0.875 2.15625 -2.015625q2.171875 -1.78125 2.9375 -2.828125q0.765625 -1.046875 0.765625 -1.96875q0 -0.984375 -0.703125 -1.640625q-0.6875 -0.671875 -1.8125 -0.671875q-1.1875 0 -1.90625 0.71875q-0.703125 0.703125 -0.703125 1.953125l-1.6875 -0.171875q0.171875 -1.890625 1.296875 -2.875q1.140625 -0.984375 3.03125 -0.984375q1.921875 0 3.046875 1.0625q1.125 1.0625 1.125 2.640625q0 0.796875 -0.328125 1.578125q-0.328125 0.78125 -1.09375 1.640625q-0.75 0.84375 -2.53125 2.34375q-1.46875 1.234375 -1.890625 1.6875q-0.421875 0.43749237 -0.6875 0.8749924l6.546875 0zm1.8756714 -10.031242l0 -1.578125l8.640625 0l0 1.28125q-1.28125 1.359375 -2.53125 3.609375q-1.25 2.25 -1.9375 4.625q-0.484375 1.6718674 -0.625 3.6718674l-1.6875 0q0.03125 -1.578125 0.625 -3.8124924q0.59375 -2.234375 1.6875 -4.296875q1.109375 -2.078125 2.359375 -3.5l-6.53125 0z" fill-rule="nonzero"/><path fill="#000000" fill-opacity="0.0" d="m213.68242 150.56168l119.71654 0l0 41.417328l-119.71654 0z" fill-rule="evenodd"/><path fill="#000000" d="m275.30594 177.48167l-1.640625 0l0 -10.453125q-0.59375 0.5625 -1.5625 1.140625q-0.953125 0.5625 -1.71875 0.84375l0 -1.59375q1.375 -0.640625 2.40625 -1.5625q1.03125 -0.921875 1.453125 -1.78125l1.0625 0l0 13.40625z" fill-rule="nonzero"/><path fill="#000000" fill-opacity="0.0" d="m333.39896 150.56168l119.71652 0l0 41.417328l-119.71652 0z" fill-rule="evenodd"/><path fill="#000000" d="m395.0225 177.48167l-1.640625 0l0 -10.453125q-0.59375 0.5625 -1.5625 1.140625q-0.953125 0.5625 -1.71875 0.84375l0 -1.59375q1.375 -0.640625 2.40625 -1.5625q1.03125 -0.921875 1.453125 -1.78125l1.0625 0l0 13.40625z" fill-rule="nonzero"/><path fill="#000000" fill-opacity="0.0" d="m455.70602 150.56168l119.71652 0l0 41.417328l-119.71652 0z" fill-rule="evenodd"/><path fill="#000000" d="m517.3296 177.48167l-1.640625 0l0 -10.453125q-0.59375 0.5625 -1.5625 1.140625q-0.953125 0.5625 -1.71875 0.84375l0 -1.59375q1.375 -0.640625 2.40625 -1.5625q1.03125 -0.921875 1.453125 -1.78125l1.0625 0l0 13.40625z" fill-rule="nonzero"/><path fill="#000000" fill-opacity="0.0" d="m575.42255 150.56168l119.71655 0l0 41.417328l-119.71655 0z" fill-rule="evenodd"/><path fill="#000000" d="m637.0461 177.48167l-1.640625 0l0 -10.453125q-0.59375 0.5625 -1.5625 1.140625q-0.953125 0.5625 -1.71875 0.84375l0 -1.59375q1.375 -0.640625 2.40625 -1.5625q1.03125 -0.921875 1.453125 -1.78125l1.0625 0l0 13.40625z" fill-rule="nonzero"/><path fill="#000000" fill-opacity="0.0" d="m697.7297 150.56168l119.71649 0l0 41.417328l-119.71649 0z" fill-rule="evenodd"/><path fill="#000000" d="m761.7907 175.90355l0 1.578125l-8.828125 0q-0.015625 -0.59375 0.1875 -1.140625q0.34375 -0.90625 1.078125 -1.78125q0.75 -0.875 2.15625 -2.015625q2.171875 -1.78125 2.9375 -2.828125q0.765625 -1.046875 0.765625 -1.96875q0 -0.984375 -0.703125 -1.640625q-0.6875 -0.671875 -1.8125 -0.671875q-1.1875 0 -1.90625 0.71875q-0.703125 0.703125 -0.703125 1.953125l-1.6875 -0.171875q0.171875 -1.890625 1.296875 -2.875q1.140625 -0.984375 3.03125 -0.984375q1.921875 0 3.046875 1.0625q1.125 1.0625 1.125 2.640625q0 0.796875 -0.328125 1.578125q-0.328125 0.78125 -1.09375 1.640625q-0.75 0.84375 -2.53125 2.34375q-1.46875 1.234375 -1.890625 1.6875q-0.421875 0.4375 -0.6875 0.875l6.546875 0z" fill-rule="nonzero"/></g></svg>