<svg version="1.1" viewBox="0.0 0.0 960.0 540.0" fill="none" stroke="none" stroke-linecap="square" stroke-miterlimit="10" xmlns:xlink="http://www.w3.org/1999/xlink" xmlns="http://www.w3.org/2000/svg"><clipPath id="p.0"><path d="m0 0l960.0 0l0 540.0l-960.0 0l0 -540.0z" clip-rule="nonzero"/></clipPath><g clip-path="url(#p.0)"><path fill="#ffffff" d="m0 0l960.0 0l0 540.0l-960.0 0z" fill-rule="evenodd"/><path fill="#000000" fill-opacity="0.0" d="m383.22833 0.81889766l0 349.5118" fill-rule="evenodd"/><path stroke="#000000" stroke-width="2.0" stroke-linejoin="round" stroke-linecap="butt" d="m383.22833 0.81889766l0 349.5118" fill-rule="evenodd"/><path fill="#000000" fill-opacity="0.0" d="m731.42255 350.3517l-348.18896 0" fill-rule="evenodd"/><path stroke="#000000" stroke-width="2.0" stroke-linejoin="round" stroke-linecap="butt" d="m731.42255 350.3517l-348.18896 0" fill-rule="evenodd"/><path fill="#000000" fill-opacity="0.0" d="m737.92914 314.88452l191.27557 0l0 36.44095l-191.27557 0z" fill-rule="evenodd"/><path fill="#000000" d="m749.38226 354.60452l0 -22.71875l4.625 0l0 18.859375l11.5 0l0 3.859375l-16.125 0zm18.375 -8.53125q0 -2.1875 1.078125 -4.234375q1.078125 -2.046875 3.046875 -3.125q1.984375 -1.078125 4.421875 -1.078125q3.765625 0 6.171875 2.453125q2.40625 2.4375 2.40625 6.171875q0 3.765625 -2.4375 6.25q-2.421875 2.46875 -6.109375 2.46875q-2.28125 0 -4.359375 -1.03125q-2.0625 -1.03125 -3.140625 -3.015625q-1.078125 -2.0 -1.078125 -4.859375zm4.5 0.234375q0 2.46875 1.171875 3.78125q1.171875 1.3125 2.890625 1.3125q1.71875 0 2.875 -1.3125q1.171875 -1.3125 1.171875 -3.8125q0 -2.4375 -1.171875 -3.75q-1.15625 -1.3125 -2.875 -1.3125q-1.71875 0 -2.890625 1.3125q-1.171875 1.3125 -1.171875 3.78125zm31.15625 8.296875l-4.390625 0l0 -8.46875q0 -2.6875 -0.28125 -3.46875q-0.28125 -0.796875 -0.921875 -1.234375q-0.625 -0.4375 -1.515625 -0.4375q-1.140625 0 -2.046875 0.625q-0.90625 0.625 -1.25 1.65625q-0.328125 1.03125 -0.328125 3.8125l0 7.515625l-4.390625 0l0 -16.59375l4.078125 0l0 2.4375q2.171875 -2.8125 5.46875 -2.8125q1.453125 0 2.65625 0.53125q1.203125 0.515625 1.8125 1.328125q0.625 0.8125 0.859375 1.84375q0.25 1.03125 0.25 2.953125l0 10.3125zm4.046875 1.09375l5.015625 0.609375q0.125 0.875 0.578125 1.203125q0.625 0.46875 1.96875 0.46875q1.71875 0 2.578125 -0.515625q0.578125 -0.34375 0.875 -1.109375q0.203125 -0.546875 0.203125 -2.015625l0 -2.421875q-1.96875 2.6875 -4.96875 2.6875q-3.34375 0 -5.296875 -2.828125q-1.53125 -2.234375 -1.53125 -5.5625q0 -4.171875 2.0 -6.375q2.015625 -2.203125 5.0 -2.203125q3.078125 0 5.078125 2.703125l0 -2.328125l4.109375 0l0 14.890625q0 2.9375 -0.484375 4.390625q-0.484375 1.453125 -1.359375 2.28125q-0.875 0.828125 -2.34375 1.296875q-1.453125 0.46875 -3.6875 0.46875q-4.21875 0 -5.984375 -1.453125q-1.765625 -1.4375 -1.765625 -3.65625q0 -0.21875 0.015625 -0.53125zm3.921875 -9.734375q0 2.640625 1.015625 3.875q1.03125 1.21875 2.53125 1.21875q1.609375 0 2.71875 -1.25q1.109375 -1.265625 1.109375 -3.734375q0 -2.578125 -1.0625 -3.828125q-1.0625 -1.25 -2.6875 -1.25q-1.578125 0 -2.609375 1.234375q-1.015625 1.21875 -1.015625 3.734375zm16.03125 -10.203125l0 -4.0625l4.390625 0l0 4.0625l-4.390625 0zm0 18.84375l0 -16.59375l4.390625 0l0 16.59375l-4.390625 0zm16.5 -16.59375l0 3.5l-3.0 0l0 6.6875q0 2.03125 0.078125 2.375q0.09375 0.328125 0.390625 0.546875q0.3125 0.21875 0.75 0.21875q0.609375 0 1.765625 -0.421875l0.375 3.40625q-1.53125 0.65625 -3.46875 0.65625q-1.1875 0 -2.140625 -0.390625q-0.953125 -0.40625 -1.40625 -1.03125q-0.4375 -0.640625 -0.609375 -1.71875q-0.140625 -0.765625 -0.140625 -3.09375l0 -7.234375l-2.015625 0l0 -3.5l2.015625 0l0 -3.296875l4.40625 -2.5625l0 5.859375l3.0 0zm13.96875 16.59375l0 -2.484375q-0.90625 1.328125 -2.390625 2.09375q-1.46875 0.765625 -3.109375 0.765625q-1.671875 0 -3.0 -0.734375q-1.328125 -0.734375 -1.921875 -2.0625q-0.59375 -1.328125 -0.59375 -3.671875l0 -10.5l4.390625 0l0 7.625q0 3.5 0.234375 4.296875q0.25 0.78125 0.890625 1.25q0.640625 0.453125 1.625 0.453125q1.125 0 2.015625 -0.609375q0.890625 -0.625 1.21875 -1.53125q0.328125 -0.921875 0.328125 -4.484375l0 -7.0l4.390625 0l0 16.59375l-4.078125 0zm23.84375 0l-4.078125 0l0 -2.4375q-1.015625 1.421875 -2.40625 2.125q-1.375 0.6875 -2.78125 0.6875q-2.859375 0 -4.90625 -2.296875q-2.03125 -2.3125 -2.03125 -6.4375q0 -4.21875 1.984375 -6.40625q1.984375 -2.203125 5.015625 -2.203125q2.78125 0 4.8125 2.3125l0 -8.25l4.390625 0l0 22.90625zm-11.71875 -8.65625q0 2.65625 0.734375 3.84375q1.0625 1.71875 2.96875 1.71875q1.515625 0 2.578125 -1.28125q1.0625 -1.296875 1.0625 -3.859375q0 -2.859375 -1.03125 -4.109375q-1.03125 -1.265625 -2.640625 -1.265625q-1.5625 0 -2.625 1.25q-1.046875 1.234375 -1.046875 3.703125zm25.65625 3.375l4.375 0.734375q-0.84375 2.40625 -2.671875 3.671875q-1.8125 1.25 -4.546875 1.25q-4.328125 0 -6.40625 -2.828125q-1.640625 -2.265625 -1.640625 -5.71875q0 -4.125 2.15625 -6.453125q2.15625 -2.34375 5.453125 -2.34375q3.703125 0 5.84375 2.453125q2.140625 2.4375 2.046875 7.484375l-11.0 0q0.046875 1.953125 1.0625 3.046875q1.015625 1.078125 2.53125 1.078125q1.03125 0 1.734375 -0.5625q0.703125 -0.5625 1.0625 -1.8125zm0.25 -4.4375q-0.046875 -1.90625 -0.984375 -2.890625q-0.9375 -1.0 -2.28125 -1.0q-1.4375 0 -2.375 1.046875q-0.9375 1.046875 -0.921875 2.84375l6.5625 0z" fill-rule="nonzero"/><path fill="#000000" fill-opacity="0.0" d="m235.26482 0.81889737l147.937 0.062992156l0 36.440945l-147.937 -0.062992096z" fill-rule="evenodd"/><path fill="#000000" d="m246.71794 40.543777l0 -22.71875l4.625 0.0019683838l0 18.859379l11.499985 0.0048942566l0 3.859375l-16.124985 -0.006866455zm22.67186 -11.521595l-3.984375 -0.72044754q0.671875 -2.405964 2.3125 -3.5615158q1.640625 -1.1555519 4.875 -1.1541748q2.9375 0.0012512207 4.375 0.7049885q1.4375 0.68811226 2.015625 1.7664833q0.59375 1.0627537 0.59375 3.9221287l-0.046875 5.124981q0 2.1875 0.203125 3.2344627q0.21875 1.0313416 0.796875 2.2190895l-4.34375 -0.0018501282q-0.171875 -0.43757248 -0.421875 -1.2970543q-0.109375 -0.3906746 -0.15625 -0.51569366q-1.125 1.0932732 -2.40625 1.6396027q-1.28125 0.5463295 -2.734375 0.5457077q-2.5625 -0.0010910034 -4.046875 -1.3923454q-1.46875 -1.3912506 -1.46875 -3.5162506q0 -1.40625 0.671875 -2.499714q0.671875 -1.1090889 1.875 -1.6867027q1.21875 -0.5932312 3.5 -1.0297604q3.078125 -0.57681465 4.265625 -1.0763092l0 -0.4375q0 -1.265625 -0.625 -1.7971401q-0.625 -0.547142 -2.359375 -0.5478802q-1.171875 -4.9972534E-4 -1.828125 0.4679718q-0.65625 0.45284462 -1.0625 1.608923zm5.875 3.5650024q-0.84375 0.2808876 -2.671875 0.6707344q-1.828125 0.3898468 -2.390625 0.7646103q-0.859375 0.6090088 -0.859375 1.5465088q0 0.921875 0.6875 1.5940437q0.6875 0.6721649 1.75 0.67261887q1.1875 5.0354004E-4 2.265625 -0.7802849q0.796875 -0.5934105 1.046875 -1.4526787q0.171875 -0.5624275 0.171875 -2.1405525l0 -0.875zm16.25 -8.618082l0 3.5l-3.0 -0.0012779236l0 6.687502q0 2.03125 0.078125 2.3750305q0.09375 0.32816696 0.390625 0.54704285q0.3125 0.21888351 0.75 0.21907043q0.609375 2.593994E-4 1.765625 -0.4211235l0.375 3.4064102q-1.53125 0.6555977 -3.46875 0.6547737q-1.1875 -5.0735474E-4 -2.140625 -0.3915367q-0.953125 -0.40665817 -1.40625 -1.0318489q-0.4375 -0.6408119 -0.609375 -1.7190094q-0.140625 -0.76568604 -0.140625 -3.093811l0 -7.234377l-2.015625 -8.583069E-4l0 -3.5l2.015625 8.583069E-4l0 -3.296875l4.40625 -2.5606232l0 5.859375l3.0 0.0012779236zm3.046875 -2.248703l0 -4.0625l4.390625 0.0018692017l0 4.0625l-4.390625 -0.0018692017zm0 18.843752l0 -16.593752l4.390625 0.0018692017l0 16.593752l-4.390625 -0.0018692017zm16.5 -16.586727l0 3.500002l-3.0 -0.0012779236l0 6.687502q0 2.03125 0.078125 2.3750305q0.09375 0.32816696 0.390625 0.54704285q0.3125 0.21888351 0.75 0.21907043q0.609375 2.593994E-4 1.765625 -0.4211235l0.375 3.4064102q-1.53125 0.6555977 -3.46875 0.6547737q-1.1875 -5.0735474E-4 -2.140625 -0.3915367q-0.953125 -0.40665817 -1.40625 -1.0318489q-0.4375 -0.6408119 -0.609375 -1.7190132q-0.140625 -0.7656822 -0.140625 -3.0938072l0 -7.234377l-2.015625 -8.583069E-4l0 -3.5l2.015625 8.583069E-4l0 -3.296875l4.40625 -2.560625l0 5.859377l3.0 0.0012760162zm13.96875 16.5997l0 -2.484375q-0.90625 1.3277397 -2.390625 2.0927315q-1.46875 0.7649994 -3.109375 0.7643013q-1.671875 -7.133484E-4 -3.0 -0.7356529q-1.328125 -0.7349396 -1.921875 -2.0633202q-0.59375 -1.3283768 -0.59375 -3.6721268l0 -10.5l4.390625 0.0018692017l0 7.625q0 3.5 0.234375 4.296974q0.25 0.7813568 0.890625 1.2503815q0.640625 0.45339584 1.625 0.45381546q1.125 4.8065186E-4 2.015625 -0.6085167q0.890625 -0.62461853 1.21875 -1.5307312q0.328125 -0.92173386 0.328125 -4.484236l0 -7.0l4.390625 0.0018692017l0 16.593752l-4.078125 -0.0017356873zm23.84375 0.010150909l-4.078125 -0.0017356873l0 -2.4375q-1.015625 1.4214439 -2.40625 2.1239738q-1.375 0.68691635 -2.78125 0.68631744q-2.859375 -0.0012168884 -4.90625 -2.2989655q-2.03125 -2.3133621 -2.03125 -6.438366q0 -4.218748 1.984375 -6.405403q1.984375 -2.202282 5.015625 -2.2009907q2.78125 0.0011844635 4.8125 2.3145504l0 -8.250002l4.390625 0.0018692017l0 22.906252zm-11.71875 -8.66124q0 2.65625 0.734375 3.8440628q1.0625 1.719204 2.96875 1.7200127q1.515625 6.4849854E-4 2.578125 -1.2801514q1.0625 -1.296421 1.0625 -3.858921q0 -2.859377 -1.03125 -4.1098156q-1.03125 -1.2660637 -2.640625 -1.2667503q-1.5625 -6.637573E-4 -2.625 1.2488842q-1.046875 1.2339287 -1.046875 3.7026787zm25.65625 3.3859253l4.375 0.7362366q-0.84375 2.4058914 -2.671875 3.6707382q-1.8125 1.2492294 -4.546875 1.248066q-4.328125 -0.0018463135 -6.40625 -2.8308563q-1.640625 -2.266323 -1.640625 -5.719448q0 -4.125 2.15625 -6.4522076q2.15625 -2.3428307 5.453125 -2.3414268q3.703125 0.00157547 5.84375 2.4556122q2.140625 2.4384117 2.046875 7.4852467l-11.0 -0.0046844482q0.046875 1.9531479 1.0625 3.047329q1.015625 1.0785599 2.53125 1.0792046q1.03125 4.386902E-4 1.734375 -0.56176376q0.703125 -0.56219864 1.0625 -1.812046zm0.25 -4.437395q-0.046875 -1.9062691 -0.984375 -2.8910446q-0.9375 -1.0003986 -2.28125 -1.0009708q-1.4375 -6.122589E-4 -2.375 1.0458641q-0.9375 1.0464764 -0.921875 2.843357l6.5625 0.0027942657z" fill-rule="nonzero"/><path fill="#000000" fill-opacity="0.0" d="m383.19684 350.3701l-105.22833 182.26773" fill-rule="evenodd"/><path stroke="#595959" stroke-width="2.0" stroke-linejoin="round" stroke-linecap="butt" d="m383.19684 350.3701l-105.22833 182.26773" fill-rule="evenodd"/><path fill="#000000" fill-opacity="0.0" d="m177.37785 488.0525l100.598434 0.03149414l0 36.44098l-100.598434 -0.031555176z" fill-rule="evenodd"/><path fill="#000000" d="m193.86223 527.77765l0 -19.03125l-6.796875 -0.002105713l0 -3.875l18.203125 0.0056762695l0 3.875l-6.78125 -0.002105713l0 19.03125l-4.625 -0.0014648438zm13.78125 -18.839417l0 -4.0625l4.390625 0.001373291l0 4.0625l-4.390625 -0.001373291zm0 18.84375l0 -16.59375l4.390625 0.001373291l0 16.59372l-4.390625 -0.0013427734zm8.5625 -16.591095l4.046875 0.0012817383l0 2.2656555q2.171875 -2.6399841 5.171875 -2.639038q1.59375 4.8828125E-4 2.765625 0.6571045q1.171875 0.6566162 1.921875 1.9849854q1.09375 -1.3277588 2.359375 -1.9836426q1.265625 -0.6558533 2.703125 -0.6553955q1.828125 5.79834E-4 3.09375 0.75097656q1.265625 0.7347412 1.890625 2.1724854q0.453125 1.0626221 0.453125 3.437622l0 10.609375l-4.390625 -0.0014038086l0 -9.484375q0 -2.46875 -0.453125 -3.187622q-0.609375 -0.9376831 -1.875 -0.93811035q-0.921875 -2.4414062E-4 -1.734375 0.5620117q-0.8125 0.5621948 -1.171875 1.6558838q-0.359375 1.0780029 -0.359375 3.421753l0 7.96875l-4.390625 -0.0014038086l0 -9.09375q0 -2.421875 -0.234375 -3.125061q-0.234375 -0.70318604 -0.734375 -1.0471191q-0.484375 -0.34387207 -1.328125 -0.34417725q-1.015625 -3.0517578E-4 -1.828125 0.5463257q-0.8125 0.54663086 -1.171875 1.5777588q-0.34375 1.0311279 -0.34375 3.421753l0 8.0625l-4.390625 -0.0013427734l0 -16.59378zm38.390625 11.324554l4.3749847 0.7357178q-0.84375 2.4060059 -2.671875 3.6710205q-1.8124847 1.2494507 -4.5468597 1.2485962q-4.328125 -0.0013427734 -6.40625 -2.8301392q-1.640625 -2.2661133 -1.640625 -5.7192383q0 -4.125 2.15625 -6.4524536q2.15625 -2.3430786 5.453125 -2.342041q3.703125 0.001159668 5.8437347 2.454956q2.140625 2.4381714 2.046875 7.4849854l-10.999985 -0.0034179688q0.046875 1.953125 1.0625 3.0471802q1.015625 1.0784912 2.53125 1.0789185q1.03125 3.6621094E-4 1.734375 -0.5619507q0.703125 -0.56225586 1.0625 -1.8121338zm0.25 -4.437439q-0.046875 -1.90625 -0.984375 -2.8909302q-0.9375 -1.0003052 -2.28125 -1.0007324q-1.4375 -4.272461E-4 -2.375 1.0461426q-0.9375 1.0465698 -0.921875 2.8434448l6.5625 0.0020751953z" fill-rule="nonzero"/></g></svg>