<svg version="1.1" viewBox="0.0 0.0 960.0 540.0" fill="none" stroke="none" stroke-linecap="square" stroke-miterlimit="10" xmlns:xlink="http://www.w3.org/1999/xlink" xmlns="http://www.w3.org/2000/svg"><clipPath id="g95da32d36d_1_349.0"><path d="m0 0l960.0 0l0 540.0l-960.0 0l0 -540.0z" clip-rule="nonzero"/></clipPath><g clip-path="url(#g95da32d36d_1_349.0)"><path fill="#ffffff" d="m0 0l960.0 0l0 540.0l-960.0 0z" fill-rule="evenodd"/><path fill="#000000" fill-opacity="0.0" d="m8.0 289.1076l303.1811 0l0 39.68506l-303.1811 0z" fill-rule="evenodd"/><path fill="#000000" d="m17.734375 317.287l2.15625 -0.296875q0.09375 2.078125 0.78125 2.84375q0.6875 0.765625 1.921875 0.765625q0.90625 0 1.546875 -0.40625q0.65625 -0.421875 0.90625 -1.125q0.25 -0.71875 0.25 -2.28125l0 -12.484375l2.40625 0l0 12.34375q0 2.28125 -0.5625 3.53125q-0.546875 1.25 -1.75 1.90625q-1.1875 0.65625 -2.78125 0.65625q-2.390625 0 -3.65625 -1.375q-1.265625 -1.375 -1.21875 -4.078125zm21.044785 5.140625l0 -18.125l12.234375 0l0 2.140625l-9.828125 0l0 5.609375l8.5 0l0 2.140625l-8.5 0l0 8.234375l-2.40625 0zm22.305283 0l0 -18.125l3.609375 0l4.296875 12.828125q0.59375 1.796875 0.859375 2.6875q0.3125 -0.984375 0.96875 -2.90625l4.34375 -12.609375l3.234375 0l0 18.125l-2.3125 0l0 -15.171875l-5.28125 15.171875l-2.15625 0l-5.25 -15.4375l0 15.4375l-2.3125 0zm24.831467 0l6.953125 -18.125l2.59375 0l7.421875 18.125l-2.734375 0l-2.125 -5.484375l-7.578125 0l-1.984375 5.484375l-2.546875 0zm5.21875 -7.4375l6.15625 0l-1.890625 -5.03125q-0.875 -2.28125 -1.296875 -3.75q-0.34375 1.734375 -0.96875 3.453125l-2.0 5.328125zm19.220352 7.4375l0 -18.125l3.609375 0l4.296875 12.828125q0.59375 1.796875 0.859375 2.6875q0.3125 -0.984375 0.96875 -2.90625l4.34375 -12.609375l3.234375 0l0 18.125l-2.3125 0l0 -15.171875l-5.28125 15.171875l-2.15625 0l-5.25 -15.4375l0 15.4375l-2.3125 0zm26.994873 -5.140625l2.15625 -0.296875q0.09375 2.078125 0.78125 2.84375q0.6875 0.765625 1.921875 0.765625q0.90625 0 1.546875 -0.40625q0.65625 -0.421875 0.90625 -1.125q0.25 -0.71875 0.25 -2.28125l0 -12.484375l2.40625 0l0 12.34375q0 2.28125 -0.5625 3.53125q-0.546875 1.25 -1.75 1.90625q-1.1875 0.65625 -2.78125 0.65625q-2.390625 0 -3.65625 -1.375q-1.265625 -1.375 -1.21875 -4.078125zm19.701035 0l2.15625 -0.296875q0.09375 2.078125 0.78125 2.84375q0.6875 0.765625 1.921875 0.765625q0.90625 0 1.546875 -0.40625q0.65625 -0.421875 0.90625 -1.125q0.25 -0.71875 0.25 -2.28125l0 -12.484375l2.40625 0l0 12.34375q0 2.28125 -0.5625 3.53125q-0.546875 1.25 -1.75 1.90625q-1.1875 0.65625 -2.78125 0.65625q-2.390625 0 -3.65625 -1.375q-1.265625 -1.375 -1.21875 -4.078125zm17.537628 5.140625l6.953125 -18.125l2.59375 0l7.421875 18.125l-2.734375 0l-2.125 -5.484375l-7.578125 0l-1.984375 5.484375l-2.546875 0zm5.21875 -7.4375l6.15625 0l-1.890625 -5.03125q-0.875 -2.28125 -1.296875 -3.75q-0.34375 1.734375 -0.96875 3.453125l-2.0 5.328125zm18.485977 1.609375l2.265625 -0.1875q0.15625 1.359375 0.734375 2.234375q0.59375 0.859375 1.828125 1.40625q1.234375 0.53125 2.78125 0.53125q1.375 0 2.421875 -0.40625q1.0625 -0.40625 1.5625 -1.109375q0.515625 -0.71875 0.515625 -1.5625q0 -0.859375 -0.5 -1.484375q-0.484375 -0.640625 -1.625 -1.078125q-0.71875 -0.28125 -3.21875 -0.875q-2.5 -0.609375 -3.5 -1.140625q-1.296875 -0.671875 -1.9375 -1.671875q-0.640625 -1.015625 -0.640625 -2.265625q0 -1.375 0.78125 -2.5625q0.78125 -1.203125 2.265625 -1.8125q1.5 -0.625 3.34375 -0.625q2.015625 0 3.546875 0.65625q1.546875 0.640625 2.375 1.90625q0.828125 1.25 0.890625 2.859375l-2.3125 0.171875q-0.171875 -1.71875 -1.25 -2.59375q-1.0625 -0.890625 -3.15625 -0.890625q-2.171875 0 -3.171875 0.796875q-1.0 0.796875 -1.0 1.921875q0 0.984375 0.703125 1.609375q0.703125 0.640625 3.625 1.296875q2.921875 0.65625 4.015625 1.15625q1.578125 0.734375 2.328125 1.859375q0.765625 1.109375 0.765625 2.5625q0 1.453125 -0.84375 2.734375q-0.828125 1.28125 -2.375 2.0q-1.546875 0.703125 -3.484375 0.703125q-2.46875 0 -4.140625 -0.71875q-1.65625 -0.71875 -2.609375 -2.15625q-0.9375 -1.4375 -0.984375 -3.265625zm24.008759 -3.0q0 -4.515625 2.421875 -7.0625q2.4375 -2.5625 6.265625 -2.5625q2.515625 0 4.53125 1.203125q2.015625 1.203125 3.0625 3.34375q1.0625 2.140625 1.0625 4.859375q0 2.765625 -1.109375 4.953125q-1.109375 2.171875 -3.15625 3.296875q-2.046875 1.109375 -4.40625 1.109375q-2.5625 0 -4.578125 -1.234375q-2.015625 -1.25 -3.0625 -3.375q-1.03125 -2.140625 -1.03125 -4.53125zm2.484375 0.03125q0 3.28125 1.75 5.171875q1.765625 1.875 4.421875 1.875q2.71875 0 4.46875 -1.890625q1.75 -1.90625 1.75 -5.40625q0 -2.21875 -0.75 -3.859375q-0.75 -1.65625 -2.1875 -2.5625q-1.4375 -0.921875 -3.234375 -0.921875q-2.546875 0 -4.390625 1.75q-1.828125 1.75 -1.828125 5.84375zm24.956757 8.796875l0 -18.125l2.46875 0l9.515625 14.234375l0 -14.234375l2.3125 0l0 18.125l-2.46875 0l-9.515625 -14.25l0 14.25l-2.3125 0zm25.359375 0l0 -18.125l6.25 0q2.109375 0 3.21875 0.25q1.5625 0.359375 2.671875 1.296875q1.421875 1.21875 2.125 3.109375q0.71875 1.875 0.71875 4.296875q0 2.078125 -0.484375 3.671875q-0.46875 1.59375 -1.234375 2.640625q-0.75 1.046875 -1.65625 1.640625q-0.890625 0.59375 -2.15625 0.90625q-1.265625 0.3125 -2.90625 0.3125l-6.546875 0zm2.40625 -2.140625l3.859375 0q1.796875 0 2.8125 -0.328125q1.03125 -0.34375 1.640625 -0.9375q0.84375 -0.859375 1.3125 -2.296875q0.484375 -1.4375 0.484375 -3.5q0 -2.84375 -0.9375 -4.359375q-0.921875 -1.53125 -2.265625 -2.0625q-0.96875 -0.359375 -3.109375 -0.359375l-3.796875 0l0 13.84375z" fill-rule="nonzero"/><path fill="#000000" fill-opacity="0.0" d="m8.0 308.95013l0 0" fill-rule="evenodd"/><path stroke="#595959" stroke-width="1.0" stroke-linejoin="round" stroke-linecap="butt" d="m8.0 308.95013l0 0" fill-rule="evenodd"/><path fill="#000000" fill-opacity="0.0" d="m328.40945 289.1076l303.18112 0l0 39.68506l-303.18112 0z" fill-rule="evenodd"/><path fill="#000000" d="m338.14383 317.287l2.15625 -0.296875q0.09375 2.078125 0.78125 2.84375q0.6875 0.765625 1.921875 0.765625q0.90625 0 1.546875 -0.40625q0.65625 -0.421875 0.90625 -1.125q0.25 -0.71875 0.25 -2.28125l0 -12.484375l2.40625 0l0 12.34375q0 2.28125 -0.5625 3.53125q-0.546875 1.25 -1.75 1.90625q-1.1875 0.65625 -2.78125 0.65625q-2.390625 0 -3.65625 -1.375q-1.265625 -1.375 -1.21875 -4.078125zm21.04477 5.140625l0 -18.125l12.234375 0l0 2.140625l-9.828125 0l0 5.609375l8.5 0l0 2.140625l-8.5 0l0 8.234375l-2.40625 0zm22.305298 0l0 -18.125l3.609375 0l4.296875 12.828125q0.59375 1.796875 0.859375 2.6875q0.3125 -0.984375 0.96875 -2.90625l4.34375 -12.609375l3.234375 0l0 18.125l-2.3125 0l0 -15.171875l-5.28125 15.171875l-2.15625 0l-5.25 -15.4375l0 15.4375l-2.3125 0zm24.831451 0l6.953125 -18.125l2.59375 0l7.421875 18.125l-2.734375 0l-2.125 -5.484375l-7.578125 0l-1.984375 5.484375l-2.546875 0zm5.21875 -7.4375l6.15625 0l-1.890625 -5.03125q-0.875 -2.28125 -1.296875 -3.75q-0.34375 1.734375 -0.96875 3.453125l-2.0 5.328125zm19.220367 7.4375l0 -18.125l3.609375 0l4.296875 12.828125q0.59375 1.796875 0.859375 2.6875q0.3125 -0.984375 0.96875 -2.90625l4.34375 -12.609375l3.234375 0l0 18.125l-2.3125 0l0 -15.171875l-5.28125 15.171875l-2.15625 0l-5.25 -15.4375l0 15.4375l-2.3125 0zm26.994873 -5.140625l2.15625 -0.296875q0.09375 2.078125 0.78125 2.84375q0.6875 0.765625 1.921875 0.765625q0.90625 0 1.546875 -0.40625q0.65625 -0.421875 0.90625 -1.125q0.25 -0.71875 0.25 -2.28125l0 -12.484375l2.40625 0l0 12.34375q0 2.28125 -0.5625 3.53125q-0.546875 1.25 -1.75 1.90625q-1.1875 0.65625 -2.78125 0.65625q-2.390625 0 -3.65625 -1.375q-1.265625 -1.375 -1.21875 -4.078125zm19.70102 0l2.15625 -0.296875q0.09375 2.078125 0.78125 2.84375q0.6875 0.765625 1.921875 0.765625q0.90625 0 1.546875 -0.40625q0.65625 -0.421875 0.90625 -1.125q0.25 -0.71875 0.25 -2.28125l0 -12.484375l2.40625 0l0 12.34375q0 2.28125 -0.5625 3.53125q-0.546875 1.25 -1.75 1.90625q-1.1875 0.65625 -2.78125 0.65625q-2.390625 0 -3.65625 -1.375q-1.265625 -1.375 -1.21875 -4.078125zm17.537628 5.140625l6.953125 -18.125l2.59375 0l7.421875 18.125l-2.734375 0l-2.125 -5.484375l-7.578125 0l-1.984375 5.484375l-2.546875 0zm5.21875 -7.4375l6.15625 0l-1.890625 -5.03125q-0.875 -2.28125 -1.296875 -3.75q-0.34375 1.734375 -0.96875 3.453125l-2.0 5.328125zm18.485962 1.609375l2.265625 -0.1875q0.15625 1.359375 0.734375 2.234375q0.59375 0.859375 1.828125 1.40625q1.234375 0.53125 2.78125 0.53125q1.375 0 2.421875 -0.40625q1.0625 -0.40625 1.5625 -1.109375q0.515625 -0.71875 0.515625 -1.5625q0 -0.859375 -0.5 -1.484375q-0.484375 -0.640625 -1.625 -1.078125q-0.71875 -0.28125 -3.21875 -0.875q-2.5 -0.609375 -3.5 -1.140625q-1.296875 -0.671875 -1.9375 -1.671875q-0.640625 -1.015625 -0.640625 -2.265625q0 -1.375 0.78125 -2.5625q0.78125 -1.203125 2.265625 -1.8125q1.5 -0.625 3.34375 -0.625q2.015625 0 3.546875 0.65625q1.546875 0.640625 2.375 1.90625q0.828125 1.25 0.890625 2.859375l-2.3125 0.171875q-0.171875 -1.71875 -1.25 -2.59375q-1.0625 -0.890625 -3.15625 -0.890625q-2.171875 0 -3.171875 0.796875q-1.0 0.796875 -1.0 1.921875q0 0.984375 0.703125 1.609375q0.703125 0.640625 3.625 1.296875q2.921875 0.65625 4.015625 1.15625q1.578125 0.734375 2.328125 1.859375q0.765625 1.109375 0.765625 2.5625q0 1.453125 -0.84375 2.734375q-0.828125 1.28125 -2.375 2.0q-1.546875 0.703125 -3.484375 0.703125q-2.46875 0 -4.140625 -0.71875q-1.65625 -0.71875 -2.609375 -2.15625q-0.9375 -1.4375 -0.984375 -3.265625zm24.00879 -3.0q0 -4.515625 2.421875 -7.0625q2.4375 -2.5625 6.265625 -2.5625q2.515625 0 4.53125 1.203125q2.015625 1.203125 3.0625 3.34375q1.0625 2.140625 1.0625 4.859375q0 2.765625 -1.109375 4.953125q-1.109375 2.171875 -3.15625 3.296875q-2.046875 1.109375 -4.40625 1.109375q-2.5625 0 -4.578125 -1.234375q-2.015625 -1.25 -3.0625 -3.375q-1.03125 -2.140625 -1.03125 -4.53125zm2.484375 0.03125q0 3.28125 1.75 5.171875q1.765625 1.875 4.421875 1.875q2.71875 0 4.46875 -1.890625q1.75 -1.90625 1.75 -5.40625q0 -2.21875 -0.75 -3.859375q-0.75 -1.65625 -2.1875 -2.5625q-1.4375 -0.921875 -3.234375 -0.921875q-2.546875 0 -4.390625 1.75q-1.828125 1.75 -1.828125 5.84375zm24.956726 8.796875l0 -18.125l2.46875 0l9.515625 14.234375l0 -14.234375l2.3125 0l0 18.125l-2.46875 0l-9.515625 -14.25l0 14.25l-2.3125 0zm25.359375 0l0 -18.125l6.25 0q2.109375 0 3.21875 0.25q1.5625 0.359375 2.671875 1.296875q1.421875 1.21875 2.125 3.109375q0.71875 1.875 0.71875 4.296875q0 2.078125 -0.484375 3.671875q-0.46875 1.59375 -1.234375 2.640625q-0.75 1.046875 -1.65625 1.640625q-0.890625 0.59375 -2.15625 0.90625q-1.265625 0.3125 -2.90625 0.3125l-6.546875 0zm2.40625 -2.140625l3.859375 0q1.796875 0 2.8125 -0.328125q1.03125 -0.34375 1.640625 -0.9375q0.84375 -0.859375 1.3125 -2.296875q0.484375 -1.4375 0.484375 -3.5q0 -2.84375 -0.9375 -4.359375q-0.921875 -1.53125 -2.265625 -2.0625q-0.96875 -0.359375 -3.109375 -0.359375l-3.796875 0l0 13.84375z" fill-rule="nonzero"/><path fill="#000000" fill-opacity="0.0" d="m648.8189 289.1076l303.1811 0l0 39.68506l-303.1811 0z" fill-rule="evenodd"/><path fill="#000000" d="m658.5533 317.287l2.15625 -0.296875q0.09375 2.078125 0.78125 2.84375q0.6875 0.765625 1.921875 0.765625q0.90625 0 1.546875 -0.40625q0.65625 -0.421875 0.90625 -1.125q0.25 -0.71875 0.25 -2.28125l0 -12.484375l2.40625 0l0 12.34375q0 2.28125 -0.5625 3.53125q-0.546875 1.25 -1.75 1.90625q-1.1875 0.65625 -2.78125 0.65625q-2.390625 0 -3.65625 -1.375q-1.265625 -1.375 -1.21875 -4.078125zm21.0448 5.140625l0 -18.125l12.234375 0l0 2.140625l-9.828125 0l0 5.609375l8.5 0l0 2.140625l-8.5 0l0 8.234375l-2.40625 0zm22.305237 0l0 -18.125l3.609375 0l4.296875 12.828125q0.59375 1.796875 0.859375 2.6875q0.3125 -0.984375 0.96875 -2.90625l4.34375 -12.609375l3.234375 0l0 18.125l-2.3125 0l0 -15.171875l-5.28125 15.171875l-2.15625 0l-5.25 -15.4375l0 15.4375l-2.3125 0zm24.831482 0l6.953125 -18.125l2.59375 0l7.421875 18.125l-2.734375 0l-2.125 -5.484375l-7.578125 0l-1.984375 5.484375l-2.546875 0zm5.21875 -7.4375l6.15625 0l-1.890625 -5.03125q-0.875 -2.28125 -1.296875 -3.75q-0.34375 1.734375 -0.96875 3.453125l-2.0 5.328125zm19.220337 7.4375l0 -18.125l3.609375 0l4.296875 12.828125q0.59375 1.796875 0.859375 2.6875q0.3125 -0.984375 0.96875 -2.90625l4.34375 -12.609375l3.234375 0l0 18.125l-2.3125 0l0 -15.171875l-5.28125 15.171875l-2.15625 0l-5.25 -15.4375l0 15.4375l-2.3125 0zm26.994873 -5.140625l2.15625 -0.296875q0.09375 2.078125 0.78125 2.84375q0.6875 0.765625 1.921875 0.765625q0.90625 0 1.546875 -0.40625q0.65625 -0.421875 0.90625 -1.125q0.25 -0.71875 0.25 -2.28125l0 -12.484375l2.40625 0l0 12.34375q0 2.28125 -0.5625 3.53125q-0.546875 1.25 -1.75 1.90625q-1.1875 0.65625 -2.78125 0.65625q-2.390625 0 -3.65625 -1.375q-1.265625 -1.375 -1.21875 -4.078125zm19.70105 0l2.15625 -0.296875q0.09375 2.078125 0.78125 2.84375q0.6875 0.765625 1.921875 0.765625q0.90625 0 1.546875 -0.40625q0.65625 -0.421875 0.90625 -1.125q0.25 -0.71875 0.25 -2.28125l0 -12.484375l2.40625 0l0 12.34375q0 2.28125 -0.5625 3.53125q-0.546875 1.25 -1.75 1.90625q-1.1875 0.65625 -2.78125 0.65625q-2.390625 0 -3.65625 -1.375q-1.265625 -1.375 -1.21875 -4.078125zm17.537659 5.140625l6.953125 -18.125l2.59375 0l7.421875 18.125l-2.734375 0l-2.125 -5.484375l-7.578125 0l-1.984375 5.484375l-2.546875 0zm5.21875 -7.4375l6.15625 0l-1.890625 -5.03125q-0.875 -2.28125 -1.296875 -3.75q-0.34375 1.734375 -0.96875 3.453125l-2.0 5.328125zm18.485962 1.609375l2.265625 -0.1875q0.15625 1.359375 0.734375 2.234375q0.59375 0.859375 1.828125 1.40625q1.234375 0.53125 2.78125 0.53125q1.375 0 2.421875 -0.40625q1.0625 -0.40625 1.5625 -1.109375q0.515625 -0.71875 0.515625 -1.5625q0 -0.859375 -0.5 -1.484375q-0.484375 -0.640625 -1.625 -1.078125q-0.71875 -0.28125 -3.21875 -0.875q-2.5 -0.609375 -3.5 -1.140625q-1.296875 -0.671875 -1.9375 -1.671875q-0.640625 -1.015625 -0.640625 -2.265625q0 -1.375 0.78125 -2.5625q0.78125 -1.203125 2.265625 -1.8125q1.5 -0.625 3.34375 -0.625q2.015625 0 3.546875 0.65625q1.546875 0.640625 2.375 1.90625q0.828125 1.25 0.890625 2.859375l-2.3125 0.171875q-0.171875 -1.71875 -1.25 -2.59375q-1.0625 -0.890625 -3.15625 -0.890625q-2.171875 0 -3.171875 0.796875q-1.0 0.796875 -1.0 1.921875q0 0.984375 0.703125 1.609375q0.703125 0.640625 3.625 1.296875q2.921875 0.65625 4.015625 1.15625q1.578125 0.734375 2.328125 1.859375q0.765625 1.109375 0.765625 2.5625q0 1.453125 -0.84375 2.734375q-0.828125 1.28125 -2.375 2.0q-1.546875 0.703125 -3.484375 0.703125q-2.46875 0 -4.140625 -0.71875q-1.65625 -0.71875 -2.609375 -2.15625q-0.9375 -1.4375 -0.984375 -3.265625zm24.008728 -3.0q0 -4.515625 2.421875 -7.0625q2.4375 -2.5625 6.265625 -2.5625q2.515625 0 4.53125 1.203125q2.015625 1.203125 3.0625 3.34375q1.0625 2.140625 1.0625 4.859375q0 2.765625 -1.109375 4.953125q-1.109375 2.171875 -3.15625 3.296875q-2.046875 1.109375 -4.40625 1.109375q-2.5625 0 -4.578125 -1.234375q-2.015625 -1.25 -3.0625 -3.375q-1.03125 -2.140625 -1.03125 -4.53125zm2.484375 0.03125q0 3.28125 1.75 5.171875q1.765625 1.875 4.421875 1.875q2.71875 0 4.46875 -1.890625q1.75 -1.90625 1.75 -5.40625q0 -2.21875 -0.75 -3.859375q-0.75 -1.65625 -2.1875 -2.5625q-1.4375 -0.921875 -3.234375 -0.921875q-2.546875 0 -4.390625 1.75q-1.828125 1.75 -1.828125 5.84375zm24.956787 8.796875l0 -18.125l2.46875 0l9.515625 14.234375l0 -14.234375l2.3125 0l0 18.125l-2.46875 0l-9.515625 -14.25l0 14.25l-2.3125 0zm25.359375 0l0 -18.125l6.25 0q2.109375 0 3.21875 0.25q1.5625 0.359375 2.671875 1.296875q1.421875 1.21875 2.125 3.109375q0.71875 1.875 0.71875 4.296875q0 2.078125 -0.484375 3.671875q-0.46875 1.59375 -1.234375 2.640625q-0.75 1.046875 -1.65625 1.640625q-0.890625 0.59375 -2.15625 0.90625q-1.265625 0.3125 -2.90625 0.3125l-6.546875 0zm2.40625 -2.140625l3.859375 0q1.796875 0 2.8125 -0.328125q1.03125 -0.34375 1.640625 -0.9375q0.84375 -0.859375 1.3125 -2.296875q0.484375 -1.4375 0.484375 -3.5q0 -2.84375 -0.9375 -4.359375q-0.921875 -1.53125 -2.265625 -2.0625q-0.96875 -0.359375 -3.109375 -0.359375l-3.796875 0l0 13.84375z" fill-rule="nonzero"/><path fill="#000000" fill-opacity="0.0" d="m320.72177 277.39633l0 76.787384" fill-rule="evenodd"/><path stroke="#000000" stroke-width="1.0" stroke-linejoin="round" stroke-linecap="butt" d="m320.72177 277.39633l0 76.787384" fill-rule="evenodd"/><path fill="#000000" fill-opacity="0.0" d="m639.2782 277.39633l0 76.787384" fill-rule="evenodd"/><path stroke="#000000" stroke-width="1.0" stroke-linejoin="round" stroke-linecap="butt" d="m639.2782 277.39633l0 76.787384" fill-rule="evenodd"/><path fill="#000000" fill-opacity="0.0" d="m8.0 377.34647l226.20473 0l0 35.62204l-226.20473 0z" fill-rule="evenodd"/><path fill="#000000" d="m18.765625 409.38644l0 -17.1875l7.296875 0q2.75 0 4.0 0.46875q1.25 0.46875 2.0 1.65625q0.75 1.171875 0.75 2.703125q0 1.921875 -1.140625 3.1875q-1.140625 1.265625 -3.390625 1.59375q1.125 0.65625 1.84375 1.4375q0.734375 0.78125 1.984375 2.78125l2.09375 3.359375l-4.140625 0l-2.515625 -3.734375q-1.328125 -2.015625 -1.828125 -2.53125q-0.484375 -0.515625 -1.046875 -0.703125q-0.546875 -0.203125 -1.734375 -0.203125l-0.703125 0l0 7.171875l-3.46875 0zm3.46875 -9.921875l2.5625 0q2.5 0 3.109375 -0.203125q0.625 -0.21875 0.96875 -0.734375q0.359375 -0.515625 0.359375 -1.28125q0 -0.875 -0.46875 -1.40625q-0.453125 -0.53125 -1.296875 -0.671875q-0.421875 -0.0625 -2.53125 -0.0625l-2.703125 0l0 4.359375zm21.035156 5.953125l3.28125 0.5625q-0.640625 1.796875 -2.015625 2.75q-1.359375 0.9375 -3.40625 0.9375q-3.25 0 -4.796875 -2.125q-1.234375 -1.703125 -1.234375 -4.28125q0 -3.09375 1.609375 -4.84375q1.625 -1.765625 4.09375 -1.765625q2.78125 0 4.375 1.84375q1.609375 1.828125 1.546875 5.609375l-8.25 0q0.03125 1.46875 0.796875 2.28125q0.765625 0.8125 1.890625 0.8125q0.78125 0 1.296875 -0.421875q0.53125 -0.421875 0.8125 -1.359375zm0.1875 -3.328125q-0.046875 -1.421875 -0.75 -2.15625q-0.703125 -0.75 -1.703125 -0.75q-1.078125 0 -1.78125 0.78125q-0.703125 0.78125 -0.6875 2.125l4.921875 0zm4.5039062 -5.15625l1.828125 0l0 -0.9375q0 -1.5625 0.328125 -2.328125q0.34375 -0.78125 1.234375 -1.265625q0.90625 -0.484375 2.265625 -0.484375q1.40625 0 2.765625 0.421875l-0.453125 2.296875q-0.78125 -0.1875 -1.515625 -0.1875q-0.703125 0 -1.015625 0.328125q-0.3125 0.328125 -0.3125 1.28125l0 0.875l2.453125 0l0 2.59375l-2.453125 0l0 9.859375l-3.296875 0l0 -9.859375l-1.828125 0l0 -2.59375zm16.648438 8.484375l3.28125 0.5625q-0.640625 1.796875 -2.015625 2.75q-1.359375 0.9375 -3.40625 0.9375q-3.25 0 -4.796875 -2.125q-1.234375 -1.703125 -1.234375 -4.28125q0 -3.09375 1.609375 -4.84375q1.625 -1.765625 4.09375 -1.765625q2.78125 0 4.375 1.84375q1.609375 1.828125 1.546875 5.609375l-8.25 0q0.03125 1.46875 0.796875 2.28125q0.765625 0.8125 1.890625 0.8125q0.78125 0 1.296875 -0.421875q0.53125 -0.421875 0.8125 -1.359375zm0.1875 -3.328125q-0.046875 -1.421875 -0.75 -2.15625q-0.703125 -0.75 -1.703125 -0.75q-1.078125 0 -1.78125 0.78125q-0.703125 0.78125 -0.6875 2.125l4.921875 0zm9.097656 7.296875l-3.296875 0l0 -12.453125l3.0625 0l0 1.78125q0.78125 -1.265625 1.40625 -1.65625q0.640625 -0.40625 1.4375 -0.40625q1.125 0 2.15625 0.625l-1.015625 2.875q-0.828125 -0.546875 -1.546875 -0.546875q-0.6875 0 -1.171875 0.390625q-0.484375 0.375 -0.765625 1.375q-0.265625 1.0 -0.265625 4.171875l0 3.84375zm13.402344 -3.96875l3.28125 0.5625q-0.640625 1.796875 -2.015625 2.75q-1.359375 0.9375 -3.40625 0.9375q-3.25 0 -4.796875 -2.125q-1.234375 -1.703125 -1.234375 -4.28125q0 -3.09375 1.609375 -4.84375q1.625 -1.765625 4.09375 -1.765625q2.78125 0 4.375 1.84375q1.609375 1.828125 1.546875 5.609375l-8.25 0q0.03125 1.46875 0.796875 2.28125q0.765625 0.8125 1.890625 0.8125q0.78125 0 1.296875 -0.421875q0.53125 -0.421875 0.8125 -1.359375zm0.1875 -3.328125q-0.046875 -1.421875 -0.75 -2.15625q-0.703125 -0.75 -1.703125 -0.75q-1.078125 0 -1.78125 0.78125q-0.703125 0.78125 -0.6875 2.125l4.921875 0zm17.269531 7.296875l-3.296875 0l0 -6.359375q0 -2.015625 -0.21875 -2.59375q-0.203125 -0.59375 -0.6875 -0.921875q-0.46875 -0.328125 -1.125 -0.328125q-0.859375 0 -1.546875 0.46875q-0.671875 0.46875 -0.921875 1.25q-0.25 0.765625 -0.25 2.84375l0 5.640625l-3.296875 0l0 -12.453125l3.0625 0l0 1.828125q1.625 -2.109375 4.09375 -2.109375q1.09375 0 1.984375 0.40625q0.90625 0.390625 1.375 1.0q0.46875 0.609375 0.640625 1.390625q0.1875 0.765625 0.1875 2.203125l0 7.734375zm14.191406 -8.765625l-3.25 0.578125q-0.15625 -0.96875 -0.75 -1.453125q-0.578125 -0.5 -1.5 -0.5q-1.234375 0 -1.96875 0.859375q-0.71875 0.84375 -0.71875 2.828125q0 2.21875 0.734375 3.140625q0.75 0.90625 2.0 0.90625q0.9375 0 1.53125 -0.53125q0.609375 -0.53125 0.84375 -1.828125l3.234375 0.546875q-0.5 2.21875 -1.9375 3.359375q-1.421875 1.140625 -3.828125 1.140625q-2.71875 0 -4.34375 -1.71875q-1.625 -1.734375 -1.625 -4.78125q0 -3.078125 1.625 -4.796875q1.625 -1.71875 4.40625 -1.71875q2.28125 0 3.609375 0.984375q1.34375 0.984375 1.9375 2.984375zm9.707031 4.796875l3.28125 0.5625q-0.640625 1.796875 -2.015625 2.75q-1.359375 0.9375 -3.40625 0.9375q-3.25 0 -4.796875 -2.125q-1.234375 -1.703125 -1.234375 -4.28125q0 -3.09375 1.609375 -4.84375q1.625 -1.765625 4.09375 -1.765625q2.78125 0 4.375 1.84375q1.609375 1.828125 1.546875 5.609375l-8.25 0q0.03125 1.46875 0.796875 2.28125q0.765625 0.8125 1.890625 0.8125q0.78125 0 1.296875 -0.421875q0.53125 -0.421875 0.8125 -1.359375zm0.1875 -3.328125q-0.046875 -1.421875 -0.75 -2.15625q-0.703125 -0.75 -1.703125 -0.75q-1.078125 0 -1.78125 0.78125q-0.703125 0.78125 -0.6875 2.125l4.921875 0zm12.53125 7.296875l0 -17.1875l3.46875 0l0 17.1875l-3.46875 0zm18.074219 0l-3.296875 0l0 -6.359375q0 -2.015625 -0.21875 -2.59375q-0.203125 -0.59375 -0.6875 -0.921875q-0.46875 -0.328125 -1.125 -0.328125q-0.859375 0 -1.546875 0.46875q-0.671875 0.46875 -0.921875 1.25q-0.25 0.765625 -0.25 2.84375l0 5.640625l-3.296875 0l0 -12.453125l3.0625 0l0 1.828125q1.625 -2.109375 4.09375 -2.109375q1.09375 0 1.984375 0.40625q0.90625 0.390625 1.375 1.0q0.46875 0.609375 0.640625 1.390625q0.1875 0.765625 0.1875 2.203125l0 7.734375zm14.753906 0l-3.0625 0l0 -1.828125q-0.765625 1.0625 -1.796875 1.59375q-1.03125 0.515625 -2.09375 0.515625q-2.140625 0 -3.671875 -1.71875q-1.53125 -1.734375 -1.53125 -4.828125q0 -3.171875 1.484375 -4.8125q1.5 -1.65625 3.765625 -1.65625q2.09375 0 3.609375 1.734375l0 -6.1875l3.296875 0l0 17.1875zm-8.796875 -6.5q0 2.0 0.5625 2.890625q0.796875 1.28125 2.21875 1.28125q1.140625 0 1.9375 -0.953125q0.796875 -0.96875 0.796875 -2.890625q0 -2.15625 -0.78125 -3.09375q-0.765625 -0.9375 -1.96875 -0.9375q-1.171875 0 -1.96875 0.9375q-0.796875 0.921875 -0.796875 2.765625zm19.253906 2.53125l3.28125 0.5625q-0.640625 1.796875 -2.015625 2.75q-1.359375 0.9375 -3.40625 0.9375q-3.25 0 -4.796875 -2.125q-1.234375 -1.703125 -1.234375 -4.28125q0 -3.09375 1.609375 -4.84375q1.625 -1.765625 4.09375 -1.765625q2.78125 0 4.375 1.84375q1.609375 1.828125 1.546875 5.609375l-8.25 0q0.03125 1.46875 0.796875 2.28125q0.765625 0.8125 1.890625 0.8125q0.78125 0 1.296875 -0.421875q0.53125 -0.421875 0.8125 -1.359375zm0.1875 -3.328125q-0.046875 -1.421875 -0.75 -2.15625q-0.703125 -0.75 -1.703125 -0.75q-1.078125 0 -1.78125 0.78125q-0.703125 0.78125 -0.6875 2.125l4.921875 0zm4.3632812 7.296875l4.484375 -6.40625l-4.296875 -6.046875l4.015625 0l2.203125 3.421875l2.328125 -3.421875l3.859375 0l-4.21875 5.90625l4.609375 6.546875l-4.046875 0l-2.53125 -3.859375l-2.546875 3.859375l-3.859375 0z" fill-rule="nonzero"/><path fill="#000000" fill-opacity="0.0" d="m146.58267 385.15485l0 -50.11023" fill-rule="evenodd"/><path stroke="#000000" stroke-width="3.0" stroke-linejoin="round" stroke-linecap="butt" d="m146.58267 385.15485l0 -32.11023" fill-rule="evenodd"/><path fill="#000000" stroke="#000000" stroke-width="3.0" stroke-linecap="butt" d="m151.53787 353.04462l-4.9552 -13.614288l-4.955185 13.614288z" fill-rule="evenodd"/><path fill="#000000" fill-opacity="0.0" d="m8.0 426.18372l296.47244 0l0 87.433105l-296.47244 0z" fill-rule="evenodd"/><path fill="#000000" d="m129.5995 469.7437l-3.15625 0l0 -20.15625q-1.140625 1.078125 -3.0 2.171875q-1.859375 1.09375 -3.328125 1.640625l0 -3.0625q2.65625 -1.25 4.640625 -3.015625q1.984375 -1.78125 2.8125 -3.453125l2.03125 0l0 25.875zm12.974609 -13.96875q-1.96875 -0.734375 -2.921875 -2.0625q-0.9375 -1.34375 -0.9375 -3.203125q0 -2.8125 2.015625 -4.71875q2.03125 -1.921875 5.375 -1.921875q3.375 0 5.4375 1.96875q2.0625 1.953125 2.0625 4.765625q0 1.796875 -0.953125 3.125q-0.9375 1.3125 -2.84375 2.046875q2.375 0.765625 3.609375 2.5q1.234375 1.71875 1.234375 4.109375q0 3.296875 -2.34375 5.546875q-2.328125 2.25 -6.140625 2.25q-3.8125 0 -6.15625 -2.25q-2.34375 -2.265625 -2.34375 -5.640625q0 -2.515625 1.28125 -4.203125q1.28125 -1.703125 3.625 -2.3125zm-0.625 -5.375q0 1.828125 1.171875 3.0q1.1875 1.15625 3.0625 1.15625q1.828125 0 3.0 -1.140625q1.171875 -1.15625 1.171875 -2.828125q0 -1.75 -1.21875 -2.9375q-1.203125 -1.1875 -2.984375 -1.1875q-1.8125 0 -3.015625 1.171875q-1.1875 1.15625 -1.1875 2.765625zm-1.015625 11.90625q0 1.359375 0.640625 2.625q0.640625 1.265625 1.90625 1.96875q1.265625 0.6875 2.71875 0.6875q2.265625 0 3.734375 -1.453125q1.484375 -1.46875 1.484375 -3.71875q0 -2.28125 -1.515625 -3.78125q-1.515625 -1.5 -3.8125 -1.5q-2.234375 0 -3.703125 1.484375q-1.453125 1.46875 -1.453125 3.6875zm16.802734 0.6875l3.3125 -0.28125q0.375 2.421875 1.71875 3.65625q1.34375 1.21875 3.25 1.21875q2.28125 0 3.859375 -1.71875q1.578125 -1.734375 1.578125 -4.578125q0 -2.703125 -1.515625 -4.265625q-1.515625 -1.578125 -3.984375 -1.578125q-1.53125 0 -2.765625 0.703125q-1.21875 0.6875 -1.921875 1.796875l-2.96875 -0.390625l2.484375 -13.234375l12.828125 0l0 3.03125l-10.296875 0l-1.375 6.921875q2.3125 -1.625 4.859375 -1.625q3.375 0 5.6875 2.34375q2.328125 2.34375 2.328125 6.015625q0 3.5 -2.03125 6.046875q-2.484375 3.125 -6.765625 3.125q-3.515625 0 -5.75 -1.96875q-2.21875 -1.96875 -2.53125 -5.21875zm20.021484 -5.953125q0 -4.578125 0.9375 -7.359375q0.9375 -2.796875 2.78125 -4.296875q1.859375 -1.515625 4.671875 -1.515625q2.078125 0 3.640625 0.84375q1.5625 0.828125 2.578125 2.40625q1.03125 1.5625 1.609375 3.828125q0.578125 2.25 0.578125 6.09375q0 4.53125 -0.9375 7.3125q-0.921875 2.78125 -2.78125 4.3125q-1.84375 1.515625 -4.6875 1.515625q-3.71875 0 -5.84375 -2.671875q-2.546875 -3.21875 -2.546875 -10.46875zm3.25 0q0 6.34375 1.484375 8.453125q1.484375 2.09375 3.65625 2.09375q2.1875 0 3.671875 -2.109375q1.484375 -2.109375 1.484375 -8.4375q0 -6.375 -1.484375 -8.453125q-1.484375 -2.09375 -3.703125 -2.09375q-2.171875 0 -3.484375 1.84375q-1.625 2.34375 -1.625 8.703125z" fill-rule="nonzero"/><path fill="#000000" fill-opacity="0.0" d="m331.7638 426.18372l296.4724 0l0 87.433105l-296.4724 0z" fill-rule="evenodd"/><path fill="#000000" d="m453.36328 469.7437l-3.15625 0l0 -20.15625q-1.140625 1.078125 -3.0 2.171875q-1.859375 1.09375 -3.328125 1.640625l0 -3.0625q2.65625 -1.25 4.640625 -3.015625q1.984375 -1.78125 2.8125 -3.453125l2.03125 0l0 25.875zm12.974609 -13.96875q-1.96875 -0.734375 -2.921875 -2.0625q-0.9375 -1.34375 -0.9375 -3.203125q0 -2.8125 2.015625 -4.71875q2.03125 -1.921875 5.375 -1.921875q3.375 0 5.4375 1.96875q2.0625 1.953125 2.0625 4.765625q0 1.796875 -0.953125 3.125q-0.9375 1.3125 -2.84375 2.046875q2.375 0.765625 3.609375 2.5q1.234375 1.71875 1.234375 4.109375q0 3.296875 -2.34375 5.546875q-2.328125 2.25 -6.140625 2.25q-3.8125 0 -6.15625 -2.25q-2.34375 -2.265625 -2.34375 -5.640625q0 -2.515625 1.28125 -4.203125q1.28125 -1.703125 3.625 -2.3125zm-0.625 -5.375q0 1.828125 1.171875 3.0q1.1875 1.15625 3.0625 1.15625q1.828125 0 3.0 -1.140625q1.171875 -1.15625 1.171875 -2.828125q0 -1.75 -1.21875 -2.9375q-1.203125 -1.1875 -2.984375 -1.1875q-1.8125 0 -3.015625 1.171875q-1.1875 1.15625 -1.1875 2.765625zm-1.015625 11.90625q0 1.359375 0.640625 2.625q0.640625 1.265625 1.90625 1.96875q1.265625 0.6875 2.71875 0.6875q2.265625 0 3.734375 -1.453125q1.484375 -1.46875 1.484375 -3.71875q0 -2.28125 -1.515625 -3.78125q-1.515625 -1.5 -3.8125 -1.5q-2.234375 0 -3.703125 1.484375q-1.453125 1.46875 -1.453125 3.6875zm16.802734 0.6875l3.3125 -0.28125q0.375 2.421875 1.71875 3.65625q1.34375 1.21875 3.25 1.21875q2.28125 0 3.859375 -1.71875q1.578125 -1.734375 1.578125 -4.578125q0 -2.703125 -1.515625 -4.265625q-1.515625 -1.578125 -3.984375 -1.578125q-1.53125 0 -2.765625 0.703125q-1.21875 0.6875 -1.921875 1.796875l-2.96875 -0.390625l2.484375 -13.234375l12.828125 0l0 3.03125l-10.296875 0l-1.375 6.921875q2.3125 -1.625 4.859375 -1.625q3.375 0 5.6875 2.34375q2.328125 2.34375 2.328125 6.015625q0 3.5 -2.03125 6.046875q-2.484375 3.125 -6.765625 3.125q-3.515625 0 -5.75 -1.96875q-2.21875 -1.96875 -2.53125 -5.21875zm31.927734 6.75l-3.15625 0l0 -20.15625q-1.140625 1.078125 -3.0 2.171875q-1.859375 1.09375 -3.328125 1.640625l0 -3.0625q2.65625 -1.25 4.640625 -3.015625q1.984375 -1.78125 2.8125 -3.453125l2.03125 0l0 25.875z" fill-rule="nonzero"/><path fill="#000000" fill-opacity="0.0" d="m650.3202 426.18372l296.47247 0l0 87.433105l-296.47247 0z" fill-rule="evenodd"/><path fill="#000000" d="m771.91974 469.7437l-3.15625 0l0 -20.15625q-1.140625 1.078125 -3.0 2.171875q-1.859375 1.09375 -3.328125 1.640625l0 -3.0625q2.65625 -1.25 4.640625 -3.015625q1.984375 -1.78125 2.8125 -3.453125l2.03125 0l0 25.875zm12.974609 -13.96875q-1.96875 -0.734375 -2.921875 -2.0625q-0.9375 -1.34375 -0.9375 -3.203125q0 -2.8125 2.015625 -4.71875q2.03125 -1.921875 5.375 -1.921875q3.375 0 5.4375 1.96875q2.0625 1.953125 2.0625 4.765625q0 1.796875 -0.953125 3.125q-0.9375 1.3125 -2.84375 2.046875q2.375 0.765625 3.609375 2.5q1.234375 1.71875 1.234375 4.109375q0 3.296875 -2.34375 5.546875q-2.328125 2.25 -6.140625 2.25q-3.8125 0 -6.15625 -2.25q-2.34375 -2.265625 -2.34375 -5.640625q0 -2.515625 1.28125 -4.203125q1.28125 -1.703125 3.625 -2.3125zm-0.625 -5.375q0 1.828125 1.171875 3.0q1.1875 1.15625 3.0625 1.15625q1.828125 0 3.0 -1.140625q1.171875 -1.15625 1.171875 -2.828125q0 -1.75 -1.21875 -2.9375q-1.203125 -1.1875 -2.984375 -1.1875q-1.8125 0 -3.015625 1.171875q-1.1875 1.15625 -1.1875 2.765625zm-1.015625 11.90625q0 1.359375 0.640625 2.625q0.640625 1.265625 1.90625 1.96875q1.265625 0.6875 2.71875 0.6875q2.265625 0 3.734375 -1.453125q1.484375 -1.46875 1.484375 -3.71875q0 -2.28125 -1.515625 -3.78125q-1.515625 -1.5 -3.8125 -1.5q-2.234375 0 -3.703125 1.484375q-1.453125 1.46875 -1.453125 3.6875zm16.802734 0.6875l3.3125 -0.28125q0.375 2.421875 1.71875 3.65625q1.34375 1.21875 3.25 1.21875q2.28125 0 3.859375 -1.71875q1.578125 -1.734375 1.578125 -4.578125q0 -2.703125 -1.515625 -4.265625q-1.515625 -1.578125 -3.984375 -1.578125q-1.53125 0 -2.765625 0.703125q-1.21875 0.6875 -1.921875 1.796875l-2.96875 -0.390625l2.484375 -13.234375l12.828125 0l0 3.03125l-10.296875 0l-1.375 6.921875q2.3125 -1.625 4.859375 -1.625q3.375 0 5.6875 2.34375q2.328125 2.34375 2.328125 6.015625q0 3.5 -2.03125 6.046875q-2.484375 3.125 -6.765625 3.125q-3.515625 0 -5.75 -1.96875q-2.21875 -1.96875 -2.53125 -5.21875zm36.646484 3.703125l0 3.046875l-17.03125 0q-0.03125 -1.140625 0.359375 -2.203125q0.65625 -1.734375 2.078125 -3.421875q1.4375 -1.6875 4.15625 -3.90625q4.203125 -3.4375 5.671875 -5.453125q1.484375 -2.015625 1.484375 -3.8125q0 -1.875 -1.359375 -3.15625q-1.34375 -1.296875 -3.5 -1.296875q-2.28125 0 -3.65625 1.375q-1.375 1.359375 -1.390625 3.78125l-3.25 -0.328125q0.328125 -3.640625 2.5 -5.546875q2.1875 -1.90625 5.875 -1.90625q3.703125 0 5.859375 2.0625q2.171875 2.046875 2.171875 5.09375q0 1.546875 -0.640625 3.046875q-0.625 1.484375 -2.09375 3.140625q-1.46875 1.65625 -4.875 4.53125q-2.859375 2.390625 -3.671875 3.25q-0.796875 0.84375 -1.328125 1.703125l12.640625 0z" fill-rule="nonzero"/><path fill="#000000" fill-opacity="0.0" d="m8.0 156.09448l226.20473 0l0 35.622055l-226.20473 0z" fill-rule="evenodd"/><path fill="#ff0000" d="m17.875 182.54074l3.375 -0.328125q0.296875 1.703125 1.21875 2.5q0.9375 0.796875 2.53125 0.796875q1.671875 0 2.515625 -0.703125q0.859375 -0.71875 0.859375 -1.671875q0 -0.609375 -0.359375 -1.03125q-0.359375 -0.421875 -1.25 -0.75q-0.609375 -0.203125 -2.78125 -0.75q-2.78125 -0.6875 -3.90625 -1.6875q-1.59375 -1.421875 -1.59375 -3.46875q0 -1.3125 0.75 -2.453125q0.75 -1.140625 2.140625 -1.734375q1.40625 -0.59375 3.390625 -0.59375q3.234375 0 4.859375 1.421875q1.640625 1.40625 1.71875 3.78125l-3.46875 0.140625q-0.21875 -1.3125 -0.953125 -1.890625q-0.734375 -0.59375 -2.203125 -0.59375q-1.5 0 -2.359375 0.625q-0.546875 0.40625 -0.546875 1.0625q0 0.609375 0.515625 1.046875q0.65625 0.546875 3.1875 1.15625q2.53125 0.59375 3.734375 1.234375q1.21875 0.640625 1.90625 1.75q0.6875 1.09375 0.6875 2.734375q0 1.46875 -0.828125 2.765625q-0.8125 1.28125 -2.3125 1.921875q-1.5 0.625 -3.75 0.625q-3.25 0 -5.0 -1.5q-1.75 -1.515625 -2.078125 -4.40625zm24.070312 1.625l3.28125 0.5625q-0.640625 1.796875 -2.015625 2.75q-1.359375 0.9375 -3.40625 0.9375q-3.25 0 -4.796875 -2.125q-1.234375 -1.703125 -1.234375 -4.28125q0 -3.09375 1.609375 -4.84375q1.625 -1.765625 4.09375 -1.765625q2.78125 0 4.375 1.84375q1.609375 1.828125 1.546875 5.609375l-8.25 0q0.03125 1.46875 0.796875 2.28125q0.765625 0.8125 1.890625 0.8125q0.78125 0 1.296875 -0.421875q0.53125 -0.421875 0.8125 -1.359375zm0.1875 -3.328125q-0.046875 -1.421875 -0.75 -2.15625q-0.703125 -0.75 -1.703125 -0.75q-1.078125 0 -1.78125 0.78125q-0.703125 0.78125 -0.6875 2.125l4.921875 0zm14.082031 12.03125l0 -6.265625q-0.640625 0.84375 -1.609375 1.328125q-0.953125 0.484375 -2.078125 0.484375q-2.109375 0 -3.484375 -1.59375q-1.625 -1.859375 -1.625 -5.046875q0 -3.0 1.515625 -4.6875q1.53125 -1.6875 3.78125 -1.6875q1.234375 0 2.140625 0.53125q0.90625 0.53125 1.609375 1.59375l0 -1.84375l3.046875 0l0 17.1875l-3.296875 0zm0.109375 -11.109375q0 -1.90625 -0.78125 -2.84375q-0.78125 -0.9375 -1.953125 -0.9375q-1.203125 0 -2.0 0.953125q-0.796875 0.953125 -0.796875 3.015625q0 2.046875 0.765625 2.953125q0.78125 0.90625 1.90625 0.90625q1.140625 0 2.0 -1.015625q0.859375 -1.015625 0.859375 -3.03125zm14.613281 6.375l0 -1.859375q-0.6875 0.984375 -1.796875 1.5625q-1.109375 0.578125 -2.328125 0.578125q-1.265625 0 -2.265625 -0.546875q-0.984375 -0.5625 -1.4375 -1.546875q-0.4375 -1.0 -0.4375 -2.765625l0 -7.875l3.296875 0l0 5.71875q0 2.625 0.171875 3.21875q0.1875 0.59375 0.65625 0.9375q0.484375 0.34375 1.234375 0.34375q0.84375 0 1.5 -0.453125q0.671875 -0.46875 0.921875 -1.15625q0.25 -0.6875 0.25 -3.359375l0 -5.25l3.28125 0l0 12.453125l-3.046875 0zm13.675781 -3.96875l3.28125 0.5625q-0.640625 1.796875 -2.015625 2.75q-1.359375 0.9375 -3.40625 0.9375q-3.25 0 -4.796875 -2.125q-1.234375 -1.703125 -1.234375 -4.28125q0 -3.09375 1.609375 -4.84375q1.625 -1.765625 4.09375 -1.765625q2.78125 0 4.375 1.84375q1.609375 1.828125 1.546875 5.609375l-8.25 0q0.03125 1.46875 0.796875 2.28125q0.765625 0.8125 1.890625 0.8125q0.78125 0 1.296875 -0.421875q0.53125 -0.421875 0.8125 -1.359375zm0.1875 -3.328125q-0.046875 -1.421875 -0.75 -2.15625q-0.703125 -0.75 -1.703125 -0.75q-1.078125 0 -1.78125 0.78125q-0.703125 0.78125 -0.6875 2.125l4.921875 0zm17.269531 7.296875l-3.296875 0l0 -6.359375q0 -2.015625 -0.21875 -2.59375q-0.203125 -0.59375 -0.6875 -0.921875q-0.46875 -0.328125 -1.125 -0.328125q-0.859375 0 -1.546875 0.46875q-0.671875 0.46875 -0.921875 1.25q-0.25 0.765625 -0.25 2.84375l0 5.640625l-3.296875 0l0 -12.453125l3.0625 0l0 1.828125q1.625 -2.109375 4.09375 -2.109375q1.09375 0 1.984375 0.40625q0.90625 0.390625 1.375 1.0q0.46875 0.609375 0.640625 1.390625q0.1875 0.765625 0.1875 2.203125l0 7.734375zm14.191406 -8.765625l-3.25 0.578125q-0.15625 -0.96875 -0.75 -1.453125q-0.578125 -0.5 -1.5 -0.5q-1.234375 0 -1.96875 0.859375q-0.71875 0.84375 -0.71875 2.828125q0 2.21875 0.734375 3.140625q0.75 0.90625 2.0 0.90625q0.9375 0 1.53125 -0.53125q0.609375 -0.53125 0.84375 -1.828125l3.234375 0.546875q-0.5 2.21875 -1.9375 3.359375q-1.421875 1.140625 -3.828125 1.140625q-2.71875 0 -4.34375 -1.71875q-1.625 -1.734375 -1.625 -4.78125q0 -3.078125 1.625 -4.796875q1.625 -1.71875 4.40625 -1.71875q2.28125 0 3.609375 0.984375q1.34375 0.984375 1.9375 2.984375zm9.707031 4.796875l3.28125 0.5625q-0.640625 1.796875 -2.015625 2.75q-1.359375 0.9375 -3.40625 0.9375q-3.25 0 -4.796875 -2.125q-1.234375 -1.703125 -1.234375 -4.28125q0 -3.09375 1.609375 -4.84375q1.625 -1.765625 4.09375 -1.765625q2.78125 0 4.375 1.84375q1.609375 1.828125 1.546875 5.609375l-8.25 0q0.03125 1.46875 0.796875 2.28125q0.765625 0.8125 1.890625 0.8125q0.78125 0 1.296875 -0.421875q0.53125 -0.421875 0.8125 -1.359375zm0.1875 -3.328125q-0.046875 -1.421875 -0.75 -2.15625q-0.703125 -0.75 -1.703125 -0.75q-1.078125 0 -1.78125 0.78125q-0.703125 0.78125 -0.6875 2.125l4.921875 0zm12.53125 7.296875l0 -17.1875l3.46875 0l0 17.1875l-3.46875 0zm18.074219 0l-3.296875 0l0 -6.359375q0 -2.015625 -0.21875 -2.59375q-0.203125 -0.59375 -0.6875 -0.921875q-0.46875 -0.328125 -1.125 -0.328125q-0.859375 0 -1.546875 0.46875q-0.671875 0.46875 -0.921875 1.25q-0.25 0.765625 -0.25 2.84375l0 5.640625l-3.296875 0l0 -12.453125l3.0625 0l0 1.828125q1.625 -2.109375 4.09375 -2.109375q1.09375 0 1.984375 0.40625q0.90625 0.390625 1.375 1.0q0.46875 0.609375 0.640625 1.390625q0.1875 0.765625 0.1875 2.203125l0 7.734375zm14.753906 0l-3.0625 0l0 -1.828125q-0.765625 1.0625 -1.796875 1.59375q-1.03125 0.515625 -2.09375 0.515625q-2.140625 0 -3.671875 -1.71875q-1.53125 -1.734375 -1.53125 -4.828125q0 -3.171875 1.484375 -4.8125q1.5 -1.65625 3.765625 -1.65625q2.09375 0 3.609375 1.734375l0 -6.1875l3.296875 0l0 17.1875zm-8.796875 -6.5q0 2.0 0.5625 2.890625q0.796875 1.28125 2.21875 1.28125q1.140625 0 1.9375 -0.953125q0.796875 -0.96875 0.796875 -2.890625q0 -2.15625 -0.78125 -3.09375q-0.765625 -0.9375 -1.96875 -0.9375q-1.171875 0 -1.96875 0.9375q-0.796875 0.921875 -0.796875 2.765625zm12.035156 -7.640625l0 -3.046875l3.296875 0l0 3.046875l-3.296875 0zm0 14.140625l0 -12.453125l3.296875 0l0 12.453125l-3.296875 0zm17.527344 -8.765625l-3.25 0.578125q-0.15625 -0.96875 -0.75 -1.453125q-0.578125 -0.5 -1.5 -0.5q-1.234375 0 -1.96875 0.859375q-0.71875 0.84375 -0.71875 2.828125q0 2.21875 0.734375 3.140625q0.75 0.90625 2.0 0.90625q0.9375 0 1.53125 -0.53125q0.609375 -0.53125 0.84375 -1.828125l3.234375 0.546875q-0.5 2.21875 -1.9375 3.359375q-1.421875 1.140625 -3.828125 1.140625q-2.71875 0 -4.34375 -1.71875q-1.625 -1.734375 -1.625 -4.78125q0 -3.078125 1.625 -4.796875q1.625 -1.71875 4.40625 -1.71875q2.28125 0 3.609375 0.984375q1.34375 0.984375 1.9375 2.984375zm9.707031 4.796875l3.28125 0.5625q-0.640625 1.796875 -2.015625 2.75q-1.359375 0.9375 -3.40625 0.9375q-3.25 0 -4.796875 -2.125q-1.234375 -1.703125 -1.234375 -4.28125q0 -3.09375 1.609375 -4.84375q1.625 -1.765625 4.09375 -1.765625q2.78125 0 4.375 1.84375q1.609375 1.828125 1.546875 5.609375l-8.25 0q0.03125 1.46875 0.796875 2.28125q0.765625 0.8125 1.890625 0.8125q0.78125 0 1.296875 -0.421875q0.53125 -0.421875 0.8125 -1.359375zm0.1875 -3.328125q-0.046875 -1.421875 -0.75 -2.15625q-0.703125 -0.75 -1.703125 -0.75q-1.078125 0 -1.78125 0.78125q-0.703125 0.78125 -0.6875 2.125l4.921875 0zm4.7851562 3.75l3.3125 -0.515625q0.203125 0.96875 0.84375 1.46875q0.65625 0.5 1.8125 0.5q1.28125 0 1.921875 -0.46875q0.4375 -0.328125 0.4375 -0.890625q0 -0.375 -0.234375 -0.609375q-0.25 -0.234375 -1.109375 -0.4375q-3.984375 -0.875 -5.046875 -1.609375q-1.484375 -1.0 -1.484375 -2.796875q0 -1.625 1.28125 -2.71875q1.28125 -1.109375 3.96875 -1.109375q2.546875 0 3.78125 0.84375q1.25 0.828125 1.71875 2.453125l-3.109375 0.578125q-0.1875 -0.734375 -0.75 -1.109375q-0.5625 -0.390625 -1.59375 -0.390625q-1.296875 0 -1.859375 0.359375q-0.375 0.265625 -0.375 0.671875q0 0.34375 0.328125 0.59375q0.453125 0.328125 3.078125 0.9375q2.625 0.59375 3.671875 1.453125q1.03125 0.875 1.03125 2.453125q0 1.703125 -1.4375 2.9375q-1.421875 1.234375 -4.21875 1.234375q-2.546875 0 -4.03125 -1.03125q-1.484375 -1.03125 -1.9375 -2.796875z" fill-rule="nonzero"/><path fill="#000000" fill-opacity="0.0" d="m455.74802 297.97638l89.51181 0l0 30.803162l-89.51181 0z" fill-rule="evenodd"/><path stroke="#0000ff" stroke-width="3.0" stroke-linejoin="round" stroke-linecap="butt" d="m455.74802 297.97638l89.51181 0l0 30.803162l-89.51181 0z" fill-rule="evenodd"/><path fill="#000000" fill-opacity="0.0" d="m775.9055 297.97638l89.51178 0l0 30.803162l-89.51178 0z" fill-rule="evenodd"/><path stroke="#0000ff" stroke-width="3.0" stroke-linejoin="round" stroke-linecap="butt" d="m775.9055 297.97638l89.51178 0l0 30.803162l-89.51178 0z" fill-rule="evenodd"/><path fill="#000000" fill-opacity="0.0" d="m135.59055 297.72964l89.51181 0l0 30.803162l-89.51181 0z" fill-rule="evenodd"/><path stroke="#0000ff" stroke-width="3.0" stroke-linejoin="round" stroke-linecap="butt" d="m135.59055 297.72964l89.51181 0l0 30.803162l-89.51181 0z" fill-rule="evenodd"/><path fill="#000000" fill-opacity="0.0" d="m144.43307 195.1811l0 91.74803" fill-rule="evenodd"/><path stroke="#ff0000" stroke-width="3.0" stroke-linejoin="round" stroke-linecap="butt" d="m144.43307 195.1811l0 73.74803" fill-rule="evenodd"/><path fill="#ff0000" stroke="#ff0000" stroke-width="3.0" stroke-linecap="butt" d="m139.47787 268.92914l4.9552 13.614288l4.9552 -13.614288z" fill-rule="evenodd"/><path fill="#000000" fill-opacity="0.0" d="m139.22835 218.60367l62.456696 0l0 16.755905l-62.456696 0z" fill-rule="evenodd"/><path fill="#ff0000" d="m152.90022 242.12332l0 -3.671875l-3.640625 0l0 -1.515625l3.640625 0l0 -3.640625l1.546875 0l0 3.640625l3.640625 0l0 1.515625l-3.640625 0l0 3.671875l-1.546875 0zm7.0043335 -4.4375q0 -2.359375 0.484375 -3.796875q0.484375 -1.453125 1.4375 -2.234375q0.96875 -0.78125 2.421875 -0.78125q1.078125 0 1.890625 0.4375q0.8125 0.421875 1.328125 1.25q0.53125 0.8125 0.828125 1.984375q0.3125 1.15625 0.3125 3.140625q0 2.359375 -0.484375 3.8125q-0.484375 1.4375 -1.453125 2.234375q-0.953125 0.78125 -2.421875 0.78125q-1.921875 0 -3.03125 -1.390625q-1.3125 -1.671875 -1.3125 -5.4375zm1.671875 0q0 3.296875 0.765625 4.390625q0.78125 1.078125 1.90625 1.078125q1.140625 0 1.90625 -1.09375q0.765625 -1.09375 0.765625 -4.375q0 -3.296875 -0.765625 -4.375q-0.765625 -1.078125 -1.921875 -1.078125q-1.125 0 -1.796875 0.953125q-0.859375 1.21875 -0.859375 4.5z" fill-rule="nonzero"/><path fill="#000000" fill-opacity="0.0" d="m234.20473 181.06299l548.4725 0" fill-rule="evenodd"/><path stroke="#ff0000" stroke-width="3.0" stroke-linejoin="round" stroke-linecap="butt" d="m234.20473 181.06299l548.4725 0" fill-rule="evenodd"/><path fill="#000000" fill-opacity="0.0" d="m463.87927 180.86876l0 105.38585" fill-rule="evenodd"/><path stroke="#ff0000" stroke-width="3.0" stroke-linejoin="round" stroke-linecap="butt" d="m463.87927 180.86876l0 87.38585" fill-rule="evenodd"/><path fill="#ff0000" stroke="#ff0000" stroke-width="3.0" stroke-linecap="butt" d="m458.92407 268.2546l4.9552 13.614288l4.9552 -13.614288z" fill-rule="evenodd"/><path fill="#000000" fill-opacity="0.0" d="m459.32285 218.60367l62.456696 0l0 16.755905l-62.456696 0z" fill-rule="evenodd"/><path fill="#ff0000" d="m472.99472 242.12332l0 -3.671875l-3.640625 0l0 -1.515625l3.640625 0l0 -3.640625l1.546875 0l0 3.640625l3.640625 0l0 1.515625l-3.640625 0l0 3.671875l-1.546875 0zm13.1762085 2.15625l-1.640625 0l0 -10.453125q-0.59375 0.5625 -1.5625 1.140625q-0.953125 0.5625 -1.71875 0.84375l0 -1.59375q1.375 -0.640625 2.40625 -1.5625q1.03125 -0.921875 1.453125 -1.78125l1.0625 0l0 13.40625zm12.813202 -1.578125l0 1.578125l-8.828125 0q-0.015625 -0.59375 0.1875 -1.140625q0.34375 -0.90625 1.078125 -1.78125q0.75 -0.875 2.15625 -2.015625q2.171875 -1.78125 2.9375 -2.828125q0.765625 -1.046875 0.765625 -1.96875q0 -0.984375 -0.703125 -1.640625q-0.6875 -0.671875 -1.8125 -0.671875q-1.1875 0 -1.90625 0.71875q-0.703125 0.703125 -0.703125 1.953125l-1.6875 -0.171875q0.171875 -1.890625 1.296875 -2.875q1.140625 -0.984375 3.03125 -0.984375q1.921875 0 3.046875 1.0625q1.125 1.0625 1.125 2.640625q0 0.796875 -0.328125 1.578125q-0.328125 0.78125 -1.09375 1.640625q-0.75 0.84375 -2.53125 2.34375q-1.46875 1.234375 -1.890625 1.6875q-0.421875 0.4375 -0.6875 0.875l6.546875 0z" fill-rule="nonzero"/><path fill="#000000" fill-opacity="0.0" d="m782.67456 182.16798l0 103.43306" fill-rule="evenodd"/><path stroke="#ff0000" stroke-width="3.0" stroke-linejoin="round" stroke-linecap="butt" d="m782.67456 182.16798l0 85.43306" fill-rule="evenodd"/><path fill="#ff0000" stroke="#ff0000" stroke-width="3.0" stroke-linecap="butt" d="m777.71936 267.60104l4.9552 13.614288l4.9552 -13.614288z" fill-rule="evenodd"/><path fill="#000000" fill-opacity="0.0" d="m779.4173 218.60367l62.456726 0l0 16.755905l-62.456726 0z" fill-rule="evenodd"/><path fill="#ff0000" d="m793.0892 242.12332l0 -3.671875l-3.640625 0l0 -1.515625l3.640625 0l0 -3.640625l1.546875 0l0 3.640625l3.640625 0l0 1.515625l-3.640625 0l0 3.671875l-1.546875 0zm15.6137085 0.578125l0 1.578125l-8.828125 0q-0.015625 -0.59375 0.1875 -1.140625q0.34375 -0.90625 1.078125 -1.78125q0.75 -0.875 2.15625 -2.015625q2.171875 -1.78125 2.9375 -2.828125q0.765625 -1.046875 0.765625 -1.96875q0 -0.984375 -0.703125 -1.640625q-0.6875 -0.671875 -1.8125 -0.671875q-1.1875 0 -1.90625 0.71875q-0.703125 0.703125 -0.703125 1.953125l-1.6875 -0.171875q0.171875 -1.890625 1.296875 -2.875q1.140625 -0.984375 3.03125 -0.984375q1.921875 0 3.046875 1.0625q1.125 1.0625 1.125 2.640625q0 0.796875 -0.328125 1.578125q-0.328125 0.78125 -1.09375 1.640625q-0.75 0.84375 -2.53125 2.34375q-1.46875 1.234375 -1.890625 1.6875q-0.421875 0.4375 -0.6875 0.875l6.546875 0zm7.0163574 1.578125l0 -3.203125l-5.796875 0l0 -1.5l6.09375 -8.65625l1.34375 0l0 8.65625l1.796875 0l0 1.5l-1.796875 0l0 3.203125l-1.640625 0zm0 -4.703125l0 -6.015625l-4.1875 6.015625l4.1875 0z" fill-rule="nonzero"/><path fill="#000000" fill-opacity="0.0" d="m8.0 84.09449l283.46457 0l0 35.622047l-283.46457 0z" fill-rule="evenodd"/><path fill="#0000ff" d="m18.703125 116.13449l0 -17.1875l5.1875 0l3.125 11.71875l3.078125 -11.71875l5.203125 0l0 17.1875l-3.21875 0l0 -13.53125l-3.421875 13.53125l-3.328125 0l-3.40625 -13.53125l0 13.53125l-3.21875 0zm27.226562 -3.96875l3.28125 0.5625q-0.640625 1.796875 -2.015625 2.75q-1.359375 0.9375 -3.40625 0.9375q-3.25 0 -4.796875 -2.125q-1.234375 -1.703125 -1.234375 -4.28125q0 -3.09375 1.609375 -4.84375q1.625 -1.765625 4.09375 -1.765625q2.78125 0 4.375 1.84375q1.609375 1.828125 1.546875 5.609375l-8.25 0q0.03125 1.46875 0.796875 2.28125q0.765625 0.8125 1.890625 0.8125q0.78125 0 1.296875 -0.421875q0.53125 -0.421875 0.8125 -1.359375zm0.1875 -3.328125q-0.046875 -1.421875 -0.75 -2.15625q-0.703125 -0.75 -1.703125 -0.75q-1.078125 0 -1.78125 0.78125q-0.703125 0.78125 -0.6875 2.125l4.921875 0zm8.410156 -1.359375l-2.984375 -0.53125q0.5 -1.8125 1.71875 -2.671875q1.234375 -0.875 3.671875 -0.875q2.203125 0 3.28125 0.53125q1.078125 0.515625 1.515625 1.328125q0.4375 0.796875 0.4375 2.9375l-0.03125 3.84375q0 1.640625 0.15625 2.421875q0.15625 0.78125 0.59375 1.671875l-3.265625 0q-0.125 -0.328125 -0.3125 -0.96875q-0.078125 -0.296875 -0.125 -0.390625q-0.84375 0.8125 -1.8125 1.234375q-0.953125 0.40625 -2.03125 0.40625q-1.921875 0 -3.03125 -1.046875q-1.109375 -1.046875 -1.109375 -2.640625q0 -1.046875 0.5 -1.875q0.5 -0.828125 1.40625 -1.265625q0.921875 -0.4375 2.625 -0.765625q2.3125 -0.4375 3.203125 -0.8125l0 -0.328125q0 -0.953125 -0.46875 -1.34375q-0.46875 -0.40625 -1.765625 -0.40625q-0.890625 0 -1.390625 0.34375q-0.484375 0.34375 -0.78125 1.203125zm4.40625 2.671875q-0.640625 0.21875 -2.015625 0.515625q-1.359375 0.28125 -1.78125 0.5625q-0.640625 0.46875 -0.640625 1.171875q0 0.6875 0.515625 1.1875q0.515625 0.5 1.3125 0.5q0.890625 0 1.6875 -0.578125q0.609375 -0.453125 0.796875 -1.09375q0.125 -0.421875 0.125 -1.609375l0 -0.65625zm17.800781 5.984375l-3.296875 0l0 -6.359375q0 -2.015625 -0.21875 -2.59375q-0.203125 -0.59375 -0.6875 -0.921875q-0.46875 -0.328125 -1.125 -0.328125q-0.859375 0 -1.546875 0.46875q-0.671875 0.46875 -0.921875 1.25q-0.25 0.765625 -0.25 2.84375l0 5.640625l-3.296875 0l0 -12.453125l3.0625 0l0 1.828125q1.625 -2.109375 4.09375 -2.109375q1.09375 0 1.984375 0.40625q0.90625 0.390625 1.375 1.0q0.46875 0.609375 0.640625 1.390625q0.1875 0.765625 0.1875 2.203125l0 7.734375zm9.921875 0l0 -17.1875l3.46875 0l0 17.1875l-3.46875 0zm18.074219 0l-3.296875 0l0 -6.359375q0 -2.015625 -0.21875 -2.59375q-0.203125 -0.59375 -0.6875 -0.921875q-0.46875 -0.328125 -1.125 -0.328125q-0.859375 0 -1.546875 0.46875q-0.671875 0.46875 -0.921875 1.25q-0.25 0.765625 -0.25 2.84375l0 5.640625l-3.296875 0l0 -12.453125l3.0625 0l0 1.828125q1.625 -2.109375 4.09375 -2.109375q1.09375 0 1.984375 0.40625q0.90625 0.390625 1.375 1.0q0.46875 0.609375 0.640625 1.390625q0.1875 0.765625 0.1875 2.203125l0 7.734375zm14.753906 0l-3.0625 0l0 -1.828125q-0.765625 1.0625 -1.796875 1.59375q-1.03125 0.515625 -2.09375 0.515625q-2.140625 0 -3.671875 -1.71875q-1.53125 -1.734375 -1.53125 -4.828125q0 -3.171875 1.484375 -4.8125q1.5 -1.65625 3.765625 -1.65625q2.09375 0 3.609375 1.734375l0 -6.1875l3.296875 0l0 17.1875zm-8.796875 -6.5q0 2.0 0.5625 2.890625q0.796875 1.28125 2.21875 1.28125q1.140625 0 1.9375 -0.953125q0.796875 -0.96875 0.796875 -2.890625q0 -2.15625 -0.78125 -3.09375q-0.765625 -0.9375 -1.96875 -0.9375q-1.171875 0 -1.96875 0.9375q-0.796875 0.921875 -0.796875 2.765625zm12.035156 -7.640625l0 -3.046875l3.296875 0l0 3.046875l-3.296875 0zm0 14.140625l0 -12.453125l3.296875 0l0 12.453125l-3.296875 0zm17.527344 -8.765625l-3.25 0.578125q-0.15625 -0.96875 -0.75 -1.453125q-0.578125 -0.5 -1.5 -0.5q-1.234375 0 -1.96875 0.859375q-0.71875 0.84375 -0.71875 2.828125q0 2.21875 0.734375 3.140625q0.75 0.90625 2.0 0.90625q0.9375 0 1.53125 -0.53125q0.609375 -0.53125 0.84375 -1.828125l3.234375 0.546875q-0.5 2.21875 -1.9375 3.359375q-1.421875 1.140625 -3.828125 1.140625q-2.71875 0 -4.34375 -1.71875q-1.625 -1.734375 -1.625 -4.78125q0 -3.078125 1.625 -4.796875q1.625 -1.71875 4.40625 -1.71875q2.28125 0 3.609375 0.984375q1.34375 0.984375 1.9375 2.984375zm9.707031 4.796875l3.28125 0.5625q-0.640625 1.796875 -2.015625 2.75q-1.359375 0.9375 -3.40625 0.9375q-3.25 0 -4.796875 -2.125q-1.234375 -1.703125 -1.234375 -4.28125q0 -3.09375 1.609375 -4.84375q1.625 -1.765625 4.09375 -1.765625q2.78125 0 4.375 1.84375q1.609375 1.828125 1.546875 5.609375l-8.25 0q0.03125 1.46875 0.796875 2.28125q0.765625 0.8125 1.890625 0.8125q0.78125 0 1.296875 -0.421875q0.53125 -0.421875 0.8125 -1.359375zm0.1875 -3.328125q-0.046875 -1.421875 -0.75 -2.15625q-0.703125 -0.75 -1.703125 -0.75q-1.078125 0 -1.78125 0.78125q-0.703125 0.78125 -0.6875 2.125l4.921875 0zm4.7851562 3.75l3.3125 -0.515625q0.203125 0.96875 0.84375 1.46875q0.65625 0.5 1.8125 0.5q1.28125 0 1.921875 -0.46875q0.4375 -0.328125 0.4375 -0.890625q0 -0.375 -0.234375 -0.609375q-0.25 -0.234375 -1.109375 -0.4375q-3.984375 -0.875 -5.046875 -1.609375q-1.484375 -1.0 -1.484375 -2.796875q0 -1.625 1.28125 -2.71875q1.28125 -1.109375 3.96875 -1.109375q2.546875 0 3.78125 0.84375q1.25 0.828125 1.71875 2.453125l-3.109375 0.578125q-0.1875 -0.734375 -0.75 -1.109375q-0.5625 -0.390625 -1.59375 -0.390625q-1.296875 0 -1.859375 0.359375q-0.375 0.265625 -0.375 0.671875q0 0.34375 0.328125 0.59375q0.453125 0.328125 3.078125 0.9375q2.625 0.59375 3.671875 1.453125q1.03125 0.875 1.03125 2.453125q0 1.703125 -1.4375 2.9375q-1.421875 1.234375 -4.21875 1.234375q-2.546875 0 -4.03125 -1.03125q-1.484375 -1.03125 -1.9375 -2.796875zm15.144531 -5.609375l0 -3.296875l3.296875 0l0 3.296875l-3.296875 0zm0 9.15625l0 -3.296875l3.296875 0l0 3.296875l-3.296875 0zm18.894531 -17.25q2.484375 0 3.890625 1.78125q1.6875 2.109375 1.6875 7.0q0 4.875 -1.6875 7.0q-1.40625 1.765625 -3.890625 1.765625q-2.515625 0 -4.046875 -1.921875q-1.53125 -1.9375 -1.53125 -6.890625q0 -4.84375 1.6875 -6.984375q1.390625 -1.75 3.890625 -1.75zm0 2.734375q-0.609375 0 -1.078125 0.375q-0.46875 0.375 -0.71875 1.359375q-0.34375 1.28125 -0.34375 4.3125q0 3.015625 0.296875 4.15625q0.3125 1.125 0.765625 1.5q0.46875 0.375 1.078125 0.375q0.59375 0 1.0625 -0.375q0.46875 -0.390625 0.71875 -1.375q0.34375 -1.265625 0.34375 -4.28125q0 -3.03125 -0.3125 -4.15625q-0.296875 -1.140625 -0.765625 -1.515625q-0.453125 -0.375 -1.046875 -0.375zm8.394531 11.21875l3.296875 0l0 2.359375q0 1.4375 -0.25 2.25q-0.25 0.828125 -0.9375 1.484375q-0.671875 0.65625 -1.734375 1.03125l-0.640625 -1.359375q1.0 -0.328125 1.421875 -0.90625q0.421875 -0.5625 0.4375 -1.5625l-1.59375 0l0 -3.296875zm21.148438 3.296875l-3.296875 0l0 -12.40625q-1.8125 1.6875 -4.25 2.484375l0 -2.984375q1.28125 -0.421875 2.796875 -1.59375q1.515625 -1.1875 2.078125 -2.75l2.671875 0l0 17.25zm5.5351562 -3.296875l3.296875 0l0 2.359375q0 1.4375 -0.25 2.25q-0.25 0.828125 -0.9375 1.484375q-0.671875 0.65625 -1.734375 1.03125l-0.640625 -1.359375q1.0 -0.328125 1.421875 -0.90625q0.421875 -0.5625 0.4375 -1.5625l-1.59375 0l0 -3.296875zm23.835938 0.234375l0 3.0625l-11.546875 0q0.1875 -1.734375 1.125 -3.28125q0.9375 -1.5625 3.703125 -4.125q2.234375 -2.078125 2.734375 -2.8125q0.6875 -1.015625 0.6875 -2.015625q0 -1.109375 -0.59375 -1.6875q-0.59375 -0.59375 -1.640625 -0.59375q-1.03125 0 -1.640625 0.625q-0.609375 0.609375 -0.703125 2.046875l-3.28125 -0.328125q0.296875 -2.71875 1.84375 -3.890625q1.546875 -1.1875 3.859375 -1.1875q2.546875 0 4.0 1.375q1.453125 1.359375 1.453125 3.40625q0 1.15625 -0.421875 2.203125q-0.40625 1.046875 -1.3125 2.203125q-0.59375 0.765625 -2.15625 2.203125q-1.5625 1.421875 -1.984375 1.890625q-0.40625 0.46875 -0.65625 0.90625l6.53125 0zm2.8476562 -0.234375l3.296875 0l0 2.359375q0 1.4375 -0.25 2.25q-0.25 0.828125 -0.9375 1.484375q-0.671875 0.65625 -1.734375 1.03125l-0.640625 -1.359375q1.0 -0.328125 1.421875 -0.90625q0.421875 -0.5625 0.4375 -1.5625l-1.59375 0l0 -3.296875zm12.6015625 -1.265625l3.1875 -0.390625q0.15625 1.21875 0.8125 1.875q0.671875 0.640625 1.625 0.640625q1.015625 0 1.703125 -0.765625q0.703125 -0.78125 0.703125 -2.09375q0 -1.25 -0.671875 -1.96875q-0.65625 -0.734375 -1.625 -0.734375q-0.625 0 -1.5 0.25l0.359375 -2.6875q1.328125 0.046875 2.03125 -0.5625q0.703125 -0.625 0.703125 -1.640625q0 -0.875 -0.515625 -1.390625q-0.515625 -0.515625 -1.359375 -0.515625q-0.84375 0 -1.453125 0.59375q-0.59375 0.578125 -0.71875 1.703125l-3.03125 -0.515625q0.3125 -1.5625 0.953125 -2.484375q0.640625 -0.9375 1.78125 -1.46875q1.140625 -0.53125 2.5625 -0.53125q2.421875 0 3.890625 1.546875q1.203125 1.265625 1.203125 2.859375q0 2.265625 -2.46875 3.609375q1.46875 0.3125 2.34375 1.421875q0.890625 1.09375 0.890625 2.65625q0 2.265625 -1.65625 3.859375q-1.640625 1.59375 -4.109375 1.59375q-2.328125 0 -3.859375 -1.34375q-1.53125 -1.34375 -1.78125 -3.515625z" fill-rule="nonzero"/></g></svg>