<svg version="1.1" viewBox="0.0 0.0 960.0 540.0" fill="none" stroke="none" stroke-linecap="square" stroke-miterlimit="10" xmlns:xlink="http://www.w3.org/1999/xlink" xmlns="http://www.w3.org/2000/svg"><clipPath id="g95da32d36d_1_326.0"><path d="m0 0l960.0 0l0 540.0l-960.0 0l0 -540.0z" clip-rule="nonzero"/></clipPath><g clip-path="url(#g95da32d36d_1_326.0)"><path fill="#ffffff" d="m0 0l960.0 0l0 540.0l-960.0 0z" fill-rule="evenodd"/><path fill="#000000" fill-opacity="0.0" d="m20.091803 69.85302l92.37795 0l0 48.566925l-92.37795 0z" fill-rule="evenodd"/><path fill="#000000" d="m34.07618 99.333015l0 -12.6875l-4.531252 0l0 -2.578125l12.140627 0l0 2.578125l-4.515625 0l0 12.6875l-3.09375 0zm9.189529 -12.5625l0 -2.703125l2.921875 0l0 2.703125l-2.921875 0zm0 12.5625l0 -11.0625l2.921875 0l0 11.0625l-2.921875 0zm5.706894 -11.0625l2.703125 0l0 1.515625q1.4375 -1.765625 3.4375 -1.765625q1.0625 0 1.84375 0.4375q0.78125 0.4375 1.28125 1.328125q0.734375 -0.890625 1.578125 -1.328125q0.84375 -0.4375 1.796875 -0.4375q1.21875 0 2.0625 0.5q0.84375 0.484375 1.265625 1.453125q0.296875 0.703125 0.296875 2.28125l0 7.078125l-2.921875 0l0 -6.328125q0 -1.640625 -0.3125 -2.125q-0.40625 -0.625 -1.25 -0.625q-0.609375 0 -1.15625 0.375q-0.53125 0.375 -0.78125 1.109375q-0.234375 0.71875 -0.234375 2.28125l0 5.3125l-2.921875 0l0 -6.0625q0 -1.609375 -0.15625 -2.078125q-0.15625 -0.46875 -0.484375 -0.703125q-0.328125 -0.234375 -0.890625 -0.234375q-0.671875 0 -1.21875 0.375q-0.546875 0.359375 -0.78125 1.046875q-0.234375 0.6875 -0.234375 2.28125l0 5.375l-2.921875 0l0 -11.0625zm25.589127 7.546875l2.90625 0.484375q-0.546875 1.609375 -1.765625 2.453125q-1.21875 0.828125 -3.03125 0.828125q-2.890625 0 -4.28125 -1.890625q-1.09375 -1.5 -1.09375 -3.8125q0 -2.75 1.4375 -4.296875q1.4375 -1.5625 3.640625 -1.5625q2.46875 0 3.890625 1.640625q1.421875 1.625 1.359375 4.984375l-7.328125 0q0.03125 1.296875 0.703125 2.03125q0.6875 0.71875 1.703125 0.71875q0.6875 0 1.15625 -0.375q0.46875 -0.375 0.703125 -1.203125zm0.171875 -2.96875q-0.03125 -1.265625 -0.65625 -1.921875q-0.625 -0.671875 -1.53125 -0.671875q-0.953125 0 -1.578125 0.703125q-0.625 0.703125 -0.609375 1.890625l4.375 0zm5.8460693 -1.65625l0 -2.921875l2.921875 0l0 2.921875l-2.921875 0zm0 8.140625l0 -2.921875l2.921875 0l0 2.921875l-2.921875 0z" fill-rule="nonzero"/><path fill="#000000" d="m36.57995 151.33301l0 -15.265625l6.484375 0q2.453125 0 3.5625 0.421875q1.109375 0.40625 1.765625 1.453125q0.671875 1.046875 0.671875 2.40625q0 1.71875 -1.015625 2.84375q-1.0 1.109375 -3.015625 1.40625q1.0 0.578125 1.640625 1.28125q0.65625 0.6875 1.765625 2.46875l1.859375 2.984375l-3.6875 0l-2.21875 -3.328125q-1.1875 -1.78125 -1.625 -2.234375q-0.4375 -0.46875 -0.9375 -0.640625q-0.484375 -0.171875 -1.546875 -0.171875l-0.625 0l0 6.375l-3.078125 0zm3.078125 -8.8125l2.28125 0q2.21875 0 2.765625 -0.1875q0.5625 -0.1875 0.875 -0.640625q0.3125 -0.46875 0.3125 -1.140625q0 -0.78125 -0.421875 -1.25q-0.40625 -0.46875 -1.15625 -0.59375q-0.375 -0.0625 -2.25 -0.0625l-2.40625 0l0 3.875zm19.574371 8.8125l0 -1.65625q-0.609375 0.890625 -1.59375 1.40625q-0.984375 0.5 -2.078125 0.5q-1.109375 0 -2.0 -0.484375q-0.875 -0.5 -1.28125 -1.375q-0.390625 -0.890625 -0.390625 -2.453125l0 -7.0l2.921875 0l0 5.078125q0 2.34375 0.15625 2.875q0.171875 0.515625 0.59375 0.828125q0.4375 0.296875 1.09375 0.296875q0.75 0 1.34375 -0.40625q0.59375 -0.40625 0.8125 -1.015625q0.21875 -0.609375 0.21875 -2.984375l0 -4.671875l2.921875 0l0 11.0625l-2.71875 0zm15.809326 0l-2.921875 0l0 -5.640625q0 -1.796875 -0.1875 -2.3125q-0.1875 -0.53125 -0.609375 -0.828125q-0.421875 -0.296875 -1.015625 -0.296875q-0.765625 0 -1.375 0.421875q-0.59375 0.421875 -0.828125 1.109375q-0.21875 0.6875 -0.21875 2.53125l0 5.015625l-2.921875 0l0 -11.0625l2.71875 0l0 1.625q1.4375 -1.875 3.640625 -1.875q0.96875 0 1.765625 0.359375q0.8125 0.34375 1.21875 0.890625q0.40625 0.53125 0.5625 1.21875q0.171875 0.6875 0.171875 1.96875l0 6.875zm3.5280762 -8.140625l0 -2.921875l2.921875 0l0 2.921875l-2.921875 0zm0 8.140625l0 -2.921875l2.921875 0l0 2.921875l-2.921875 0z" fill-rule="nonzero"/><path fill="#f6b26b" d="m930.16876 184.31781l0 295.4779l-162.46173 0l0 -295.4779z" fill-rule="evenodd"/><path stroke="#000000" stroke-width="1.0" stroke-linejoin="round" stroke-linecap="butt" d="m930.16876 184.31781l0 295.4779l-162.46173 0l0 -295.4779z" fill-rule="evenodd"/><path fill="#f6b26b" d="m767.6705 184.31781l0 295.4779l-162.46167 0l0 -295.4779z" fill-rule="evenodd"/><path stroke="#000000" stroke-width="1.0" stroke-linejoin="round" stroke-linecap="butt" d="m767.6705 184.31781l0 295.4779l-162.46167 0l0 -295.4779z" fill-rule="evenodd"/><path fill="#f6b26b" d="m605.17224 184.31781l0 295.4779l-162.4617 0l0 -295.4779z" fill-rule="evenodd"/><path stroke="#000000" stroke-width="1.0" stroke-linejoin="round" stroke-linecap="butt" d="m605.17224 184.31781l0 295.4779l-162.4617 0l0 -295.4779z" fill-rule="evenodd"/><path fill="#f6b26b" d="m442.674 184.31781l0 295.4779l-162.46173 0l0 -295.4779z" fill-rule="evenodd"/><path stroke="#000000" stroke-width="1.0" stroke-linejoin="round" stroke-linecap="butt" d="m442.674 184.31781l0 295.4779l-162.46173 0l0 -295.4779z" fill-rule="evenodd"/><path fill="#f6b26b" d="m280.17575 184.31781l0 295.4779l-162.4617 0l0 -295.4779z" fill-rule="evenodd"/><path stroke="#000000" stroke-width="1.0" stroke-linejoin="round" stroke-linecap="butt" d="m280.17575 184.31781l0 295.4779l-162.4617 0l0 -295.4779z" fill-rule="evenodd"/><path fill="#000000" fill-opacity="0.0" d="m280.49536 69.85302l160.98282 0l0 41.41732l-160.98282 0z" fill-rule="evenodd"/><path fill="#000000" d="m300.5332 95.00489l1.828125 -0.25q0.078125 1.75 0.65625 2.390625q0.578125 0.640625 1.609375 0.640625q0.765625 0 1.3125 -0.34375q0.5625 -0.34375 0.765625 -0.9375q0.203125 -0.609375 0.203125 -1.921875l0 -10.515625l2.03125 0l0 10.40625q0 1.90625 -0.46875 2.96875q-0.46875 1.046875 -1.46875 1.609375q-1.0 0.546875 -2.359375 0.546875q-2.015625 0 -3.078125 -1.15625q-1.0625 -1.15625 -1.03125 -3.4375zm10.6640625 0l1.828125 -0.25q0.078125 1.75 0.65625 2.390625q0.578125 0.640625 1.609375 0.640625q0.765625 0 1.3125 -0.34375q0.5625 -0.34375 0.765625 -0.9375q0.203125 -0.609375 0.203125 -1.921875l0 -10.515625l2.03125 0l0 10.40625q0 1.90625 -0.46875 2.96875q-0.46875 1.046875 -1.46875 1.609375q-1.0 0.546875 -2.359375 0.546875q-2.015625 0 -3.078125 -1.15625q-1.0625 -1.15625 -1.03125 -3.4375zm10.0234375 4.328125l5.859375 -15.265625l2.1875 0l6.234375 15.265625l-2.296875 0l-1.78125 -4.625l-6.375 0l-1.6875 4.625l-2.140625 0zm4.40625 -6.265625l5.171875 0l-1.59375 -4.234375q-0.71875 -1.921875 -1.078125 -3.15625q-0.296875 1.46875 -0.828125 2.90625l-1.671875 4.484375zm10.8038025 1.359375l1.90625 -0.171875q0.140625 1.15625 0.625 1.890625q0.5 0.734375 1.546875 1.1875q1.046875 0.453125 2.34375 0.453125q1.15625 0 2.03125 -0.34375q0.890625 -0.34375 1.3125 -0.9375q0.4375 -0.609375 0.4375 -1.3125q0 -0.71875 -0.421875 -1.25q-0.40625 -0.546875 -1.359375 -0.90625q-0.609375 -0.25 -2.71875 -0.75q-2.109375 -0.5 -2.953125 -0.953125q-1.09375 -0.578125 -1.625 -1.421875q-0.53125 -0.84375 -0.53125 -1.890625q0 -1.15625 0.65625 -2.15625q0.65625 -1.015625 1.90625 -1.53125q1.265625 -0.53125 2.8125 -0.53125q1.6875 0 2.984375 0.546875q1.296875 0.546875 1.984375 1.609375q0.703125 1.0625 0.765625 2.40625l-1.9375 0.15625q-0.15625 -1.453125 -1.0625 -2.1875q-0.890625 -0.75 -2.65625 -0.75q-1.828125 0 -2.671875 0.671875q-0.84375 0.671875 -0.84375 1.625q0 0.8125 0.59375 1.34375q0.59375 0.53125 3.046875 1.09375q2.46875 0.5625 3.390625 0.96875q1.328125 0.625 1.953125 1.5625q0.640625 0.9375 0.640625 2.171875q0 1.21875 -0.703125 2.296875q-0.6875 1.078125 -2.0 1.6875q-1.296875 0.59375 -2.9375 0.59375q-2.078125 0 -3.484375 -0.609375q-1.390625 -0.609375 -2.1875 -1.8125q-0.796875 -1.21875 -0.84375 -2.75zm15.163208 4.90625l0 -2.140625l2.140625 0l0 2.140625q0 1.171875 -0.421875 1.890625q-0.40625 0.734375 -1.3125 1.125l-0.53125 -0.796875q0.59375 -0.265625 0.875 -0.765625q0.28125 -0.5 0.3125 -1.453125l-1.0625 0zm15.528351 0l0 -6.46875l-5.890625 -8.796875l2.453125 0l3.015625 4.59375q0.828125 1.296875 1.546875 2.59375q0.6875 -1.203125 1.671875 -2.703125l2.953125 -4.484375l2.359375 0l-6.09375 8.796875l0 6.46875l-2.015625 0zm15.2986145 -3.5625l1.921875 0.234375q-0.453125 1.703125 -1.6875 2.640625q-1.234375 0.9375 -3.171875 0.9375q-2.421875 0 -3.84375 -1.484375q-1.421875 -1.5 -1.421875 -4.203125q0 -2.796875 1.4375 -4.328125q1.4375 -1.546875 3.734375 -1.546875q2.21875 0 3.609375 1.515625q1.40625 1.5 1.40625 4.25q0 0.15625 0 0.5l-8.25 0q0.109375 1.8125 1.03125 2.78125q0.921875 0.96875 2.3125 0.96875q1.03125 0 1.75 -0.53125q0.734375 -0.546875 1.171875 -1.734375zm-6.15625 -3.03125l6.171875 0q-0.125 -1.390625 -0.703125 -2.09375q-0.90625 -1.078125 -2.328125 -1.078125q-1.296875 0 -2.171875 0.859375q-0.875 0.859375 -0.96875 2.3125zm17.65857 5.234375q-1.046875 0.875 -2.015625 1.25q-0.953125 0.359375 -2.0625 0.359375q-1.8125 0 -2.796875 -0.890625q-0.984375 -0.890625 -0.984375 -2.28125q0 -0.8125 0.375 -1.484375q0.375 -0.671875 0.96875 -1.078125q0.59375 -0.40625 1.34375 -0.609375q0.5625 -0.140625 1.671875 -0.28125q2.265625 -0.265625 3.34375 -0.640625q0.015625 -0.390625 0.015625 -0.5q0 -1.140625 -0.53125 -1.609375q-0.71875 -0.640625 -2.140625 -0.640625q-1.328125 0 -1.953125 0.46875q-0.625 0.46875 -0.9375 1.640625l-1.828125 -0.25q0.25 -1.171875 0.8125 -1.890625q0.578125 -0.734375 1.65625 -1.125q1.09375 -0.390625 2.515625 -0.390625q1.421875 0 2.296875 0.34375q0.890625 0.328125 1.3125 0.828125q0.421875 0.5 0.578125 1.28125q0.09375 0.46875 0.09375 1.71875l0 2.5q0 2.625 0.125 3.3125q0.125 0.6875 0.46875 1.328125l-1.953125 0q-0.296875 -0.578125 -0.375 -1.359375zm-0.15625 -4.1875q-1.015625 0.40625 -3.0625 0.703125q-1.15625 0.171875 -1.640625 0.375q-0.46875 0.203125 -0.734375 0.609375q-0.265625 0.40625 -0.265625 0.890625q0 0.75 0.5625 1.25q0.578125 0.5 1.671875 0.5q1.078125 0 1.921875 -0.46875q0.84375 -0.484375 1.25 -1.296875q0.296875 -0.640625 0.296875 -1.875l0 -0.6875zm4.7835693 5.546875l0 -11.0625l1.6875 0l0 1.671875q0.640625 -1.171875 1.1875 -1.546875q0.546875 -0.375 1.203125 -0.375q0.953125 0 1.921875 0.609375l-0.640625 1.734375q-0.6875 -0.40625 -1.375 -0.40625q-0.609375 0 -1.109375 0.375q-0.484375 0.359375 -0.6875 1.015625q-0.3125 1.0 -0.3125 2.1875l0 5.796875l-1.875 0zm12.528076 -4.0l1.96875 -0.171875q0.21875 1.4375 1.015625 2.171875q0.796875 0.71875 1.921875 0.71875q1.34375 0 2.28125 -1.015625q0.9375 -1.03125 0.9375 -2.71875q0 -1.59375 -0.90625 -2.515625q-0.890625 -0.9375 -2.34375 -0.9375q-0.90625 0 -1.640625 0.421875q-0.734375 0.40625 -1.140625 1.0625l-1.765625 -0.234375l1.484375 -7.84375l7.59375 0l0 1.796875l-6.09375 0l-0.828125 4.09375q1.375 -0.953125 2.890625 -0.953125q2.0 0 3.359375 1.390625q1.375 1.375 1.375 3.5625q0 2.0625 -1.203125 3.578125q-1.46875 1.859375 -4.0 1.859375q-2.09375 0 -3.40625 -1.171875q-1.3125 -1.171875 -1.5 -3.09375z" fill-rule="nonzero"/><path fill="#000000" fill-opacity="0.0" d="m119.512535 69.85302l160.98282 0l0 41.41732l-160.98282 0z" fill-rule="evenodd"/><path fill="#000000" d="m139.55037 95.00489l1.828125 -0.25q0.078125 1.75 0.65625 2.390625q0.578125 0.640625 1.609375 0.640625q0.765625 0 1.3125 -0.34375q0.5625 -0.34375 0.765625 -0.9375q0.203125 -0.609375 0.203125 -1.921875l0 -10.515625l2.03125 0l0 10.40625q0 1.90625 -0.46875 2.96875q-0.46875 1.046875 -1.46875 1.609375q-1.0 0.546875 -2.359375 0.546875q-2.015625 0 -3.078125 -1.15625q-1.0625 -1.15625 -1.03125 -3.4375zm10.6640625 0l1.828125 -0.25q0.078125 1.75 0.65625 2.390625q0.578125 0.640625 1.609375 0.640625q0.765625 0 1.3125 -0.34375q0.5625 -0.34375 0.765625 -0.9375q0.203125 -0.609375 0.203125 -1.921875l0 -10.515625l2.03125 0l0 10.40625q0 1.90625 -0.46875 2.96875q-0.46875 1.046875 -1.46875 1.609375q-1.0 0.546875 -2.359375 0.546875q-2.015625 0 -3.078125 -1.15625q-1.0625 -1.15625 -1.03125 -3.4375zm10.0234375 4.328125l5.859375 -15.265625l2.1875 0l6.234375 15.265625l-2.296875 0l-1.78125 -4.625l-6.375 0l-1.6875 4.625l-2.140625 0zm4.40625 -6.265625l5.171875 0l-1.59375 -4.234375q-0.71875 -1.921875 -1.078125 -3.15625q-0.296875 1.46875 -0.828125 2.90625l-1.671875 4.484375zm10.803818 1.359375l1.90625 -0.171875q0.140625 1.15625 0.625 1.890625q0.5 0.734375 1.546875 1.1875q1.046875 0.453125 2.34375 0.453125q1.15625 0 2.03125 -0.34375q0.890625 -0.34375 1.3125 -0.9375q0.4375 -0.609375 0.4375 -1.3125q0 -0.71875 -0.421875 -1.25q-0.40625 -0.546875 -1.359375 -0.90625q-0.609375 -0.25 -2.71875 -0.75q-2.109375 -0.5 -2.953125 -0.953125q-1.09375 -0.578125 -1.625 -1.421875q-0.53125 -0.84375 -0.53125 -1.890625q0 -1.15625 0.65625 -2.15625q0.65625 -1.015625 1.90625 -1.53125q1.265625 -0.53125 2.8125 -0.53125q1.6875 0 2.984375 0.546875q1.296875 0.546875 1.984375 1.609375q0.703125 1.0625 0.765625 2.40625l-1.9375 0.15625q-0.15625 -1.453125 -1.0625 -2.1875q-0.890625 -0.75 -2.65625 -0.75q-1.828125 0 -2.671875 0.671875q-0.84375 0.671875 -0.84375 1.625q0 0.8125 0.59375 1.34375q0.59375 0.53125 3.046875 1.09375q2.46875 0.5625 3.390625 0.96875q1.328125 0.625 1.953125 1.5625q0.640625 0.9375 0.640625 2.171875q0 1.21875 -0.703125 2.296875q-0.6875 1.078125 -2.0 1.6875q-1.296875 0.59375 -2.9375 0.59375q-2.078125 0 -3.484375 -0.609375q-1.390625 -0.609375 -2.1875 -1.8125q-0.796875 -1.21875 -0.84375 -2.75zm15.163193 4.90625l0 -2.140625l2.140625 0l0 2.140625q0 1.171875 -0.421875 1.890625q-0.40625 0.734375 -1.3125 1.125l-0.53125 -0.796875q0.59375 -0.265625 0.875 -0.765625q0.28125 -0.5 0.3125 -1.453125l-1.0625 0zm15.528366 0l0 -6.46875l-5.890625 -8.796875l2.453125 0l3.015625 4.59375q0.828125 1.296875 1.546875 2.59375q0.6875 -1.203125 1.671875 -2.703125l2.953125 -4.484375l2.359375 0l-6.09375 8.796875l0 6.46875l-2.015625 0zm15.2986145 -3.5625l1.921875 0.234375q-0.453125 1.703125 -1.6875 2.640625q-1.234375 0.9375 -3.171875 0.9375q-2.421875 0 -3.84375 -1.484375q-1.421875 -1.5 -1.421875 -4.203125q0 -2.796875 1.4375 -4.328125q1.4375 -1.546875 3.734375 -1.546875q2.21875 0 3.609375 1.515625q1.40625 1.5 1.40625 4.25q0 0.15625 0 0.5l-8.25 0q0.109375 1.8125 1.03125 2.78125q0.921875 0.96875 2.3125 0.96875q1.03125 0 1.75 -0.53125q0.734375 -0.546875 1.171875 -1.734375zm-6.15625 -3.03125l6.171875 0q-0.125 -1.390625 -0.703125 -2.09375q-0.90625 -1.078125 -2.328125 -1.078125q-1.296875 0 -2.171875 0.859375q-0.875 0.859375 -0.96875 2.3125zm17.65857 5.234375q-1.046875 0.875 -2.015625 1.25q-0.953125 0.359375 -2.0625 0.359375q-1.8125 0 -2.796875 -0.890625q-0.984375 -0.890625 -0.984375 -2.28125q0 -0.8125 0.375 -1.484375q0.375 -0.671875 0.96875 -1.078125q0.59375 -0.40625 1.34375 -0.609375q0.5625 -0.140625 1.671875 -0.28125q2.265625 -0.265625 3.34375 -0.640625q0.015625 -0.390625 0.015625 -0.5q0 -1.140625 -0.53125 -1.609375q-0.71875 -0.640625 -2.140625 -0.640625q-1.328125 0 -1.953125 0.46875q-0.625 0.46875 -0.9375 1.640625l-1.828125 -0.25q0.25 -1.171875 0.8125 -1.890625q0.578125 -0.734375 1.65625 -1.125q1.09375 -0.390625 2.515625 -0.390625q1.421875 0 2.296875 0.34375q0.890625 0.328125 1.3125 0.828125q0.421875 0.5 0.578125 1.28125q0.09375 0.46875 0.09375 1.71875l0 2.5q0 2.625 0.125 3.3125q0.125 0.6875 0.46875 1.328125l-1.953125 0q-0.296875 -0.578125 -0.375 -1.359375zm-0.15625 -4.1875q-1.015625 0.40625 -3.0625 0.703125q-1.15625 0.171875 -1.640625 0.375q-0.46875 0.203125 -0.734375 0.609375q-0.265625 0.40625 -0.265625 0.890625q0 0.75 0.5625 1.25q0.578125 0.5 1.671875 0.5q1.078125 0 1.921875 -0.46875q0.84375 -0.484375 1.25 -1.296875q0.296875 -0.640625 0.296875 -1.875l0 -0.6875zm4.7835693 5.546875l0 -11.0625l1.6875 0l0 1.671875q0.640625 -1.171875 1.1875 -1.546875q0.546875 -0.375 1.203125 -0.375q0.953125 0 1.921875 0.609375l-0.640625 1.734375q-0.6875 -0.40625 -1.375 -0.40625q-0.609375 0 -1.109375 0.375q-0.484375 0.359375 -0.6875 1.015625q-0.3125 1.0 -0.3125 2.1875l0 5.796875l-1.875 0zm19.590576 0l-1.8750153 0l0 -11.9375q-0.6875 0.640625 -1.78125 1.28125q-1.09375 0.640625 -1.96875 0.96875l0 -1.8125q1.5625 -0.734375 2.734375 -1.78125q1.1875 -1.0625 1.671875 -2.046875l1.2187653 0l0 15.328125z" fill-rule="nonzero"/><path fill="#000000" fill-opacity="0.0" d="m766.92737 69.85302l160.98279 0l0 41.41732l-160.98279 0z" fill-rule="evenodd"/><path fill="#000000" d="m786.9652 95.00489l1.828125 -0.25q0.078125 1.75 0.65625 2.390625q0.578125 0.640625 1.609375 0.640625q0.765625 0 1.3125 -0.34375q0.5625 -0.34375 0.765625 -0.9375q0.203125 -0.609375 0.203125 -1.921875l0 -10.515625l2.03125 0l0 10.40625q0 1.90625 -0.46875 2.96875q-0.46875 1.046875 -1.46875 1.609375q-1.0 0.546875 -2.359375 0.546875q-2.015625 0 -3.078125 -1.15625q-1.0625 -1.15625 -1.03125 -3.4375zm10.6640625 0l1.828125 -0.25q0.078125 1.75 0.65625 2.390625q0.578125 0.640625 1.609375 0.640625q0.765625 0 1.3125 -0.34375q0.5625 -0.34375 0.765625 -0.9375q0.203125 -0.609375 0.203125 -1.921875l0 -10.515625l2.03125 0l0 10.40625q0 1.90625 -0.46875 2.96875q-0.46875 1.046875 -1.46875 1.609375q-1.0 0.546875 -2.359375 0.546875q-2.015625 0 -3.078125 -1.15625q-1.0625 -1.15625 -1.03125 -3.4375zm10.0234375 4.328125l5.859375 -15.265625l2.1875 0l6.234375 15.265625l-2.296875 0l-1.78125 -4.625l-6.375 0l-1.6875 4.625l-2.140625 0zm4.40625 -6.265625l5.171875 0l-1.59375 -4.234375q-0.71875 -1.921875 -1.078125 -3.15625q-0.296875 1.46875 -0.828125 2.90625l-1.671875 4.484375zm10.803772 1.359375l1.90625 -0.171875q0.140625 1.15625 0.625 1.890625q0.5 0.734375 1.546875 1.1875q1.046875 0.453125 2.34375 0.453125q1.15625 0 2.03125 -0.34375q0.890625 -0.34375 1.3125 -0.9375q0.4375 -0.609375 0.4375 -1.3125q0 -0.71875 -0.421875 -1.25q-0.40625 -0.546875 -1.359375 -0.90625q-0.609375 -0.25 -2.71875 -0.75q-2.109375 -0.5 -2.953125 -0.953125q-1.09375 -0.578125 -1.625 -1.421875q-0.53125 -0.84375 -0.53125 -1.890625q0 -1.15625 0.65625 -2.15625q0.65625 -1.015625 1.90625 -1.53125q1.265625 -0.53125 2.8125 -0.53125q1.6875 0 2.984375 0.546875q1.296875 0.546875 1.984375 1.609375q0.703125 1.0625 0.765625 2.40625l-1.9375 0.15625q-0.15625 -1.453125 -1.0625 -2.1875q-0.890625 -0.75 -2.65625 -0.75q-1.828125 0 -2.671875 0.671875q-0.84375 0.671875 -0.84375 1.625q0 0.8125 0.59375 1.34375q0.59375 0.53125 3.046875 1.09375q2.46875 0.5625 3.390625 0.96875q1.328125 0.625 1.953125 1.5625q0.640625 0.9375 0.640625 2.171875q0 1.21875 -0.703125 2.296875q-0.6875 1.078125 -2.0 1.6875q-1.296875 0.59375 -2.9375 0.59375q-2.078125 0 -3.484375 -0.609375q-1.390625 -0.609375 -2.1875 -1.8125q-0.796875 -1.21875 -0.84375 -2.75zm15.163208 4.90625l0 -2.140625l2.140625 0l0 2.140625q0 1.171875 -0.421875 1.890625q-0.40625 0.734375 -1.3125 1.125l-0.53125 -0.796875q0.59375 -0.265625 0.875 -0.765625q0.28125 -0.5 0.3125 -1.453125l-1.0625 0zm15.528381 0l0 -6.46875l-5.890625 -8.796875l2.453125 0l3.015625 4.59375q0.828125 1.296875 1.546875 2.59375q0.6875 -1.203125 1.671875 -2.703125l2.953125 -4.484375l2.359375 0l-6.09375 8.796875l0 6.46875l-2.015625 0zm15.298584 -3.5625l1.921875 0.234375q-0.453125 1.703125 -1.6875 2.640625q-1.234375 0.9375 -3.171875 0.9375q-2.421875 0 -3.84375 -1.484375q-1.421875 -1.5 -1.421875 -4.203125q0 -2.796875 1.4375 -4.328125q1.4375 -1.546875 3.734375 -1.546875q2.21875 0 3.609375 1.515625q1.40625 1.5 1.40625 4.25q0 0.15625 0 0.5l-8.25 0q0.109375 1.8125 1.03125 2.78125q0.921875 0.96875 2.3125 0.96875q1.03125 0 1.75 -0.53125q0.734375 -0.546875 1.171875 -1.734375zm-6.15625 -3.03125l6.171875 0q-0.125 -1.390625 -0.703125 -2.09375q-0.90625 -1.078125 -2.328125 -1.078125q-1.296875 0 -2.171875 0.859375q-0.875 0.859375 -0.96875 2.3125zm17.65857 5.234375q-1.046875 0.875 -2.015625 1.25q-0.953125 0.359375 -2.0625 0.359375q-1.8125 0 -2.796875 -0.890625q-0.984375 -0.890625 -0.984375 -2.28125q0 -0.8125 0.375 -1.484375q0.375 -0.671875 0.96875 -1.078125q0.59375 -0.40625 1.34375 -0.609375q0.5625 -0.140625 1.671875 -0.28125q2.265625 -0.265625 3.34375 -0.640625q0.015625 -0.390625 0.015625 -0.5q0 -1.140625 -0.53125 -1.609375q-0.71875 -0.640625 -2.140625 -0.640625q-1.328125 0 -1.953125 0.46875q-0.625 0.46875 -0.9375 1.640625l-1.828125 -0.25q0.25 -1.171875 0.8125 -1.890625q0.578125 -0.734375 1.65625 -1.125q1.09375 -0.390625 2.515625 -0.390625q1.421875 0 2.296875 0.34375q0.890625 0.328125 1.3125 0.828125q0.421875 0.5 0.578125 1.28125q0.09375 0.46875 0.09375 1.71875l0 2.5q0 2.625 0.125 3.3125q0.125 0.6875 0.46875 1.328125l-1.953125 0q-0.296875 -0.578125 -0.375 -1.359375zm-0.15625 -4.1875q-1.015625 0.40625 -3.0625 0.703125q-1.15625 0.171875 -1.640625 0.375q-0.46875 0.203125 -0.734375 0.609375q-0.265625 0.40625 -0.265625 0.890625q0 0.75 0.5625 1.25q0.578125 0.5 1.671875 0.5q1.078125 0 1.921875 -0.46875q0.84375 -0.484375 1.25 -1.296875q0.296875 -0.640625 0.296875 -1.875l0 -0.6875zm4.7835693 5.546875l0 -11.0625l1.6875 0l0 1.671875q0.640625 -1.171875 1.1875 -1.546875q0.546875 -0.375 1.203125 -0.375q0.953125 0 1.921875 0.609375l-0.640625 1.734375q-0.6875 -0.40625 -1.375 -0.40625q-0.609375 0 -1.109375 0.375q-0.484375 0.359375 -0.6875 1.015625q-0.3125 1.0 -0.3125 2.1875l0 5.796875l-1.875 0zm19.590576 0l-1.875 0l0 -11.9375q-0.6875 0.640625 -1.78125 1.28125q-1.09375 0.640625 -1.96875 0.96875l0 -1.8125q1.5625 -0.734375 2.734375 -1.78125q1.1875 -1.0625 1.671875 -2.046875l1.21875 0l0 15.328125z" fill-rule="nonzero"/><path fill="#000000" fill-opacity="0.0" d="m444.95993 69.85302l160.98282 0l0 41.41732l-160.98282 0z" fill-rule="evenodd"/><path fill="#000000" d="m459.06693 95.00489l1.828125 -0.25q0.078125 1.75 0.65625 2.390625q0.578125 0.640625 1.609375 0.640625q0.765625 0 1.3125 -0.34375q0.5625 -0.34375 0.765625 -0.9375q0.203125 -0.609375 0.203125 -1.921875l0 -10.515625l2.03125 0l0 10.40625q0 1.90625 -0.46875 2.96875q-0.46875 1.046875 -1.46875 1.609375q-1.0 0.546875 -2.359375 0.546875q-2.015625 0 -3.078125 -1.15625q-1.0625 -1.15625 -1.03125 -3.4375zm10.6640625 0l1.828125 -0.25q0.078125 1.75 0.65625 2.390625q0.578125 0.640625 1.609375 0.640625q0.765625 0 1.3125 -0.34375q0.5625 -0.34375 0.765625 -0.9375q0.203125 -0.609375 0.203125 -1.921875l0 -10.515625l2.03125 0l0 10.40625q0 1.90625 -0.46875 2.96875q-0.46875 1.046875 -1.46875 1.609375q-1.0 0.546875 -2.359375 0.546875q-2.015625 0 -3.078125 -1.15625q-1.0625 -1.15625 -1.03125 -3.4375zm10.0234375 4.328125l5.859375 -15.265625l2.1875 0l6.234375 15.265625l-2.296875 0l-1.78125 -4.625l-6.375 0l-1.6875 4.625l-2.140625 0zm4.40625 -6.265625l5.171875 0l-1.59375 -4.234375q-0.71875 -1.921875 -1.078125 -3.15625q-0.296875 1.46875 -0.828125 2.90625l-1.671875 4.484375zm10.8038025 1.359375l1.90625 -0.171875q0.140625 1.15625 0.625 1.890625q0.5 0.734375 1.546875 1.1875q1.046875 0.453125 2.34375 0.453125q1.15625 0 2.03125 -0.34375q0.890625 -0.34375 1.3125 -0.9375q0.4375 -0.609375 0.4375 -1.3125q0 -0.71875 -0.421875 -1.25q-0.40625 -0.546875 -1.359375 -0.90625q-0.609375 -0.25 -2.71875 -0.75q-2.109375 -0.5 -2.953125 -0.953125q-1.09375 -0.578125 -1.625 -1.421875q-0.53125 -0.84375 -0.53125 -1.890625q0 -1.15625 0.65625 -2.15625q0.65625 -1.015625 1.90625 -1.53125q1.265625 -0.53125 2.8125 -0.53125q1.6875 0 2.984375 0.546875q1.296875 0.546875 1.984375 1.609375q0.703125 1.0625 0.765625 2.40625l-1.9375 0.15625q-0.15625 -1.453125 -1.0625 -2.1875q-0.890625 -0.75 -2.65625 -0.75q-1.828125 0 -2.671875 0.671875q-0.84375 0.671875 -0.84375 1.625q0 0.8125 0.59375 1.34375q0.59375 0.53125 3.046875 1.09375q2.46875 0.5625 3.390625 0.96875q1.328125 0.625 1.953125 1.5625q0.640625 0.9375 0.640625 2.171875q0 1.21875 -0.703125 2.296875q-0.6875 1.078125 -2.0 1.6875q-1.296875 0.59375 -2.9375 0.59375q-2.078125 0 -3.484375 -0.609375q-1.390625 -0.609375 -2.1875 -1.8125q-0.796875 -1.21875 -0.84375 -2.75zm15.163208 4.90625l0 -2.140625l2.140625 0l0 2.140625q0 1.171875 -0.421875 1.890625q-0.40625 0.734375 -1.3125 1.125l-0.53125 -0.796875q0.59375 -0.265625 0.875 -0.765625q0.28125 -0.5 0.3125 -1.453125l-1.0625 0zm15.528381 0l0 -6.46875l-5.890625 -8.796875l2.453125 0l3.015625 4.59375q0.828125 1.296875 1.546875 2.59375q0.6875 -1.203125 1.671875 -2.703125l2.953125 -4.484375l2.359375 0l-6.09375 8.796875l0 6.46875l-2.015625 0zm15.298584 -3.5625l1.921875 0.234375q-0.453125 1.703125 -1.6875 2.640625q-1.234375 0.9375 -3.171875 0.9375q-2.421875 0 -3.84375 -1.484375q-1.421875 -1.5 -1.421875 -4.203125q0 -2.796875 1.4375 -4.328125q1.4375 -1.546875 3.734375 -1.546875q2.21875 0 3.609375 1.515625q1.40625 1.5 1.40625 4.25q0 0.15625 0 0.5l-8.25 0q0.109375 1.8125 1.03125 2.78125q0.921875 0.96875 2.3125 0.96875q1.03125 0 1.75 -0.53125q0.734375 -0.546875 1.171875 -1.734375zm-6.15625 -3.03125l6.171875 0q-0.125 -1.390625 -0.703125 -2.09375q-0.90625 -1.078125 -2.328125 -1.078125q-1.296875 0 -2.171875 0.859375q-0.875 0.859375 -0.96875 2.3125zm17.65857 5.234375q-1.046875 0.875 -2.015625 1.25q-0.953125 0.359375 -2.0625 0.359375q-1.8125 0 -2.796875 -0.890625q-0.984375 -0.890625 -0.984375 -2.28125q0 -0.8125 0.375 -1.484375q0.375 -0.671875 0.96875 -1.078125q0.59375 -0.40625 1.34375 -0.609375q0.5625 -0.140625 1.671875 -0.28125q2.265625 -0.265625 3.34375 -0.640625q0.015625 -0.390625 0.015625 -0.5q0 -1.140625 -0.53125 -1.609375q-0.71875 -0.640625 -2.140625 -0.640625q-1.328125 0 -1.953125 0.46875q-0.625 0.46875 -0.9375 1.640625l-1.828125 -0.25q0.25 -1.171875 0.8125 -1.890625q0.578125 -0.734375 1.65625 -1.125q1.09375 -0.390625 2.515625 -0.390625q1.421875 0 2.296875 0.34375q0.890625 0.328125 1.3125 0.828125q0.421875 0.5 0.578125 1.28125q0.09375 0.46875 0.09375 1.71875l0 2.5q0 2.625 0.125 3.3125q0.125 0.6875 0.46875 1.328125l-1.953125 0q-0.296875 -0.578125 -0.375 -1.359375zm-0.15625 -4.1875q-1.015625 0.40625 -3.0625 0.703125q-1.15625 0.171875 -1.640625 0.375q-0.46875 0.203125 -0.734375 0.609375q-0.265625 0.40625 -0.265625 0.890625q0 0.75 0.5625 1.25q0.578125 0.5 1.671875 0.5q1.078125 0 1.921875 -0.46875q0.84375 -0.484375 1.25 -1.296875q0.296875 -0.640625 0.296875 -1.875l0 -0.6875zm4.7835693 5.546875l0 -11.0625l1.6875 0l0 1.671875q0.640625 -1.171875 1.1875 -1.546875q0.546875 -0.375 1.203125 -0.375q0.953125 0 1.921875 0.609375l-0.640625 1.734375q-0.6875 -0.40625 -1.375 -0.40625q-0.609375 0 -1.109375 0.375q-0.484375 0.359375 -0.6875 1.015625q-0.3125 1.0 -0.3125 2.1875l0 5.796875l-1.875 0zm19.590576 0l-1.875 0l0 -11.9375q-0.6875 0.640625 -1.78125 1.28125q-1.09375 0.640625 -1.96875 0.96875l0 -1.8125q1.5625 -0.734375 2.734375 -1.78125q1.1875 -1.0625 1.671875 -2.046875l1.21875 0l0 15.328125zm5.0804443 -3.53125l1.796875 -0.171875q0.234375 1.28125 0.875 1.859375q0.640625 0.5625 1.65625 0.5625q0.859375 0 1.515625 -0.390625q0.65625 -0.40625 1.0625 -1.0625q0.421875 -0.65625 0.703125 -1.78125q0.28125 -1.125 0.28125 -2.296875q0 -0.125 -0.015625 -0.375q-0.5625 0.890625 -1.53125 1.453125q-0.96875 0.5625 -2.109375 0.5625q-1.890625 0 -3.203125 -1.375q-1.3125 -1.375 -1.3125 -3.625q0 -2.328125 1.359375 -3.734375q1.375 -1.421875 3.4375 -1.421875q1.484375 0 2.71875 0.8125q1.234375 0.796875 1.875 2.28125q0.640625 1.484375 0.640625 4.28125q0 2.9375 -0.640625 4.671875q-0.625 1.734375 -1.890625 2.640625q-1.25 0.90625 -2.9375 0.90625q-1.78125 0 -2.921875 -1.0q-1.140625 -1.0 -1.359375 -2.796875zm7.671875 -6.734375q0 -1.609375 -0.859375 -2.5625q-0.859375 -0.953125 -2.0625 -0.953125q-1.25 0 -2.1875 1.03125q-0.921875 1.015625 -0.921875 2.640625q0 1.453125 0.875 2.375q0.890625 0.90625 2.171875 0.90625q1.3125 0 2.140625 -0.90625q0.84375 -0.921875 0.84375 -2.53125z" fill-rule="nonzero"/><path fill="#000000" fill-opacity="0.0" d="m605.9445 71.35171l160.98285 0l0 41.41732l-160.98285 0z" fill-rule="evenodd"/><path fill="#000000" d="m620.0515 96.50358l1.828125 -0.25q0.078125 1.75 0.65625 2.390625q0.578125 0.640625 1.609375 0.640625q0.765625 0 1.3125 -0.34375q0.5625 -0.34375 0.765625 -0.9375q0.203125 -0.609375 0.203125 -1.921875l0 -10.515625l2.03125 0l0 10.40625q0 1.90625 -0.46875 2.96875q-0.46875 1.046875 -1.46875 1.609375q-1.0 0.546875 -2.359375 0.546875q-2.015625 0 -3.078125 -1.15625q-1.0625 -1.15625 -1.03125 -3.4375zm10.6640625 0l1.828125 -0.25q0.078125 1.75 0.65625 2.390625q0.578125 0.640625 1.609375 0.640625q0.765625 0 1.3125 -0.34375q0.5625 -0.34375 0.765625 -0.9375q0.203125 -0.609375 0.203125 -1.921875l0 -10.515625l2.03125 0l0 10.40625q0 1.90625 -0.46875 2.96875q-0.46875 1.046875 -1.46875 1.609375q-1.0 0.546875 -2.359375 0.546875q-2.015625 0 -3.078125 -1.15625q-1.0625 -1.15625 -1.03125 -3.4375zm10.0234375 4.328125l5.859375 -15.265625l2.1875 0l6.234375 15.265625l-2.296875 0l-1.78125 -4.625l-6.375 0l-1.6875 4.625l-2.140625 0zm4.40625 -6.265625l5.171875 0l-1.59375 -4.234375q-0.71875 -1.921875 -1.078125 -3.15625q-0.296875 1.46875 -0.828125 2.90625l-1.671875 4.484375zm10.803833 1.359375l1.90625 -0.171875q0.140625 1.15625 0.625 1.890625q0.5 0.734375 1.546875 1.1875q1.046875 0.453125 2.34375 0.453125q1.15625 0 2.03125 -0.34375q0.890625 -0.34375 1.3125 -0.9375q0.4375 -0.609375 0.4375 -1.3125q0 -0.71875 -0.421875 -1.25q-0.40625 -0.546875 -1.359375 -0.90625q-0.609375 -0.25 -2.71875 -0.75q-2.109375 -0.5 -2.953125 -0.953125q-1.09375 -0.578125 -1.625 -1.421875q-0.53125 -0.84375 -0.53125 -1.890625q0 -1.15625 0.65625 -2.15625q0.65625 -1.015625 1.90625 -1.53125q1.265625 -0.53125 2.8125 -0.53125q1.6875 0 2.984375 0.546875q1.296875 0.546875 1.984375 1.609375q0.703125 1.0625 0.765625 2.40625l-1.9375 0.15625q-0.15625 -1.453125 -1.0625 -2.1875q-0.890625 -0.75 -2.65625 -0.75q-1.828125 0 -2.671875 0.671875q-0.84375 0.671875 -0.84375 1.625q0 0.8125 0.59375 1.34375q0.59375 0.53125 3.046875 1.09375q2.46875 0.5625 3.390625 0.96875q1.328125 0.625 1.953125 1.5625q0.640625 0.9375 0.640625 2.171875q0 1.21875 -0.703125 2.296875q-0.6875 1.078125 -2.0 1.6875q-1.296875 0.59375 -2.9375 0.59375q-2.078125 0 -3.484375 -0.609375q-1.390625 -0.609375 -2.1875 -1.8125q-0.796875 -1.21875 -0.84375 -2.75zm15.163147 4.90625l0 -2.140625l2.140625 0l0 2.140625q0 1.171875 -0.421875 1.890625q-0.40625 0.734375 -1.3125 1.125l-0.53125 -0.796875q0.59375 -0.265625 0.875 -0.765625q0.28125 -0.5 0.3125 -1.453125l-1.0625 0zm15.528381 0l0 -6.46875l-5.890625 -8.796875l2.453125 0l3.015625 4.59375q0.828125 1.296875 1.546875 2.59375q0.6875 -1.203125 1.671875 -2.703125l2.953125 -4.484375l2.359375 0l-6.09375 8.796875l0 6.46875l-2.015625 0zm15.298645 -3.5625l1.921875 0.234375q-0.453125 1.703125 -1.6875 2.640625q-1.234375 0.9375 -3.171875 0.9375q-2.421875 0 -3.84375 -1.484375q-1.421875 -1.5 -1.421875 -4.203125q0 -2.796875 1.4375 -4.328125q1.4375 -1.546875 3.734375 -1.546875q2.21875 0 3.609375 1.515625q1.40625 1.5 1.40625 4.25q0 0.15625 0 0.5l-8.25 0q0.109375 1.8125 1.03125 2.78125q0.921875 0.96875 2.3125 0.96875q1.03125 0 1.75 -0.53125q0.734375 -0.546875 1.171875 -1.734375zm-6.15625 -3.03125l6.171875 0q-0.125 -1.390625 -0.703125 -2.09375q-0.90625 -1.078125 -2.328125 -1.078125q-1.296875 0 -2.171875 0.859375q-0.875 0.859375 -0.96875 2.3125zm17.65857 5.234375q-1.046875 0.875 -2.015625 1.25q-0.953125 0.359375 -2.0625 0.359375q-1.8125 0 -2.796875 -0.890625q-0.984375 -0.890625 -0.984375 -2.28125q0 -0.8125 0.375 -1.484375q0.375 -0.671875 0.96875 -1.078125q0.59375 -0.40625 1.34375 -0.609375q0.5625 -0.140625 1.671875 -0.28125q2.265625 -0.265625 3.34375 -0.640625q0.015625 -0.390625 0.015625 -0.5q0 -1.140625 -0.53125 -1.609375q-0.71875 -0.640625 -2.140625 -0.640625q-1.328125 0 -1.953125 0.46875q-0.625 0.46875 -0.9375 1.640625l-1.828125 -0.25q0.25 -1.171875 0.8125 -1.890625q0.578125 -0.734375 1.65625 -1.125q1.09375 -0.390625 2.515625 -0.390625q1.421875 0 2.296875 0.34375q0.890625 0.328125 1.3125 0.828125q0.421875 0.5 0.578125 1.28125q0.09375 0.46875 0.09375 1.71875l0 2.5q0 2.625 0.125 3.3125q0.125 0.6875 0.46875 1.328125l-1.953125 0q-0.296875 -0.578125 -0.375 -1.359375zm-0.15625 -4.1875q-1.015625 0.40625 -3.0625 0.703125q-1.15625 0.171875 -1.640625 0.375q-0.46875 0.203125 -0.734375 0.609375q-0.265625 0.40625 -0.265625 0.890625q0 0.75 0.5625 1.25q0.578125 0.5 1.671875 0.5q1.078125 0 1.921875 -0.46875q0.84375 -0.484375 1.25 -1.296875q0.296875 -0.640625 0.296875 -1.875l0 -0.6875zm4.7835693 5.546875l0 -11.0625l1.6875 0l0 1.671875q0.640625 -1.171875 1.1875 -1.546875q0.546875 -0.375 1.203125 -0.375q0.953125 0 1.921875 0.609375l-0.640625 1.734375q-0.6875 -0.40625 -1.375 -0.40625q-0.609375 0 -1.109375 0.375q-0.484375 0.359375 -0.6875 1.015625q-0.3125 1.0 -0.3125 2.1875l0 5.796875l-1.875 0zm22.371826 -1.796875l0 1.796875l-10.09375 0q-0.015625 -0.671875 0.21875 -1.296875q0.390625 -1.03125 1.234375 -2.03125q0.859375 -1.0 2.453125 -2.3125q2.5 -2.046875 3.375 -3.234375q0.875 -1.203125 0.875 -2.25q0 -1.125 -0.796875 -1.890625q-0.796875 -0.765625 -2.078125 -0.765625q-1.359375 0 -2.171875 0.8125q-0.8125 0.8125 -0.828125 2.25l-1.921875 -0.1875q0.203125 -2.15625 1.484375 -3.28125q1.296875 -1.140625 3.46875 -1.140625q2.203125 0 3.484375 1.21875q1.28125 1.21875 1.28125 3.015625q0 0.921875 -0.375 1.8125q-0.375 0.875 -1.25 1.859375q-0.859375 0.96875 -2.890625 2.6875q-1.6875 1.40625 -2.171875 1.921875q-0.46875 0.5 -0.78125 1.015625l7.484375 0zm2.1429443 -11.46875l0 -1.796875l9.875 0l0 1.453125q-1.453125 1.546875 -2.890625 4.125q-1.421875 2.5625 -2.203125 5.28125q-0.5625 1.921875 -0.71875 4.203125l-1.9375 0q0.03125 -1.796875 0.703125 -4.34375q0.6875 -2.5625 1.953125 -4.921875q1.265625 -2.375 2.6875 -4.0l-7.46875 0z" fill-rule="nonzero"/><path fill="#000000" fill-opacity="0.0" d="m119.512535 118.561676l160.98282 0l0 41.417328l-160.98282 0z" fill-rule="evenodd"/><path fill="#000000" d="m202.02621 148.04167l-1.875 0l0 -11.9375q-0.6875 0.640625 -1.78125 1.28125q-1.09375 0.640625 -1.96875 0.96875l0 -1.8125q1.5625 -0.734375 2.734375 -1.78125q1.1875 -1.0625 1.671875 -2.046875l1.21875 0l0 15.328125z" fill-rule="nonzero"/><path fill="#000000" fill-opacity="0.0" d="m280.49536 118.561676l160.98282 0l0 41.417328l-160.98282 0z" fill-rule="evenodd"/><path fill="#000000" d="m363.00903 148.04167l-1.875 0l0 -11.9375q-0.6875 0.640625 -1.78125 1.28125q-1.09375 0.640625 -1.96875 0.96875l0 -1.8125q1.5625 -0.734375 2.734375 -1.78125q1.1875 -1.0625 1.671875 -2.046875l1.21875 0l0 15.328125z" fill-rule="nonzero"/><path fill="#000000" fill-opacity="0.0" d="m444.9617 118.561676l160.98282 0l0 41.417328l-160.98282 0z" fill-rule="evenodd"/><path fill="#000000" d="m527.4754 148.04167l-1.875 0l0 -11.9375q-0.6875 0.640625 -1.78125 1.28125q-1.09375 0.640625 -1.96875 0.96875l0 -1.8125q1.5625 -0.734375 2.734375 -1.78125q1.1875 -1.0625 1.671875 -2.046875l1.21875 0l0 15.328125z" fill-rule="nonzero"/><path fill="#000000" fill-opacity="0.0" d="m605.9445 118.561676l160.98285 0l0 41.417328l-160.98285 0z" fill-rule="evenodd"/><path fill="#000000" d="m688.4582 148.04167l-1.875 0l0 -11.9375q-0.6875 0.640625 -1.78125 1.28125q-1.09375 0.640625 -1.96875 0.96875l0 -1.8125q1.5625 -0.734375 2.734375 -1.78125q1.1875 -1.0625 1.671875 -2.046875l1.21875 0l0 15.328125z" fill-rule="nonzero"/><path fill="#000000" fill-opacity="0.0" d="m770.4109 118.561676l160.98279 0l0 41.417328l-160.98279 0z" fill-rule="evenodd"/><path fill="#000000" d="m855.7058 146.2448l0 1.796875l-10.09375 0q-0.015625 -0.671875 0.21875 -1.296875q0.390625 -1.03125 1.234375 -2.03125q0.859375 -1.0 2.453125 -2.3125q2.5 -2.046875 3.375 -3.234375q0.875 -1.203125 0.875 -2.25q0 -1.125 -0.796875 -1.890625q-0.796875 -0.765625 -2.078125 -0.765625q-1.359375 0 -2.171875 0.8125q-0.8125 0.8125 -0.828125 2.25l-1.921875 -0.1875q0.203125 -2.15625 1.484375 -3.28125q1.296875 -1.140625 3.46875 -1.140625q2.203125 0 3.484375 1.21875q1.28125 1.21875 1.28125 3.015625q0 0.921875 -0.375 1.8125q-0.375 0.875 -1.25 1.859375q-0.859375 0.96875 -2.890625 2.6875q-1.6875 1.40625 -2.171875 1.921875q-0.46875 0.5 -0.78125 1.015625l7.484375 0z" fill-rule="nonzero"/></g></svg>