<svg version="1.1" viewBox="0.0 0.0 960.0 540.0" fill="none" stroke="none" stroke-linecap="square" stroke-miterlimit="10" xmlns:xlink="http://www.w3.org/1999/xlink" xmlns="http://www.w3.org/2000/svg"><clipPath id="g95da32d36d_1_245.0"><path d="m0 0l960.0 0l0 540.0l-960.0 0l0 -540.0z" clip-rule="nonzero"/></clipPath><g clip-path="url(#g95da32d36d_1_245.0)"><path fill="#ffffff" d="m0 0l960.0 0l0 540.0l-960.0 0z" fill-rule="evenodd"/><path fill="#000000" fill-opacity="0.0" d="m20.091803 67.37795l92.37795 0l0 48.566933l-92.37795 0z" fill-rule="evenodd"/><path fill="#000000" d="m34.07618 96.857956l0 -12.6875l-4.531252 0l0 -2.578125l12.140627 0l0 2.578125l-4.515625 0l0 12.6875l-3.09375 0zm9.189529 -12.5625l0 -2.703125l2.921875 0l0 2.703125l-2.921875 0zm0 12.5625l0 -11.0625l2.921875 0l0 11.0625l-2.921875 0zm5.706894 -11.0625l2.703125 0l0 1.515625q1.4375 -1.765625 3.4375 -1.765625q1.0625 0 1.84375 0.4375q0.78125 0.4375 1.28125 1.328125q0.734375 -0.890625 1.578125 -1.328125q0.84375 -0.4375 1.796875 -0.4375q1.21875 0 2.0625 0.5q0.84375 0.484375 1.265625 1.453125q0.296875 0.703125 0.296875 2.28125l0 7.078125l-2.921875 0l0 -6.328125q0 -1.640625 -0.3125 -2.125q-0.40625 -0.625 -1.25 -0.625q-0.609375 0 -1.15625 0.375q-0.53125 0.375 -0.78125 1.109375q-0.234375 0.71875 -0.234375 2.28125l0 5.3125l-2.921875 0l0 -6.0625q0 -1.609375 -0.15625 -2.078125q-0.15625 -0.46875 -0.484375 -0.703125q-0.328125 -0.234375 -0.890625 -0.234375q-0.671875 0 -1.21875 0.375q-0.546875 0.359375 -0.78125 1.046875q-0.234375 0.6875 -0.234375 2.28125l0 5.375l-2.921875 0l0 -11.0625zm25.589127 7.546875l2.90625 0.484375q-0.546875 1.609375 -1.765625 2.453125q-1.21875 0.828125 -3.03125 0.828125q-2.890625 0 -4.28125 -1.890625q-1.09375 -1.5 -1.09375 -3.8125q0 -2.75 1.4375 -4.296875q1.4375 -1.5625 3.640625 -1.5625q2.46875 0 3.890625 1.640625q1.421875 1.625 1.359375 4.984375l-7.328125 0q0.03125 1.296875 0.703125 2.03125q0.6875 0.71875 1.703125 0.71875q0.6875 0 1.15625 -0.375q0.46875 -0.375 0.703125 -1.203125zm0.171875 -2.96875q-0.03125 -1.265625 -0.65625 -1.921875q-0.625 -0.671875 -1.53125 -0.671875q-0.953125 0 -1.578125 0.703125q-0.625 0.703125 -0.609375 1.890625l4.375 0zm5.8460693 -1.65625l0 -2.921875l2.921875 0l0 2.921875l-2.921875 0zm0 8.140625l0 -2.921875l2.921875 0l0 2.921875l-2.921875 0z" fill-rule="nonzero"/><path fill="#000000" d="m36.57995 148.85796l0 -15.265625l6.484375 0q2.453125 0 3.5625 0.421875q1.109375 0.40625 1.765625 1.453125q0.671875 1.046875 0.671875 2.40625q0 1.71875 -1.015625 2.84375q-1.0 1.109375 -3.015625 1.40625q1.0 0.578125 1.640625 1.28125q0.65625 0.6875 1.765625 2.46875l1.859375 2.984375l-3.6875 0l-2.21875 -3.328125q-1.1875 -1.78125 -1.625 -2.234375q-0.4375 -0.46875 -0.9375 -0.640625q-0.484375 -0.171875 -1.546875 -0.171875l-0.625 0l0 6.375l-3.078125 0zm3.078125 -8.8125l2.28125 0q2.21875 0 2.765625 -0.1875q0.5625 -0.1875 0.875 -0.640625q0.3125 -0.46875 0.3125 -1.140625q0 -0.78125 -0.421875 -1.25q-0.40625 -0.46875 -1.15625 -0.59375q-0.375 -0.0625 -2.25 -0.0625l-2.40625 0l0 3.875zm19.574371 8.8125l0 -1.65625q-0.609375 0.890625 -1.59375 1.40625q-0.984375 0.5 -2.078125 0.5q-1.109375 0 -2.0 -0.484375q-0.875 -0.5 -1.28125 -1.375q-0.390625 -0.890625 -0.390625 -2.453125l0 -7.0l2.921875 0l0 5.078125q0 2.34375 0.15625 2.875q0.171875 0.515625 0.59375 0.828125q0.4375 0.296875 1.09375 0.296875q0.75 0 1.34375 -0.40625q0.59375 -0.40625 0.8125 -1.015625q0.21875 -0.609375 0.21875 -2.984375l0 -4.671875l2.921875 0l0 11.0625l-2.71875 0zm15.809326 0l-2.921875 0l0 -5.640625q0 -1.796875 -0.1875 -2.3125q-0.1875 -0.53125 -0.609375 -0.828125q-0.421875 -0.296875 -1.015625 -0.296875q-0.765625 0 -1.375 0.421875q-0.59375 0.421875 -0.828125 1.109375q-0.21875 0.6875 -0.21875 2.53125l0 5.015625l-2.921875 0l0 -11.0625l2.71875 0l0 1.625q1.4375 -1.875 3.640625 -1.875q0.96875 0 1.765625 0.359375q0.8125 0.34375 1.21875 0.890625q0.40625 0.53125 0.5625 1.21875q0.171875 0.6875 0.171875 1.96875l0 6.875zm3.5280762 -8.140625l0 -2.921875l2.921875 0l0 2.921875l-2.921875 0zm0 8.140625l0 -2.921875l2.921875 0l0 2.921875l-2.921875 0z" fill-rule="nonzero"/><path fill="#f6b26b" d="m930.16876 184.31781l0 295.4779l-162.46173 0l0 -295.4779z" fill-rule="evenodd"/><path stroke="#000000" stroke-width="1.0" stroke-linejoin="round" stroke-linecap="butt" d="m930.16876 184.31781l0 295.4779l-162.46173 0l0 -295.4779z" fill-rule="evenodd"/><path fill="#f6b26b" d="m767.6705 184.31781l0 295.4779l-162.46167 0l0 -295.4779z" fill-rule="evenodd"/><path stroke="#000000" stroke-width="1.0" stroke-linejoin="round" stroke-linecap="butt" d="m767.6705 184.31781l0 295.4779l-162.46167 0l0 -295.4779z" fill-rule="evenodd"/><path fill="#f6b26b" d="m605.17224 184.31781l0 295.4779l-162.4617 0l0 -295.4779z" fill-rule="evenodd"/><path stroke="#000000" stroke-width="1.0" stroke-linejoin="round" stroke-linecap="butt" d="m605.17224 184.31781l0 295.4779l-162.4617 0l0 -295.4779z" fill-rule="evenodd"/><path fill="#f6b26b" d="m442.674 184.31781l0 295.4779l-162.46173 0l0 -295.4779z" fill-rule="evenodd"/><path stroke="#000000" stroke-width="1.0" stroke-linejoin="round" stroke-linecap="butt" d="m442.674 184.31781l0 295.4779l-162.46173 0l0 -295.4779z" fill-rule="evenodd"/><path fill="#f6b26b" d="m280.17575 184.31781l0 295.4779l-162.4617 0l0 -295.4779z" fill-rule="evenodd"/><path stroke="#000000" stroke-width="1.0" stroke-linejoin="round" stroke-linecap="butt" d="m280.17575 184.31781l0 295.4779l-162.4617 0l0 -295.4779z" fill-rule="evenodd"/><path fill="#000000" fill-opacity="0.0" d="m280.49536 69.85302l160.98282 0l0 41.41732l-160.98282 0z" fill-rule="evenodd"/><path fill="#000000" d="m309.6491 92.97614l1.59375 -0.21875q0.078125 1.53125 0.578125 2.109375q0.515625 0.5625 1.421875 0.5625q0.65625 0 1.140625 -0.296875q0.484375 -0.3125 0.65625 -0.828125q0.1875 -0.53125 0.1875 -1.6875l0 -9.203125l1.765625 0l0 9.109375q0 1.671875 -0.40625 2.59375q-0.40625 0.921875 -1.28125 1.40625q-0.875 0.484375 -2.0625 0.484375q-1.75 0 -2.6875 -1.015625q-0.9375 -1.015625 -0.90625 -3.015625zm16.359375 3.796875l0 -1.421875q-1.125 1.640625 -3.0625 1.640625q-0.859375 0 -1.609375 -0.328125q-0.734375 -0.328125 -1.09375 -0.828125q-0.359375 -0.5 -0.5 -1.21875q-0.109375 -0.46875 -0.109375 -1.53125l0 -5.984375l1.640625 0l0 5.359375q0 1.28125 0.109375 1.734375q0.15625 0.640625 0.65625 1.015625q0.5 0.375 1.234375 0.375q0.734375 0 1.375 -0.375q0.65625 -0.390625 0.921875 -1.03125q0.265625 -0.65625 0.265625 -1.890625l0 -5.1875l1.640625 0l0 9.671875l-1.46875 0zm4.0476074 0l0 -9.671875l1.46875 0l0 1.375q1.0625 -1.59375 3.078125 -1.59375q0.875 0 1.609375 0.3125q0.734375 0.3125 1.09375 0.828125q0.375 0.5 0.515625 1.203125q0.09375 0.453125 0.09375 1.59375l0 5.953125l-1.640625 0l0 -5.890625q0 -1.0 -0.203125 -1.484375q-0.1875 -0.5 -0.671875 -0.796875q-0.484375 -0.296875 -1.140625 -0.296875q-1.046875 0 -1.8125 0.671875q-0.75 0.65625 -0.75 2.515625l0 5.28125l-1.640625 0zm17.000702 -3.109375l1.6875 0.203125q-0.40625 1.484375 -1.484375 2.3125q-1.078125 0.8125 -2.765625 0.8125q-2.125 0 -3.375 -1.296875q-1.234375 -1.3125 -1.234375 -3.671875q0 -2.453125 1.25 -3.796875q1.265625 -1.34375 3.265625 -1.34375q1.9375 0 3.15625 1.328125q1.234375 1.3125 1.234375 3.703125q0 0.15625 0 0.4375l-7.21875 0q0.09375 1.59375 0.90625 2.453125q0.8125 0.84375 2.015625 0.84375q0.90625 0 1.546875 -0.46875q0.640625 -0.484375 1.015625 -1.515625zm-5.390625 -2.65625l5.40625 0q-0.109375 -1.21875 -0.625 -1.828125q-0.78125 -0.953125 -2.03125 -0.953125q-1.125 0 -1.90625 0.765625q-0.765625 0.75 -0.84375 2.015625zm9.563232 5.765625l0 -1.875l1.875 0l0 1.875q0 1.03125 -0.375 1.65625q-0.359375 0.640625 -1.15625 0.984375l-0.453125 -0.703125q0.515625 -0.21875 0.765625 -0.671875q0.25 -0.4375 0.28125 -1.265625l-0.9375 0zm13.576233 0l0 -5.65625l-5.15625 -7.703125l2.15625 0l2.640625 4.03125q0.71875 1.125 1.34375 2.265625q0.609375 -1.046875 1.46875 -2.359375l2.578125 -3.9375l2.0625 0l-5.328125 7.703125l0 5.65625l-1.765625 0zm13.3862915 -3.109375l1.6875 0.203125q-0.40625 1.484375 -1.484375 2.3125q-1.078125 0.8125 -2.765625 0.8125q-2.125 0 -3.375 -1.296875q-1.234375 -1.3125 -1.234375 -3.671875q0 -2.453125 1.25 -3.796875q1.265625 -1.34375 3.265625 -1.34375q1.9375 0 3.15625 1.328125q1.234375 1.3125 1.234375 3.703125q0 0.15625 0 0.4375l-7.21875 0q0.09375 1.59375 0.90625 2.453125q0.8125 0.84375 2.015625 0.84375q0.90625 0 1.546875 -0.46875q0.640625 -0.484375 1.015625 -1.515625zm-5.390625 -2.65625l5.40625 0q-0.109375 -1.21875 -0.625 -1.828125q-0.78125 -0.953125 -2.03125 -0.953125q-1.125 0 -1.90625 0.765625q-0.765625 0.75 -0.84375 2.015625zm15.453827 4.578125q-0.921875 0.765625 -1.765625 1.09375q-0.828125 0.3125 -1.796875 0.3125q-1.59375 0 -2.453125 -0.78125q-0.859375 -0.78125 -0.859375 -1.984375q0 -0.71875 0.328125 -1.296875q0.328125 -0.59375 0.84375 -0.9375q0.53125 -0.359375 1.1875 -0.546875q0.46875 -0.125 1.453125 -0.25q1.984375 -0.234375 2.921875 -0.5625q0.015625 -0.34375 0.015625 -0.421875q0 -1.0 -0.46875 -1.421875q-0.625 -0.546875 -1.875 -0.546875q-1.15625 0 -1.703125 0.40625q-0.546875 0.40625 -0.8125 1.421875l-1.609375 -0.21875q0.21875 -1.015625 0.71875 -1.640625q0.5 -0.640625 1.453125 -0.984375q0.953125 -0.34375 2.1875 -0.34375q1.25 0 2.015625 0.296875q0.78125 0.28125 1.140625 0.734375q0.375 0.4375 0.515625 1.109375q0.078125 0.421875 0.078125 1.515625l0 2.1875q0 2.28125 0.109375 2.890625q0.109375 0.59375 0.40625 1.15625l-1.703125 0q-0.265625 -0.515625 -0.328125 -1.1875zm-0.140625 -3.671875q-0.890625 0.375 -2.671875 0.625q-1.015625 0.140625 -1.4375 0.328125q-0.421875 0.1875 -0.65625 0.53125q-0.21875 0.34375 -0.21875 0.78125q0 0.65625 0.5 1.09375q0.5 0.4375 1.453125 0.4375q0.9375 0 1.671875 -0.40625q0.75 -0.421875 1.09375 -1.140625q0.265625 -0.5625 0.265625 -1.640625l0 -0.609375zm4.1882324 4.859375l0 -9.671875l1.46875 0l0 1.46875q0.5625 -1.03125 1.03125 -1.359375q0.484375 -0.328125 1.0625 -0.328125q0.828125 0 1.6875 0.53125l-0.5625 1.515625q-0.609375 -0.359375 -1.203125 -0.359375q-0.546875 0 -0.96875 0.328125q-0.421875 0.328125 -0.609375 0.890625q-0.28125 0.875 -0.28125 1.921875l0 5.0625l-1.625 0zm10.958466 -3.5l1.71875 -0.140625q0.1875 1.25 0.875 1.890625q0.703125 0.625 1.6875 0.625q1.1875 0 2.0 -0.890625q0.828125 -0.890625 0.828125 -2.359375q0 -1.40625 -0.796875 -2.21875q-0.78125 -0.8125 -2.0625 -0.8125q-0.78125 0 -1.421875 0.359375q-0.640625 0.359375 -1.0 0.9375l-1.546875 -0.203125l1.296875 -6.859375l6.640625 0l0 1.5625l-5.328125 0l-0.71875 3.59375q1.203125 -0.84375 2.515625 -0.84375q1.75 0 2.953125 1.21875q1.203125 1.203125 1.203125 3.109375q0 1.8125 -1.046875 3.140625q-1.296875 1.625 -3.515625 1.625q-1.8125 0 -2.96875 -1.015625q-1.15625 -1.03125 -1.3125 -2.71875z" fill-rule="nonzero"/><path fill="#000000" fill-opacity="0.0" d="m119.512535 69.85302l160.98282 0l0 41.41732l-160.98282 0z" fill-rule="evenodd"/><path fill="#000000" d="m148.66629 92.97614l1.59375 -0.21875q0.078125 1.53125 0.578125 2.109375q0.515625 0.5625 1.421875 0.5625q0.65625 0 1.140625 -0.296875q0.484375 -0.3125 0.65625 -0.828125q0.1875 -0.53125 0.1875 -1.6875l0 -9.203125l1.765625 0l0 9.109375q0 1.671875 -0.40625 2.59375q-0.40625 0.921875 -1.28125 1.40625q-0.875 0.484375 -2.0625 0.484375q-1.75 0 -2.6875 -1.015625q-0.9375 -1.015625 -0.90625 -3.015625zm16.359375 3.796875l0 -1.421875q-1.125 1.640625 -3.0625 1.640625q-0.859375 0 -1.609375 -0.328125q-0.734375 -0.328125 -1.09375 -0.828125q-0.359375 -0.5 -0.5 -1.21875q-0.109375 -0.46875 -0.109375 -1.53125l0 -5.984375l1.640625 0l0 5.359375q0 1.28125 0.109375 1.734375q0.15625 0.640625 0.65625 1.015625q0.5 0.375 1.234375 0.375q0.734375 0 1.375 -0.375q0.65625 -0.390625 0.921875 -1.03125q0.265625 -0.65625 0.265625 -1.890625l0 -5.1875l1.640625 0l0 9.671875l-1.46875 0zm4.047592 0l0 -9.671875l1.46875 0l0 1.375q1.0625 -1.59375 3.078125 -1.59375q0.875 0 1.609375 0.3125q0.734375 0.3125 1.09375 0.828125q0.375 0.5 0.515625 1.203125q0.09375 0.453125 0.09375 1.59375l0 5.953125l-1.640625 0l0 -5.890625q0 -1.0 -0.203125 -1.484375q-0.1875 -0.5 -0.671875 -0.796875q-0.484375 -0.296875 -1.140625 -0.296875q-1.046875 0 -1.8125 0.671875q-0.75 0.65625 -0.75 2.515625l0 5.28125l-1.640625 0zm17.000717 -3.109375l1.6875 0.203125q-0.40625 1.484375 -1.484375 2.3125q-1.078125 0.8125 -2.765625 0.8125q-2.125 0 -3.375 -1.296875q-1.234375 -1.3125 -1.234375 -3.671875q0 -2.453125 1.25 -3.796875q1.265625 -1.34375 3.265625 -1.34375q1.9375 0 3.15625 1.328125q1.234375 1.3125 1.234375 3.703125q0 0.15625 0 0.4375l-7.21875 0q0.09375 1.59375 0.90625 2.453125q0.8125 0.84375 2.015625 0.84375q0.90625 0 1.546875 -0.46875q0.640625 -0.484375 1.015625 -1.515625zm-5.390625 -2.65625l5.40625 0q-0.109375 -1.21875 -0.625 -1.828125q-0.78125 -0.953125 -2.03125 -0.953125q-1.125 0 -1.90625 0.765625q-0.765625 0.75 -0.84375 2.015625zm9.563217 5.765625l0 -1.875l1.875 0l0 1.875q0 1.03125 -0.375 1.65625q-0.359375 0.640625 -1.15625 0.984375l-0.453125 -0.703125q0.515625 -0.21875 0.765625 -0.671875q0.25 -0.4375 0.28125 -1.265625l-0.9375 0zm13.576248 0l0 -5.65625l-5.15625 -7.703125l2.15625 0l2.640625 4.03125q0.71875 1.125 1.34375 2.265625q0.609375 -1.046875 1.46875 -2.359375l2.578125 -3.9375l2.0625 0l-5.328125 7.703125l0 5.65625l-1.765625 0zm13.386276 -3.109375l1.6875 0.203125q-0.40625 1.484375 -1.484375 2.3125q-1.078125 0.8125 -2.765625 0.8125q-2.125 0 -3.375 -1.296875q-1.234375 -1.3125 -1.234375 -3.671875q0 -2.453125 1.25 -3.796875q1.265625 -1.34375 3.265625 -1.34375q1.9375 0 3.15625 1.328125q1.234375 1.3125 1.234375 3.703125q0 0.15625 0 0.4375l-7.21875 0q0.09375 1.59375 0.90625 2.453125q0.8125 0.84375 2.015625 0.84375q0.90625 0 1.546875 -0.46875q0.640625 -0.484375 1.015625 -1.515625zm-5.390625 -2.65625l5.40625 0q-0.109375 -1.21875 -0.625 -1.828125q-0.78125 -0.953125 -2.03125 -0.953125q-1.125 0 -1.90625 0.765625q-0.765625 0.75 -0.84375 2.015625zm15.453842 4.578125q-0.921875 0.765625 -1.765625 1.09375q-0.828125 0.3125 -1.796875 0.3125q-1.59375 0 -2.453125 -0.78125q-0.859375 -0.78125 -0.859375 -1.984375q0 -0.71875 0.328125 -1.296875q0.328125 -0.59375 0.84375 -0.9375q0.53125 -0.359375 1.1875 -0.546875q0.46875 -0.125 1.453125 -0.25q1.984375 -0.234375 2.921875 -0.5625q0.015625 -0.34375 0.015625 -0.421875q0 -1.0 -0.46875 -1.421875q-0.625 -0.546875 -1.875 -0.546875q-1.15625 0 -1.703125 0.40625q-0.546875 0.40625 -0.8125 1.421875l-1.609375 -0.21875q0.21875 -1.015625 0.71875 -1.640625q0.5 -0.640625 1.453125 -0.984375q0.953125 -0.34375 2.1875 -0.34375q1.25 0 2.015625 0.296875q0.78125 0.28125 1.140625 0.734375q0.375 0.4375 0.515625 1.109375q0.078125 0.421875 0.078125 1.515625l0 2.1875q0 2.28125 0.109375 2.890625q0.109375 0.59375 0.40625 1.15625l-1.703125 0q-0.265625 -0.515625 -0.328125 -1.1875zm-0.140625 -3.671875q-0.890625 0.375 -2.671875 0.625q-1.015625 0.140625 -1.4375 0.328125q-0.421875 0.1875 -0.65625 0.53125q-0.21875 0.34375 -0.21875 0.78125q0 0.65625 0.5 1.09375q0.5 0.4375 1.453125 0.4375q0.9375 0 1.671875 -0.40625q0.75 -0.421875 1.09375 -1.140625q0.265625 -0.5625 0.265625 -1.640625l0 -0.609375zm4.188217 4.859375l0 -9.671875l1.46875 0l0 1.46875q0.5625 -1.03125 1.03125 -1.359375q0.484375 -0.328125 1.0625 -0.328125q0.828125 0 1.6875 0.53125l-0.5625 1.515625q-0.609375 -0.359375 -1.203125 -0.359375q-0.546875 0 -0.96875 0.328125q-0.421875 0.328125 -0.609375 0.890625q-0.28125 0.875 -0.28125 1.921875l0 5.0625l-1.625 0zm17.13034 0l-1.6406097 0l0 -10.453125q-0.59375 0.5625 -1.5625 1.140625q-0.953125 0.5625 -1.71875 0.84375l0 -1.59375q1.375 -0.640625 2.40625 -1.5625q1.03125 -0.921875 1.453125 -1.78125l1.0624847 0l0 13.40625z" fill-rule="nonzero"/><path fill="#000000" fill-opacity="0.0" d="m766.92737 69.85302l160.98279 0l0 41.41732l-160.98279 0z" fill-rule="evenodd"/><path fill="#000000" d="m796.0811 92.97614l1.59375 -0.21875q0.078125 1.53125 0.578125 2.109375q0.515625 0.5625 1.421875 0.5625q0.65625 0 1.140625 -0.296875q0.484375 -0.3125 0.65625 -0.828125q0.1875 -0.53125 0.1875 -1.6875l0 -9.203125l1.765625 0l0 9.109375q0 1.671875 -0.40625 2.59375q-0.40625 0.921875 -1.28125 1.40625q-0.875 0.484375 -2.0625 0.484375q-1.75 0 -2.6875 -1.015625q-0.9375 -1.015625 -0.90625 -3.015625zm16.359375 3.796875l0 -1.421875q-1.125 1.640625 -3.0625 1.640625q-0.859375 0 -1.609375 -0.328125q-0.734375 -0.328125 -1.09375 -0.828125q-0.359375 -0.5 -0.5 -1.21875q-0.109375 -0.46875 -0.109375 -1.53125l0 -5.984375l1.640625 0l0 5.359375q0 1.28125 0.109375 1.734375q0.15625 0.640625 0.65625 1.015625q0.5 0.375 1.234375 0.375q0.734375 0 1.375 -0.375q0.65625 -0.390625 0.921875 -1.03125q0.265625 -0.65625 0.265625 -1.890625l0 -5.1875l1.640625 0l0 9.671875l-1.46875 0zm4.0476074 0l0 -9.671875l1.46875 0l0 1.375q1.0625 -1.59375 3.078125 -1.59375q0.875 0 1.609375 0.3125q0.734375 0.3125 1.09375 0.828125q0.375 0.5 0.515625 1.203125q0.09375 0.453125 0.09375 1.59375l0 5.953125l-1.640625 0l0 -5.890625q0 -1.0 -0.203125 -1.484375q-0.1875 -0.5 -0.671875 -0.796875q-0.484375 -0.296875 -1.140625 -0.296875q-1.046875 0 -1.8125 0.671875q-0.75 0.65625 -0.75 2.515625l0 5.28125l-1.640625 0zm17.000671 -3.109375l1.6875 0.203125q-0.40625 1.484375 -1.484375 2.3125q-1.078125 0.8125 -2.765625 0.8125q-2.125 0 -3.375 -1.296875q-1.234375 -1.3125 -1.234375 -3.671875q0 -2.453125 1.25 -3.796875q1.265625 -1.34375 3.265625 -1.34375q1.9375 0 3.15625 1.328125q1.234375 1.3125 1.234375 3.703125q0 0.15625 0 0.4375l-7.21875 0q0.09375 1.59375 0.90625 2.453125q0.8125 0.84375 2.015625 0.84375q0.90625 0 1.546875 -0.46875q0.640625 -0.484375 1.015625 -1.515625zm-5.390625 -2.65625l5.40625 0q-0.109375 -1.21875 -0.625 -1.828125q-0.78125 -0.953125 -2.03125 -0.953125q-1.125 0 -1.90625 0.765625q-0.765625 0.75 -0.84375 2.015625zm9.563232 5.765625l0 -1.875l1.875 0l0 1.875q0 1.03125 -0.375 1.65625q-0.359375 0.640625 -1.15625 0.984375l-0.453125 -0.703125q0.515625 -0.21875 0.765625 -0.671875q0.25 -0.4375 0.28125 -1.265625l-0.9375 0zm13.576233 0l0 -5.65625l-5.15625 -7.703125l2.15625 0l2.640625 4.03125q0.71875 1.125 1.34375 2.265625q0.609375 -1.046875 1.46875 -2.359375l2.578125 -3.9375l2.0625 0l-5.328125 7.703125l0 5.65625l-1.765625 0zm13.3862915 -3.109375l1.6875 0.203125q-0.40625 1.484375 -1.484375 2.3125q-1.078125 0.8125 -2.765625 0.8125q-2.125 0 -3.375 -1.296875q-1.234375 -1.3125 -1.234375 -3.671875q0 -2.453125 1.25 -3.796875q1.265625 -1.34375 3.265625 -1.34375q1.9375 0 3.15625 1.328125q1.234375 1.3125 1.234375 3.703125q0 0.15625 0 0.4375l-7.21875 0q0.09375 1.59375 0.90625 2.453125q0.8125 0.84375 2.015625 0.84375q0.90625 0 1.546875 -0.46875q0.640625 -0.484375 1.015625 -1.515625zm-5.390625 -2.65625l5.40625 0q-0.109375 -1.21875 -0.625 -1.828125q-0.78125 -0.953125 -2.03125 -0.953125q-1.125 0 -1.90625 0.765625q-0.765625 0.75 -0.84375 2.015625zm15.453857 4.578125q-0.921875 0.765625 -1.765625 1.09375q-0.828125 0.3125 -1.796875 0.3125q-1.59375 0 -2.453125 -0.78125q-0.859375 -0.78125 -0.859375 -1.984375q0 -0.71875 0.328125 -1.296875q0.328125 -0.59375 0.84375 -0.9375q0.53125 -0.359375 1.1875 -0.546875q0.46875 -0.125 1.453125 -0.25q1.984375 -0.234375 2.921875 -0.5625q0.015625 -0.34375 0.015625 -0.421875q0 -1.0 -0.46875 -1.421875q-0.625 -0.546875 -1.875 -0.546875q-1.15625 0 -1.703125 0.40625q-0.546875 0.40625 -0.8125 1.421875l-1.609375 -0.21875q0.21875 -1.015625 0.71875 -1.640625q0.5 -0.640625 1.453125 -0.984375q0.953125 -0.34375 2.1875 -0.34375q1.25 0 2.015625 0.296875q0.78125 0.28125 1.140625 0.734375q0.375 0.4375 0.515625 1.109375q0.078125 0.421875 0.078125 1.515625l0 2.1875q0 2.28125 0.109375 2.890625q0.109375 0.59375 0.40625 1.15625l-1.703125 0q-0.265625 -0.515625 -0.328125 -1.1875zm-0.140625 -3.671875q-0.890625 0.375 -2.671875 0.625q-1.015625 0.140625 -1.4375 0.328125q-0.421875 0.1875 -0.65625 0.53125q-0.21875 0.34375 -0.21875 0.78125q0 0.65625 0.5 1.09375q0.5 0.4375 1.453125 0.4375q0.9375 0 1.671875 -0.40625q0.75 -0.421875 1.09375 -1.140625q0.265625 -0.5625 0.265625 -1.640625l0 -0.609375zm4.1882324 4.859375l0 -9.671875l1.46875 0l0 1.46875q0.5625 -1.03125 1.03125 -1.359375q0.484375 -0.328125 1.0625 -0.328125q0.828125 0 1.6875 0.53125l-0.5625 1.515625q-0.609375 -0.359375 -1.203125 -0.359375q-0.546875 0 -0.96875 0.328125q-0.421875 0.328125 -0.609375 0.890625q-0.28125 0.875 -0.28125 1.921875l0 5.0625l-1.625 0zm17.13031 0l-1.640625 0l0 -10.453125q-0.59375 0.5625 -1.5625 1.140625q-0.953125 0.5625 -1.71875 0.84375l0 -1.59375q1.375 -0.640625 2.40625 -1.5625q1.03125 -0.921875 1.453125 -1.78125l1.0625 0l0 13.40625z" fill-rule="nonzero"/><path fill="#000000" fill-opacity="0.0" d="m444.95993 69.85302l160.98282 0l0 41.41732l-160.98282 0z" fill-rule="evenodd"/><path fill="#000000" d="m468.92584 92.97614l1.59375 -0.21875q0.078125 1.53125 0.578125 2.109375q0.515625 0.5625 1.421875 0.5625q0.65625 0 1.140625 -0.296875q0.484375 -0.3125 0.65625 -0.828125q0.1875 -0.53125 0.1875 -1.6875l0 -9.203125l1.765625 0l0 9.109375q0 1.671875 -0.40625 2.59375q-0.40625 0.921875 -1.28125 1.40625q-0.875 0.484375 -2.0625 0.484375q-1.75 0 -2.6875 -1.015625q-0.9375 -1.015625 -0.90625 -3.015625zm16.359375 3.796875l0 -1.421875q-1.125 1.640625 -3.0625 1.640625q-0.859375 0 -1.609375 -0.328125q-0.734375 -0.328125 -1.09375 -0.828125q-0.359375 -0.5 -0.5 -1.21875q-0.109375 -0.46875 -0.109375 -1.53125l0 -5.984375l1.640625 0l0 5.359375q0 1.28125 0.109375 1.734375q0.15625 0.640625 0.65625 1.015625q0.5 0.375 1.234375 0.375q0.734375 0 1.375 -0.375q0.65625 -0.390625 0.921875 -1.03125q0.265625 -0.65625 0.265625 -1.890625l0 -5.1875l1.640625 0l0 9.671875l-1.46875 0zm4.047577 0l0 -9.671875l1.46875 0l0 1.375q1.0625 -1.59375 3.078125 -1.59375q0.875 0 1.609375 0.3125q0.734375 0.3125 1.09375 0.828125q0.375 0.5 0.515625 1.203125q0.09375 0.453125 0.09375 1.59375l0 5.953125l-1.640625 0l0 -5.890625q0 -1.0 -0.203125 -1.484375q-0.1875 -0.5 -0.671875 -0.796875q-0.484375 -0.296875 -1.140625 -0.296875q-1.046875 0 -1.8125 0.671875q-0.75 0.65625 -0.75 2.515625l0 5.28125l-1.640625 0zm17.000732 -3.109375l1.6875 0.203125q-0.40625 1.484375 -1.484375 2.3125q-1.078125 0.8125 -2.765625 0.8125q-2.125 0 -3.375 -1.296875q-1.234375 -1.3125 -1.234375 -3.671875q0 -2.453125 1.25 -3.796875q1.265625 -1.34375 3.265625 -1.34375q1.9375 0 3.15625 1.328125q1.234375 1.3125 1.234375 3.703125q0 0.15625 0 0.4375l-7.21875 0q0.09375 1.59375 0.90625 2.453125q0.8125 0.84375 2.015625 0.84375q0.90625 0 1.546875 -0.46875q0.640625 -0.484375 1.015625 -1.515625zm-5.390625 -2.65625l5.40625 0q-0.109375 -1.21875 -0.625 -1.828125q-0.78125 -0.953125 -2.03125 -0.953125q-1.125 0 -1.90625 0.765625q-0.765625 0.75 -0.84375 2.015625zm9.563202 5.765625l0 -1.875l1.875 0l0 1.875q0 1.03125 -0.375 1.65625q-0.359375 0.640625 -1.15625 0.984375l-0.453125 -0.703125q0.515625 -0.21875 0.765625 -0.671875q0.25 -0.4375 0.28125 -1.265625l-0.9375 0zm13.576233 0l0 -5.65625l-5.15625 -7.703125l2.15625 0l2.640625 4.03125q0.71875 1.125 1.34375 2.265625q0.609375 -1.046875 1.46875 -2.359375l2.578125 -3.9375l2.0625 0l-5.328125 7.703125l0 5.65625l-1.765625 0zm13.3862915 -3.109375l1.6875 0.203125q-0.40625 1.484375 -1.484375 2.3125q-1.078125 0.8125 -2.765625 0.8125q-2.125 0 -3.375 -1.296875q-1.234375 -1.3125 -1.234375 -3.671875q0 -2.453125 1.25 -3.796875q1.265625 -1.34375 3.265625 -1.34375q1.9375 0 3.15625 1.328125q1.234375 1.3125 1.234375 3.703125q0 0.15625 0 0.4375l-7.21875 0q0.09375 1.59375 0.90625 2.453125q0.8125 0.84375 2.015625 0.84375q0.90625 0 1.546875 -0.46875q0.640625 -0.484375 1.015625 -1.515625zm-5.390625 -2.65625l5.40625 0q-0.109375 -1.21875 -0.625 -1.828125q-0.78125 -0.953125 -2.03125 -0.953125q-1.125 0 -1.90625 0.765625q-0.765625 0.75 -0.84375 2.015625zm15.453857 4.578125q-0.921875 0.765625 -1.765625 1.09375q-0.828125 0.3125 -1.796875 0.3125q-1.59375 0 -2.453125 -0.78125q-0.859375 -0.78125 -0.859375 -1.984375q0 -0.71875 0.328125 -1.296875q0.328125 -0.59375 0.84375 -0.9375q0.53125 -0.359375 1.1875 -0.546875q0.46875 -0.125 1.453125 -0.25q1.984375 -0.234375 2.921875 -0.5625q0.015625 -0.34375 0.015625 -0.421875q0 -1.0 -0.46875 -1.421875q-0.625 -0.546875 -1.875 -0.546875q-1.15625 0 -1.703125 0.40625q-0.546875 0.40625 -0.8125 1.421875l-1.609375 -0.21875q0.21875 -1.015625 0.71875 -1.640625q0.5 -0.640625 1.453125 -0.984375q0.953125 -0.34375 2.1875 -0.34375q1.25 0 2.015625 0.296875q0.78125 0.28125 1.140625 0.734375q0.375 0.4375 0.515625 1.109375q0.078125 0.421875 0.078125 1.515625l0 2.1875q0 2.28125 0.109375 2.890625q0.109375 0.59375 0.40625 1.15625l-1.703125 0q-0.265625 -0.515625 -0.328125 -1.1875zm-0.140625 -3.671875q-0.890625 0.375 -2.671875 0.625q-1.015625 0.140625 -1.4375 0.328125q-0.421875 0.1875 -0.65625 0.53125q-0.21875 0.34375 -0.21875 0.78125q0 0.65625 0.5 1.09375q0.5 0.4375 1.453125 0.4375q0.9375 0 1.671875 -0.40625q0.75 -0.421875 1.09375 -1.140625q0.265625 -0.5625 0.265625 -1.640625l0 -0.609375zm4.1882324 4.859375l0 -9.671875l1.46875 0l0 1.46875q0.5625 -1.03125 1.03125 -1.359375q0.484375 -0.328125 1.0625 -0.328125q0.828125 0 1.6875 0.53125l-0.5625 1.515625q-0.609375 -0.359375 -1.203125 -0.359375q-0.546875 0 -0.96875 0.328125q-0.421875 0.328125 -0.609375 0.890625q-0.28125 0.875 -0.28125 1.921875l0 5.0625l-1.625 0zm17.13031 0l-1.640625 0l0 -10.453125q-0.59375 0.5625 -1.5625 1.140625q-0.953125 0.5625 -1.71875 0.84375l0 -1.59375q1.375 -0.640625 2.40625 -1.5625q1.03125 -0.921875 1.453125 -1.78125l1.0625 0l0 13.40625zm4.4382324 -3.09375l1.578125 -0.140625q0.203125 1.109375 0.765625 1.609375q0.5625 0.5 1.453125 0.5q0.75 0 1.3125 -0.34375q0.578125 -0.34375 0.9375 -0.921875q0.375 -0.578125 0.609375 -1.5625q0.25 -0.984375 0.25 -2.0q0 -0.109375 0 -0.328125q-0.5 0.78125 -1.359375 1.265625q-0.84375 0.484375 -1.828125 0.484375q-1.671875 0 -2.8125 -1.203125q-1.140625 -1.203125 -1.140625 -3.171875q0 -2.03125 1.1875 -3.265625q1.203125 -1.234375 3.0 -1.234375q1.3125 0 2.390625 0.703125q1.078125 0.703125 1.640625 2.0q0.5625 1.296875 0.5625 3.75q0 2.5625 -0.5625 4.078125q-0.5625 1.515625 -1.65625 2.3125q-1.09375 0.796875 -2.578125 0.796875q-1.5625 0 -2.5625 -0.875q-0.984375 -0.875 -1.1875 -2.453125zm6.71875 -5.890625q0 -1.40625 -0.75 -2.234375q-0.75 -0.828125 -1.8125 -0.828125q-1.09375 0 -1.90625 0.890625q-0.8125 0.890625 -0.8125 2.3125q0 1.28125 0.765625 2.078125q0.78125 0.796875 1.90625 0.796875q1.140625 0 1.875 -0.796875q0.734375 -0.796875 0.734375 -2.21875z" fill-rule="nonzero"/><path fill="#000000" fill-opacity="0.0" d="m605.9445 71.35171l160.98285 0l0 41.41732l-160.98285 0z" fill-rule="evenodd"/><path fill="#000000" d="m629.9104 94.47483l1.59375 -0.21875q0.078125 1.53125 0.578125 2.109375q0.515625 0.5625 1.421875 0.5625q0.65625 0 1.140625 -0.296875q0.484375 -0.3125 0.65625 -0.828125q0.1875 -0.53125 0.1875 -1.6875l0 -9.203125l1.765625 0l0 9.109375q0 1.671875 -0.40625 2.59375q-0.40625 0.921875 -1.28125 1.40625q-0.875 0.484375 -2.0625 0.484375q-1.75 0 -2.6875 -1.015625q-0.9375 -1.015625 -0.90625 -3.015625zm16.359375 3.796875l0 -1.421875q-1.125 1.640625 -3.0625 1.640625q-0.859375 0 -1.609375 -0.328125q-0.734375 -0.328125 -1.09375 -0.828125q-0.359375 -0.5 -0.5 -1.21875q-0.109375 -0.46875 -0.109375 -1.53125l0 -5.984375l1.640625 0l0 5.359375q0 1.28125 0.109375 1.734375q0.15625 0.640625 0.65625 1.015625q0.5 0.375 1.234375 0.375q0.734375 0 1.375 -0.375q0.65625 -0.390625 0.921875 -1.03125q0.265625 -0.65625 0.265625 -1.890625l0 -5.1875l1.640625 0l0 9.671875l-1.46875 0zm4.0476074 0l0 -9.671875l1.46875 0l0 1.375q1.0625 -1.59375 3.078125 -1.59375q0.875 0 1.609375 0.3125q0.734375 0.3125 1.09375 0.828125q0.375 0.5 0.515625 1.203125q0.09375 0.453125 0.09375 1.59375l0 5.953125l-1.640625 0l0 -5.890625q0 -1.0 -0.203125 -1.484375q-0.1875 -0.5 -0.671875 -0.796875q-0.484375 -0.296875 -1.140625 -0.296875q-1.046875 0 -1.8125 0.671875q-0.75 0.65625 -0.75 2.515625l0 5.28125l-1.640625 0zm17.000732 -3.109375l1.6875 0.203125q-0.40625 1.484375 -1.484375 2.3125q-1.078125 0.8125 -2.765625 0.8125q-2.125 0 -3.375 -1.296875q-1.234375 -1.3125 -1.234375 -3.671875q0 -2.453125 1.25 -3.796875q1.265625 -1.34375 3.265625 -1.34375q1.9375 0 3.15625 1.328125q1.234375 1.3125 1.234375 3.703125q0 0.15625 0 0.4375l-7.21875 0q0.09375 1.59375 0.90625 2.453125q0.8125 0.84375 2.015625 0.84375q0.90625 0 1.546875 -0.46875q0.640625 -0.484375 1.015625 -1.515625zm-5.390625 -2.65625l5.40625 0q-0.109375 -1.21875 -0.625 -1.828125q-0.78125 -0.953125 -2.03125 -0.953125q-1.125 0 -1.90625 0.765625q-0.765625 0.75 -0.84375 2.015625zm9.563232 5.765625l0 -1.875l1.875 0l0 1.875q0 1.03125 -0.375 1.65625q-0.359375 0.640625 -1.15625 0.984375l-0.453125 -0.703125q0.515625 -0.21875 0.765625 -0.671875q0.25 -0.4375 0.28125 -1.265625l-0.9375 0zm13.576233 0l0 -5.65625l-5.15625 -7.703125l2.15625 0l2.640625 4.03125q0.71875 1.125 1.34375 2.265625q0.609375 -1.046875 1.46875 -2.359375l2.578125 -3.9375l2.0625 0l-5.328125 7.703125l0 5.65625l-1.765625 0zm13.3862915 -3.109375l1.6875 0.203125q-0.40625 1.484375 -1.484375 2.3125q-1.078125 0.8125 -2.765625 0.8125q-2.125 0 -3.375 -1.296875q-1.234375 -1.3125 -1.234375 -3.671875q0 -2.453125 1.25 -3.796875q1.265625 -1.34375 3.265625 -1.34375q1.9375 0 3.15625 1.328125q1.234375 1.3125 1.234375 3.703125q0 0.15625 0 0.4375l-7.21875 0q0.09375 1.59375 0.90625 2.453125q0.8125 0.84375 2.015625 0.84375q0.90625 0 1.546875 -0.46875q0.640625 -0.484375 1.015625 -1.515625zm-5.390625 -2.65625l5.40625 0q-0.109375 -1.21875 -0.625 -1.828125q-0.78125 -0.953125 -2.03125 -0.953125q-1.125 0 -1.90625 0.765625q-0.765625 0.75 -0.84375 2.015625zm15.453796 4.578125q-0.921875 0.765625 -1.765625 1.09375q-0.828125 0.3125 -1.796875 0.3125q-1.59375 0 -2.453125 -0.78125q-0.859375 -0.78125 -0.859375 -1.984375q0 -0.71875 0.328125 -1.296875q0.328125 -0.59375 0.84375 -0.9375q0.53125 -0.359375 1.1875 -0.546875q0.46875 -0.125 1.453125 -0.25q1.984375 -0.234375 2.921875 -0.5625q0.015625 -0.34375 0.015625 -0.421875q0 -1.0 -0.46875 -1.421875q-0.625 -0.546875 -1.875 -0.546875q-1.15625 0 -1.703125 0.40625q-0.546875 0.40625 -0.8125 1.421875l-1.609375 -0.21875q0.21875 -1.015625 0.71875 -1.640625q0.5 -0.640625 1.453125 -0.984375q0.953125 -0.34375 2.1875 -0.34375q1.25 0 2.015625 0.296875q0.78125 0.28125 1.140625 0.734375q0.375 0.4375 0.515625 1.109375q0.078125 0.421875 0.078125 1.515625l0 2.1875q0 2.28125 0.109375 2.890625q0.109375 0.59375 0.40625 1.15625l-1.703125 0q-0.265625 -0.515625 -0.328125 -1.1875zm-0.140625 -3.671875q-0.890625 0.375 -2.671875 0.625q-1.015625 0.140625 -1.4375 0.328125q-0.421875 0.1875 -0.65625 0.53125q-0.21875 0.34375 -0.21875 0.78125q0 0.65625 0.5 1.09375q0.5 0.4375 1.453125 0.4375q0.9375 0 1.671875 -0.40625q0.75 -0.421875 1.09375 -1.140625q0.265625 -0.5625 0.265625 -1.640625l0 -0.609375zm4.1882324 4.859375l0 -9.671875l1.46875 0l0 1.46875q0.5625 -1.03125 1.03125 -1.359375q0.484375 -0.328125 1.0625 -0.328125q0.828125 0 1.6875 0.53125l-0.5625 1.515625q-0.609375 -0.359375 -1.203125 -0.359375q-0.546875 0 -0.96875 0.328125q-0.421875 0.328125 -0.609375 0.890625q-0.28125 0.875 -0.28125 1.921875l0 5.0625l-1.625 0zm19.567871 -1.578125l0 1.578125l-8.828125 0q-0.015625 -0.59375 0.1875 -1.140625q0.34375 -0.90625 1.078125 -1.78125q0.75 -0.875 2.15625 -2.015625q2.171875 -1.78125 2.9375 -2.828125q0.765625 -1.046875 0.765625 -1.96875q0 -0.984375 -0.703125 -1.640625q-0.6875 -0.671875 -1.8125 -0.671875q-1.1875 0 -1.90625 0.71875q-0.703125 0.703125 -0.703125 1.953125l-1.6875 -0.171875q0.171875 -1.890625 1.296875 -2.875q1.140625 -0.984375 3.03125 -0.984375q1.921875 0 3.046875 1.0625q1.125 1.0625 1.125 2.640625q0 0.796875 -0.328125 1.578125q-0.328125 0.78125 -1.09375 1.640625q-0.75 0.84375 -2.53125 2.34375q-1.46875 1.234375 -1.890625 1.6875q-0.421875 0.4375 -0.6875 0.875l6.546875 0zm1.8757324 -10.03125l0 -1.578125l8.640625 0l0 1.28125q-1.28125 1.359375 -2.53125 3.609375q-1.25 2.25 -1.9375 4.625q-0.484375 1.671875 -0.625 3.671875l-1.6875 0q0.03125 -1.578125 0.625 -3.8125q0.59375 -2.234375 1.6875 -4.296875q1.109375 -2.078125 2.359375 -3.5l-6.53125 0z" fill-rule="nonzero"/><path fill="#000000" fill-opacity="0.0" d="m119.512535 118.561676l160.98282 0l0 41.417328l-160.98282 0z" fill-rule="evenodd"/><path fill="#000000" d="m201.76921 145.48167l-1.640625 0l0 -10.453125q-0.59375 0.5625 -1.5625 1.140625q-0.953125 0.5625 -1.71875 0.84375l0 -1.59375q1.375 -0.640625 2.40625 -1.5625q1.03125 -0.921875 1.453125 -1.78125l1.0625 0l0 13.40625z" fill-rule="nonzero"/><path fill="#000000" fill-opacity="0.0" d="m280.49536 118.561676l160.98282 0l0 41.417328l-160.98282 0z" fill-rule="evenodd"/><path fill="#000000" d="m362.75204 145.48167l-1.640625 0l0 -10.453125q-0.59375 0.5625 -1.5625 1.140625q-0.953125 0.5625 -1.71875 0.84375l0 -1.59375q1.375 -0.640625 2.40625 -1.5625q1.03125 -0.921875 1.453125 -1.78125l1.0625 0l0 13.40625z" fill-rule="nonzero"/><path fill="#000000" fill-opacity="0.0" d="m444.9617 118.561676l160.98282 0l0 41.417328l-160.98282 0z" fill-rule="evenodd"/><path fill="#000000" d="m527.2184 145.48167l-1.640625 0l0 -10.453125q-0.59375 0.5625 -1.5625 1.140625q-0.953125 0.5625 -1.71875 0.84375l0 -1.59375q1.375 -0.640625 2.40625 -1.5625q1.03125 -0.921875 1.453125 -1.78125l1.0625 0l0 13.40625z" fill-rule="nonzero"/><path fill="#000000" fill-opacity="0.0" d="m605.9445 118.561676l160.98285 0l0 41.417328l-160.98285 0z" fill-rule="evenodd"/><path fill="#000000" d="m688.2012 145.48167l-1.640625 0l0 -10.453125q-0.59375 0.5625 -1.5625 1.140625q-0.953125 0.5625 -1.71875 0.84375l0 -1.59375q1.375 -0.640625 2.40625 -1.5625q1.03125 -0.921875 1.453125 -1.78125l1.0625 0l0 13.40625z" fill-rule="nonzero"/><path fill="#000000" fill-opacity="0.0" d="m770.4109 118.561676l160.98279 0l0 41.417328l-160.98279 0z" fill-rule="evenodd"/><path fill="#000000" d="m855.10504 143.90355l0 1.578125l-8.828125 0q-0.015625 -0.59375 0.1875 -1.140625q0.34375 -0.90625 1.078125 -1.78125q0.75 -0.875 2.15625 -2.015625q2.171875 -1.78125 2.9375 -2.828125q0.765625 -1.046875 0.765625 -1.96875q0 -0.984375 -0.703125 -1.640625q-0.6875 -0.671875 -1.8125 -0.671875q-1.1875 0 -1.90625 0.71875q-0.703125 0.703125 -0.703125 1.953125l-1.6875 -0.171875q0.171875 -1.890625 1.296875 -2.875q1.140625 -0.984375 3.03125 -0.984375q1.921875 0 3.046875 1.0625q1.125 1.0625 1.125 2.640625q0 0.796875 -0.328125 1.578125q-0.328125 0.78125 -1.09375 1.640625q-0.75 0.84375 -2.53125 2.34375q-1.46875 1.234375 -1.890625 1.6875q-0.421875 0.4375 -0.6875 0.875l6.546875 0z" fill-rule="nonzero"/></g></svg>