<svg version="1.1" viewBox="0.0 0.0 960.0 540.0" fill="none" stroke="none" stroke-linecap="square" stroke-miterlimit="10" xmlns:xlink="http://www.w3.org/1999/xlink" xmlns="http://www.w3.org/2000/svg"><clipPath id="g95da32d36d_1_270.0"><path d="m0 0l960.0 0l0 540.0l-960.0 0l0 -540.0z" clip-rule="nonzero"/></clipPath><g clip-path="url(#g95da32d36d_1_270.0)"><path fill="#ffffff" d="m0 0l960.0 0l0 540.0l-960.0 0z" fill-rule="evenodd"/><path fill="#f6b26b" d="m930.30054 111.91556l0 399.52542l-150.38269 0l0 -399.52542z" fill-rule="evenodd"/><path stroke="#000000" stroke-width="1.0" stroke-linejoin="round" stroke-linecap="butt" d="m930.30054 111.91556l0 399.52542l-150.38269 0l0 -399.52542z" fill-rule="evenodd"/><path fill="#f6b26b" d="m779.88403 111.91556l0 399.52542l-150.38275 0l0 -399.52542z" fill-rule="evenodd"/><path stroke="#000000" stroke-width="1.0" stroke-linejoin="round" stroke-linecap="butt" d="m779.88403 111.91556l0 399.52542l-150.38275 0l0 -399.52542z" fill-rule="evenodd"/><path fill="#f6b26b" d="m629.46747 111.91556l0 399.52542l-150.38269 0l0 -399.52542z" fill-rule="evenodd"/><path stroke="#000000" stroke-width="1.0" stroke-linejoin="round" stroke-linecap="butt" d="m629.46747 111.91556l0 399.52542l-150.38269 0l0 -399.52542z" fill-rule="evenodd"/><path fill="#f6b26b" d="m479.05096 111.91556l0 399.52542l-150.38272 0l0 -399.52542z" fill-rule="evenodd"/><path stroke="#000000" stroke-width="1.0" stroke-linejoin="round" stroke-linecap="butt" d="m479.05096 111.91556l0 399.52542l-150.38272 0l0 -399.52542z" fill-rule="evenodd"/><path fill="#f6b26b" d="m328.63443 111.91556l0 399.52542l-150.3827 0l0 -399.52542z" fill-rule="evenodd"/><path stroke="#000000" stroke-width="1.0" stroke-linejoin="round" stroke-linecap="butt" d="m328.63443 111.91556l0 399.52542l-150.3827 0l0 -399.52542z" fill-rule="evenodd"/><path fill="#000000" fill-opacity="0.0" d="m325.87595 14.309928l150.10062 0l0 38.509827l-150.10062 0z" fill-rule="evenodd"/><path fill="#000000" d="m342.23785 39.461803l1.828125 -0.25q0.078125 1.75 0.65625 2.390625q0.578125 0.640625 1.609375 0.640625q0.765625 0 1.3125 -0.34375q0.5625 -0.34375 0.765625 -0.9375q0.203125 -0.609375 0.203125 -1.921875l0 -10.515627l2.03125 0l0 10.406252q0 1.90625 -0.46875 2.96875q-0.46875 1.046875 -1.46875 1.609375q-1.0 0.546875 -2.359375 0.546875q-2.015625 0 -3.078125 -1.15625q-1.0625 -1.15625 -1.03125 -3.4375zm18.710938 4.328125l0 -1.625q-1.296875 1.875 -3.515625 1.875q-0.96875 0 -1.828125 -0.375q-0.84375 -0.375 -1.265625 -0.9375q-0.40625 -0.578125 -0.5625 -1.390625q-0.125 -0.5625 -0.125 -1.75l0 -6.859375l1.875 0l0 6.140625q0 1.46875 0.125 1.96875q0.171875 0.75 0.734375 1.171875q0.578125 0.421875 1.421875 0.421875q0.84375 0 1.578125 -0.4375q0.75 -0.4375 1.046875 -1.171875q0.3125 -0.75 0.3125 -2.171875l0 -5.921875l1.875 0l0 11.0625l-1.671875 0zm4.6116943 0l0 -11.0625l1.6875 0l0 1.578125q1.21875 -1.828125 3.515625 -1.828125q1.0 0 1.84375 0.359375q0.84375 0.359375 1.25 0.953125q0.421875 0.578125 0.59375 1.375q0.09375 0.515625 0.09375 1.828125l0 6.796875l-1.875 0l0 -6.734375q0 -1.140625 -0.21875 -1.703125q-0.21875 -0.578125 -0.78125 -0.90625q-0.546875 -0.34375 -1.296875 -0.34375q-1.203125 0 -2.078125 0.765625q-0.859375 0.75 -0.859375 2.875l0 6.046875l-1.875 0zm19.43982 -3.5625l1.921875 0.234375q-0.453125 1.703125 -1.6875 2.640625q-1.234375 0.9375 -3.171875 0.9375q-2.421875 0 -3.84375 -1.484375q-1.421875 -1.5 -1.421875 -4.203125q0 -2.796875 1.4375 -4.328125q1.4375 -1.546875 3.734375 -1.546875q2.21875 0 3.609375 1.515625q1.40625 1.5 1.40625 4.25q0 0.15625 0 0.5l-8.25 0q0.109375 1.8125 1.03125 2.78125q0.921875 0.96875 2.3125 0.96875q1.03125 0 1.75 -0.53125q0.734375 -0.546875 1.171875 -1.734375zm-6.15625 -3.03125l6.171875 0q-0.125 -1.390625 -0.703125 -2.09375q-0.90625 -1.078125 -2.328125 -1.078125q-1.296875 0 -2.171875 0.859375q-0.875 0.859375 -0.96875 2.3125zm10.924194 6.59375l0 -2.140625l2.140625 0l0 2.140625q0 1.171875 -0.421875 1.890625q-0.40625 0.734375 -1.3125 1.125l-0.53125 -0.796875q0.59375 -0.265625 0.875 -0.765625q0.28125 -0.5 0.3125 -1.453125l-1.0625 0zm15.528381 0l0 -6.46875l-5.890625 -8.796877l2.453125 0l3.015625 4.593752q0.828125 1.296875 1.546875 2.59375q0.6875 -1.203125 1.671875 -2.703125l2.953125 -4.484377l2.359375 0l-6.09375 8.796877l0 6.46875l-2.015625 0zm15.2986145 -3.5625l1.921875 0.234375q-0.453125 1.703125 -1.6875 2.640625q-1.234375 0.9375 -3.171875 0.9375q-2.421875 0 -3.84375 -1.484375q-1.421875 -1.5 -1.421875 -4.203125q0 -2.796875 1.4375 -4.328125q1.4375 -1.546875 3.734375 -1.546875q2.21875 0 3.609375 1.515625q1.40625 1.5 1.40625 4.25q0 0.15625 0 0.5l-8.25 0q0.109375 1.8125 1.03125 2.78125q0.921875 0.96875 2.3125 0.96875q1.03125 0 1.75 -0.53125q0.734375 -0.546875 1.171875 -1.734375zm-6.15625 -3.03125l6.171875 0q-0.125 -1.390625 -0.703125 -2.09375q-0.90625 -1.078125 -2.328125 -1.078125q-1.296875 0 -2.171875 0.859375q-0.875 0.859375 -0.96875 2.3125zm17.65857 5.234375q-1.046875 0.875 -2.015625 1.25q-0.953125 0.359375 -2.0625 0.359375q-1.8125 0 -2.796875 -0.890625q-0.984375 -0.890625 -0.984375 -2.28125q0 -0.8125 0.375 -1.484375q0.375 -0.671875 0.96875 -1.078125q0.59375 -0.40625 1.34375 -0.609375q0.5625 -0.140625 1.671875 -0.28125q2.265625 -0.265625 3.34375 -0.640625q0.015625 -0.390625 0.015625 -0.5q0 -1.140625 -0.53125 -1.609375q-0.71875 -0.640625 -2.140625 -0.640625q-1.328125 0 -1.953125 0.46875q-0.625 0.46875 -0.9375 1.640625l-1.828125 -0.25q0.25 -1.171875 0.8125 -1.890625q0.578125 -0.734375 1.65625 -1.125q1.09375 -0.390625 2.515625 -0.390625q1.421875 0 2.296875 0.34375q0.890625 0.328125 1.3125 0.828125q0.421875 0.5 0.578125 1.28125q0.09375 0.46875 0.09375 1.71875l0 2.5q0 2.625 0.125 3.3125q0.125 0.6875 0.46875 1.328125l-1.953125 0q-0.296875 -0.578125 -0.375 -1.359375zm-0.15625 -4.1875q-1.015625 0.40625 -3.0625 0.703125q-1.15625 0.171875 -1.640625 0.375q-0.46875 0.203125 -0.734375 0.609375q-0.265625 0.40625 -0.265625 0.890625q0 0.75 0.5625 1.25q0.578125 0.5 1.671875 0.5q1.078125 0 1.921875 -0.46875q0.84375 -0.484375 1.25 -1.296875q0.296875 -0.640625 0.296875 -1.875l0 -0.6875zm4.7835693 5.546875l0 -11.0625l1.6875 0l0 1.671875q0.640625 -1.171875 1.1875 -1.546875q0.546875 -0.375 1.203125 -0.375q0.953125 0 1.921875 0.609375l-0.640625 1.734375q-0.6875 -0.40625 -1.375 -0.40625q-0.609375 0 -1.109375 0.375q-0.484375 0.359375 -0.6875 1.015625q-0.3125 1.0 -0.3125 2.1875l0 5.796875l-1.875 0zm12.528076 -4.0l1.96875 -0.171875q0.21875 1.4375 1.015625 2.171875q0.796875 0.71875 1.9218445 0.71875q1.34375 0 2.28125 -1.015625q0.9375 -1.03125 0.9375 -2.71875q0 -1.59375 -0.90625 -2.515625q-0.890625 -0.9375 -2.34375 -0.9375q-0.9062195 0 -1.6405945 0.421875q-0.734375 0.40625 -1.140625 1.0625l-1.765625 -0.234375l1.484375 -7.843752l7.5937195 0l0 1.796875l-6.0937195 0l-0.828125 4.093752q1.375 -0.953125 2.8905945 -0.953125q2.0 0 3.359375 1.390625q1.375 1.375 1.375 3.5625q0 2.0625 -1.203125 3.578125q-1.46875 1.859375 -4.0 1.859375q-2.0937195 0 -3.4062195 -1.171875q-1.3125 -1.171875 -1.5 -3.09375z" fill-rule="nonzero"/><path fill="#000000" fill-opacity="0.0" d="m175.77536 14.309928l150.10059 0l0 38.509827l-150.10059 0z" fill-rule="evenodd"/><path fill="#000000" d="m192.13727 39.461803l1.828125 -0.25q0.078125 1.75 0.65625 2.390625q0.578125 0.640625 1.609375 0.640625q0.765625 0 1.3125 -0.34375q0.5625 -0.34375 0.765625 -0.9375q0.203125 -0.609375 0.203125 -1.921875l0 -10.515627l2.03125 0l0 10.406252q0 1.90625 -0.46875 2.96875q-0.46875 1.046875 -1.46875 1.609375q-1.0 0.546875 -2.359375 0.546875q-2.015625 0 -3.078125 -1.15625q-1.0625 -1.15625 -1.03125 -3.4375zm18.710938 4.328125l0 -1.625q-1.296875 1.875 -3.515625 1.875q-0.96875 0 -1.828125 -0.375q-0.84375 -0.375 -1.265625 -0.9375q-0.40625 -0.578125 -0.5625 -1.390625q-0.125 -0.5625 -0.125 -1.75l0 -6.859375l1.875 0l0 6.140625q0 1.46875 0.125 1.96875q0.171875 0.75 0.734375 1.171875q0.578125 0.421875 1.421875 0.421875q0.84375 0 1.578125 -0.4375q0.75 -0.4375 1.046875 -1.171875q0.3125 -0.75 0.3125 -2.171875l0 -5.921875l1.875 0l0 11.0625l-1.671875 0zm4.6116943 0l0 -11.0625l1.6875 0l0 1.578125q1.21875 -1.828125 3.515625 -1.828125q1.0 0 1.84375 0.359375q0.84375 0.359375 1.25 0.953125q0.421875 0.578125 0.59375 1.375q0.09375 0.515625 0.09375 1.828125l0 6.796875l-1.875 0l0 -6.734375q0 -1.140625 -0.21875 -1.703125q-0.21875 -0.578125 -0.78125 -0.90625q-0.546875 -0.34375 -1.296875 -0.34375q-1.203125 0 -2.078125 0.765625q-0.859375 0.75 -0.859375 2.875l0 6.046875l-1.875 0zm19.43982 -3.5625l1.921875 0.234375q-0.453125 1.703125 -1.6875 2.640625q-1.234375 0.9375 -3.171875 0.9375q-2.421875 0 -3.84375 -1.484375q-1.421875 -1.5 -1.421875 -4.203125q0 -2.796875 1.4375 -4.328125q1.4375 -1.546875 3.734375 -1.546875q2.21875 0 3.609375 1.515625q1.40625 1.5 1.40625 4.25q0 0.15625 0 0.5l-8.25 0q0.109375 1.8125 1.03125 2.78125q0.921875 0.96875 2.3125 0.96875q1.03125 0 1.75 -0.53125q0.734375 -0.546875 1.171875 -1.734375zm-6.15625 -3.03125l6.171875 0q-0.125 -1.390625 -0.703125 -2.09375q-0.90625 -1.078125 -2.328125 -1.078125q-1.296875 0 -2.171875 0.859375q-0.875 0.859375 -0.96875 2.3125zm10.924194 6.59375l0 -2.140625l2.140625 0l0 2.140625q0 1.171875 -0.421875 1.890625q-0.40625 0.734375 -1.3125 1.125l-0.53125 -0.796875q0.59375 -0.265625 0.875 -0.765625q0.28125 -0.5 0.3125 -1.453125l-1.0625 0zm15.528366 0l0 -6.46875l-5.890625 -8.796877l2.453125 0l3.015625 4.593752q0.828125 1.296875 1.5468597 2.59375q0.6875 -1.203125 1.671875 -2.703125l2.953125 -4.484377l2.359375 0l-6.09375 8.796877l0 6.46875l-2.0156097 0zm15.298599 -3.5625l1.921875 0.234375q-0.453125 1.703125 -1.6875 2.640625q-1.234375 0.9375 -3.171875 0.9375q-2.421875 0 -3.84375 -1.484375q-1.421875 -1.5 -1.421875 -4.203125q0 -2.796875 1.4375 -4.328125q1.4375 -1.546875 3.734375 -1.546875q2.21875 0 3.609375 1.515625q1.40625 1.5 1.40625 4.25q0 0.15625 0 0.5l-8.25 0q0.109375 1.8125 1.03125 2.78125q0.921875 0.96875 2.3125 0.96875q1.03125 0 1.75 -0.53125q0.734375 -0.546875 1.171875 -1.734375zm-6.15625 -3.03125l6.171875 0q-0.125 -1.390625 -0.703125 -2.09375q-0.90625 -1.078125 -2.328125 -1.078125q-1.296875 0 -2.171875 0.859375q-0.875 0.859375 -0.96875 2.3125zm17.65857 5.234375q-1.046875 0.875 -2.015625 1.25q-0.953125 0.359375 -2.0625 0.359375q-1.8125 0 -2.796875 -0.890625q-0.984375 -0.890625 -0.984375 -2.28125q0 -0.8125 0.375 -1.484375q0.375 -0.671875 0.96875 -1.078125q0.59375 -0.40625 1.34375 -0.609375q0.5625 -0.140625 1.671875 -0.28125q2.265625 -0.265625 3.34375 -0.640625q0.015625 -0.390625 0.015625 -0.5q0 -1.140625 -0.53125 -1.609375q-0.71875 -0.640625 -2.140625 -0.640625q-1.328125 0 -1.953125 0.46875q-0.625 0.46875 -0.9375 1.640625l-1.828125 -0.25q0.25 -1.171875 0.8125 -1.890625q0.578125 -0.734375 1.65625 -1.125q1.09375 -0.390625 2.515625 -0.390625q1.421875 0 2.296875 0.34375q0.890625 0.328125 1.3125 0.828125q0.421875 0.5 0.578125 1.28125q0.09375 0.46875 0.09375 1.71875l0 2.5q0 2.625 0.125 3.3125q0.125 0.6875 0.46875 1.328125l-1.953125 0q-0.296875 -0.578125 -0.375 -1.359375zm-0.15625 -4.1875q-1.015625 0.40625 -3.0625 0.703125q-1.15625 0.171875 -1.640625 0.375q-0.46875 0.203125 -0.734375 0.609375q-0.265625 0.40625 -0.265625 0.890625q0 0.75 0.5625 1.25q0.578125 0.5 1.671875 0.5q1.078125 0 1.921875 -0.46875q0.84375 -0.484375 1.25 -1.296875q0.296875 -0.640625 0.296875 -1.875l0 -0.6875zm4.7835693 5.546875l0 -11.0625l1.6875 0l0 1.671875q0.640625 -1.171875 1.1875 -1.546875q0.546875 -0.375 1.203125 -0.375q0.953125 0 1.921875 0.609375l-0.640625 1.734375q-0.6875 -0.40625 -1.375 -0.40625q-0.609375 0 -1.109375 0.375q-0.484375 0.359375 -0.6875 1.015625q-0.3125 1.0 -0.3125 2.1875l0 5.796875l-1.875 0zm19.590576 0l-1.875 0l0 -11.937502q-0.6875 0.6406269 -1.78125 1.2812519q-1.09375 0.640625 -1.96875 0.96875l0 -1.8125q1.5625 -0.7343769 2.734375 -1.7812519q1.1875 -1.0625 1.671875 -2.046875l1.21875 0l0 15.328127z" fill-rule="nonzero"/><path fill="#000000" fill-opacity="0.0" d="m779.4258 14.309928l150.10059 0l0 38.509827l-150.10059 0z" fill-rule="evenodd"/><path fill="#000000" d="m795.78766 39.461803l1.828125 -0.25q0.078125 1.75 0.65625 2.390625q0.578125 0.640625 1.609375 0.640625q0.765625 0 1.3125 -0.34375q0.5625 -0.34375 0.765625 -0.9375q0.203125 -0.609375 0.203125 -1.921875l0 -10.515627l2.03125 0l0 10.406252q0 1.90625 -0.46875 2.96875q-0.46875 1.046875 -1.46875 1.609375q-1.0 0.546875 -2.359375 0.546875q-2.015625 0 -3.078125 -1.15625q-1.0625 -1.15625 -1.03125 -3.4375zm18.710938 4.328125l0 -1.625q-1.296875 1.875 -3.515625 1.875q-0.96875 0 -1.828125 -0.375q-0.84375 -0.375 -1.265625 -0.9375q-0.40625 -0.578125 -0.5625 -1.390625q-0.125 -0.5625 -0.125 -1.75l0 -6.859375l1.875 0l0 6.140625q0 1.46875 0.125 1.96875q0.171875 0.75 0.734375 1.171875q0.578125 0.421875 1.421875 0.421875q0.84375 0 1.578125 -0.4375q0.75 -0.4375 1.046875 -1.171875q0.3125 -0.75 0.3125 -2.171875l0 -5.921875l1.875 0l0 11.0625l-1.671875 0zm4.6116943 0l0 -11.0625l1.6875 0l0 1.578125q1.21875 -1.828125 3.515625 -1.828125q1.0 0 1.84375 0.359375q0.84375 0.359375 1.25 0.953125q0.421875 0.578125 0.59375 1.375q0.09375 0.515625 0.09375 1.828125l0 6.796875l-1.875 0l0 -6.734375q0 -1.140625 -0.21875 -1.703125q-0.21875 -0.578125 -0.78125 -0.90625q-0.546875 -0.34375 -1.296875 -0.34375q-1.203125 0 -2.078125 0.765625q-0.859375 0.75 -0.859375 2.875l0 6.046875l-1.875 0zm19.43982 -3.5625l1.921875 0.234375q-0.453125 1.703125 -1.6875 2.640625q-1.234375 0.9375 -3.171875 0.9375q-2.421875 0 -3.84375 -1.484375q-1.421875 -1.5 -1.421875 -4.203125q0 -2.796875 1.4375 -4.328125q1.4375 -1.546875 3.734375 -1.546875q2.21875 0 3.609375 1.515625q1.40625 1.5 1.40625 4.25q0 0.15625 0 0.5l-8.25 0q0.109375 1.8125 1.03125 2.78125q0.921875 0.96875 2.3125 0.96875q1.03125 0 1.75 -0.53125q0.734375 -0.546875 1.171875 -1.734375zm-6.15625 -3.03125l6.171875 0q-0.125 -1.390625 -0.703125 -2.09375q-0.90625 -1.078125 -2.328125 -1.078125q-1.296875 0 -2.171875 0.859375q-0.875 0.859375 -0.96875 2.3125zm10.924194 6.59375l0 -2.140625l2.140625 0l0 2.140625q0 1.171875 -0.421875 1.890625q-0.40625 0.734375 -1.3125 1.125l-0.53125 -0.796875q0.59375 -0.265625 0.875 -0.765625q0.28125 -0.5 0.3125 -1.453125l-1.0625 0zm15.528381 0l0 -6.46875l-5.890625 -8.796877l2.453125 0l3.015625 4.593752q0.828125 1.296875 1.546875 2.59375q0.6875 -1.203125 1.671875 -2.703125l2.953125 -4.484377l2.359375 0l-6.09375 8.796877l0 6.46875l-2.015625 0zm15.298584 -3.5625l1.921875 0.234375q-0.453125 1.703125 -1.6875 2.640625q-1.234375 0.9375 -3.171875 0.9375q-2.421875 0 -3.84375 -1.484375q-1.421875 -1.5 -1.421875 -4.203125q0 -2.796875 1.4375 -4.328125q1.4375 -1.546875 3.734375 -1.546875q2.21875 0 3.609375 1.515625q1.40625 1.5 1.40625 4.25q0 0.15625 0 0.5l-8.25 0q0.109375 1.8125 1.03125 2.78125q0.921875 0.96875 2.3125 0.96875q1.03125 0 1.75 -0.53125q0.734375 -0.546875 1.171875 -1.734375zm-6.15625 -3.03125l6.171875 0q-0.125 -1.390625 -0.703125 -2.09375q-0.90625 -1.078125 -2.328125 -1.078125q-1.296875 0 -2.171875 0.859375q-0.875 0.859375 -0.96875 2.3125zm17.65857 5.234375q-1.046875 0.875 -2.015625 1.25q-0.953125 0.359375 -2.0625 0.359375q-1.8125 0 -2.796875 -0.890625q-0.984375 -0.890625 -0.984375 -2.28125q0 -0.8125 0.375 -1.484375q0.375 -0.671875 0.96875 -1.078125q0.59375 -0.40625 1.34375 -0.609375q0.5625 -0.140625 1.671875 -0.28125q2.265625 -0.265625 3.34375 -0.640625q0.015625 -0.390625 0.015625 -0.5q0 -1.140625 -0.53125 -1.609375q-0.71875 -0.640625 -2.140625 -0.640625q-1.328125 0 -1.953125 0.46875q-0.625 0.46875 -0.9375 1.640625l-1.828125 -0.25q0.25 -1.171875 0.8125 -1.890625q0.578125 -0.734375 1.65625 -1.125q1.09375 -0.390625 2.515625 -0.390625q1.421875 0 2.296875 0.34375q0.890625 0.328125 1.3125 0.828125q0.421875 0.5 0.578125 1.28125q0.09375 0.46875 0.09375 1.71875l0 2.5q0 2.625 0.125 3.3125q0.125 0.6875 0.46875 1.328125l-1.953125 0q-0.296875 -0.578125 -0.375 -1.359375zm-0.15625 -4.1875q-1.015625 0.40625 -3.0625 0.703125q-1.15625 0.171875 -1.640625 0.375q-0.46875 0.203125 -0.734375 0.609375q-0.265625 0.40625 -0.265625 0.890625q0 0.75 0.5625 1.25q0.578125 0.5 1.671875 0.5q1.078125 0 1.921875 -0.46875q0.84375 -0.484375 1.25 -1.296875q0.296875 -0.640625 0.296875 -1.875l0 -0.6875zm4.7835693 5.546875l0 -11.0625l1.6875 0l0 1.671875q0.640625 -1.171875 1.1875 -1.546875q0.546875 -0.375 1.203125 -0.375q0.953125 0 1.921875 0.609375l-0.640625 1.734375q-0.6875 -0.40625 -1.375 -0.40625q-0.609375 0 -1.109375 0.375q-0.484375 0.359375 -0.6875 1.015625q-0.3125 1.0 -0.3125 2.1875l0 5.796875l-1.875 0zm19.590576 0l-1.875 0l0 -11.937502q-0.6875 0.6406269 -1.78125 1.2812519q-1.09375 0.640625 -1.96875 0.96875l0 -1.8125q1.5625 -0.7343769 2.734375 -1.7812519q1.1875 -1.0625 1.671875 -2.046875l1.21875 0l0 15.328127z" fill-rule="nonzero"/><path fill="#000000" fill-opacity="0.0" d="m479.22293 14.309928l150.10062 0l0 38.509827l-150.10062 0z" fill-rule="evenodd"/><path fill="#000000" d="m492.61682 39.461803l1.828125 -0.25q0.078125 1.75 0.65625 2.390625q0.578125 0.640625 1.609375 0.640625q0.765625 0 1.3125 -0.34375q0.5625 -0.34375 0.765625 -0.9375q0.203125 -0.609375 0.203125 -1.921875l0 -10.515627l2.03125 0l0 10.406252q0 1.90625 -0.46875 2.96875q-0.46875 1.046875 -1.46875 1.609375q-1.0 0.546875 -2.359375 0.546875q-2.015625 0 -3.078125 -1.15625q-1.0625 -1.15625 -1.03125 -3.4375zm18.710938 4.328125l0 -1.625q-1.296875 1.875 -3.515625 1.875q-0.96875 0 -1.828125 -0.375q-0.84375 -0.375 -1.265625 -0.9375q-0.40625 -0.578125 -0.5625 -1.390625q-0.125 -0.5625 -0.125 -1.75l0 -6.859375l1.875 0l0 6.140625q0 1.46875 0.125 1.96875q0.171875 0.75 0.734375 1.171875q0.578125 0.421875 1.421875 0.421875q0.84375 0 1.578125 -0.4375q0.75 -0.4375 1.046875 -1.171875q0.3125 -0.75 0.3125 -2.171875l0 -5.921875l1.875 0l0 11.0625l-1.671875 0zm4.6116943 0l0 -11.0625l1.6875 0l0 1.578125q1.21875 -1.828125 3.515625 -1.828125q1.0 0 1.84375 0.359375q0.84375 0.359375 1.25 0.953125q0.421875 0.578125 0.59375 1.375q0.09375 0.515625 0.09375 1.828125l0 6.796875l-1.875 0l0 -6.734375q0 -1.140625 -0.21875 -1.703125q-0.21875 -0.578125 -0.78125 -0.90625q-0.546875 -0.34375 -1.296875 -0.34375q-1.203125 0 -2.078125 0.765625q-0.859375 0.75 -0.859375 2.875l0 6.046875l-1.875 0zm19.43982 -3.5625l1.921875 0.234375q-0.453125 1.703125 -1.6875 2.640625q-1.234375 0.9375 -3.171875 0.9375q-2.421875 0 -3.84375 -1.484375q-1.421875 -1.5 -1.421875 -4.203125q0 -2.796875 1.4375 -4.328125q1.4375 -1.546875 3.734375 -1.546875q2.21875 0 3.609375 1.515625q1.40625 1.5 1.40625 4.25q0 0.15625 0 0.5l-8.25 0q0.109375 1.8125 1.03125 2.78125q0.921875 0.96875 2.3125 0.96875q1.03125 0 1.75 -0.53125q0.734375 -0.546875 1.171875 -1.734375zm-6.15625 -3.03125l6.171875 0q-0.125 -1.390625 -0.703125 -2.09375q-0.90625 -1.078125 -2.328125 -1.078125q-1.296875 0 -2.171875 0.859375q-0.875 0.859375 -0.96875 2.3125zm10.924194 6.59375l0 -2.140625l2.140625 0l0 2.140625q0 1.171875 -0.421875 1.890625q-0.40625 0.734375 -1.3125 1.125l-0.53125 -0.796875q0.59375 -0.265625 0.875 -0.765625q0.28125 -0.5 0.3125 -1.453125l-1.0625 0zm15.528381 0l0 -6.46875l-5.890625 -8.796877l2.453125 0l3.015625 4.593752q0.828125 1.296875 1.546875 2.59375q0.6875 -1.203125 1.671875 -2.703125l2.953125 -4.484377l2.359375 0l-6.09375 8.796877l0 6.46875l-2.015625 0zm15.298584 -3.5625l1.921875 0.234375q-0.453125 1.703125 -1.6875 2.640625q-1.234375 0.9375 -3.171875 0.9375q-2.421875 0 -3.84375 -1.484375q-1.421875 -1.5 -1.421875 -4.203125q0 -2.796875 1.4375 -4.328125q1.4375 -1.546875 3.734375 -1.546875q2.21875 0 3.609375 1.515625q1.40625 1.5 1.40625 4.25q0 0.15625 0 0.5l-8.25 0q0.109375 1.8125 1.03125 2.78125q0.921875 0.96875 2.3125 0.96875q1.03125 0 1.75 -0.53125q0.734375 -0.546875 1.171875 -1.734375zm-6.15625 -3.03125l6.171875 0q-0.125 -1.390625 -0.703125 -2.09375q-0.90625 -1.078125 -2.328125 -1.078125q-1.296875 0 -2.171875 0.859375q-0.875 0.859375 -0.96875 2.3125zm17.65857 5.234375q-1.046875 0.875 -2.015625 1.25q-0.953125 0.359375 -2.0625 0.359375q-1.8125 0 -2.796875 -0.890625q-0.984375 -0.890625 -0.984375 -2.28125q0 -0.8125 0.375 -1.484375q0.375 -0.671875 0.96875 -1.078125q0.59375 -0.40625 1.34375 -0.609375q0.5625 -0.140625 1.671875 -0.28125q2.265625 -0.265625 3.34375 -0.640625q0.015625 -0.390625 0.015625 -0.5q0 -1.140625 -0.53125 -1.609375q-0.71875 -0.640625 -2.140625 -0.640625q-1.328125 0 -1.953125 0.46875q-0.625 0.46875 -0.9375 1.640625l-1.828125 -0.25q0.25 -1.171875 0.8125 -1.890625q0.578125 -0.734375 1.65625 -1.125q1.09375 -0.390625 2.515625 -0.390625q1.421875 0 2.296875 0.34375q0.890625 0.328125 1.3125 0.828125q0.421875 0.5 0.578125 1.28125q0.09375 0.46875 0.09375 1.71875l0 2.5q0 2.625 0.125 3.3125q0.125 0.6875 0.46875 1.328125l-1.953125 0q-0.296875 -0.578125 -0.375 -1.359375zm-0.15625 -4.1875q-1.015625 0.40625 -3.0625 0.703125q-1.15625 0.171875 -1.640625 0.375q-0.46875 0.203125 -0.734375 0.609375q-0.265625 0.40625 -0.265625 0.890625q0 0.75 0.5625 1.25q0.578125 0.5 1.671875 0.5q1.078125 0 1.921875 -0.46875q0.84375 -0.484375 1.25 -1.296875q0.296875 -0.640625 0.296875 -1.875l0 -0.6875zm4.7835693 5.546875l0 -11.0625l1.6875 0l0 1.671875q0.640625 -1.171875 1.1875 -1.546875q0.546875 -0.375 1.203125 -0.375q0.953125 0 1.921875 0.609375l-0.640625 1.734375q-0.6875 -0.40625 -1.375 -0.40625q-0.609375 0 -1.109375 0.375q-0.484375 0.359375 -0.6875 1.015625q-0.3125 1.0 -0.3125 2.1875l0 5.796875l-1.875 0z" fill-rule="nonzero"/><path fill="#000000" d="m606.6944 43.78993l-1.875 0l0 -11.937502q-0.6875 0.6406269 -1.78125 1.2812519q-1.09375 0.640625 -1.96875 0.96875l0 -1.8125q1.5625 -0.7343769 2.734375 -1.7812519q1.1875 -1.0625 1.671875 -2.046875l1.21875 0l0 15.328127zm5.0804443 -3.53125l1.796875 -0.171875q0.234375 1.28125 0.875 1.859375q0.640625 0.5625 1.65625 0.5625q0.859375 0 1.515625 -0.390625q0.65625 -0.40625 1.0625 -1.0625q0.421875 -0.65625 0.703125 -1.78125q0.28125 -1.125 0.28125 -2.296875q0 -0.125 -0.015625 -0.375q-0.5625 0.890625 -1.53125 1.453125q-0.96875 0.5625 -2.109375 0.5625q-1.890625 0 -3.203125 -1.375q-1.3125 -1.375 -1.3125 -3.625q0 -2.328127 1.359375 -3.734377q1.375 -1.421875 3.4375 -1.421875q1.484375 0 2.71875 0.8125q1.234375 0.796875 1.875 2.28125q0.640625 1.4843769 0.640625 4.281252q0 2.9375 -0.640625 4.671875q-0.625 1.734375 -1.890625 2.640625q-1.25 0.90625 -2.9375 0.90625q-1.78125 0 -2.921875 -1.0q-1.140625 -1.0 -1.359375 -2.796875zm7.671875 -6.734375q0 -1.6093769 -0.859375 -2.562502q-0.859375 -0.953125 -2.0625 -0.953125q-1.25 0 -2.1875 1.03125q-0.921875 1.0156269 -0.921875 2.640627q0 1.453125 0.875 2.375q0.890625 0.90625 2.171875 0.90625q1.3125 0 2.140625 -0.90625q0.84375 -0.921875 0.84375 -2.53125z" fill-rule="nonzero"/><path fill="#000000" fill-opacity="0.0" d="m629.3252 15.703407l150.10059 0l0 38.509827l-150.10059 0z" fill-rule="evenodd"/><path fill="#000000" d="m642.71906 40.85528l1.828125 -0.25q0.078125 1.75 0.65625 2.390625q0.578125 0.640625 1.609375 0.640625q0.765625 0 1.3125 -0.34375q0.5625 -0.34375 0.765625 -0.9375q0.203125 -0.609375 0.203125 -1.921875l0 -10.515625l2.03125 0l0 10.40625q0 1.90625 -0.46875 2.96875q-0.46875 1.046875 -1.46875 1.609375q-1.0 0.546875 -2.359375 0.546875q-2.015625 0 -3.078125 -1.15625q-1.0625 -1.15625 -1.03125 -3.4375zm18.710938 4.328125l0 -1.625q-1.296875 1.875 -3.515625 1.875q-0.96875 0 -1.828125 -0.375q-0.84375 -0.375 -1.265625 -0.9375q-0.40625 -0.578125 -0.5625 -1.390625q-0.125 -0.5625 -0.125 -1.75l0 -6.859375l1.875 0l0 6.140625q0 1.46875 0.125 1.96875q0.171875 0.75 0.734375 1.171875q0.578125 0.421875 1.421875 0.421875q0.84375 0 1.578125 -0.4375q0.75 -0.4375 1.046875 -1.171875q0.3125 -0.75 0.3125 -2.171875l0 -5.921875l1.875 0l0 11.0625l-1.671875 0zm4.6116943 0l0 -11.0625l1.6875 0l0 1.578125q1.21875 -1.828125 3.515625 -1.828125q1.0 0 1.84375 0.359375q0.84375 0.359375 1.25 0.953125q0.421875 0.578125 0.59375 1.375q0.09375 0.515625 0.09375 1.828125l0 6.796875l-1.875 0l0 -6.734375q0 -1.140625 -0.21875 -1.703125q-0.21875 -0.578125 -0.78125 -0.90625q-0.546875 -0.34375 -1.296875 -0.34375q-1.203125 0 -2.078125 0.765625q-0.859375 0.75 -0.859375 2.875l0 6.046875l-1.875 0zm19.43982 -3.5625l1.921875 0.234375q-0.453125 1.703125 -1.6875 2.640625q-1.234375 0.9375 -3.171875 0.9375q-2.421875 0 -3.84375 -1.484375q-1.421875 -1.5 -1.421875 -4.203125q0 -2.796875 1.4375 -4.328125q1.4375 -1.546875 3.734375 -1.546875q2.21875 0 3.609375 1.515625q1.40625 1.5 1.40625 4.25q0 0.15625 0 0.5l-8.25 0q0.109375 1.8125 1.03125 2.78125q0.921875 0.96875 2.3125 0.96875q1.03125 0 1.75 -0.53125q0.734375 -0.546875 1.171875 -1.734375zm-6.15625 -3.03125l6.171875 0q-0.125 -1.390625 -0.703125 -2.09375q-0.90625 -1.078125 -2.328125 -1.078125q-1.296875 0 -2.171875 0.859375q-0.875 0.859375 -0.96875 2.3125zm10.924194 6.59375l0 -2.140625l2.140625 0l0 2.140625q0 1.171875 -0.421875 1.890625q-0.40625 0.734375 -1.3125 1.125l-0.53125 -0.796875q0.59375 -0.265625 0.875 -0.765625q0.28125 -0.5 0.3125 -1.453125l-1.0625 0zm15.528381 0l0 -6.46875l-5.890625 -8.796875l2.453125 0l3.015625 4.59375q0.828125 1.296875 1.546875 2.59375q0.6875 -1.203125 1.671875 -2.703125l2.953125 -4.484375l2.359375 0l-6.09375 8.796875l0 6.46875l-2.015625 0zm15.298584 -3.5625l1.921875 0.234375q-0.453125 1.703125 -1.6875 2.640625q-1.234375 0.9375 -3.171875 0.9375q-2.421875 0 -3.84375 -1.484375q-1.421875 -1.5 -1.421875 -4.203125q0 -2.796875 1.4375 -4.328125q1.4375 -1.546875 3.734375 -1.546875q2.21875 0 3.609375 1.515625q1.40625 1.5 1.40625 4.25q0 0.15625 0 0.5l-8.25 0q0.109375 1.8125 1.03125 2.78125q0.921875 0.96875 2.3125 0.96875q1.03125 0 1.75 -0.53125q0.734375 -0.546875 1.171875 -1.734375zm-6.15625 -3.03125l6.171875 0q-0.125 -1.390625 -0.703125 -2.09375q-0.90625 -1.078125 -2.328125 -1.078125q-1.296875 0 -2.171875 0.859375q-0.875 0.859375 -0.96875 2.3125zm17.65857 5.234375q-1.046875 0.875 -2.015625 1.25q-0.953125 0.359375 -2.0625 0.359375q-1.8125 0 -2.796875 -0.890625q-0.984375 -0.890625 -0.984375 -2.28125q0 -0.8125 0.375 -1.484375q0.375 -0.671875 0.96875 -1.078125q0.59375 -0.40625 1.34375 -0.609375q0.5625 -0.140625 1.671875 -0.28125q2.265625 -0.265625 3.34375 -0.640625q0.015625 -0.390625 0.015625 -0.5q0 -1.140625 -0.53125 -1.609375q-0.71875 -0.640625 -2.140625 -0.640625q-1.328125 0 -1.953125 0.46875q-0.625 0.46875 -0.9375 1.640625l-1.828125 -0.25q0.25 -1.171875 0.8125 -1.890625q0.578125 -0.734375 1.65625 -1.125q1.09375 -0.390625 2.515625 -0.390625q1.421875 0 2.296875 0.34375q0.890625 0.328125 1.3125 0.828125q0.421875 0.5 0.578125 1.28125q0.09375 0.46875 0.09375 1.71875l0 2.5q0 2.625 0.125 3.3125q0.125 0.6875 0.46875 1.328125l-1.953125 0q-0.296875 -0.578125 -0.375 -1.359375zm-0.15625 -4.1875q-1.015625 0.40625 -3.0625 0.703125q-1.15625 0.171875 -1.640625 0.375q-0.46875 0.203125 -0.734375 0.609375q-0.265625 0.40625 -0.265625 0.890625q0 0.75 0.5625 1.25q0.578125 0.5 1.671875 0.5q1.078125 0 1.921875 -0.46875q0.84375 -0.484375 1.25 -1.296875q0.296875 -0.640625 0.296875 -1.875l0 -0.6875zm4.7835693 5.546875l0 -11.0625l1.6875 0l0 1.671875q0.640625 -1.171875 1.1875 -1.546875q0.546875 -0.375 1.203125 -0.375q0.953125 0 1.921875 0.609375l-0.640625 1.734375q-0.6875 -0.40625 -1.375 -0.40625q-0.609375 0 -1.109375 0.375q-0.484375 0.359375 -0.6875 1.015625q-0.3125 1.0 -0.3125 2.1875l0 5.796875l-1.875 0z" fill-rule="nonzero"/><path fill="#000000" d="m759.5779 43.38653l0 1.796875l-10.09375 0q-0.015625 -0.671875 0.21875 -1.296875q0.390625 -1.03125 1.234375 -2.03125q0.859375 -1.0 2.453125 -2.3125q2.5 -2.046875 3.375 -3.234375q0.875 -1.203125 0.875 -2.25q0 -1.125 -0.796875 -1.890625q-0.796875 -0.765625 -2.078125 -0.765625q-1.359375 0 -2.171875 0.8125q-0.8125 0.8125 -0.828125 2.25l-1.921875 -0.1875q0.203125 -2.15625 1.484375 -3.28125q1.296875 -1.140625 3.46875 -1.140625q2.203125 0 3.484375 1.21875q1.28125 1.21875 1.28125 3.015625q0 0.921875 -0.375 1.8125q-0.375 0.875 -1.25 1.859375q-0.859375 0.96875 -2.890625 2.6875q-1.6875 1.40625 -2.171875 1.921875q-0.46875 0.5 -0.78125 1.015625l7.484375 0zm2.1429443 -11.46875l0 -1.796875l9.875 0l0 1.453125q-1.453125 1.546875 -2.890625 4.125q-1.421875 2.5625 -2.203125 5.28125q-0.5625 1.921875 -0.71875 4.203125l-1.9375 0q0.03125 -1.796875 0.703125 -4.34375q0.6875 -2.5625 1.953125 -4.921875q1.265625 -2.375 2.6875 -4.0l-7.46875 0z" fill-rule="nonzero"/><path fill="#000000" fill-opacity="0.0" d="m175.77536 59.59924l150.10059 0l0 38.50983l-150.10059 0z" fill-rule="evenodd"/><path fill="#000000" d="m252.84793 89.07924l-1.875 0l0 -11.9375q-0.6875 0.640625 -1.78125 1.28125q-1.09375 0.640625 -1.96875 0.96875l0 -1.8125q1.5625 -0.734375 2.734375 -1.78125q1.1875 -1.0625 1.671875 -2.046875l1.21875 0l0 15.328125z" fill-rule="nonzero"/><path fill="#000000" fill-opacity="0.0" d="m325.87595 59.59924l150.10062 0l0 38.50983l-150.10062 0z" fill-rule="evenodd"/><path fill="#000000" d="m402.94852 89.07924l-1.875 0l0 -11.9375q-0.6875 0.640625 -1.78125 1.28125q-1.09375 0.640625 -1.96875 0.96875l0 -1.8125q1.5625 -0.734375 2.734375 -1.78125q1.1875 -1.0625 1.671875 -2.046875l1.21875 0l0 15.328125z" fill-rule="nonzero"/><path fill="#000000" fill-opacity="0.0" d="m479.22458 59.59924l150.10062 0l0 38.50983l-150.10062 0z" fill-rule="evenodd"/><path fill="#000000" d="m556.2972 89.07924l-1.875 0l0 -11.9375q-0.6875 0.640625 -1.78125 1.28125q-1.09375 0.640625 -1.96875 0.96875l0 -1.8125q1.5625 -0.734375 2.734375 -1.78125q1.1875 -1.0625 1.671875 -2.046875l1.21875 0l0 15.328125z" fill-rule="nonzero"/><path fill="#000000" fill-opacity="0.0" d="m629.3252 59.59924l150.10059 0l0 38.50983l-150.10059 0z" fill-rule="evenodd"/><path fill="#000000" d="m706.39777 89.07924l-1.875 0l0 -11.9375q-0.6875 0.640625 -1.78125 1.28125q-1.09375 0.640625 -1.96875 0.96875l0 -1.8125q1.5625 -0.734375 2.734375 -1.78125q1.1875 -1.0625 1.671875 -2.046875l1.21875 0l0 15.328125z" fill-rule="nonzero"/><path fill="#000000" fill-opacity="0.0" d="m782.6738 59.59924l150.10059 0l0 38.50983l-150.10059 0z" fill-rule="evenodd"/><path fill="#000000" d="m862.52765 87.282364l0 1.796875l-10.09375 0q-0.015625 -0.671875 0.21875 -1.296875q0.390625 -1.03125 1.234375 -2.03125q0.859375 -1.0 2.453125 -2.3125q2.5 -2.046875 3.375 -3.234375q0.875 -1.203125 0.875 -2.25q0 -1.125 -0.796875 -1.890625q-0.796875 -0.765625 -2.078125 -0.765625q-1.359375 0 -2.171875 0.8125q-0.8125 0.8125 -0.828125 2.25l-1.921875 -0.1875q0.203125 -2.15625 1.484375 -3.28125q1.296875 -1.140625 3.46875 -1.140625q2.203125 0 3.484375 1.21875q1.28125 1.21875 1.28125 3.015625q0 0.921875 -0.375 1.8125q-0.375 0.875 -1.25 1.859375q-0.859375 0.96875 -2.890625 2.6875q-1.6875 1.40625 -2.171875 1.921875q-0.46875 0.5 -0.78125 1.015625l7.484375 0z" fill-rule="nonzero"/><path fill="#000000" fill-opacity="0.0" d="m178.22966 245.92651l752.0945 0" fill-rule="evenodd"/><path stroke="#000000" stroke-width="1.0" stroke-linejoin="round" stroke-linecap="butt" d="m178.22966 245.92651l752.0945 0" fill-rule="evenodd"/><path fill="#000000" fill-opacity="0.0" d="m178.22572 379.03412l752.0945 0" fill-rule="evenodd"/><path stroke="#000000" stroke-width="1.0" stroke-linejoin="round" stroke-linecap="butt" d="m178.22572 379.03412l752.0945 0" fill-rule="evenodd"/><path fill="#000000" fill-opacity="0.0" d="m26.023623 393.99133l122.48819 0l0 117.44882l-122.48819 0z" fill-rule="evenodd"/><path fill="#000000" d="m50.804237 450.0026l0 -4.1875l-4.15625 0l0 -1.75l4.15625 0l0 -4.15625l1.765625 0l0 4.15625l4.15625 0l0 1.75l-4.15625 0l0 4.1875l-1.765625 0zm17.845917 0.671875l0 1.796875l-10.09375 0q-0.015625 -0.671875 0.21875 -1.296875q0.390625 -1.03125 1.234375 -2.03125q0.859375 -1.0 2.453125 -2.3125q2.5 -2.046875 3.375 -3.234375q0.875 -1.203125 0.875 -2.25q0 -1.125 -0.796875 -1.890625q-0.796875 -0.765625 -2.078125 -0.765625q-1.359375 0 -2.171875 0.8125q-0.8125 0.8125 -0.828125 2.25l-1.921875 -0.1875q0.203125 -2.15625 1.484375 -3.28125q1.296875 -1.140625 3.46875 -1.140625q2.203125 0 3.484375 1.21875q1.28125 1.21875 1.28125 3.015625q0 0.921875 -0.375 1.8125q-0.375 0.875 -1.25 1.859375q-0.859375 0.96875 -2.890625 2.6875q-1.6875 1.40625 -2.171875 1.921875q-0.46875 0.5 -0.78125 1.015625l7.484375 0zm12.6206665 1.796875l0 -6.46875l-5.890625 -8.796875l2.453125 0l3.015625 4.59375q0.828125 1.296875 1.546875 2.59375q0.6875 -1.203125 1.671875 -2.703125l2.953125 -4.484375l2.359375 0l-6.09375 8.796875l0 6.46875l-2.015625 0zm15.2986145 -3.5625l1.921875 0.234375q-0.453125 1.703125 -1.6875 2.640625q-1.234375 0.9375 -3.171875 0.9375q-2.421875 0 -3.84375 -1.484375q-1.421875 -1.5 -1.421875 -4.203125q0 -2.796875 1.4375 -4.328125q1.4375 -1.546875 3.734375 -1.546875q2.21875 0 3.609375 1.515625q1.40625 1.5 1.40625 4.25q0 0.15625 0 0.5l-8.25 0q0.109375 1.8125 1.03125 2.78125q0.921875 0.96875 2.3125 0.96875q1.03125 0 1.75 -0.53125q0.734375 -0.546875 1.171875 -1.734375zm-6.15625 -3.03125l6.171875 0q-0.125 -1.390625 -0.703125 -2.09375q-0.90625 -1.078125 -2.328125 -1.078125q-1.296875 0 -2.171875 0.859375q-0.875 0.859375 -0.96875 2.3125zm17.65857 5.234375q-1.046875 0.875 -2.015625 1.25q-0.953125 0.359375 -2.0625 0.359375q-1.8125 0 -2.796875 -0.890625q-0.984375 -0.890625 -0.984375 -2.28125q0 -0.8125 0.375 -1.484375q0.375 -0.671875 0.96875 -1.078125q0.59375 -0.40625 1.34375 -0.609375q0.5625 -0.140625 1.671875 -0.28125q2.265625 -0.265625 3.34375 -0.640625q0.015625 -0.390625 0.015625 -0.5q0 -1.140625 -0.53125 -1.609375q-0.71875 -0.640625 -2.140625 -0.640625q-1.328125 0 -1.953125 0.46875q-0.625 0.46875 -0.9375 1.640625l-1.828125 -0.25q0.25 -1.171875 0.8125 -1.890625q0.578125 -0.734375 1.65625 -1.125q1.09375 -0.390625 2.515625 -0.390625q1.421875 0 2.296875 0.34375q0.890625 0.328125 1.3125 0.828125q0.421875 0.5 0.578125 1.28125q0.09375 0.46875 0.09375 1.71875l0 2.5q0 2.625 0.125 3.3125q0.125 0.6875 0.46875 1.328125l-1.953125 0q-0.296875 -0.578125 -0.375 -1.359375zm-0.15625 -4.1875q-1.015625 0.40625 -3.0625 0.703125q-1.15625 0.171875 -1.640625 0.375q-0.46875 0.203125 -0.734375 0.609375q-0.265625 0.40625 -0.265625 0.890625q0 0.75 0.5625 1.25q0.578125 0.5 1.671875 0.5q1.078125 0 1.921875 -0.46875q0.84375 -0.484375 1.25 -1.296875q0.296875 -0.640625 0.296875 -1.875l0 -0.6875zm4.7835693 5.546875l0 -11.0625l1.6875 0l0 1.671875q0.640625 -1.171875 1.1875 -1.546875q0.546875 -0.375 1.203125 -0.375q0.953125 0 1.921875 0.609375l-0.640625 1.734375q-0.6875 -0.40625 -1.375 -0.40625q-0.609375 0 -1.109375 0.375q-0.484375 0.359375 -0.6875 1.015625q-0.3125 1.0 -0.3125 2.1875l0 5.796875l-1.875 0zm6.3680573 -3.296875l1.859375 -0.296875q0.15625 1.109375 0.859375 1.703125q0.71875 0.59375 2.0 0.59375q1.296875 0 1.921875 -0.515625q0.625 -0.53125 0.625 -1.234375q0 -0.640625 -0.5625 -1.0q-0.375 -0.25 -1.90625 -0.640625q-2.0625 -0.515625 -2.859375 -0.890625q-0.796875 -0.390625 -1.21875 -1.0625q-0.40625 -0.671875 -0.40625 -1.484375q0 -0.734375 0.328125 -1.359375q0.34375 -0.640625 0.9375 -1.0625q0.4375 -0.3125 1.1875 -0.53125q0.75 -0.234375 1.625 -0.234375q1.296875 0 2.28125 0.375q0.984375 0.375 1.453125 1.015625q0.46875 0.640625 0.640625 1.71875l-1.828125 0.25q-0.125 -0.859375 -0.734375 -1.328125q-0.59375 -0.484375 -1.6875 -0.484375q-1.28125 0 -1.84375 0.421875q-0.546875 0.421875 -0.546875 1.0q0 0.359375 0.234375 0.65625q0.21875 0.296875 0.71875 0.5q0.28125 0.109375 1.65625 0.484375q1.984375 0.53125 2.765625 0.875q0.796875 0.328125 1.234375 0.984375q0.45313263 0.640625 0.45313263 1.59375q0 0.9375 -0.5468826 1.765625q-0.546875 0.828125 -1.578125 1.28125q-1.03125 0.453125 -2.328125 0.453125q-2.15625 0 -3.296875 -0.890625q-1.125 -0.90625 -1.4375 -2.65625z" fill-rule="nonzero"/><path fill="#000000" fill-opacity="0.0" d="m26.023623 252.9546l122.48819 0l0 117.44881l-122.48819 0z" fill-rule="evenodd"/><path fill="#000000" d="m56.13627 308.96585l0 -4.1875l-4.15625 0l0 -1.75l4.15625 0l0 -4.15625l1.765625 0l0 4.15625l4.15625 0l0 1.75l-4.15625 0l0 4.1875l-1.765625 0zm15.064667 2.46875l-1.875 0l0 -11.9375q-0.6875 0.640625 -1.78125 1.28125q-1.09375 0.640625 -1.96875 0.96875l0 -1.8125q1.5625 -0.734375 2.734375 -1.78125q1.1875 -1.0625 1.671875 -2.046875l1.21875 0l0 15.328125zm15.4019165 0l0 -6.46875l-5.890625 -8.796875l2.453125 0l3.015625 4.59375q0.828125 1.296875 1.546875 2.59375q0.6875 -1.203125 1.671875 -2.703125l2.953125 -4.484375l2.359375 0l-6.09375 8.796875l0 6.46875l-2.015625 0zm15.2986145 -3.5625l1.921875 0.234375q-0.453125 1.703125 -1.6875 2.640625q-1.234375 0.9375 -3.171875 0.9375q-2.421875 0 -3.84375 -1.484375q-1.421875 -1.5 -1.421875 -4.203125q0 -2.796875 1.4375 -4.328125q1.4375 -1.546875 3.734375 -1.546875q2.21875 0 3.609375 1.515625q1.40625 1.5 1.40625 4.25q0 0.15625 0 0.5l-8.25 0q0.109375 1.8125 1.03125 2.78125q0.921875 0.96875 2.3125 0.96875q1.03125 0 1.75 -0.53125q0.734375 -0.546875 1.171875 -1.734375zm-6.15625 -3.03125l6.171875 0q-0.125 -1.390625 -0.703125 -2.09375q-0.90625 -1.078125 -2.328125 -1.078125q-1.296875 0 -2.171875 0.859375q-0.875 0.859375 -0.96875 2.3125zm17.65857 5.234375q-1.046875 0.875 -2.015625 1.25q-0.953125 0.359375 -2.0625 0.359375q-1.8125 0 -2.796875 -0.890625q-0.984375 -0.890625 -0.984375 -2.28125q0 -0.8125 0.375 -1.484375q0.375 -0.671875 0.96875 -1.078125q0.59375 -0.40625 1.34375 -0.609375q0.5625 -0.140625 1.671875 -0.28125q2.265625 -0.265625 3.34375 -0.640625q0.015625 -0.390625 0.015625 -0.5q0 -1.140625 -0.53125 -1.609375q-0.71875 -0.640625 -2.140625 -0.640625q-1.328125 0 -1.953125 0.46875q-0.625 0.46875 -0.9375 1.640625l-1.828125 -0.25q0.25 -1.171875 0.8125 -1.890625q0.578125 -0.734375 1.65625 -1.125q1.09375 -0.390625 2.515625 -0.390625q1.421875 0 2.296875 0.34375q0.890625 0.328125 1.3125 0.828125q0.421875 0.5 0.578125 1.28125q0.09375 0.46875 0.09375 1.71875l0 2.5q0 2.625 0.125 3.3125q0.125 0.6875 0.46875 1.328125l-1.953125 0q-0.296875 -0.578125 -0.375 -1.359375zm-0.15625 -4.1875q-1.015625 0.40625 -3.0625 0.703125q-1.15625 0.171875 -1.640625 0.375q-0.46875 0.203125 -0.734375 0.609375q-0.265625 0.40625 -0.265625 0.890625q0 0.75 0.5625 1.25q0.578125 0.5 1.671875 0.5q1.078125 0 1.921875 -0.46875q0.84375 -0.484375 1.25 -1.296875q0.296875 -0.640625 0.296875 -1.875l0 -0.6875zm4.7835693 5.546875l0 -11.0625l1.6875 0l0 1.671875q0.640625 -1.171875 1.1875 -1.546875q0.546875 -0.375 1.203125 -0.375q0.953125 0 1.921875 0.609375l-0.640625 1.734375q-0.6875 -0.40625 -1.375 -0.40625q-0.609375 0 -1.109375 0.375q-0.484375 0.359375 -0.6875 1.015625q-0.3125 1.0 -0.3125 2.1875l0 5.796875l-1.875 0z" fill-rule="nonzero"/><path fill="#000000" fill-opacity="0.0" d="m26.023623 111.917854l122.48819 0l0 117.448814l-122.48819 0z" fill-rule="evenodd"/><path fill="#000000" d="m50.804237 167.92911l0 -4.1875l-4.15625 0l0 -1.75l4.15625 0l0 -4.15625l1.765625 0l0 4.15625l4.15625 0l0 1.75l-4.15625 0l0 4.1875l-1.765625 0zm8.002167 -5.0625q0 -2.703125 0.546875 -4.34375q0.5625 -1.65625 1.65625 -2.546875q1.109375 -0.90625 2.765625 -0.90625q1.234375 0 2.15625 0.5q0.9375 0.484375 1.53125 1.421875q0.609375 0.9375 0.953125 2.28125q0.34375 1.328125 0.34375 3.59375q0 2.6875 -0.5625 4.34375q-0.546875 1.640625 -1.640625 2.546875q-1.09375 0.90625 -2.78125 0.90625q-2.203125 0 -3.46875 -1.59375q-1.5 -1.90625 -1.5 -6.203125zm1.921875 0q0 3.765625 0.875 5.015625q0.890625 1.234375 2.171875 1.234375q1.296875 0 2.171875 -1.25q0.890625 -1.25 0.890625 -5.0q0 -3.765625 -0.890625 -5.0q-0.875 -1.25 -2.1875 -1.25q-1.296875 0 -2.0625 1.09375q-0.96875 1.40625 -0.96875 5.15625zm20.542542 7.53125l0 -6.46875l-5.890625 -8.796875l2.453125 0l3.015625 4.59375q0.828125 1.296875 1.546875 2.59375q0.6875 -1.203125 1.671875 -2.703125l2.953125 -4.484375l2.359375 0l-6.09375 8.796875l0 6.46875l-2.015625 0zm15.2986145 -3.5625l1.921875 0.234375q-0.453125 1.703125 -1.6875 2.640625q-1.234375 0.9375 -3.171875 0.9375q-2.421875 0 -3.84375 -1.484375q-1.421875 -1.5 -1.421875 -4.203125q0 -2.796875 1.4375 -4.328125q1.4375 -1.546875 3.734375 -1.546875q2.21875 0 3.609375 1.515625q1.40625 1.5 1.40625 4.25q0 0.15625 0 0.5l-8.25 0q0.109375 1.8125 1.03125 2.78125q0.921875 0.96875 2.3125 0.96875q1.03125 0 1.75 -0.53125q0.734375 -0.546875 1.171875 -1.734375zm-6.15625 -3.03125l6.171875 0q-0.125 -1.390625 -0.703125 -2.09375q-0.90625 -1.078125 -2.328125 -1.078125q-1.296875 0 -2.171875 0.859375q-0.875 0.859375 -0.96875 2.3125zm17.65857 5.234375q-1.046875 0.875 -2.015625 1.25q-0.953125 0.359375 -2.0625 0.359375q-1.8125 0 -2.796875 -0.890625q-0.984375 -0.890625 -0.984375 -2.28125q0 -0.8125 0.375 -1.484375q0.375 -0.671875 0.96875 -1.078125q0.59375 -0.40625 1.34375 -0.609375q0.5625 -0.140625 1.671875 -0.28125q2.265625 -0.265625 3.34375 -0.640625q0.015625 -0.390625 0.015625 -0.5q0 -1.140625 -0.53125 -1.609375q-0.71875 -0.640625 -2.140625 -0.640625q-1.328125 0 -1.953125 0.46875q-0.625 0.46875 -0.9375 1.640625l-1.828125 -0.25q0.25 -1.171875 0.8125 -1.890625q0.578125 -0.734375 1.65625 -1.125q1.09375 -0.390625 2.515625 -0.390625q1.421875 0 2.296875 0.34375q0.890625 0.328125 1.3125 0.828125q0.421875 0.5 0.578125 1.28125q0.09375 0.46875 0.09375 1.71875l0 2.5q0 2.625 0.125 3.3125q0.125 0.6875 0.46875 1.328125l-1.953125 0q-0.296875 -0.578125 -0.375 -1.359375zm-0.15625 -4.1875q-1.015625 0.40625 -3.0625 0.703125q-1.15625 0.171875 -1.640625 0.375q-0.46875 0.203125 -0.734375 0.609375q-0.265625 0.40625 -0.265625 0.890625q0 0.75 0.5625 1.25q0.578125 0.5 1.671875 0.5q1.078125 0 1.921875 -0.46875q0.84375 -0.484375 1.25 -1.296875q0.296875 -0.640625 0.296875 -1.875l0 -0.6875zm4.7835693 5.546875l0 -11.0625l1.6875 0l0 1.671875q0.640625 -1.171875 1.1875 -1.546875q0.546875 -0.375 1.203125 -0.375q0.953125 0 1.921875 0.609375l-0.640625 1.734375q-0.6875 -0.40625 -1.375 -0.40625q-0.609375 0 -1.109375 0.375q-0.484375 0.359375 -0.6875 1.015625q-0.3125 1.0 -0.3125 2.1875l0 5.796875l-1.875 0zm6.3680573 -3.296875l1.859375 -0.296875q0.15625 1.109375 0.859375 1.703125q0.71875 0.59375 2.0 0.59375q1.296875 0 1.921875 -0.515625q0.625 -0.53125 0.625 -1.234375q0 -0.640625 -0.5625 -1.0q-0.375 -0.25 -1.90625 -0.640625q-2.0625 -0.515625 -2.859375 -0.890625q-0.796875 -0.390625 -1.21875 -1.0625q-0.40625 -0.671875 -0.40625 -1.484375q0 -0.734375 0.328125 -1.359375q0.34375 -0.640625 0.9375 -1.0625q0.4375 -0.3125 1.1875 -0.53125q0.75 -0.234375 1.625 -0.234375q1.296875 0 2.28125 0.375q0.984375 0.375 1.453125 1.015625q0.46875 0.640625 0.640625 1.71875l-1.828125 0.25q-0.125 -0.859375 -0.734375 -1.328125q-0.59375 -0.484375 -1.6875 -0.484375q-1.28125 0 -1.84375 0.421875q-0.546875 0.421875 -0.546875 1.0q0 0.359375 0.234375 0.65625q0.21875 0.296875 0.71875 0.5q0.28125 0.109375 1.65625 0.484375q1.984375 0.53125 2.765625 0.875q0.796875 0.328125 1.234375 0.984375q0.45313263 0.640625 0.45313263 1.59375q0 0.9375 -0.5468826 1.765625q-0.546875 0.828125 -1.578125 1.28125q-1.03125 0.453125 -2.328125 0.453125q-2.15625 0 -3.296875 -0.890625q-1.125 -0.90625 -1.4375 -2.65625z" fill-rule="nonzero"/></g></svg>