<?xml version="1.0" encoding="UTF-8"?><svg id="a" xmlns="http://www.w3.org/2000/svg" viewBox="0 0 700 393.75"><defs><style>.b,.c,.d{font-family:ArialMT, Arial;}.b,.d{font-size:24px;}.e,.f,.g,.d{stroke-miterlimit:10;}.e,.g,.d{stroke:#000;}.h{font-family:Arial-BoldMT, Arial;font-size:15px;}.h,.i{fill:#0000c8;}.f{stroke:#0000c8;}.f,.g{fill:none;stroke-width:2px;}.c{font-size:44px;}.d{stroke-width:.25px;}</style></defs><text class="d" transform="translate(10.49 71.33)"><tspan x="0" y="0">Reference Indices</tspan></text><text class="b" transform="translate(239.03 320.98)"><tspan x="0" y="0">Ensemble Dimension</tspan></text><g><line class="g" x1="19.89" y1="86.75" x2="19.89" y2="198.35"/><polygon points="14.08 194.39 19.89 216.07 25.7 194.39 14.08 194.39"/></g><g><line class="g" x1="244.28" y1="129.17" x2="244.28" y2="198.35"/><polygon points="238.47 194.39 244.28 216.07 250.09 194.39 238.47 194.39"/></g><g><line class="g" x1="468.45" y1="129.38" x2="468.45" y2="198.35"/><polygon points="462.64 194.39 468.45 216.07 474.26 194.39 462.64 194.39"/></g><g><line class="g" x1="20" y1="128.97" x2="612.13" y2="128.97"/><polygon points="608.17 134.78 629.85 128.97 608.17 123.15 608.17 134.78"/></g><text class="c" transform="translate(644.03 132.89)"><tspan x="0" y="0">...</tspan></text><g/><g/><g><circle class="e" cx="57.21" cy="268.32" r="5.42"/><circle class="e" cx="19.83" cy="268.32" r="5.42"/><circle class="e" cx="38.52" cy="268.32" r="5.42"/><circle class="e" cx="75.9" cy="268.32" r="5.42"/></g><g><circle class="e" cx="131.97" cy="268.32" r="5.42"/><circle class="e" cx="94.59" cy="268.32" r="5.42"/><circle class="e" cx="113.28" cy="268.32" r="5.42"/><circle class="e" cx="150.66" cy="268.32" r="5.42"/></g><g><circle class="e" cx="206.73" cy="268.32" r="5.42"/><circle class="e" cx="169.35" cy="268.32" r="5.42"/><circle class="e" cx="188.04" cy="268.32" r="5.42"/><circle class="e" cx="225.42" cy="268.32" r="5.42"/></g><g><circle class="e" cx="281.49" cy="268.32" r="5.42"/><circle class="e" cx="244.11" cy="268.32" r="5.42"/><circle class="e" cx="262.8" cy="268.32" r="5.42"/><circle class="e" cx="300.18" cy="268.32" r="5.42"/></g><g><circle class="e" cx="356.25" cy="268.32" r="5.42"/><circle class="e" cx="318.87" cy="268.32" r="5.42"/><circle class="e" cx="337.56" cy="268.32" r="5.42"/><circle class="e" cx="374.94" cy="268.32" r="5.42"/></g><g><circle class="e" cx="431.01" cy="268.32" r="5.42"/><circle class="e" cx="393.63" cy="268.32" r="5.42"/><circle class="e" cx="412.32" cy="268.32" r="5.42"/><circle class="e" cx="449.7" cy="268.32" r="5.42"/></g><g><circle class="e" cx="505.77" cy="268.32" r="5.42"/><circle class="e" cx="468.39" cy="268.32" r="5.42"/><circle class="e" cx="487.08" cy="268.32" r="5.42"/><circle class="e" cx="524.46" cy="268.32" r="5.42"/></g><g><circle class="e" cx="580.68" cy="268.32" r="5.42"/><circle class="e" cx="543.3" cy="268.32" r="5.42"/><circle class="e" cx="561.99" cy="268.32" r="5.42"/><circle class="e" cx="599.37" cy="268.32" r="5.42"/></g><g><circle class="e" cx="655.59" cy="268.32" r="5.42"/><circle class="e" cx="618.21" cy="268.32" r="5.42"/><circle class="e" cx="636.9" cy="268.32" r="5.42"/><circle class="e" cx="674.28" cy="268.32" r="5.42"/></g><g><line class="f" x1="19.89" y1="216.07" x2="131.97" y2="216.07"/><g><line class="f" x1="131.97" y1="216.07" x2="131.97" y2="236.51"/><polygon class="i" points="126.16 232.55 131.97 254.23 137.78 232.55 126.16 232.55"/></g><rect class="f" x="103.87" y="258.97" width="56.15" height="18.69"/><text class="h" transform="translate(27.18 208.87)"><tspan x="0" y="0" xml:space="preserve">  Mean Indices</tspan></text></g><g/><g/><g><line class="f" x1="244.28" y1="215.82" x2="356.36" y2="215.82"/><g><line class="f" x1="356.36" y1="215.82" x2="356.36" y2="236.26"/><polygon class="i" points="350.55 232.29 356.36 253.98 362.18 232.29 350.55 232.29"/></g><rect class="f" x="328.26" y="258.72" width="56.15" height="18.69"/><text class="h" transform="translate(251.57 208.62)"><tspan x="0" y="0" xml:space="preserve">  Mean Indices</tspan></text></g><g><line class="f" x1="469.04" y1="216.15" x2="581.12" y2="216.15"/><g><line class="f" x1="581.12" y1="216.15" x2="581.12" y2="236.58"/><polygon class="i" points="575.31 232.62 581.12 254.3 586.93 232.62 575.31 232.62"/></g><rect class="f" x="553.02" y="259.05" width="56.15" height="18.69"/><text class="h" transform="translate(476.33 208.95)"><tspan x="0" y="0" xml:space="preserve">  Mean Indices</tspan></text></g></svg>