<?xml version="1.0" encoding="utf-8"?>
<!-- Generator: Adobe Illustrator 26.2.1, SVG Export Plug-In . SVG Version: 6.00 Build 0)  -->
<svg version="1.1" id="Layer_1" xmlns="http://www.w3.org/2000/svg" xmlns:xlink="http://www.w3.org/1999/xlink" x="0px" y="0px"
	 viewBox="0 0 960 540" style="enable-background:new 0 0 960 540;" xml:space="preserve">
<style type="text/css">
	.st0{fill-rule:evenodd;clip-rule:evenodd;fill:#FFFFFF;}
	.st1{fill-rule:evenodd;clip-rule:evenodd;fill-opacity:0;}
	.st2{fill:none;stroke:#595959;stroke-linejoin:round;stroke-miterlimit:10;}
	.st3{fill:none;stroke:#000000;stroke-linejoin:round;stroke-miterlimit:10;}
	.st4{fill:none;stroke:#000000;stroke-width:3;stroke-linejoin:round;stroke-miterlimit:10;}
	.st5{fill-rule:evenodd;clip-rule:evenodd;stroke:#000000;stroke-width:3;stroke-miterlimit:10;}
	.st6{fill:none;stroke:#000000;stroke-width:2;stroke-linejoin:round;stroke-miterlimit:10;}
</style>
<g>
	<g>
		<path class="st0" d="M0,0h960v540H0V0z"/>
		<path class="st1" d="M8,289.1h303.2v39.7H8V289.1z"/>
		<path d="M17.7,317.3l2.2-0.3c0.1,1.4,0.3,2.3,0.8,2.8s1.1,0.8,1.9,0.8c0.6,0,1.1-0.1,1.5-0.4c0.4-0.3,0.7-0.7,0.9-1.1
			c0.2-0.5,0.2-1.2,0.2-2.3v-12.5h2.4v12.3c0,1.5-0.2,2.7-0.6,3.5c-0.4,0.8-0.9,1.5-1.8,1.9c-0.8,0.4-1.7,0.7-2.8,0.7
			c-1.6,0-2.8-0.5-3.7-1.4S17.7,319.1,17.7,317.3z M38.8,322.4v-18.1H51v2.1h-9.8v5.6h8.5v2.1h-8.5v8.2H38.8z M61.1,322.4v-18.1h3.6
			l4.3,12.8c0.4,1.2,0.7,2.1,0.9,2.7c0.2-0.7,0.5-1.6,1-2.9l4.3-12.6h3.2v18.1h-2.3v-15.2l-5.3,15.2h-2.2L63.4,307v15.4H61.1z
			 M85.9,322.4l7-18.1h2.6l7.4,18.1h-2.7l-2.1-5.5h-7.6l-2,5.5H85.9z M91.1,315h6.2l-1.9-5c-0.6-1.5-1-2.8-1.3-3.8
			c-0.2,1.2-0.6,2.3-1,3.5L91.1,315z M110.4,322.4v-18.1h3.6l4.3,12.8c0.4,1.2,0.7,2.1,0.9,2.7c0.2-0.7,0.5-1.6,1-2.9l4.3-12.6h3.2
			v18.1h-2.3v-15.2l-5.3,15.2h-2.2l-5.2-15.4v15.4H110.4z M137.3,317.3l2.2-0.3c0.1,1.4,0.3,2.3,0.8,2.8s1.1,0.8,1.9,0.8
			c0.6,0,1.1-0.1,1.5-0.4c0.4-0.3,0.7-0.7,0.9-1.1c0.2-0.5,0.2-1.2,0.2-2.3v-12.5h2.4v12.3c0,1.5-0.2,2.7-0.6,3.5
			c-0.4,0.8-0.9,1.5-1.8,1.9c-0.8,0.4-1.7,0.7-2.8,0.7c-1.6,0-2.8-0.5-3.7-1.4S137.3,319.1,137.3,317.3z M157.1,317.3l2.2-0.3
			c0.1,1.4,0.3,2.3,0.8,2.8c0.5,0.5,1.1,0.8,1.9,0.8c0.6,0,1.1-0.1,1.5-0.4c0.4-0.3,0.7-0.7,0.9-1.1c0.2-0.5,0.2-1.2,0.2-2.3v-12.5
			h2.4v12.3c0,1.5-0.2,2.7-0.6,3.5c-0.4,0.8-0.9,1.5-1.8,1.9c-0.8,0.4-1.7,0.7-2.8,0.7c-1.6,0-2.8-0.5-3.7-1.4
			S157,319.1,157.1,317.3z M174.6,322.4l7-18.1h2.6l7.4,18.1h-2.7l-2.1-5.5h-7.6l-2,5.5H174.6z M179.8,315h6.2l-1.9-5
			c-0.6-1.5-1-2.8-1.3-3.8c-0.2,1.2-0.6,2.3-1,3.5L179.8,315z M198.3,316.6l2.3-0.2c0.1,0.9,0.3,1.7,0.7,2.2c0.4,0.6,1,1,1.8,1.4
			c0.8,0.4,1.8,0.5,2.8,0.5c0.9,0,1.7-0.1,2.4-0.4c0.7-0.3,1.2-0.6,1.6-1.1c0.3-0.5,0.5-1,0.5-1.6c0-0.6-0.2-1.1-0.5-1.5
			c-0.3-0.4-0.9-0.8-1.6-1.1c-0.5-0.2-1.6-0.5-3.2-0.9c-1.7-0.4-2.8-0.8-3.5-1.1c-0.9-0.4-1.5-1-1.9-1.7c-0.4-0.7-0.6-1.4-0.6-2.3
			c0-0.9,0.3-1.8,0.8-2.6c0.5-0.8,1.3-1.4,2.3-1.8c1-0.4,2.1-0.6,3.3-0.6c1.3,0,2.5,0.2,3.5,0.7c1,0.4,1.8,1.1,2.4,1.9
			c0.6,0.8,0.8,1.8,0.9,2.9l-2.3,0.2c-0.1-1.1-0.5-2-1.2-2.6c-0.7-0.6-1.8-0.9-3.2-0.9c-1.4,0-2.5,0.3-3.2,0.8s-1,1.2-1,1.9
			c0,0.7,0.2,1.2,0.7,1.6c0.5,0.4,1.7,0.9,3.6,1.3s3.3,0.8,4,1.2c1.1,0.5,1.8,1.1,2.3,1.9c0.5,0.7,0.8,1.6,0.8,2.6s-0.3,1.9-0.8,2.7
			c-0.6,0.9-1.3,1.5-2.4,2c-1,0.5-2.2,0.7-3.5,0.7c-1.6,0-3-0.2-4.1-0.7c-1.1-0.5-2-1.2-2.6-2.2
			C198.7,318.9,198.3,317.8,198.3,316.6z M222.3,313.6c0-3,0.8-5.4,2.4-7.1c1.6-1.7,3.7-2.6,6.3-2.6c1.7,0,3.2,0.4,4.5,1.2
			c1.3,0.8,2.4,1.9,3.1,3.3c0.7,1.4,1.1,3,1.1,4.9c0,1.8-0.4,3.5-1.1,5c-0.7,1.4-1.8,2.5-3.2,3.3c-1.4,0.7-2.8,1.1-4.4,1.1
			c-1.7,0-3.2-0.4-4.6-1.2c-1.3-0.8-2.4-2-3.1-3.4C222.6,316.7,222.3,315.2,222.3,313.6z M224.8,313.6c0,2.2,0.6,3.9,1.8,5.2
			c1.2,1.2,2.7,1.9,4.4,1.9c1.8,0,3.3-0.6,4.5-1.9c1.2-1.3,1.8-3.1,1.8-5.4c0-1.5-0.2-2.8-0.8-3.9c-0.5-1.1-1.2-2-2.2-2.6
			c-1-0.6-2-0.9-3.2-0.9c-1.7,0-3.2,0.6-4.4,1.8C225.4,309,224.8,310.9,224.8,313.6z M249.7,322.4v-18.1h2.5l9.5,14.2v-14.2h2.3
			v18.1h-2.5l-9.5-14.2v14.2H249.7z M275.1,322.4v-18.1h6.2c1.4,0,2.5,0.1,3.2,0.2c1,0.2,1.9,0.7,2.7,1.3c0.9,0.8,1.7,1.8,2.1,3.1
			c0.5,1.2,0.7,2.7,0.7,4.3c0,1.4-0.2,2.6-0.5,3.7c-0.3,1.1-0.7,1.9-1.2,2.6c-0.5,0.7-1.1,1.2-1.7,1.6c-0.6,0.4-1.3,0.7-2.2,0.9
			s-1.8,0.3-2.9,0.3H275.1z M277.5,320.3h3.9c1.2,0,2.1-0.1,2.8-0.3c0.7-0.2,1.2-0.5,1.6-0.9c0.6-0.6,1-1.3,1.3-2.3
			c0.3-1,0.5-2.1,0.5-3.5c0-1.9-0.3-3.3-0.9-4.4c-0.6-1-1.4-1.7-2.3-2.1c-0.6-0.2-1.7-0.4-3.1-0.4h-3.8V320.3z"/>
		<path class="st1" d="M8,309L8,309"/>
		<path class="st2" d="M8,309L8,309"/>
		<path class="st1" d="M328.4,289.1h303.2v39.7H328.4V289.1z"/>
		<path d="M338.1,317.3l2.2-0.3c0.1,1.4,0.3,2.3,0.8,2.8c0.5,0.5,1.1,0.8,1.9,0.8c0.6,0,1.1-0.1,1.5-0.4c0.4-0.3,0.7-0.7,0.9-1.1
			c0.2-0.5,0.2-1.2,0.2-2.3v-12.5h2.4v12.3c0,1.5-0.2,2.7-0.6,3.5c-0.4,0.8-0.9,1.5-1.8,1.9c-0.8,0.4-1.7,0.7-2.8,0.7
			c-1.6,0-2.8-0.5-3.7-1.4S338.1,319.1,338.1,317.3z M359.2,322.4v-18.1h12.2v2.1h-9.8v5.6h8.5v2.1h-8.5v8.2H359.2z M381.5,322.4
			v-18.1h3.6l4.3,12.8c0.4,1.2,0.7,2.1,0.9,2.7c0.2-0.7,0.5-1.6,1-2.9l4.3-12.6h3.2v18.1h-2.3v-15.2l-5.3,15.2h-2.2l-5.2-15.4v15.4
			H381.5z M406.3,322.4l7-18.1h2.6l7.4,18.1h-2.7l-2.1-5.5h-7.6l-2,5.5H406.3z M411.5,315h6.2l-1.9-5c-0.6-1.5-1-2.8-1.3-3.8
			c-0.2,1.2-0.6,2.3-1,3.5L411.5,315z M430.8,322.4v-18.1h3.6l4.3,12.8c0.4,1.2,0.7,2.1,0.9,2.7c0.2-0.7,0.5-1.6,1-2.9l4.3-12.6h3.2
			v18.1h-2.3v-15.2l-5.3,15.2h-2.2l-5.2-15.4v15.4H430.8z M457.8,317.3l2.2-0.3c0.1,1.4,0.3,2.3,0.8,2.8c0.5,0.5,1.1,0.8,1.9,0.8
			c0.6,0,1.1-0.1,1.5-0.4c0.4-0.3,0.7-0.7,0.9-1.1c0.2-0.5,0.3-1.2,0.2-2.3v-12.5h2.4v12.3c0,1.5-0.2,2.7-0.6,3.5
			c-0.4,0.8-0.9,1.5-1.8,1.9c-0.8,0.4-1.7,0.7-2.8,0.7c-1.6,0-2.8-0.5-3.7-1.4C458.1,320.4,457.7,319.1,457.8,317.3z M477.5,317.3
			l2.2-0.3c0.1,1.4,0.3,2.3,0.8,2.8c0.5,0.5,1.1,0.8,1.9,0.8c0.6,0,1.1-0.1,1.5-0.4c0.4-0.3,0.7-0.7,0.9-1.1
			c0.2-0.5,0.2-1.2,0.2-2.3v-12.5h2.4v12.3c0,1.5-0.2,2.7-0.6,3.5c-0.4,0.8-0.9,1.5-1.8,1.9c-0.8,0.4-1.7,0.7-2.8,0.7
			c-1.6,0-2.8-0.5-3.7-1.4S477.4,319.1,477.5,317.3z M495,322.4l7-18.1h2.6l7.4,18.1h-2.7l-2.1-5.5h-7.6l-2,5.5H495z M500.2,315h6.2
			l-1.9-5c-0.6-1.5-1-2.8-1.3-3.8c-0.2,1.2-0.6,2.3-1,3.5L500.2,315z M518.7,316.6l2.3-0.2c0.1,0.9,0.3,1.7,0.7,2.2
			c0.4,0.6,1,1,1.8,1.4c0.8,0.4,1.8,0.5,2.8,0.5c0.9,0,1.7-0.1,2.4-0.4c0.7-0.3,1.2-0.6,1.6-1.1c0.3-0.5,0.5-1,0.5-1.6
			c0-0.6-0.2-1.1-0.5-1.5c-0.3-0.4-0.9-0.8-1.6-1.1c-0.5-0.2-1.6-0.5-3.2-0.9c-1.7-0.4-2.8-0.8-3.5-1.1c-0.9-0.4-1.5-1-1.9-1.7
			c-0.4-0.7-0.6-1.4-0.6-2.3c0-0.9,0.3-1.8,0.8-2.6c0.5-0.8,1.3-1.4,2.3-1.8c1-0.4,2.1-0.6,3.3-0.6c1.3,0,2.5,0.2,3.5,0.7
			c1,0.4,1.8,1.1,2.4,1.9c0.6,0.8,0.8,1.8,0.9,2.9l-2.3,0.2c-0.1-1.1-0.5-2-1.2-2.6c-0.7-0.6-1.8-0.9-3.2-0.9
			c-1.4,0-2.5,0.3-3.2,0.8c-0.7,0.5-1,1.2-1,1.9c0,0.7,0.2,1.2,0.7,1.6c0.5,0.4,1.7,0.9,3.6,1.3c1.9,0.4,3.3,0.8,4,1.2
			c1.1,0.5,1.8,1.1,2.3,1.9c0.5,0.7,0.8,1.6,0.8,2.6s-0.3,1.9-0.8,2.7c-0.6,0.9-1.3,1.5-2.4,2c-1,0.5-2.2,0.7-3.5,0.7
			c-1.6,0-3-0.2-4.1-0.7c-1.1-0.5-2-1.2-2.6-2.2C519.1,318.9,518.7,317.8,518.7,316.6z M542.7,313.6c0-3,0.8-5.4,2.4-7.1
			c1.6-1.7,3.7-2.6,6.3-2.6c1.7,0,3.2,0.4,4.5,1.2s2.4,1.9,3.1,3.3c0.7,1.4,1.1,3,1.1,4.9c0,1.8-0.4,3.5-1.1,5
			c-0.7,1.4-1.8,2.5-3.2,3.3c-1.4,0.7-2.8,1.1-4.4,1.1c-1.7,0-3.2-0.4-4.6-1.2c-1.3-0.8-2.4-2-3.1-3.4
			C543.1,316.7,542.7,315.2,542.7,313.6z M545.2,313.6c0,2.2,0.6,3.9,1.8,5.2c1.2,1.2,2.7,1.9,4.4,1.9c1.8,0,3.3-0.6,4.5-1.9
			c1.2-1.3,1.8-3.1,1.8-5.4c0-1.5-0.2-2.8-0.8-3.9c-0.5-1.1-1.2-2-2.2-2.6c-1-0.6-2-0.9-3.2-0.9c-1.7,0-3.2,0.6-4.4,1.8
			C545.8,309,545.2,310.9,545.2,313.6z M570.2,322.4v-18.1h2.5l9.5,14.2v-14.2h2.3v18.1H582l-9.5-14.2v14.2H570.2z M595.5,322.4
			v-18.1h6.2c1.4,0,2.5,0.1,3.2,0.2c1,0.2,1.9,0.7,2.7,1.3c0.9,0.8,1.7,1.8,2.1,3.1c0.5,1.2,0.7,2.7,0.7,4.3c0,1.4-0.2,2.6-0.5,3.7
			c-0.3,1.1-0.7,1.9-1.2,2.6c-0.5,0.7-1.1,1.2-1.7,1.6c-0.6,0.4-1.3,0.7-2.2,0.9s-1.8,0.3-2.9,0.3H595.5z M597.9,320.3h3.9
			c1.2,0,2.1-0.1,2.8-0.3c0.7-0.2,1.2-0.5,1.6-0.9c0.6-0.6,1-1.3,1.3-2.3c0.3-1,0.5-2.1,0.5-3.5c0-1.9-0.3-3.3-0.9-4.4
			c-0.6-1-1.4-1.7-2.3-2.1c-0.6-0.2-1.7-0.4-3.1-0.4h-3.8V320.3z"/>
		<path class="st1" d="M648.8,289.1H952v39.7H648.8V289.1z"/>
		<path d="M658.6,317.3l2.2-0.3c0.1,1.4,0.3,2.3,0.8,2.8c0.5,0.5,1.1,0.8,1.9,0.8c0.6,0,1.1-0.1,1.5-0.4c0.4-0.3,0.7-0.7,0.9-1.1
			c0.2-0.5,0.2-1.2,0.2-2.3v-12.5h2.4v12.3c0,1.5-0.2,2.7-0.6,3.5c-0.4,0.8-0.9,1.5-1.8,1.9c-0.8,0.4-1.7,0.7-2.8,0.7
			c-1.6,0-2.8-0.5-3.7-1.4S658.5,319.1,658.6,317.3z M679.6,322.4v-18.1h12.2v2.1H682v5.6h8.5v2.1H682v8.2H679.6z M701.9,322.4
			v-18.1h3.6l4.3,12.8c0.4,1.2,0.7,2.1,0.9,2.7c0.2-0.7,0.5-1.6,1-2.9l4.3-12.6h3.2v18.1h-2.3v-15.2l-5.3,15.2h-2.2l-5.2-15.4v15.4
			H701.9z M726.7,322.4l7-18.1h2.6l7.4,18.1H741l-2.1-5.5h-7.6l-2,5.5H726.7z M732,315h6.2l-1.9-5c-0.6-1.5-1-2.8-1.3-3.8
			c-0.2,1.2-0.6,2.3-1,3.5L732,315z M751.2,322.4v-18.1h3.6l4.3,12.8c0.4,1.2,0.7,2.1,0.9,2.7c0.2-0.7,0.5-1.6,1-2.9l4.3-12.6h3.2
			v18.1h-2.3v-15.2l-5.3,15.2h-2.2l-5.2-15.4v15.4H751.2z M778.2,317.3l2.2-0.3c0.1,1.4,0.3,2.3,0.8,2.8c0.5,0.5,1.1,0.8,1.9,0.8
			c0.6,0,1.1-0.1,1.5-0.4c0.4-0.3,0.7-0.7,0.9-1.1c0.2-0.5,0.2-1.2,0.2-2.3v-12.5h2.4v12.3c0,1.5-0.2,2.7-0.6,3.5
			c-0.4,0.8-0.9,1.5-1.8,1.9c-0.8,0.4-1.7,0.7-2.8,0.7c-1.6,0-2.8-0.5-3.7-1.4S778.1,319.1,778.2,317.3z M797.9,317.3l2.2-0.3
			c0.1,1.4,0.3,2.3,0.8,2.8c0.5,0.5,1.1,0.8,1.9,0.8c0.6,0,1.1-0.1,1.5-0.4c0.4-0.3,0.7-0.7,0.9-1.1c0.2-0.5,0.2-1.2,0.2-2.3v-12.5
			h2.4v12.3c0,1.5-0.2,2.7-0.6,3.5c-0.4,0.8-0.9,1.5-1.8,1.9c-0.8,0.4-1.7,0.7-2.8,0.7c-1.6,0-2.8-0.5-3.7-1.4
			S797.8,319.1,797.9,317.3z M815.4,322.4l7-18.1h2.6l7.4,18.1h-2.7l-2.1-5.5h-7.6l-2,5.5H815.4z M820.6,315h6.2l-1.9-5
			c-0.6-1.5-1-2.8-1.3-3.8c-0.2,1.2-0.6,2.3-1,3.5L820.6,315z M839.1,316.6l2.3-0.2c0.1,0.9,0.3,1.7,0.7,2.2c0.4,0.6,1,1,1.8,1.4
			c0.8,0.4,1.7,0.5,2.8,0.5c0.9,0,1.7-0.1,2.4-0.4c0.7-0.3,1.2-0.6,1.6-1.1c0.3-0.5,0.5-1,0.5-1.6c0-0.6-0.2-1.1-0.5-1.5
			c-0.3-0.4-0.9-0.8-1.6-1.1c-0.5-0.2-1.6-0.5-3.2-0.9c-1.7-0.4-2.8-0.8-3.5-1.1c-0.9-0.4-1.5-1-1.9-1.7c-0.4-0.7-0.6-1.4-0.6-2.3
			c0-0.9,0.3-1.8,0.8-2.6c0.5-0.8,1.3-1.4,2.3-1.8c1-0.4,2.1-0.6,3.3-0.6c1.3,0,2.5,0.2,3.5,0.7c1,0.4,1.8,1.1,2.4,1.9
			c0.6,0.8,0.8,1.8,0.9,2.9l-2.3,0.2c-0.1-1.1-0.5-2-1.2-2.6c-0.7-0.6-1.8-0.9-3.2-0.9c-1.4,0-2.5,0.3-3.2,0.8c-0.7,0.5-1,1.2-1,1.9
			c0,0.7,0.2,1.2,0.7,1.6c0.5,0.4,1.7,0.9,3.6,1.3c1.9,0.4,3.3,0.8,4,1.2c1.1,0.5,1.8,1.1,2.3,1.9c0.5,0.7,0.8,1.6,0.8,2.6
			c0,1-0.3,1.9-0.8,2.7c-0.6,0.9-1.3,1.5-2.4,2c-1,0.5-2.2,0.7-3.5,0.7c-1.6,0-3-0.2-4.1-0.7c-1.1-0.5-2-1.2-2.6-2.2
			C839.5,318.9,839.1,317.8,839.1,316.6z M863.1,313.6c0-3,0.8-5.4,2.4-7.1c1.6-1.7,3.7-2.6,6.3-2.6c1.7,0,3.2,0.4,4.5,1.2
			s2.4,1.9,3.1,3.3c0.7,1.4,1.1,3,1.1,4.9c0,1.8-0.4,3.5-1.1,5c-0.7,1.4-1.8,2.5-3.2,3.3c-1.4,0.7-2.8,1.1-4.4,1.1
			c-1.7,0-3.2-0.4-4.6-1.2c-1.3-0.8-2.4-2-3.1-3.4C863.5,316.7,863.1,315.2,863.1,313.6z M865.6,313.6c0,2.2,0.6,3.9,1.8,5.2
			c1.2,1.2,2.7,1.9,4.4,1.9c1.8,0,3.3-0.6,4.5-1.9c1.2-1.3,1.8-3.1,1.8-5.4c0-1.5-0.2-2.8-0.8-3.9c-0.5-1.1-1.2-2-2.2-2.6
			c-1-0.6-2-0.9-3.2-0.9c-1.7,0-3.2,0.6-4.4,1.8C866.2,309,865.6,310.9,865.6,313.6z M890.6,322.4v-18.1h2.5l9.5,14.2v-14.2h2.3
			v18.1h-2.5l-9.5-14.2v14.2H890.6z M915.9,322.4v-18.1h6.2c1.4,0,2.5,0.1,3.2,0.2c1,0.2,1.9,0.7,2.7,1.3c0.9,0.8,1.7,1.8,2.1,3.1
			c0.5,1.2,0.7,2.7,0.7,4.3c0,1.4-0.2,2.6-0.5,3.7c-0.3,1.1-0.7,1.9-1.2,2.6c-0.5,0.7-1.1,1.2-1.7,1.6c-0.6,0.4-1.3,0.7-2.2,0.9
			s-1.8,0.3-2.9,0.3H915.9z M918.3,320.3h3.9c1.2,0,2.1-0.1,2.8-0.3c0.7-0.2,1.2-0.5,1.6-0.9c0.6-0.6,1-1.3,1.3-2.3
			c0.3-1,0.5-2.1,0.5-3.5c0-1.9-0.3-3.3-0.9-4.4c-0.6-1-1.4-1.7-2.3-2.1c-0.6-0.2-1.7-0.4-3.1-0.4h-3.8V320.3z"/>
		<path class="st1" d="M320.7,277.4v76.8"/>
		<path class="st3" d="M320.7,277.4v76.8"/>
		<path class="st1" d="M639.3,277.4v76.8"/>
		<path class="st3" d="M639.3,277.4v76.8"/>
		<path class="st1" d="M8,125.2h226.2v52.1H8V125.2z"/>
		<path d="M18.8,157.2V140h7.3c1.8,0,3.2,0.2,4,0.5s1.5,0.9,2,1.7c0.5,0.8,0.8,1.7,0.8,2.7c0,1.3-0.4,2.3-1.1,3.2
			c-0.8,0.8-1.9,1.4-3.4,1.6c0.8,0.4,1.4,0.9,1.8,1.4c0.5,0.5,1.2,1.4,2,2.8l2.1,3.4h-4.1l-2.5-3.7c-0.9-1.3-1.5-2.2-1.8-2.5
			c-0.3-0.3-0.7-0.6-1-0.7c-0.4-0.1-0.9-0.2-1.7-0.2h-0.7v7.2H18.8z M22.2,147.3h2.6c1.7,0,2.7-0.1,3.1-0.2c0.4-0.1,0.7-0.4,1-0.7
			c0.2-0.3,0.4-0.8,0.4-1.3c0-0.6-0.2-1.1-0.5-1.4c-0.3-0.4-0.7-0.6-1.3-0.7c-0.3,0-1.1-0.1-2.5-0.1h-2.7V147.3z M43.3,153.2
			l3.3,0.6c-0.4,1.2-1.1,2.1-2,2.8c-0.9,0.6-2,0.9-3.4,0.9c-2.2,0-3.8-0.7-4.8-2.1c-0.8-1.1-1.2-2.6-1.2-4.3c0-2.1,0.5-3.7,1.6-4.8
			c1.1-1.2,2.4-1.8,4.1-1.8c1.9,0,3.3,0.6,4.4,1.8c1.1,1.2,1.6,3.1,1.5,5.6h-8.2c0,1,0.3,1.7,0.8,2.3s1.1,0.8,1.9,0.8
			c0.5,0,1-0.1,1.3-0.4C42.8,154.3,43.1,153.9,43.3,153.2z M43.5,149.9c0-0.9-0.3-1.7-0.8-2.2c-0.5-0.5-1-0.8-1.7-0.8
			c-0.7,0-1.3,0.3-1.8,0.8s-0.7,1.2-0.7,2.1H43.5z M48,144.7h1.8v-0.9c0-1,0.1-1.8,0.3-2.3c0.2-0.5,0.6-0.9,1.2-1.3
			c0.6-0.3,1.4-0.5,2.3-0.5c0.9,0,1.9,0.1,2.8,0.4l-0.5,2.3c-0.5-0.1-1-0.2-1.5-0.2c-0.5,0-0.8,0.1-1,0.3s-0.3,0.6-0.3,1.3v0.9h2.5
			v2.6h-2.5v9.9h-3.3v-9.9H48V144.7z M64.6,153.2l3.3,0.6c-0.4,1.2-1.1,2.1-2,2.8c-0.9,0.6-2,0.9-3.4,0.9c-2.2,0-3.8-0.7-4.8-2.1
			c-0.8-1.1-1.2-2.6-1.2-4.3c0-2.1,0.5-3.7,1.6-4.8c1.1-1.2,2.4-1.8,4.1-1.8c1.9,0,3.3,0.6,4.4,1.8c1.1,1.2,1.6,3.1,1.5,5.6h-8.2
			c0,1,0.3,1.7,0.8,2.3s1.1,0.8,1.9,0.8c0.5,0,1-0.1,1.3-0.4C64.2,154.3,64.4,153.9,64.6,153.2z M64.8,149.9c0-0.9-0.3-1.7-0.8-2.2
			c-0.5-0.5-1-0.8-1.7-0.8c-0.7,0-1.3,0.3-1.8,0.8s-0.7,1.2-0.7,2.1H64.8z M73.9,157.2h-3.3v-12.5h3.1v1.8c0.5-0.8,1-1.4,1.4-1.7
			c0.4-0.3,0.9-0.4,1.4-0.4c0.8,0,1.5,0.2,2.2,0.6l-1,2.9c-0.6-0.4-1.1-0.5-1.5-0.5c-0.5,0-0.8,0.1-1.2,0.4
			c-0.3,0.2-0.6,0.7-0.8,1.4c-0.2,0.7-0.3,2.1-0.3,4.2V157.2z M87.3,153.2l3.3,0.6c-0.4,1.2-1.1,2.1-2,2.8c-0.9,0.6-2,0.9-3.4,0.9
			c-2.2,0-3.8-0.7-4.8-2.1c-0.8-1.1-1.2-2.6-1.2-4.3c0-2.1,0.5-3.7,1.6-4.8c1.1-1.2,2.4-1.8,4.1-1.8c1.9,0,3.3,0.6,4.4,1.8
			c1.1,1.2,1.6,3.1,1.5,5.6h-8.2c0,1,0.3,1.7,0.8,2.3s1.1,0.8,1.9,0.8c0.5,0,1-0.1,1.3-0.4C86.8,154.3,87.1,153.9,87.3,153.2z
			 M87.5,149.9c0-0.9-0.3-1.7-0.8-2.2c-0.5-0.5-1-0.8-1.7-0.8c-0.7,0-1.3,0.3-1.8,0.8s-0.7,1.2-0.7,2.1H87.5z M104.8,157.2h-3.3
			v-6.4c0-1.3-0.1-2.2-0.2-2.6c-0.1-0.4-0.4-0.7-0.7-0.9c-0.3-0.2-0.7-0.3-1.1-0.3c-0.6,0-1.1,0.2-1.5,0.5c-0.4,0.3-0.8,0.7-0.9,1.2
			c-0.2,0.5-0.2,1.5-0.2,2.8v5.6h-3.3v-12.5h3.1v1.8c1.1-1.4,2.4-2.1,4.1-2.1c0.7,0,1.4,0.1,2,0.4c0.6,0.3,1.1,0.6,1.4,1
			s0.5,0.9,0.6,1.4c0.1,0.5,0.2,1.2,0.2,2.2V157.2z M118.9,148.4l-3.2,0.6c-0.1-0.6-0.4-1.1-0.8-1.5c-0.4-0.3-0.9-0.5-1.5-0.5
			c-0.8,0-1.5,0.3-2,0.9c-0.5,0.6-0.7,1.5-0.7,2.8c0,1.5,0.2,2.5,0.7,3.1c0.5,0.6,1.2,0.9,2,0.9c0.6,0,1.1-0.2,1.5-0.5
			c0.4-0.4,0.7-1,0.8-1.8l3.2,0.5c-0.3,1.5-1,2.6-1.9,3.4c-0.9,0.8-2.2,1.1-3.8,1.1c-1.8,0-3.3-0.6-4.3-1.7
			c-1.1-1.2-1.6-2.8-1.6-4.8c0-2.1,0.5-3.7,1.6-4.8s2.6-1.7,4.4-1.7c1.5,0,2.7,0.3,3.6,1C117.9,146.1,118.5,147.1,118.9,148.4z
			 M128.7,153.2l3.3,0.6c-0.4,1.2-1.1,2.1-2,2.8c-0.9,0.6-2,0.9-3.4,0.9c-2.2,0-3.8-0.7-4.8-2.1c-0.8-1.1-1.2-2.6-1.2-4.3
			c0-2.1,0.5-3.7,1.6-4.8c1.1-1.2,2.4-1.8,4.1-1.8c1.9,0,3.3,0.6,4.4,1.8c1.1,1.2,1.6,3.1,1.5,5.6h-8.2c0,1,0.3,1.7,0.8,2.3
			s1.1,0.8,1.9,0.8c0.5,0,1-0.1,1.3-0.4C128.2,154.3,128.5,153.9,128.7,153.2z M128.8,149.9c0-0.9-0.3-1.7-0.8-2.2
			c-0.5-0.5-1-0.8-1.7-0.8c-0.7,0-1.3,0.3-1.8,0.8s-0.7,1.2-0.7,2.1H128.8z M141.4,157.2V140h3.5v17.2H141.4z M159.4,157.2h-3.3
			v-6.4c0-1.3-0.1-2.2-0.2-2.6c-0.1-0.4-0.4-0.7-0.7-0.9c-0.3-0.2-0.7-0.3-1.1-0.3c-0.6,0-1.1,0.2-1.5,0.5c-0.4,0.3-0.8,0.7-0.9,1.2
			c-0.2,0.5-0.2,1.5-0.2,2.8v5.6h-3.3v-12.5h3.1v1.8c1.1-1.4,2.4-2.1,4.1-2.1c0.7,0,1.4,0.1,2,0.4c0.6,0.3,1.1,0.6,1.4,1
			s0.5,0.9,0.6,1.4c0.1,0.5,0.2,1.2,0.2,2.2V157.2z M174.2,157.2h-3.1v-1.8c-0.5,0.7-1.1,1.2-1.8,1.6c-0.7,0.3-1.4,0.5-2.1,0.5
			c-1.4,0-2.7-0.6-3.7-1.7c-1-1.2-1.5-2.8-1.5-4.8c0-2.1,0.5-3.7,1.5-4.8c1-1.1,2.3-1.7,3.8-1.7c1.4,0,2.6,0.6,3.6,1.7V140h3.3
			V157.2z M165.4,150.7c0,1.3,0.2,2.3,0.6,2.9c0.5,0.9,1.3,1.3,2.2,1.3c0.8,0,1.4-0.3,1.9-1c0.5-0.6,0.8-1.6,0.8-2.9
			c0-1.4-0.3-2.5-0.8-3.1c-0.5-0.6-1.2-0.9-2-0.9c-0.8,0-1.4,0.3-2,0.9C165.7,148.5,165.4,149.5,165.4,150.7z M177.4,143.1v-3h3.3v3
			H177.4z M177.4,157.2v-12.5h3.3v12.5H177.4z M195,148.4l-3.2,0.6c-0.1-0.6-0.4-1.1-0.8-1.5c-0.4-0.3-0.9-0.5-1.5-0.5
			c-0.8,0-1.5,0.3-2,0.9c-0.5,0.6-0.7,1.5-0.7,2.8c0,1.5,0.2,2.5,0.7,3.1c0.5,0.6,1.2,0.9,2,0.9c0.6,0,1.1-0.2,1.5-0.5
			c0.4-0.4,0.7-1,0.8-1.8l3.2,0.5c-0.3,1.5-1,2.6-1.9,3.4c-0.9,0.8-2.2,1.1-3.8,1.1c-1.8,0-3.3-0.6-4.3-1.7
			c-1.1-1.2-1.6-2.8-1.6-4.8c0-2.1,0.5-3.7,1.6-4.8s2.6-1.7,4.4-1.7c1.5,0,2.7,0.3,3.6,1C193.9,146.1,194.6,147.1,195,148.4z
			 M204.7,153.2l3.3,0.6c-0.4,1.2-1.1,2.1-2,2.8c-0.9,0.6-2,0.9-3.4,0.9c-2.2,0-3.8-0.7-4.8-2.1c-0.8-1.1-1.2-2.6-1.2-4.3
			c0-2.1,0.5-3.7,1.6-4.8c1.1-1.2,2.4-1.8,4.1-1.8c1.9,0,3.3,0.6,4.4,1.8c1.1,1.2,1.6,3.1,1.5,5.6h-8.2c0,1,0.3,1.7,0.8,2.3
			s1.1,0.8,1.9,0.8c0.5,0,1-0.1,1.3-0.4C204.2,154.3,204.5,153.9,204.7,153.2z M204.9,149.9c0-0.9-0.3-1.7-0.8-2.2
			c-0.5-0.5-1-0.8-1.7-0.8c-0.7,0-1.3,0.3-1.8,0.8s-0.7,1.2-0.7,2.1H204.9z M209.6,153.6l3.3-0.5c0.1,0.6,0.4,1.1,0.8,1.5
			c0.4,0.3,1,0.5,1.8,0.5c0.9,0,1.5-0.2,1.9-0.5c0.3-0.2,0.4-0.5,0.4-0.9c0-0.2-0.1-0.5-0.2-0.6c-0.2-0.2-0.5-0.3-1.1-0.4
			c-2.7-0.6-4.3-1.1-5-1.6c-1-0.7-1.5-1.6-1.5-2.8c0-1.1,0.4-2,1.3-2.7c0.9-0.7,2.2-1.1,4-1.1c1.7,0,3,0.3,3.8,0.8
			c0.8,0.6,1.4,1.4,1.7,2.5l-3.1,0.6c-0.1-0.5-0.4-0.9-0.8-1.1c-0.4-0.3-0.9-0.4-1.6-0.4c-0.9,0-1.5,0.1-1.9,0.4
			c-0.2,0.2-0.4,0.4-0.4,0.7c0,0.2,0.1,0.4,0.3,0.6c0.3,0.2,1.3,0.5,3.1,0.9c1.8,0.4,3,0.9,3.7,1.5c0.7,0.6,1,1.4,1,2.5
			c0,1.1-0.5,2.1-1.4,2.9c-0.9,0.8-2.4,1.2-4.2,1.2c-1.7,0-3-0.3-4-1S209.9,154.8,209.6,153.6z"/>
		<path class="st1" d="M147.2,170.7v118.4"/>
		<path class="st4" d="M147.2,170.7v100.4"/>
		<path class="st5" d="M142.2,271.1l5,13.6l5-13.6H142.2z"/>
		<path class="st1" d="M8,354.2h296.5v87.4H8V354.2z"/>
		<path d="M132.6,383.8c-1.3-0.5-2.3-1.2-2.9-2.1c-0.6-0.9-0.9-2-0.9-3.2c0-1.9,0.7-3.4,2-4.7c1.4-1.3,3.1-1.9,5.4-1.9
			c2.2,0,4.1,0.7,5.4,2c1.4,1.3,2.1,2.9,2.1,4.8c0,1.2-0.3,2.2-1,3.1c-0.6,0.9-1.6,1.6-2.8,2c1.6,0.5,2.8,1.3,3.6,2.5
			c0.8,1.1,1.2,2.5,1.2,4.1c0,2.2-0.8,4-2.3,5.5c-1.6,1.5-3.6,2.3-6.1,2.2c-2.5,0-4.6-0.7-6.2-2.2c-1.6-1.5-2.3-3.4-2.3-5.6
			c0-1.7,0.4-3.1,1.3-4.2C129.8,385,131,384.2,132.6,383.8z M131.9,378.4c0,1.2,0.4,2.2,1.2,3c0.8,0.8,1.8,1.2,3.1,1.2
			c1.2,0,2.2-0.4,3-1.1c0.8-0.8,1.2-1.7,1.2-2.8c0-1.2-0.4-2.1-1.2-2.9c-0.8-0.8-1.8-1.2-3-1.2c-1.2,0-2.2,0.4-3,1.2
			C132.3,376.4,131.9,377.3,131.9,378.4z M130.9,390.3c0,0.9,0.2,1.8,0.6,2.6c0.4,0.8,1.1,1.5,1.9,2c0.8,0.5,1.8,0.7,2.7,0.7
			c1.5,0,2.8-0.5,3.7-1.5c1-1,1.5-2.2,1.5-3.7c0-1.5-0.5-2.8-1.5-3.8c-1-1-2.3-1.5-3.8-1.5c-1.5,0-2.7,0.5-3.7,1.5
			C131.4,387.6,130.9,388.8,130.9,390.3z M147.7,391l3.3-0.3c0.2,1.6,0.8,2.8,1.7,3.7c0.9,0.8,2,1.2,3.2,1.2c1.5,0,2.8-0.6,3.9-1.7
			c1.1-1.2,1.6-2.7,1.6-4.6c0-1.8-0.5-3.2-1.5-4.3c-1-1.1-2.3-1.6-4-1.6c-1,0-1.9,0.2-2.8,0.7c-0.8,0.5-1.5,1.1-1.9,1.8l-3-0.4
			l2.5-13.2h12.8v3h-10.3l-1.4,6.9c1.5-1.1,3.2-1.6,4.9-1.6c2.2,0,4.1,0.8,5.7,2.3c1.6,1.6,2.3,3.6,2.3,6c0,2.3-0.7,4.3-2,6
			c-1.7,2.1-3.9,3.1-6.8,3.1c-2.3,0-4.3-0.7-5.8-2C148.8,394.9,147.9,393.2,147.7,391z M167.7,385c0-3.1,0.3-5.5,0.9-7.4
			c0.6-1.9,1.6-3.3,2.8-4.3c1.2-1,2.8-1.5,4.7-1.5c1.4,0,2.6,0.3,3.6,0.8c1,0.6,1.9,1.4,2.6,2.4c0.7,1,1.2,2.3,1.6,3.8
			c0.4,1.5,0.6,3.5,0.6,6.1c0,3-0.3,5.5-0.9,7.3c-0.6,1.9-1.5,3.3-2.8,4.3c-1.2,1-2.8,1.5-4.7,1.5c-2.5,0-4.4-0.9-5.8-2.7
			C168.6,393.4,167.7,389.9,167.7,385z M171,385c0,4.2,0.5,7,1.5,8.5c1,1.4,2.2,2.1,3.7,2.1c1.5,0,2.7-0.7,3.7-2.1
			c1-1.4,1.5-4.2,1.5-8.4c0-4.2-0.5-7.1-1.5-8.5c-1-1.4-2.2-2.1-3.7-2.1c-1.4,0-2.6,0.6-3.5,1.8C171.5,377.9,171,380.8,171,385z"/>
		<path class="st1" d="M331.8,354.2h296.5v87.4H331.8V354.2z"/>
		<path d="M456.3,383.8c-1.3-0.5-2.3-1.2-2.9-2.1c-0.6-0.9-0.9-2-0.9-3.2c0-1.9,0.7-3.4,2-4.7c1.4-1.3,3.1-1.9,5.4-1.9
			c2.2,0,4.1,0.7,5.4,2c1.4,1.3,2.1,2.9,2.1,4.8c0,1.2-0.3,2.2-1,3.1c-0.6,0.9-1.6,1.6-2.8,2c1.6,0.5,2.8,1.3,3.6,2.5
			c0.8,1.1,1.2,2.5,1.2,4.1c0,2.2-0.8,4-2.3,5.5c-1.6,1.5-3.6,2.3-6.1,2.2c-2.5,0-4.6-0.7-6.2-2.2c-1.6-1.5-2.3-3.4-2.3-5.6
			c0-1.7,0.4-3.1,1.3-4.2C453.6,385,454.8,384.2,456.3,383.8z M455.7,378.4c0,1.2,0.4,2.2,1.2,3c0.8,0.8,1.8,1.2,3.1,1.2
			c1.2,0,2.2-0.4,3-1.1c0.8-0.8,1.2-1.7,1.2-2.8c0-1.2-0.4-2.1-1.2-2.9c-0.8-0.8-1.8-1.2-3-1.2c-1.2,0-2.2,0.4-3,1.2
			C456.1,376.4,455.7,377.3,455.7,378.4z M454.7,390.3c0,0.9,0.2,1.8,0.6,2.6c0.4,0.8,1.1,1.5,1.9,2c0.8,0.5,1.8,0.7,2.7,0.7
			c1.5,0,2.8-0.5,3.7-1.5c1-1,1.5-2.2,1.5-3.7c0-1.5-0.5-2.8-1.5-3.8c-1-1-2.3-1.5-3.8-1.5c-1.5,0-2.7,0.5-3.7,1.5
			C455.2,387.6,454.7,388.8,454.7,390.3z M471.5,391l3.3-0.3c0.2,1.6,0.8,2.8,1.7,3.7c0.9,0.8,2,1.2,3.2,1.2c1.5,0,2.8-0.6,3.9-1.7
			c1.1-1.2,1.6-2.7,1.6-4.6c0-1.8-0.5-3.2-1.5-4.3c-1-1.1-2.3-1.6-4-1.6c-1,0-1.9,0.2-2.8,0.7c-0.8,0.5-1.5,1.1-1.9,1.8l-3-0.4
			l2.5-13.2h12.8v3h-10.3l-1.4,6.9c1.5-1.1,3.2-1.6,4.9-1.6c2.2,0,4.1,0.8,5.7,2.3c1.6,1.6,2.3,3.6,2.3,6c0,2.3-0.7,4.3-2,6
			c-1.7,2.1-3.9,3.1-6.8,3.1c-2.3,0-4.3-0.7-5.8-2C472.5,394.9,471.7,393.2,471.5,391z M503.4,397.7h-3.2v-20.2
			c-0.8,0.7-1.8,1.4-3,2.2c-1.2,0.7-2.3,1.3-3.3,1.6v-3.1c1.8-0.8,3.3-1.8,4.6-3c1.3-1.2,2.3-2.3,2.8-3.5h2V397.7z"/>
		<path class="st1" d="M650.3,354.2h296.5v87.4H650.3V354.2z"/>
		<path d="M774.9,383.8c-1.3-0.5-2.3-1.2-2.9-2.1c-0.6-0.9-0.9-2-0.9-3.2c0-1.9,0.7-3.4,2-4.7c1.4-1.3,3.1-1.9,5.4-1.9
			c2.2,0,4.1,0.7,5.4,2c1.4,1.3,2.1,2.9,2.1,4.8c0,1.2-0.3,2.2-1,3.1c-0.6,0.9-1.6,1.6-2.8,2c1.6,0.5,2.8,1.3,3.6,2.5
			c0.8,1.1,1.2,2.5,1.2,4.1c0,2.2-0.8,4-2.3,5.5c-1.6,1.5-3.6,2.3-6.1,2.2c-2.5,0-4.6-0.7-6.2-2.2c-1.6-1.5-2.3-3.4-2.3-5.6
			c0-1.7,0.4-3.1,1.3-4.2C772.1,385,773.3,384.2,774.9,383.8z M774.3,378.4c0,1.2,0.4,2.2,1.2,3c0.8,0.8,1.8,1.2,3.1,1.2
			c1.2,0,2.2-0.4,3-1.1c0.8-0.8,1.2-1.7,1.2-2.8c0-1.2-0.4-2.1-1.2-2.9c-0.8-0.8-1.8-1.2-3-1.2c-1.2,0-2.2,0.4-3,1.2
			C774.7,376.4,774.3,377.3,774.3,378.4z M773.2,390.3c0,0.9,0.2,1.8,0.6,2.6c0.4,0.8,1.1,1.5,1.9,2c0.8,0.5,1.8,0.7,2.7,0.7
			c1.5,0,2.8-0.5,3.7-1.5c1-1,1.5-2.2,1.5-3.7c0-1.5-0.5-2.8-1.5-3.8c-1-1-2.3-1.5-3.8-1.5c-1.5,0-2.7,0.5-3.7,1.5
			C773.7,387.6,773.2,388.8,773.2,390.3z M790,391l3.3-0.3c0.2,1.6,0.8,2.8,1.7,3.7c0.9,0.8,2,1.2,3.2,1.2c1.5,0,2.8-0.6,3.9-1.7
			c1.1-1.2,1.6-2.7,1.6-4.6c0-1.8-0.5-3.2-1.5-4.3c-1-1.1-2.3-1.6-4-1.6c-1,0-1.9,0.2-2.8,0.7c-0.8,0.5-1.5,1.1-1.9,1.8l-3-0.4
			l2.5-13.2h12.8v3h-10.3l-1.4,6.9c1.5-1.1,3.2-1.6,4.9-1.6c2.2,0,4.1,0.8,5.7,2.3c1.6,1.6,2.3,3.6,2.3,6c0,2.3-0.7,4.3-2,6
			c-1.7,2.1-3.9,3.1-6.8,3.1c-2.3,0-4.3-0.7-5.8-2C791.1,394.9,790.3,393.2,790,391z M826.7,394.7v3h-17c0-0.8,0.1-1.5,0.4-2.2
			c0.4-1.2,1.1-2.3,2.1-3.4c1-1.1,2.3-2.4,4.2-3.9c2.8-2.3,4.7-4.1,5.7-5.5c1-1.3,1.5-2.6,1.5-3.8c0-1.2-0.5-2.3-1.4-3.2
			c-0.9-0.9-2.1-1.3-3.5-1.3c-1.5,0-2.7,0.5-3.7,1.4c-0.9,0.9-1.4,2.2-1.4,3.8l-3.2-0.3c0.2-2.4,1.1-4.3,2.5-5.5
			c1.5-1.3,3.4-1.9,5.9-1.9c2.5,0,4.4,0.7,5.9,2.1c1.4,1.4,2.2,3.1,2.2,5.1c0,1-0.2,2-0.6,3c-0.4,1-1.1,2-2.1,3.1
			c-1,1.1-2.6,2.6-4.9,4.5c-1.9,1.6-3.1,2.7-3.7,3.2c-0.5,0.6-1,1.1-1.3,1.7H826.7z"/>
		<path class="st1" d="M148.3,192.6h318.8"/>
		<path class="st4" d="M148.3,192.6h318.8"/>
		<path class="st1" d="M467.1,193.9v96.9"/>
		<path class="st4" d="M467.1,193.9v78.9"/>
		<path class="st5" d="M462.2,272.8l5,13.6l5-13.6H462.2z"/>
		<path class="st1" d="M786.4,193.9v96.9"/>
		<path class="st4" d="M786.4,193.9v78.9"/>
		<path class="st5" d="M781.4,272.8l5,13.6l5-13.6H781.4z"/>
		<path class="st1" d="M467.1,192.6h372.2"/>
		<path class="st4" d="M467.1,192.6h354.2"/>
		<path class="st5" d="M821.3,197.5l13.6-5l-13.6-5V197.5z"/>
		<path class="st1" d="M857.5,123.3H933V163h-75.5V123.3z"/>
		<path d="M872.4,195.1v-6.5h6.5v6.5H872.4z M890.6,195.1v-6.5h6.5v6.5H890.6z M908.7,195.1v-6.5h6.5v6.5H908.7z"/>
		<path class="st1" d="M135.3,292.8h22.1v39.7h-22.1V292.8z"/>
		<path class="st6" d="M135.3,292.8h22.1v39.7h-22.1V292.8z"/>
		<path class="st1" d="M455.3,292.8h22.1v39.7h-22.1V292.8z"/>
		<path class="st6" d="M455.3,292.8h22.1v39.7h-22.1V292.8z"/>
		<path class="st1" d="M775.3,292.1h22.1v39.7h-22.1V292.1z"/>
		<path class="st6" d="M775.3,292.1h22.1v39.7h-22.1V292.1z"/>
	</g>
</g>
</svg>
