<svg version="1.1" viewBox="0.0 0.0 960.0 540.0" fill="none" stroke="none" stroke-linecap="square" stroke-miterlimit="10" xmlns:xlink="http://www.w3.org/1999/xlink" xmlns="http://www.w3.org/2000/svg"><clipPath id="ga70579723f_0_144.0"><path d="m0 0l960.0 0l0 540.0l-960.0 0l0 -540.0z" clip-rule="nonzero"/></clipPath><g clip-path="url(#ga70579723f_0_144.0)"><path fill="#ffffff" d="m0 0l960.0 0l0 540.0l-960.0 0z" fill-rule="evenodd"/><path fill="#000000" fill-opacity="0.0" d="m20.091803 37.85302l92.37795 0l0 48.566925l-92.37795 0z" fill-rule="evenodd"/><path fill="#000000" d="m35.32618 72.45302l0 -15.859375l-5.656252 0l0 -3.21875l15.156252 0l0 3.21875l-5.640625 0l0 15.859375l-3.859375 0zm11.472809 -15.703125l0 -3.375l3.671875 0l0 3.375l-3.671875 0zm0 15.703125l0 -13.828125l3.671875 0l0 13.828125l-3.671875 0zm7.140335 -13.828125l3.375 0l0 1.890625q1.796875 -2.203125 4.296875 -2.203125q1.328125 0 2.296875 0.546875q0.984375 0.546875 1.609375 1.65625q0.921875 -1.109375 1.96875 -1.65625q1.0625 -0.546875 2.25 -0.546875q1.53125 0 2.578125 0.625q1.0625 0.609375 1.578125 1.8125q0.375 0.890625 0.375 2.859375l0 8.84375l-3.65625 0l0 -7.90625q0 -2.046875 -0.375 -2.65625q-0.515625 -0.78125 -1.5625 -0.78125q-0.765625 0 -1.453125 0.46875q-0.671875 0.46875 -0.96875 1.375q-0.296875 0.90625 -0.296875 2.859375l0 6.640625l-3.65625 0l0 -7.578125q0 -2.015625 -0.203125 -2.59375q-0.1875 -0.59375 -0.609375 -0.875q-0.40625 -0.296875 -1.109375 -0.296875q-0.84375 0 -1.515625 0.46875q-0.671875 0.453125 -0.96875 1.3125q-0.296875 0.859375 -0.296875 2.84375l0 6.71875l-3.65625 0l0 -13.828125zm31.982925 9.421875l3.640625 0.625q-0.703125 2.0 -2.21875 3.046875q-1.515625 1.046875 -3.796875 1.046875q-3.609375 0 -5.328125 -2.359375q-1.375 -1.890625 -1.375 -4.765625q0 -3.4375 1.796875 -5.375q1.796875 -1.953125 4.546875 -1.953125q3.078125 0 4.859375 2.046875q1.78125 2.03125 1.703125 6.234375l-9.15625 0q0.046875 1.625 0.890625 2.53125q0.84375 0.90625 2.109375 0.90625q0.859375 0 1.4375 -0.46875q0.59375 -0.46875 0.890625 -1.515625zm0.203125 -3.6875q-0.03125 -1.59375 -0.8125 -2.421875q-0.78125 -0.828125 -1.90625 -0.828125q-1.203125 0 -1.984375 0.875q-0.78125 0.875 -0.765625 2.375l5.46875 0zm7.309311 -2.078125l0 -3.65625l3.671875 0l0 3.65625l-3.671875 0zm0 10.171875l0 -3.65625l3.671875 0l0 3.65625l-3.671875 0z" fill-rule="nonzero"/><path fill="#f6b26b" d="m930.1683 127.066376l0 375.71048l-162.46173 0l0 -375.71048z" fill-rule="evenodd"/><path stroke="#000000" stroke-width="1.0" stroke-linejoin="round" stroke-linecap="butt" d="m930.1683 127.066376l0 375.71048l-162.46173 0l0 -375.71048z" fill-rule="evenodd"/><path fill="#f6b26b" d="m767.67017 127.066376l0 375.71048l-162.46173 0l0 -375.71048z" fill-rule="evenodd"/><path stroke="#000000" stroke-width="1.0" stroke-linejoin="round" stroke-linecap="butt" d="m767.67017 127.066376l0 375.71048l-162.46173 0l0 -375.71048z" fill-rule="evenodd"/><path fill="#f6b26b" d="m605.17206 127.066376l0 375.71048l-162.46173 0l0 -375.71048z" fill-rule="evenodd"/><path stroke="#000000" stroke-width="1.0" stroke-linejoin="round" stroke-linecap="butt" d="m605.17206 127.066376l0 375.71048l-162.46173 0l0 -375.71048z" fill-rule="evenodd"/><path fill="#f6b26b" d="m442.67392 127.066376l0 375.71048l-162.46173 0l0 -375.71048z" fill-rule="evenodd"/><path stroke="#000000" stroke-width="1.0" stroke-linejoin="round" stroke-linecap="butt" d="m442.67392 127.066376l0 375.71048l-162.46173 0l0 -375.71048z" fill-rule="evenodd"/><path fill="#f6b26b" d="m280.1758 127.066376l0 375.71048l-162.46173 0l0 -375.71048z" fill-rule="evenodd"/><path stroke="#000000" stroke-width="1.0" stroke-linejoin="round" stroke-linecap="butt" d="m280.1758 127.066376l0 375.71048l-162.46173 0l0 -375.71048z" fill-rule="evenodd"/><path fill="#000000" fill-opacity="0.0" d="m280.49567 38.10305l160.98282 0l0 46.946533l-160.98282 0z" fill-rule="evenodd"/><path fill="#000000" d="m345.21558 60.83055q-1.3125 -0.484375 -1.953125 -1.375q-0.625 -0.890625 -0.625 -2.140625q0 -1.875 1.34375 -3.140625q1.34375 -1.28125 3.578125 -1.28125q2.25 0 3.625 1.3125q1.375 1.296875 1.375 3.171875q0 1.203125 -0.625 2.09375q-0.625 0.875 -1.90625 1.359375q1.578125 0.515625 2.40625 1.671875q0.828125 1.140625 0.828125 2.734375q0 2.203125 -1.5625 3.703125q-1.5625 1.5 -4.09375 1.5q-2.546875 0 -4.109375 -1.5q-1.5625 -1.515625 -1.5625 -3.765625q0 -1.671875 0.84375 -2.796875q0.859375 -1.140625 2.4375 -1.546875zm-0.421875 -3.578125q0 1.21875 0.78125 2.0q0.78125 0.765625 2.03125 0.765625q1.21875 0 2.0 -0.765625q0.78125 -0.765625 0.78125 -1.890625q0 -1.15625 -0.8125 -1.9375q-0.796875 -0.796875 -1.984375 -0.796875q-1.203125 0 -2.0 0.78125q-0.796875 0.765625 -0.796875 1.84375zm-0.6875 7.9375q0 0.890625 0.421875 1.734375q0.4375 0.84375 1.28125 1.3125q0.84375 0.46875 1.8125 0.46875q1.515625 0 2.5 -0.96875q0.984375 -0.984375 0.984375 -2.484375q0 -1.515625 -1.015625 -2.515625q-1.015625 -1.0 -2.53125 -1.0q-1.5 0 -2.484375 0.984375q-0.96875 0.984375 -0.96875 2.46875zm11.207031 0.453125l2.21875 -0.1875q0.234375 1.609375 1.125 2.4375q0.90625 0.8125 2.171875 0.8125q1.53125 0 2.578125 -1.140625q1.0625 -1.15625 1.0625 -3.0625q0 -1.796875 -1.015625 -2.84375q-1.015625 -1.046875 -2.65625 -1.046875q-1.015625 0 -1.84375 0.46875q-0.8125 0.453125 -1.28125 1.203125l-1.984375 -0.265625l1.65625 -8.828125l8.546875 0l0 2.015625l-6.859375 0l-0.921875 4.625q1.546875 -1.078125 3.25 -1.078125q2.25 0 3.796875 1.5625q1.546875 1.546875 1.546875 4.0q0 2.328125 -1.359375 4.03125q-1.65625 2.09375 -4.515625 2.09375q-2.34375 0 -3.828125 -1.3125q-1.484375 -1.3125 -1.6875 -3.484375zm13.363281 -0.03125l2.109375 -0.28125q0.359375 1.78125 1.234375 2.578125q0.875 0.796875 2.125 0.796875q1.484375 0 2.5 -1.03125q1.03125 -1.03125 1.03125 -2.5625q0 -1.453125 -0.953125 -2.390625q-0.9375 -0.953125 -2.40625 -0.953125q-0.59375 0 -1.484375 0.234375l0.234375 -1.84375q0.203125 0.015625 0.34375 0.015625q1.34375 0 2.421875 -0.703125q1.078125 -0.703125 1.078125 -2.15625q0 -1.171875 -0.796875 -1.921875q-0.78125 -0.765625 -2.015625 -0.765625q-1.234375 0 -2.0625 0.78125q-0.8125 0.765625 -1.046875 2.3125l-2.109375 -0.375q0.390625 -2.125 1.75 -3.28125q1.375 -1.171875 3.421875 -1.171875q1.40625 0 2.578125 0.609375q1.1875 0.59375 1.8125 1.640625q0.640625 1.046875 0.640625 2.21875q0 1.109375 -0.609375 2.03125q-0.59375 0.90625 -1.765625 1.4375q1.53125 0.359375 2.375 1.46875q0.84375 1.109375 0.84375 2.765625q0 2.25 -1.640625 3.828125q-1.640625 1.5625 -4.15625 1.5625q-2.265625 0 -3.765625 -1.34375q-1.484375 -1.359375 -1.6875 -3.5z" fill-rule="nonzero"/><path fill="#000000" fill-opacity="0.0" d="m119.512825 38.10305l160.98285 0l0 46.946533l-160.98285 0z" fill-rule="evenodd"/><path fill="#000000" d="m182.24643 70.14305l-2.109375 0l0 -13.4375q-0.75 0.71875 -2.0 1.453125q-1.234375 0.71875 -2.21875 1.078125l0 -2.03125q1.78125 -0.828125 3.09375 -2.015625q1.328125 -1.1875 1.875 -2.296875l1.359375 0l0 17.25zm5.5507812 -14.9375l0 -2.015625l11.125 0l0 1.640625q-1.640625 1.734375 -3.265625 4.640625q-1.609375 2.890625 -2.484375 5.953125q-0.625 2.15625 -0.8125 4.71875l-2.15625 0q0.03125 -2.03125 0.78125 -4.890625q0.765625 -2.875 2.1875 -5.546875q1.4375 -2.671875 3.03125 -4.5l-8.40625 0zm13.347656 0l0 -2.015625l11.125 0l0 1.640625q-1.640625 1.734375 -3.265625 4.640625q-1.609375 2.890625 -2.484375 5.953125q-0.625 2.15625 -0.8125 4.71875l-2.15625 0q0.03125 -2.03125 0.78125 -4.890625q0.765625 -2.875 2.1875 -5.546875q1.4375 -2.671875 3.03125 -4.5l-8.40625 0zm13.222656 10.40625l2.109375 -0.28125q0.359375 1.78125 1.234375 2.578125q0.875 0.796875 2.125 0.796875q1.484375 0 2.5 -1.03125q1.03125 -1.03125 1.03125 -2.5625q0 -1.453125 -0.953125 -2.390625q-0.9375 -0.953125 -2.40625 -0.953125q-0.59375 0 -1.484375 0.234375l0.234375 -1.84375q0.203125 0.015625 0.34375 0.015625q1.34375 0 2.421875 -0.703125q1.078125 -0.703125 1.078125 -2.15625q0 -1.171875 -0.796875 -1.921875q-0.78125 -0.765625 -2.015625 -0.765625q-1.234375 0 -2.0625 0.78125q-0.8125 0.765625 -1.046875 2.3125l-2.109375 -0.375q0.390625 -2.125 1.75 -3.28125q1.375 -1.171875 3.421875 -1.171875q1.40625 0 2.578125 0.609375q1.1875 0.59375 1.8125 1.640625q0.640625 1.046875 0.640625 2.21875q0 1.109375 -0.609375 2.03125q-0.59375 0.90625 -1.765625 1.4375q1.53125 0.359375 2.375 1.46875q0.84375 1.109375 0.84375 2.765625q0 2.25 -1.640625 3.828125q-1.640625 1.5625 -4.15625 1.5625q-2.265625 0 -3.765625 -1.34375q-1.484375 -1.359375 -1.6875 -3.5z" fill-rule="nonzero"/><path fill="#000000" fill-opacity="0.0" d="m766.9276 38.10305l160.98285 0l0 46.946533l-160.98285 0z" fill-rule="evenodd"/><path fill="#000000" d="m828.7101 66.1743l2.03125 -0.1875q0.25 1.421875 0.96875 2.078125q0.734375 0.640625 1.875 0.640625q0.96875 0 1.703125 -0.4375q0.734375 -0.453125 1.203125 -1.203125q0.46875 -0.75 0.78125 -2.015625q0.328125 -1.265625 0.328125 -2.578125q0 -0.140625 -0.015625 -0.421875q-0.640625 1.015625 -1.734375 1.640625q-1.09375 0.625 -2.375 0.625q-2.125 0 -3.609375 -1.546875q-1.46875 -1.546875 -1.46875 -4.078125q0 -2.609375 1.53125 -4.203125q1.546875 -1.59375 3.875 -1.59375q1.671875 0 3.0625 0.90625q1.390625 0.890625 2.109375 2.5625q0.71875 1.671875 0.71875 4.84375q0 3.28125 -0.71875 5.234375q-0.71875 1.953125 -2.125 2.984375q-1.40625 1.015625 -3.3125 1.015625q-2.015625 0 -3.296875 -1.125q-1.265625 -1.125 -1.53125 -3.140625zm8.640625 -7.59375q0 -1.8125 -0.96875 -2.875q-0.96875 -1.0625 -2.328125 -1.0625q-1.40625 0 -2.453125 1.15625q-1.03125 1.140625 -1.03125 2.96875q0 1.640625 0.984375 2.671875q0.984375 1.015625 2.4375 1.015625q1.46875 0 2.40625 -1.015625q0.953125 -1.03125 0.953125 -2.859375zm4.3945312 3.09375q0 -3.046875 0.625 -4.90625q0.625 -1.859375 1.859375 -2.859375q1.234375 -1.015625 3.109375 -1.015625q1.390625 0 2.421875 0.5625q1.046875 0.546875 1.71875 1.59375q0.6875 1.046875 1.078125 2.5625q0.390625 1.5 0.390625 4.0625q0 3.015625 -0.625 4.875q-0.625 1.859375 -1.859375 2.875q-1.234375 1.015625 -3.125 1.015625q-2.484375 0 -3.890625 -1.78125q-1.703125 -2.15625 -1.703125 -6.984375zm2.171875 0q0 4.21875 0.984375 5.625q0.984375 1.40625 2.4375 1.40625q1.453125 0 2.4375 -1.40625q1.0 -1.40625 1.0 -5.625q0 -4.25 -1.0 -5.640625q-0.984375 -1.390625 -2.453125 -1.390625q-1.453125 0 -2.328125 1.21875q-1.078125 1.578125 -1.078125 5.8125zm22.113281 -4.5l-2.09375 0.15625q-0.28125 -1.234375 -0.796875 -1.796875q-0.859375 -0.90625 -2.109375 -0.90625q-1.0 0 -1.765625 0.5625q-1.0 0.71875 -1.578125 2.125q-0.5625 1.390625 -0.59375 3.96875q0.765625 -1.15625 1.859375 -1.71875q1.109375 -0.5625 2.3125 -0.5625q2.109375 0 3.59375 1.546875q1.484375 1.546875 1.484375 4.015625q0 1.609375 -0.703125 3.0q-0.6875 1.390625 -1.90625 2.140625q-1.21875 0.734375 -2.765625 0.734375q-2.640625 0 -4.3125 -1.9375q-1.65625 -1.953125 -1.65625 -6.40625q0 -4.96875 1.84375 -7.234375q1.59375 -1.96875 4.3125 -1.96875q2.03125 0 3.328125 1.140625q1.296875 1.125 1.546875 3.140625zm-8.609375 7.40625q0 1.078125 0.453125 2.078125q0.46875 1.0 1.296875 1.53125q0.84375 0.515625 1.75 0.515625q1.34375 0 2.296875 -1.078125q0.96875 -1.078125 0.96875 -2.9375q0 -1.78125 -0.953125 -2.796875q-0.953125 -1.03125 -2.390625 -1.03125q-1.421875 0 -2.421875 1.03125q-1.0 1.015625 -1.0 2.6875z" fill-rule="nonzero"/><path fill="#000000" fill-opacity="0.0" d="m444.96024 38.10305l160.98282 0l0 46.946533l-160.98282 0z" fill-rule="evenodd"/><path fill="#000000" d="m507.69382 70.14305l-2.109375 0l0 -13.4375q-0.75 0.71875 -2.0 1.453125q-1.234375 0.71875 -2.21875 1.078125l0 -2.03125q1.78125 -0.828125 3.09375 -2.015625q1.328125 -1.1875 1.875 -2.296875l1.359375 0l0 17.25zm5.722687 -3.96875l2.03125 -0.1875q0.25 1.421875 0.96875 2.078125q0.734375 0.640625 1.875 0.640625q0.96875 0 1.703125 -0.4375q0.734375 -0.453125 1.203125 -1.203125q0.46875 -0.75 0.78125 -2.015625q0.328125 -1.265625 0.328125 -2.578125q0 -0.140625 -0.015625 -0.421875q-0.640625 1.015625 -1.734375 1.640625q-1.09375 0.625 -2.375 0.625q-2.125 0 -3.609375 -1.546875q-1.46875 -1.546875 -1.46875 -4.078125q0 -2.609375 1.53125 -4.203125q1.546875 -1.59375 3.875 -1.59375q1.671875 0 3.0625 0.90625q1.390625 0.890625 2.109375 2.5625q0.71875 1.671875 0.71875 4.84375q0 3.28125 -0.71875 5.234375q-0.71875 1.953125 -2.125 2.984375q-1.40625 1.015625 -3.3125 1.015625q-2.015625 0 -3.296875 -1.125q-1.265625 -1.125 -1.53125 -3.140625zm8.640625 -7.59375q0 -1.8125 -0.96875 -2.875q-0.96875 -1.0625 -2.328125 -1.0625q-1.40625 0 -2.453125 1.15625q-1.03125 1.140625 -1.03125 2.96875q0 1.640625 0.984375 2.671875q0.984375 1.015625 2.4375 1.015625q1.46875 0 2.40625 -1.015625q0.953125 -1.03125 0.953125 -2.859375zm4.7070312 7.59375l2.03125 -0.1875q0.25 1.421875 0.96875 2.078125q0.734375 0.640625 1.875 0.640625q0.96875 0 1.703125 -0.4375q0.734375 -0.453125 1.203125 -1.203125q0.46875 -0.75 0.78125 -2.015625q0.328125 -1.265625 0.328125 -2.578125q0 -0.140625 -0.015625 -0.421875q-0.640625 1.015625 -1.734375 1.640625q-1.09375 0.625 -2.375 0.625q-2.125 0 -3.609375 -1.546875q-1.46875 -1.546875 -1.46875 -4.078125q0 -2.609375 1.53125 -4.203125q1.546875 -1.59375 3.875 -1.59375q1.671875 0 3.0625 0.90625q1.390625 0.890625 2.109375 2.5625q0.71875 1.671875 0.71875 4.84375q0 3.28125 -0.71875 5.234375q-0.71875 1.953125 -2.125 2.984375q-1.40625 1.015625 -3.3125 1.015625q-2.015625 0 -3.296875 -1.125q-1.265625 -1.125 -1.53125 -3.140625zm8.640625 -7.59375q0 -1.8125 -0.96875 -2.875q-0.96875 -1.0625 -2.328125 -1.0625q-1.40625 0 -2.453125 1.15625q-1.03125 1.140625 -1.03125 2.96875q0 1.640625 0.984375 2.671875q0.984375 1.015625 2.4375 1.015625q1.46875 0 2.40625 -1.015625q0.953125 -1.03125 0.953125 -2.859375zm4.4101562 7.03125l2.109375 -0.28125q0.359375 1.78125 1.234375 2.578125q0.875 0.796875 2.125 0.796875q1.484375 0 2.5 -1.03125q1.03125 -1.03125 1.03125 -2.5625q0 -1.453125 -0.953125 -2.390625q-0.9375 -0.953125 -2.40625 -0.953125q-0.59375 0 -1.484375 0.234375l0.234375 -1.84375q0.203125 0.015625 0.34375 0.015625q1.34375 0 2.421875 -0.703125q1.078125 -0.703125 1.078125 -2.15625q0 -1.171875 -0.796875 -1.921875q-0.78125 -0.765625 -2.015625 -0.765625q-1.234375 0 -2.0625 0.78125q-0.8125 0.765625 -1.046875 2.3125l-2.109375 -0.375q0.390625 -2.125 1.75 -3.28125q1.375 -1.171875 3.421875 -1.171875q1.40625 0 2.578125 0.609375q1.1875 0.59375 1.8125 1.640625q0.640625 1.046875 0.640625 2.21875q0 1.109375 -0.609375 2.03125q-0.59375 0.90625 -1.765625 1.4375q1.53125 0.359375 2.375 1.46875q0.84375 1.109375 0.84375 2.765625q0 2.25 -1.640625 3.828125q-1.640625 1.5625 -4.15625 1.5625q-2.265625 0 -3.765625 -1.34375q-1.484375 -1.359375 -1.6875 -3.5z" fill-rule="nonzero"/><path fill="#000000" fill-opacity="0.0" d="m605.94745 38.10305l160.98279 0l0 46.946533l-160.98279 0z" fill-rule="evenodd"/><path fill="#000000" d="m668.681 70.14305l-2.109375 0l0 -13.4375q-0.75 0.71875 -2.0 1.453125q-1.234375 0.71875 -2.21875 1.078125l0 -2.03125q1.78125 -0.828125 3.09375 -2.015625q1.328125 -1.1875 1.875 -2.296875l1.359375 0l0 17.25zm5.4101562 -4.5l2.21875 -0.1875q0.234375 1.609375 1.125 2.4375q0.90625 0.8125 2.171875 0.8125q1.53125 0 2.578125 -1.140625q1.0625 -1.15625 1.0625 -3.0625q0 -1.796875 -1.015625 -2.84375q-1.015625 -1.046875 -2.65625 -1.046875q-1.015625 0 -1.84375 0.46875q-0.8125 0.453125 -1.28125 1.203125l-1.984375 -0.265625l1.65625 -8.828125l8.546875 0l0 2.015625l-6.859375 0l-0.921875 4.625q1.546875 -1.078125 3.25 -1.078125q2.25 0 3.796875 1.5625q1.546875 1.546875 1.546875 4.0q0 2.328125 -1.359375 4.03125q-1.65625 2.09375 -4.515625 2.09375q-2.34375 0 -3.828125 -1.3125q-1.484375 -1.3125 -1.6875 -3.484375zm13.347656 0l2.21875 -0.1875q0.234375 1.609375 1.125 2.4375q0.90625 0.8125 2.171875 0.8125q1.53125 0 2.578125 -1.140625q1.0625 -1.15625 1.0625 -3.0625q0 -1.796875 -1.015625 -2.84375q-1.015625 -1.046875 -2.65625 -1.046875q-1.015625 0 -1.84375 0.46875q-0.8125 0.453125 -1.28125 1.203125l-1.984375 -0.265625l1.65625 -8.828125l8.546875 0l0 2.015625l-6.859375 0l-0.921875 4.625q1.546875 -1.078125 3.25 -1.078125q2.25 0 3.796875 1.5625q1.546875 1.546875 1.546875 4.0q0 2.328125 -1.359375 4.03125q-1.65625 2.09375 -4.515625 2.09375q-2.34375 0 -3.828125 -1.3125q-1.484375 -1.3125 -1.6875 -3.484375zm13.488281 -10.4375l0 -2.015625l11.125 0l0 1.640625q-1.640625 1.734375 -3.265625 4.640625q-1.609375 2.890625 -2.484375 5.953125q-0.625 2.15625 -0.8125 4.71875l-2.15625 0q0.03125 -2.03125 0.78125 -4.890625q0.765625 -2.875 2.1875 -5.546875q1.4375 -2.671875 3.03125 -4.5l-8.40625 0z" fill-rule="nonzero"/><path fill="#000000" fill-opacity="0.0" d="m119.173225 252.55118l811.874 0" fill-rule="evenodd"/><path stroke="#000000" stroke-width="2.0" stroke-linejoin="round" stroke-linecap="butt" stroke-dasharray="2.0,6.0" d="m119.173225 252.55118l811.874 0" fill-rule="evenodd"/><path fill="#000000" fill-opacity="0.0" d="m119.173225 379.1706l811.874 0" fill-rule="evenodd"/><path stroke="#000000" stroke-width="2.0" stroke-linejoin="round" stroke-linecap="butt" stroke-dasharray="2.0,6.0" d="m119.173225 379.1706l811.874 0" fill-rule="evenodd"/><path fill="#000000" fill-opacity="0.0" d="m20.091803 157.85301l92.37795 0l0 48.56694l-92.37795 0z" fill-rule="evenodd"/><path fill="#000000" d="m29.857428 187.03114l2.281252 -0.3125q0.09375 2.1875 0.8125 3.0q0.734375 0.8125 2.03125 0.8125q0.9375 0 1.625 -0.4375q0.703125 -0.4375 0.953125 -1.1875q0.265625 -0.75 0.265625 -2.390625l0 -13.140625l2.53125 0l0 13.0q0 2.390625 -0.59375 3.71875q-0.578125 1.3125 -1.828125 2.0q-1.25 0.6875 -2.953125 0.6875q-2.5 0 -3.843752 -1.4375q-1.328125 -1.453125 -1.28125 -4.3125zm23.375002 5.421875l0 -2.03125q-1.609375 2.34375 -4.375 2.34375q-1.234375 0 -2.296875 -0.46875q-1.0625 -0.46875 -1.578125 -1.171875q-0.5 -0.71875 -0.71875 -1.75q-0.140625 -0.6875 -0.140625 -2.1875l0 -8.5625l2.34375 0l0 7.671875q0 1.828125 0.140625 2.46875q0.21875 0.921875 0.9375 1.453125q0.71875 0.53125 1.765625 0.53125q1.0625 0 1.984375 -0.53125q0.921875 -0.546875 1.296875 -1.46875q0.390625 -0.9375 0.390625 -2.71875l0 -7.40625l2.34375 0l0 13.828125l-2.09375 0zm5.762436 0l0 -13.828125l2.109375 0l0 1.96875q1.53125 -2.28125 4.40625 -2.28125q1.25 0 2.296875 0.453125q1.046875 0.453125 1.5625 1.1875q0.53125 0.71875 0.734375 1.71875q0.125 0.65625 0.125 2.28125l0 8.5l-2.34375 0l0 -8.40625q0 -1.4375 -0.28125 -2.140625q-0.265625 -0.71875 -0.96875 -1.140625q-0.6875 -0.421875 -1.625 -0.421875q-1.484375 0 -2.578125 0.953125q-1.09375 0.953125 -1.09375 3.609375l0 7.546875l-2.34375 0zm24.293686 -4.453125l2.421875 0.296875q-0.578125 2.125 -2.125 3.296875q-1.546875 1.171875 -3.953125 1.171875q-3.03125 0 -4.8125 -1.859375q-1.78125 -1.875 -1.78125 -5.25q0 -3.484375 1.796875 -5.40625q1.796875 -1.9375 4.671875 -1.9375q2.765625 0 4.515625 1.890625q1.765625 1.890625 1.765625 5.3125q0 0.203125 -0.015625 0.625l-10.3125 0q0.140625 2.28125 1.296875 3.5q1.15625 1.203125 2.890625 1.203125q1.28125 0 2.1875 -0.671875q0.921875 -0.6875 1.453125 -2.171875zm-7.6875 -3.78125l7.71875 0q-0.15625 -1.75 -0.890625 -2.625q-1.125 -1.34375 -2.90625 -1.34375q-1.609375 0 -2.71875 1.078125q-1.09375 1.078125 -1.203125 2.890625z" fill-rule="nonzero"/><path fill="#000000" fill-opacity="0.0" d="m20.091803 285.85303l92.37795 0l0 48.566925l-92.37795 0z" fill-rule="evenodd"/><path fill="#000000" d="m29.857428 315.03113l2.281252 -0.3125q0.09375 2.1875 0.8125 3.0q0.734375 0.8125 2.03125 0.8125q0.9375 0 1.625 -0.4375q0.703125 -0.4375 0.953125 -1.1875q0.265625 -0.75 0.265625 -2.390625l0 -13.140625l2.53125 0l0 13.0q0 2.390625 -0.59375 3.71875q-0.578125 1.3125 -1.828125 2.0q-1.25 0.6875 -2.953125 0.6875q-2.5 0 -3.843752 -1.4375q-1.328125 -1.453125 -1.28125 -4.3125zm23.375002 5.421875l0 -2.03125q-1.609375 2.34375 -4.375 2.34375q-1.234375 0 -2.296875 -0.46875q-1.0625 -0.46875 -1.578125 -1.171875q-0.5 -0.71875 -0.71875 -1.75q-0.140625 -0.6875 -0.140625 -2.1875l0 -8.5625l2.34375 0l0 7.671875q0 1.828125 0.140625 2.46875q0.21875 0.921875 0.9375 1.453125q0.71875 0.53125 1.765625 0.53125q1.0625 0 1.984375 -0.53125q0.921875 -0.546875 1.296875 -1.46875q0.390625 -0.9375 0.390625 -2.71875l0 -7.40625l2.34375 0l0 13.828125l-2.09375 0zm5.715561 0l0 -19.078125l2.34375 0l0 19.078125l-2.34375 0zm5.87529 5.328125l-0.265625 -2.203125q0.765625 0.203125 1.34375 0.203125q0.78125 0 1.25 -0.265625q0.46875 -0.25 0.765625 -0.71875q0.21875 -0.359375 0.71875 -1.75q0.0625 -0.1875 0.203125 -0.5625l-5.25 -13.859375l2.53125 0l2.875 8.015625q0.5625 1.515625 1.0 3.203125q0.40625 -1.625 0.96875 -3.15625l2.953125 -8.0625l2.34375 0l-5.265625 14.0625q-0.84375 2.28125 -1.3125 3.140625q-0.625 1.15625 -1.4375 1.6875q-0.796875 0.546875 -1.921875 0.546875q-0.671875 0 -1.5 -0.28125z" fill-rule="nonzero"/><path fill="#000000" fill-opacity="0.0" d="m12.091875 413.85303l110.267715 0l0 48.566925l-110.267715 0z" fill-rule="evenodd"/><path fill="#000000" d="m21.060625 448.453l7.3125 -19.078125l2.734375 0l7.796873 19.078125l-2.875 0l-2.21875 -5.78125l-7.984373 0l-2.09375 5.78125l-2.671875 0zm5.5 -7.828125l6.468748 0l-1.9999981 -5.296875q-0.90625 -2.40625 -1.34375 -3.953125q-0.375 1.84375 -1.03125 3.640625l-2.09375 5.609375zm23.123259 7.828125l0 -2.03125q-1.609375 2.34375 -4.375 2.34375q-1.234375 0 -2.296875 -0.46875q-1.0625 -0.46875 -1.578125 -1.171875q-0.5 -0.71875 -0.71875 -1.75q-0.140625 -0.6875 -0.140625 -2.1875l0 -8.5625l2.34375 0l0 7.671875q0 1.828125 0.140625 2.46875q0.21875 0.921875 0.9375 1.453125q0.71875 0.53125 1.765625 0.53125q1.0625 0 1.984375 -0.53125q0.921875 -0.546875 1.296875 -1.46875q0.390625 -0.9375 0.390625 -2.71875l0 -7.40625l2.34375 0l0 13.828125l-2.09375 0zm5.340561 1.140625l2.28125 0.34375q0.140625 1.046875 0.796875 1.53125q0.859375 0.65625 2.375 0.65625q1.625 0 2.5 -0.65625q0.890625 -0.640625 1.203125 -1.8125q0.1875 -0.71875 0.171875 -3.015625q-1.53125 1.8125 -3.828125 1.8125q-2.84375 0 -4.40625 -2.046875q-1.5625 -2.0625 -1.5625 -4.9375q0 -1.984375 0.71875 -3.65625q0.71875 -1.671875 2.078125 -2.578125q1.359375 -0.921875 3.1875 -0.921875q2.453125 0 4.03125 1.984375l0 -1.671875l2.171875 0l0 11.953125q0 3.234375 -0.65625 4.578125q-0.65625 1.34375 -2.09375 2.125q-1.421875 0.78125 -3.5 0.78125q-2.46875 0 -4.0 -1.109375q-1.515625 -1.109375 -1.46875 -3.359375zm1.9375 -8.296875q0 2.71875 1.078125 3.96875q1.078125 1.25 2.703125 1.25q1.625 0 2.71875 -1.234375q1.09375 -1.25 1.09375 -3.90625q0 -2.546875 -1.125 -3.828125q-1.125 -1.296875 -2.71875 -1.296875q-1.5625 0 -2.65625 1.28125q-1.09375 1.265625 -1.09375 3.765625zm22.37181 7.15625l0 -2.03125q-1.609375 2.34375 -4.375 2.34375q-1.234375 0 -2.296875 -0.46875q-1.0625 -0.46875 -1.578125 -1.171875q-0.5 -0.71875 -0.71875 -1.75q-0.140625 -0.6875 -0.140625 -2.1875l0 -8.5625l2.34375 0l0 7.671875q0 1.828125 0.140625 2.46875q0.21875 0.921875 0.9375 1.453125q0.71875 0.53125 1.765625 0.53125q1.0625 0 1.984375 -0.53125q0.921875 -0.546875 1.296875 -1.46875q0.390625 -0.9375 0.390625 -2.71875l0 -7.40625l2.34375 0l0 13.828125l-2.09375 0zm4.824936 -4.125l2.328125 -0.359375q0.1875 1.390625 1.078125 2.140625q0.890625 0.734375 2.5 0.734375q1.609375 0 2.390625 -0.65625q0.78125 -0.65625 0.78125 -1.546875q0 -0.796875 -0.6875 -1.25q-0.484375 -0.3125 -2.390625 -0.796875q-2.578125 -0.65625 -3.578125 -1.125q-1.0 -0.46875 -1.515625 -1.3125q-0.515625 -0.84375 -0.515625 -1.859375q0 -0.921875 0.421875 -1.703125q0.4375 -0.796875 1.15625 -1.3125q0.546875 -0.40625 1.484375 -0.6875q0.953125 -0.28125 2.03125 -0.28125q1.625 0 2.859375 0.46875q1.234375 0.46875 1.8125 1.28125q0.59375 0.796875 0.8125 2.140625l-2.296875 0.3125q-0.15625 -1.078125 -0.90625 -1.671875q-0.75 -0.59375 -2.109375 -0.59375q-1.609375 0 -2.3125 0.53125q-0.6875 0.53125 -0.6875 1.25q0 0.453125 0.296875 0.8125q0.28125 0.375 0.890625 0.625q0.359375 0.140625 2.078125 0.609375q2.484375 0.65625 3.46875 1.078125q0.984375 0.421875 1.53125 1.234375q0.5625 0.796875 0.5625 2.0q0 1.171875 -0.6875 2.21875q-0.671875 1.03125 -1.96875 1.59375q-1.28125 0.5625 -2.90625 0.5625q-2.703125 0 -4.125 -1.109375q-1.40625 -1.125 -1.796875 -3.328125zm19.390625 2.03125l0.328125 2.0625q-0.984375 0.21875 -1.765625 0.21875q-1.265625 0 -1.96875 -0.40625q-0.703125 -0.40625 -1.0 -1.0625q-0.28125 -0.65625 -0.28125 -2.765625l0 -7.953125l-1.71875 0l0 -1.828125l1.71875 0l0 -3.421875l2.328125 -1.40625l0 4.828125l2.359375 0l0 1.828125l-2.359375 0l0 8.078125q0 1.0 0.125 1.296875q0.125 0.28125 0.40625 0.453125q0.28125 0.171875 0.796875 0.171875q0.390625 0 1.03125 -0.09375z" fill-rule="nonzero"/></g></svg>