<svg version="1.1" viewBox="0.0 0.0 960.0 540.0" fill="none" stroke="none" stroke-linecap="square" stroke-miterlimit="10" xmlns:xlink="http://www.w3.org/1999/xlink" xmlns="http://www.w3.org/2000/svg"><clipPath id="g9717011c8c_0_14.0"><path d="m0 0l960.0 0l0 540.0l-960.0 0l0 -540.0z" clip-rule="nonzero"/></clipPath><g clip-path="url(#g9717011c8c_0_14.0)"><path fill="#ffffff" d="m0 0l960.0 0l0 540.0l-960.0 0z" fill-rule="evenodd"/><path fill="#000000" fill-opacity="0.0" d="m69.543304 137.5853l67.65355 0l0 44.37796l-67.65355 0z" fill-rule="evenodd"/><path fill="#000000" d="m89.77768 192.6653l0 -28.546875l-10.203125 0l0 -5.8125l27.3125 0l0 5.8125l-10.171875 0l0 28.546875l-6.9375 0z" fill-rule="nonzero"/><path fill="#000000" fill-opacity="0.0" d="m69.543304 409.5853l67.65355 0l0 44.37796l-67.65355 0z" fill-rule="evenodd"/><path fill="#000000" d="m82.043304 464.6653l0 -34.359375l11.125 0q6.328125 0 8.25 0.515625q2.953125 0.765625 4.9375 3.359375q2.0 2.59375 2.0 6.6875q0 3.171875 -1.15625 5.328125q-1.140625 2.15625 -2.90625 3.390625q-1.765625 1.21875 -3.59375 1.625q-2.484375 0.484375 -7.203125 0.484375l-4.515625 0l0 12.96875l-6.9375 0zm6.9375 -28.546875l0 9.75l3.796875 0q4.09375 0 5.46875 -0.53125q1.390625 -0.546875 2.171875 -1.6875q0.796875 -1.15625 0.796875 -2.6875q0 -1.875 -1.109375 -3.09375q-1.09375 -1.21875 -2.78125 -1.515625q-1.25 -0.234375 -5.0 -0.234375l-3.34375 0z" fill-rule="nonzero"/><path fill="#000000" fill-opacity="0.0" d="m39.716534 265.62204l117.25984 0l0 44.37796l-117.25984 0z" fill-rule="evenodd"/><path fill="#000000" d="m59.95091 320.70206l0 -28.546875l-10.203125 0l0 -5.8125l27.312504 0l0 5.8125l-10.171875 0l0 28.546875l-6.937504 0z" fill-rule="nonzero"/><path fill="#000000" d="m79.78685 320.70206l0 -13.828125l2.109375 0l0 1.9375q0.640625 -1.015625 1.71875 -1.625q1.09375 -0.625 2.46875 -0.625q1.53125 0 2.515625 0.640625q0.984375 0.640625 1.390625 1.78125q1.640625 -2.421875 4.265625 -2.421875q2.0625 0 3.15625 1.140625q1.109375 1.140625 1.109375 3.515625l0 9.484375l-2.328125 0l0 -8.703125q0 -1.40625 -0.234375 -2.015625q-0.21875 -0.625 -0.828125 -1.0q-0.59375 -0.390625 -1.390625 -0.390625q-1.46875 0 -2.4375 0.96875q-0.953125 0.96875 -0.953125 3.109375l0 8.03125l-2.34375 0l0 -8.984375q0 -1.5625 -0.578125 -2.34375q-0.5625 -0.78125 -1.875 -0.78125q-0.984375 0 -1.828125 0.53125q-0.828125 0.515625 -1.21875 1.515625q-0.375 1.0 -0.375 2.890625l0 7.171875l-2.34375 0zm31.673615 -4.453125l2.421875 0.296875q-0.578125 2.125 -2.125 3.296875q-1.546875 1.171875 -3.953125 1.171875q-3.03125 0 -4.8125 -1.859375q-1.78125 -1.875 -1.78125 -5.25q0 -3.484375 1.796875 -5.40625q1.796875 -1.9375 4.671875 -1.9375q2.765625 0 4.515625 1.890625q1.765625 1.890625 1.765625 5.3125q0 0.203125 -0.015625 0.625l-10.3125 0q0.140625 2.28125 1.296875 3.5q1.15625 1.203125 2.890625 1.203125q1.28125 0 2.1875 -0.671875q0.921875 -0.6875 1.453125 -2.171875zm-7.6875 -3.78125l7.71875 0q-0.15625 -1.75 -0.890625 -2.625q-1.125 -1.34375 -2.90625 -1.34375q-1.609375 0 -2.71875 1.078125q-1.09375 1.078125 -1.203125 2.890625zm22.074936 6.53125q-1.3125 1.109375 -2.515625 1.5625q-1.203125 0.453125 -2.578125 0.453125q-2.28125 0 -3.5 -1.109375q-1.21875 -1.109375 -1.21875 -2.84375q0 -1.015625 0.453125 -1.859375q0.46875 -0.84375 1.21875 -1.34375q0.75 -0.515625 1.6875 -0.765625q0.6875 -0.1875 2.078125 -0.359375q2.828125 -0.328125 4.171875 -0.796875q0.015625 -0.484375 0.015625 -0.625q0 -1.421875 -0.65625 -2.015625q-0.90625 -0.796875 -2.671875 -0.796875q-1.65625 0 -2.453125 0.59375q-0.78125 0.578125 -1.15625 2.046875l-2.296875 -0.3125q0.3125 -1.46875 1.03125 -2.375q0.71875 -0.90625 2.0625 -1.390625q1.359375 -0.5 3.140625 -0.5q1.78125 0 2.875 0.421875q1.109375 0.421875 1.625 1.046875q0.53125 0.625 0.734375 1.59375q0.125 0.59375 0.125 2.15625l0 3.125q0 3.265625 0.140625 4.140625q0.15625 0.859375 0.59375 1.65625l-2.4375 0q-0.375 -0.734375 -0.46875 -1.703125zm-0.203125 -5.234375q-1.265625 0.515625 -3.828125 0.890625q-1.4375 0.203125 -2.046875 0.46875q-0.59375 0.25 -0.921875 0.75q-0.3125 0.5 -0.3125 1.125q0 0.9375 0.703125 1.5625q0.703125 0.625 2.078125 0.625q1.34375 0 2.390625 -0.59375q1.0625 -0.59375 1.5625 -1.625q0.375 -0.796875 0.375 -2.34375l0 -0.859375zm5.996811 6.9375l0 -13.828125l2.109375 0l0 1.96875q1.53125 -2.28125 4.40625 -2.28125q1.25 0 2.296875 0.453125q1.046875 0.453125 1.5625 1.1875q0.53125 0.71875 0.734375 1.71875q0.125 0.65625 0.125 2.28125l0 8.5l-2.34375 0l0 -8.40625q0 -1.4375 -0.28125 -2.140625q-0.265625 -0.71875 -0.96875 -1.140625q-0.6875 -0.421875 -1.625 -0.421875q-1.484375 0 -2.578125 0.953125q-1.09375 0.953125 -1.09375 3.609375l0 7.546875l-2.34375 0z" fill-rule="nonzero"/><path fill="#f6b26b" d="m189.37007 87.1814l28.18898 0l0 201.47751l-28.18898 0z" fill-rule="evenodd"/><path stroke="#595959" stroke-width="1.0" stroke-linejoin="round" stroke-linecap="butt" d="m189.37007 87.1814l28.18898 0l0 201.47751l-28.18898 0z" fill-rule="evenodd"/><path fill="#b45f06" d="m189.37007 289.3404l28.18898 0l0 28.322968l-28.18898 0z" fill-rule="evenodd"/><path stroke="#595959" stroke-width="1.0" stroke-linejoin="round" stroke-linecap="butt" d="m189.37007 289.3404l28.18898 0l0 28.322968l-28.18898 0z" fill-rule="evenodd"/><path fill="#6d9eeb" d="m189.37007 316.3549l28.18898 0l0 201.47751l-28.18898 0z" fill-rule="evenodd"/><path stroke="#595959" stroke-width="1.0" stroke-linejoin="round" stroke-linecap="butt" d="m189.37007 316.3549l28.18898 0l0 201.47751l-28.18898 0z" fill-rule="evenodd"/><path fill="#000000" fill-opacity="0.0" d="m150.0315 11.509187l106.86615 0l0 61.16535l-106.86615 0z" fill-rule="evenodd"/><path fill="#000000" d="m175.89816 43.549187l0 -7.28125l-6.609375 -9.90625l2.765625 0l3.375 5.1875q0.9375 1.453125 1.75 2.90625q0.78125 -1.34375 1.875 -3.03125l3.328125 -5.0625l2.65625 0l-6.859375 9.90625l0 7.28125l-2.28125 0zm17.226562 -4.015625l2.171875 0.28125q-0.515625 1.90625 -1.90625 2.96875q-1.390625 1.046875 -3.5625 1.046875q-2.734375 0 -4.34375 -1.671875q-1.59375 -1.6875 -1.59375 -4.734375q0 -3.140625 1.609375 -4.875q1.625 -1.734375 4.203125 -1.734375q2.5 0 4.078125 1.703125q1.59375 1.703125 1.59375 4.78125q0 0.1875 -0.015625 0.5625l-9.28125 0q0.109375 2.046875 1.15625 3.140625q1.046875 1.09375 2.609375 1.09375q1.15625 0 1.96875 -0.609375q0.828125 -0.609375 1.3125 -1.953125zm-6.9375 -3.40625l6.953125 0q-0.140625 -1.5625 -0.796875 -2.359375q-1.0 -1.21875 -2.609375 -1.21875q-1.453125 0 -2.453125 0.984375q-0.984375 0.96875 -1.09375 2.59375zm19.878906 5.890625q-1.171875 0.984375 -2.265625 1.40625q-1.078125 0.40625 -2.3125 0.40625q-2.046875 0 -3.15625 -1.0q-1.09375 -1.0 -1.09375 -2.5625q0 -0.921875 0.40625 -1.671875q0.421875 -0.75 1.09375 -1.203125q0.671875 -0.46875 1.515625 -0.703125q0.625 -0.15625 1.875 -0.3125q2.5625 -0.3125 3.765625 -0.734375q0.015625 -0.421875 0.015625 -0.546875q0 -1.28125 -0.609375 -1.8125q-0.796875 -0.71875 -2.390625 -0.71875q-1.5 0 -2.203125 0.53125q-0.703125 0.515625 -1.046875 1.84375l-2.0625 -0.28125q0.28125 -1.328125 0.921875 -2.140625q0.640625 -0.8125 1.859375 -1.25q1.21875 -0.453125 2.828125 -0.453125q1.59375 0 2.59375 0.375q1.0 0.375 1.46875 0.953125q0.46875 0.5625 0.65625 1.4375q0.09375 0.53125 0.09375 1.9375l0 2.8125q0 2.9375 0.140625 3.71875q0.140625 0.78125 0.53125 1.5l-2.203125 0q-0.328125 -0.65625 -0.421875 -1.53125zm-0.171875 -4.71875q-1.15625 0.46875 -3.453125 0.796875q-1.296875 0.1875 -1.84375 0.421875q-0.53125 0.234375 -0.828125 0.6875q-0.28125 0.453125 -0.28125 1.0q0 0.84375 0.625 1.40625q0.640625 0.5625 1.875 0.5625q1.21875 0 2.171875 -0.53125q0.953125 -0.53125 1.390625 -1.453125q0.34375 -0.71875 0.34375 -2.109375l0 -0.78125zm5.3789062 6.25l0 -12.453125l1.890625 0l0 1.890625q0.734375 -1.328125 1.34375 -1.75q0.625 -0.421875 1.359375 -0.421875q1.0625 0 2.171875 0.6875l-0.734375 1.953125q-0.765625 -0.453125 -1.546875 -0.453125q-0.6875 0 -1.25 0.421875q-0.546875 0.40625 -0.78125 1.140625q-0.34375 1.125 -0.34375 2.46875l0 6.515625l-2.109375 0zm22.035156 0l-2.109375 0l0 -13.4375q-0.75 0.71875 -2.0 1.453125q-1.234375 0.71875 -2.21875 1.078125l0 -2.03125q1.78125 -0.828125 3.09375 -2.015625q1.328125 -1.1875 1.875 -2.296875l1.359375 0l0 17.25z" fill-rule="nonzero"/><path fill="#000000" d="m174.44601 72.54919l0 -17.1875l7.609375 0q2.296875 0 3.484375 0.46875q1.203125 0.46875 1.921875 1.640625q0.71875 1.171875 0.71875 2.578125q0 1.828125 -1.1875 3.09375q-1.1875 1.25 -3.65625 1.59375q0.90625 0.421875 1.375 0.84375q1.0 0.921875 1.890625 2.296875l2.984375 4.671875l-2.859375 0l-2.28125 -3.578125q-0.984375 -1.546875 -1.640625 -2.359375q-0.640625 -0.828125 -1.15625 -1.15625q-0.5 -0.328125 -1.03125 -0.453125q-0.390625 -0.078125 -1.265625 -0.078125l-2.640625 0l0 7.625l-2.265625 0zm2.265625 -9.59375l4.890625 0q1.5625 0 2.4375 -0.328125q0.875 -0.328125 1.328125 -1.03125q0.46875 -0.703125 0.46875 -1.546875q0 -1.21875 -0.890625 -2.0q-0.875 -0.78125 -2.796875 -0.78125l-5.4375 0l0 5.6875zm22.910156 9.59375l0 -1.828125q-1.453125 2.109375 -3.9375 2.109375q-1.109375 0 -2.0625 -0.421875q-0.953125 -0.421875 -1.421875 -1.0625q-0.453125 -0.640625 -0.640625 -1.5625q-0.140625 -0.625 -0.140625 -1.96875l0 -7.71875l2.109375 0l0 6.90625q0 1.65625 0.140625 2.234375q0.1875 0.828125 0.828125 1.3125q0.65625 0.46875 1.609375 0.46875q0.9375 0 1.765625 -0.484375q0.84375 -0.5 1.1875 -1.328125q0.34375 -0.84375 0.34375 -2.4375l0 -6.671875l2.109375 0l0 12.453125l-1.890625 0zm5.1914062 0l0 -12.453125l1.90625 0l0 1.78125q1.375 -2.0625 3.953125 -2.0625q1.125 0 2.0625 0.40625q0.953125 0.40625 1.421875 1.0625q0.46875 0.65625 0.65625 1.5625q0.125 0.578125 0.125 2.046875l0 7.65625l-2.109375 0l0 -7.578125q0 -1.28125 -0.25 -1.921875q-0.25 -0.640625 -0.875 -1.015625q-0.625 -0.390625 -1.46875 -0.390625q-1.34375 0 -2.328125 0.859375q-0.984375 0.859375 -0.984375 3.25l0 6.796875l-2.109375 0z" fill-rule="nonzero"/><path fill="#000000" d="m230.70383 72.54919l-1.765625 0l0 -11.203125q-0.625 0.609375 -1.65625 1.21875q-1.03125 0.59375 -1.859375 0.90625l0 -1.703125q1.484375 -0.6875 2.578125 -1.671875q1.109375 -1.0 1.5625 -1.921875l1.140625 0l0 14.375z" fill-rule="nonzero"/><path fill="#f6b26b" d="m317.3701 87.1814l28.188965 0l0 201.47751l-28.188965 0z" fill-rule="evenodd"/><path stroke="#595959" stroke-width="1.0" stroke-linejoin="round" stroke-linecap="butt" d="m317.3701 87.1814l28.188965 0l0 201.47751l-28.188965 0z" fill-rule="evenodd"/><path fill="#b45f06" d="m317.3701 289.3404l28.188965 0l0 28.322968l-28.188965 0z" fill-rule="evenodd"/><path stroke="#595959" stroke-width="1.0" stroke-linejoin="round" stroke-linecap="butt" d="m317.3701 289.3404l28.188965 0l0 28.322968l-28.188965 0z" fill-rule="evenodd"/><path fill="#6d9eeb" d="m317.3701 316.3549l28.188965 0l0 201.47751l-28.188965 0z" fill-rule="evenodd"/><path stroke="#595959" stroke-width="1.0" stroke-linejoin="round" stroke-linecap="butt" d="m317.3701 316.3549l28.188965 0l0 201.47751l-28.188965 0z" fill-rule="evenodd"/><path fill="#000000" fill-opacity="0.0" d="m278.0315 11.509187l106.86615 0l0 61.16535l-106.86615 0z" fill-rule="evenodd"/><path fill="#000000" d="m303.89816 43.549187l0 -7.28125l-6.609375 -9.90625l2.765625 0l3.375 5.1875q0.9375 1.453125 1.75 2.90625q0.78125 -1.34375 1.875 -3.03125l3.328125 -5.0625l2.65625 0l-6.859375 9.90625l0 7.28125l-2.28125 0zm17.226562 -4.015625l2.171875 0.28125q-0.515625 1.90625 -1.90625 2.96875q-1.390625 1.046875 -3.5625 1.046875q-2.734375 0 -4.34375 -1.671875q-1.59375 -1.6875 -1.59375 -4.734375q0 -3.140625 1.609375 -4.875q1.625 -1.734375 4.203125 -1.734375q2.5 0 4.078125 1.703125q1.59375 1.703125 1.59375 4.78125q0 0.1875 -0.015625 0.5625l-9.28125 0q0.109375 2.046875 1.15625 3.140625q1.046875 1.09375 2.609375 1.09375q1.15625 0 1.96875 -0.609375q0.828125 -0.609375 1.3125 -1.953125zm-6.9375 -3.40625l6.953125 0q-0.140625 -1.5625 -0.796875 -2.359375q-1.0 -1.21875 -2.609375 -1.21875q-1.453125 0 -2.453125 0.984375q-0.984375 0.96875 -1.09375 2.59375zm19.878906 5.890625q-1.171875 0.984375 -2.265625 1.40625q-1.078125 0.40625 -2.3125 0.40625q-2.046875 0 -3.15625 -1.0q-1.09375 -1.0 -1.09375 -2.5625q0 -0.921875 0.40625 -1.671875q0.421875 -0.75 1.09375 -1.203125q0.671875 -0.46875 1.515625 -0.703125q0.625 -0.15625 1.875 -0.3125q2.5625 -0.3125 3.765625 -0.734375q0.015625 -0.421875 0.015625 -0.546875q0 -1.28125 -0.609375 -1.8125q-0.796875 -0.71875 -2.390625 -0.71875q-1.5 0 -2.203125 0.53125q-0.703125 0.515625 -1.046875 1.84375l-2.0625 -0.28125q0.28125 -1.328125 0.921875 -2.140625q0.640625 -0.8125 1.859375 -1.25q1.21875 -0.453125 2.828125 -0.453125q1.59375 0 2.59375 0.375q1.0 0.375 1.46875 0.953125q0.46875 0.5625 0.65625 1.4375q0.09375 0.53125 0.09375 1.9375l0 2.8125q0 2.9375 0.140625 3.71875q0.140625 0.78125 0.53125 1.5l-2.203125 0q-0.328125 -0.65625 -0.421875 -1.53125zm-0.171875 -4.71875q-1.15625 0.46875 -3.453125 0.796875q-1.296875 0.1875 -1.84375 0.421875q-0.53125 0.234375 -0.828125 0.6875q-0.28125 0.453125 -0.28125 1.0q0 0.84375 0.625 1.40625q0.640625 0.5625 1.875 0.5625q1.21875 0 2.171875 -0.53125q0.953125 -0.53125 1.390625 -1.453125q0.34375 -0.71875 0.34375 -2.109375l0 -0.78125zm5.3789062 6.25l0 -12.453125l1.890625 0l0 1.890625q0.734375 -1.328125 1.34375 -1.75q0.625 -0.421875 1.359375 -0.421875q1.0625 0 2.171875 0.6875l-0.734375 1.953125q-0.765625 -0.453125 -1.546875 -0.453125q-0.6875 0 -1.25 0.421875q-0.546875 0.40625 -0.78125 1.140625q-0.34375 1.125 -0.34375 2.46875l0 6.515625l-2.109375 0zm14.097656 -4.5l2.21875 -0.1875q0.234375 1.609375 1.125 2.4375q0.90625 0.8125 2.171875 0.8125q1.53125 0 2.578125 -1.140625q1.0625 -1.15625 1.0625 -3.0625q0 -1.796875 -1.015625 -2.84375q-1.015625 -1.046875 -2.65625 -1.046875q-1.015625 0 -1.84375 0.46875q-0.8125 0.453125 -1.28125 1.203125l-1.984375 -0.265625l1.65625 -8.828125l8.546875 0l0 2.015625l-6.859375 0l-0.921875 4.625q1.546875 -1.078125 3.25 -1.078125q2.25 0 3.796875 1.5625q1.546875 1.546875 1.546875 4.0q0 2.328125 -1.359375 4.03125q-1.65625 2.09375 -4.515625 2.09375q-2.34375 0 -3.828125 -1.3125q-1.484375 -1.3125 -1.6875 -3.484375z" fill-rule="nonzero"/><path fill="#000000" d="m302.446 72.54919l0 -17.1875l7.609375 0q2.296875 0 3.484375 0.46875q1.203125 0.46875 1.921875 1.640625q0.71875 1.171875 0.71875 2.578125q0 1.828125 -1.1875 3.09375q-1.1875 1.25 -3.65625 1.59375q0.90625 0.421875 1.375 0.84375q1.0 0.921875 1.890625 2.296875l2.984375 4.671875l-2.859375 0l-2.28125 -3.578125q-0.984375 -1.546875 -1.640625 -2.359375q-0.640625 -0.828125 -1.15625 -1.15625q-0.5 -0.328125 -1.03125 -0.453125q-0.390625 -0.078125 -1.265625 -0.078125l-2.640625 0l0 7.625l-2.265625 0zm2.265625 -9.59375l4.890625 0q1.5625 0 2.4375 -0.328125q0.875 -0.328125 1.328125 -1.03125q0.46875 -0.703125 0.46875 -1.546875q0 -1.21875 -0.890625 -2.0q-0.875 -0.78125 -2.796875 -0.78125l-5.4375 0l0 5.6875zm22.910156 9.59375l0 -1.828125q-1.453125 2.109375 -3.9375 2.109375q-1.109375 0 -2.0625 -0.421875q-0.953125 -0.421875 -1.421875 -1.0625q-0.453125 -0.640625 -0.640625 -1.5625q-0.140625 -0.625 -0.140625 -1.96875l0 -7.71875l2.109375 0l0 6.90625q0 1.65625 0.140625 2.234375q0.1875 0.828125 0.828125 1.3125q0.65625 0.46875 1.609375 0.46875q0.9375 0 1.765625 -0.484375q0.84375 -0.5 1.1875 -1.328125q0.34375 -0.84375 0.34375 -2.4375l0 -6.671875l2.109375 0l0 12.453125l-1.890625 0zm5.1914062 0l0 -12.453125l1.90625 0l0 1.78125q1.375 -2.0625 3.953125 -2.0625q1.125 0 2.0625 0.40625q0.953125 0.40625 1.421875 1.0625q0.46875 0.65625 0.65625 1.5625q0.125 0.578125 0.125 2.046875l0 7.65625l-2.109375 0l0 -7.578125q0 -1.28125 -0.25 -1.921875q-0.25 -0.640625 -0.875 -1.015625q-0.625 -0.390625 -1.46875 -0.390625q-1.34375 0 -2.328125 0.859375q-0.984375 0.859375 -0.984375 3.25l0 6.796875l-2.109375 0z" fill-rule="nonzero"/><path fill="#000000" d="m358.70383 72.54919l-1.765625 0l0 -11.203125q-0.625 0.609375 -1.65625 1.21875q-1.03125 0.59375 -1.859375 0.90625l0 -1.703125q1.484375 -0.6875 2.578125 -1.671875q1.109375 -1.0 1.5625 -1.921875l1.140625 0l0 14.375z" fill-rule="nonzero"/><path fill="#f6b26b" d="m445.3701 87.1814l28.188965 0l0 201.47751l-28.188965 0z" fill-rule="evenodd"/><path stroke="#595959" stroke-width="1.0" stroke-linejoin="round" stroke-linecap="butt" d="m445.3701 87.1814l28.188965 0l0 201.47751l-28.188965 0z" fill-rule="evenodd"/><path fill="#b45f06" d="m445.3701 289.3404l28.188965 0l0 28.322968l-28.188965 0z" fill-rule="evenodd"/><path stroke="#595959" stroke-width="1.0" stroke-linejoin="round" stroke-linecap="butt" d="m445.3701 289.3404l28.188965 0l0 28.322968l-28.188965 0z" fill-rule="evenodd"/><path fill="#6d9eeb" d="m445.3701 316.3549l28.188965 0l0 201.47751l-28.188965 0z" fill-rule="evenodd"/><path stroke="#595959" stroke-width="1.0" stroke-linejoin="round" stroke-linecap="butt" d="m445.3701 316.3549l28.188965 0l0 201.47751l-28.188965 0z" fill-rule="evenodd"/><path fill="#000000" fill-opacity="0.0" d="m406.0315 11.509187l106.86615 0l0 61.16535l-106.86615 0z" fill-rule="evenodd"/><path fill="#000000" d="m425.22433 43.549187l0 -7.28125l-6.609375 -9.90625l2.765625 0l3.375 5.1875q0.9375 1.453125 1.75 2.90625q0.78125 -1.34375 1.875 -3.03125l3.328125 -5.0625l2.65625 0l-6.859375 9.90625l0 7.28125l-2.28125 0zm17.226562 -4.015625l2.171875 0.28125q-0.515625 1.90625 -1.90625 2.96875q-1.390625 1.046875 -3.5625 1.046875q-2.734375 0 -4.34375 -1.671875q-1.59375 -1.6875 -1.59375 -4.734375q0 -3.140625 1.609375 -4.875q1.625 -1.734375 4.203125 -1.734375q2.5 0 4.078125 1.703125q1.59375 1.703125 1.59375 4.78125q0 0.1875 -0.015625 0.5625l-9.28125 0q0.109375 2.046875 1.15625 3.140625q1.046875 1.09375 2.609375 1.09375q1.15625 0 1.96875 -0.609375q0.828125 -0.609375 1.3125 -1.953125zm-6.9375 -3.40625l6.953125 0q-0.140625 -1.5625 -0.796875 -2.359375q-1.0 -1.21875 -2.609375 -1.21875q-1.453125 0 -2.453125 0.984375q-0.984375 0.96875 -1.09375 2.59375zm19.878906 5.890625q-1.171875 0.984375 -2.265625 1.40625q-1.078125 0.40625 -2.3125 0.40625q-2.046875 0 -3.15625 -1.0q-1.09375 -1.0 -1.09375 -2.5625q0 -0.921875 0.40625 -1.671875q0.421875 -0.75 1.09375 -1.203125q0.671875 -0.46875 1.515625 -0.703125q0.625 -0.15625 1.875 -0.3125q2.5625 -0.3125 3.765625 -0.734375q0.015625 -0.421875 0.015625 -0.546875q0 -1.28125 -0.609375 -1.8125q-0.796875 -0.71875 -2.390625 -0.71875q-1.5 0 -2.203125 0.53125q-0.703125 0.515625 -1.046875 1.84375l-2.0625 -0.28125q0.28125 -1.328125 0.921875 -2.140625q0.640625 -0.8125 1.859375 -1.25q1.21875 -0.453125 2.828125 -0.453125q1.59375 0 2.59375 0.375q1.0 0.375 1.46875 0.953125q0.46875 0.5625 0.65625 1.4375q0.09375 0.53125 0.09375 1.9375l0 2.8125q0 2.9375 0.140625 3.71875q0.140625 0.78125 0.53125 1.5l-2.203125 0q-0.328125 -0.65625 -0.421875 -1.53125zm-0.171875 -4.71875q-1.15625 0.46875 -3.453125 0.796875q-1.296875 0.1875 -1.84375 0.421875q-0.53125 0.234375 -0.828125 0.6875q-0.28125 0.453125 -0.28125 1.0q0 0.84375 0.625 1.40625q0.640625 0.5625 1.875 0.5625q1.21875 0 2.171875 -0.53125q0.953125 -0.53125 1.390625 -1.453125q0.34375 -0.71875 0.34375 -2.109375l0 -0.78125zm5.3789062 6.25l0 -12.453125l1.890625 0l0 1.890625q0.734375 -1.328125 1.34375 -1.75q0.625 -0.421875 1.359375 -0.421875q1.0625 0 2.171875 0.6875l-0.734375 1.953125q-0.765625 -0.453125 -1.546875 -0.453125q-0.6875 0 -1.25 0.421875q-0.546875 0.40625 -0.78125 1.140625q-0.34375 1.125 -0.34375 2.46875l0 6.515625l-2.109375 0zm22.035156 0l-2.109375 0l0 -13.4375q-0.75 0.71875 -2.0 1.453125q-1.234375 0.71875 -2.21875 1.078125l0 -2.03125q1.78125 -0.828125 3.09375 -2.015625q1.328125 -1.1875 1.875 -2.296875l1.359375 0l0 17.25zm5.7226562 -3.96875l2.03125 -0.1875q0.25 1.421875 0.96875 2.078125q0.734375 0.640625 1.875 0.640625q0.96875 0 1.703125 -0.4375q0.734375 -0.453125 1.203125 -1.203125q0.46875 -0.75 0.78125 -2.015625q0.328125 -1.265625 0.328125 -2.578125q0 -0.140625 -0.015625 -0.421875q-0.640625 1.015625 -1.734375 1.640625q-1.09375 0.625 -2.375 0.625q-2.125 0 -3.609375 -1.546875q-1.46875 -1.546875 -1.46875 -4.078125q0 -2.609375 1.53125 -4.203125q1.546875 -1.59375 3.875 -1.59375q1.671875 0 3.0625 0.90625q1.390625 0.890625 2.109375 2.5625q0.71875 1.671875 0.71875 4.84375q0 3.28125 -0.71875 5.234375q-0.71875 1.953125 -2.125 2.984375q-1.40625 1.015625 -3.3125 1.015625q-2.015625 0 -3.296875 -1.125q-1.265625 -1.125 -1.53125 -3.140625zm8.640625 -7.59375q0 -1.8125 -0.96875 -2.875q-0.96875 -1.0625 -2.328125 -1.0625q-1.40625 0 -2.453125 1.15625q-1.03125 1.140625 -1.03125 2.96875q0 1.640625 0.984375 2.671875q0.984375 1.015625 2.4375 1.015625q1.46875 0 2.40625 -1.015625q0.953125 -1.03125 0.953125 -2.859375z" fill-rule="nonzero"/><path fill="#000000" d="m430.446 72.54919l0 -17.1875l7.609375 0q2.296875 0 3.484375 0.46875q1.203125 0.46875 1.921875 1.640625q0.71875 1.171875 0.71875 2.578125q0 1.828125 -1.1875 3.09375q-1.1875 1.25 -3.65625 1.59375q0.90625 0.421875 1.375 0.84375q1.0 0.921875 1.890625 2.296875l2.984375 4.671875l-2.859375 0l-2.28125 -3.578125q-0.984375 -1.546875 -1.640625 -2.359375q-0.640625 -0.828125 -1.15625 -1.15625q-0.5 -0.328125 -1.03125 -0.453125q-0.390625 -0.078125 -1.265625 -0.078125l-2.640625 0l0 7.625l-2.265625 0zm2.265625 -9.59375l4.890625 0q1.5625 0 2.4375 -0.328125q0.875 -0.328125 1.328125 -1.03125q0.46875 -0.703125 0.46875 -1.546875q0 -1.21875 -0.890625 -2.0q-0.875 -0.78125 -2.796875 -0.78125l-5.4375 0l0 5.6875zm22.910156 9.59375l0 -1.828125q-1.453125 2.109375 -3.9375 2.109375q-1.109375 0 -2.0625 -0.421875q-0.953125 -0.421875 -1.421875 -1.0625q-0.453125 -0.640625 -0.640625 -1.5625q-0.140625 -0.625 -0.140625 -1.96875l0 -7.71875l2.109375 0l0 6.90625q0 1.65625 0.140625 2.234375q0.1875 0.828125 0.828125 1.3125q0.65625 0.46875 1.609375 0.46875q0.9375 0 1.765625 -0.484375q0.84375 -0.5 1.1875 -1.328125q0.34375 -0.84375 0.34375 -2.4375l0 -6.671875l2.109375 0l0 12.453125l-1.890625 0zm5.1914062 0l0 -12.453125l1.90625 0l0 1.78125q1.375 -2.0625 3.953125 -2.0625q1.125 0 2.0625 0.40625q0.953125 0.40625 1.421875 1.0625q0.46875 0.65625 0.65625 1.5625q0.125 0.578125 0.125 2.046875l0 7.65625l-2.109375 0l0 -7.578125q0 -1.28125 -0.25 -1.921875q-0.25 -0.640625 -0.875 -1.015625q-0.625 -0.390625 -1.46875 -0.390625q-1.34375 0 -2.328125 0.859375q-0.984375 0.859375 -0.984375 3.25l0 6.796875l-2.109375 0z" fill-rule="nonzero"/><path fill="#000000" d="m486.70383 72.54919l-1.765625 0l0 -11.203125q-0.625 0.609375 -1.65625 1.21875q-1.03125 0.59375 -1.859375 0.90625l0 -1.703125q1.484375 -0.6875 2.578125 -1.671875q1.109375 -1.0 1.5625 -1.921875l1.140625 0l0 14.375z" fill-rule="nonzero"/><path fill="#f6b26b" d="m573.37006 87.1814l28.189026 0l0 201.47751l-28.189026 0z" fill-rule="evenodd"/><path stroke="#595959" stroke-width="1.0" stroke-linejoin="round" stroke-linecap="butt" d="m573.37006 87.1814l28.189026 0l0 201.47751l-28.189026 0z" fill-rule="evenodd"/><path fill="#b45f06" d="m573.37006 289.3404l28.189026 0l0 28.322968l-28.189026 0z" fill-rule="evenodd"/><path stroke="#595959" stroke-width="1.0" stroke-linejoin="round" stroke-linecap="butt" d="m573.37006 289.3404l28.189026 0l0 28.322968l-28.189026 0z" fill-rule="evenodd"/><path fill="#6d9eeb" d="m573.37006 316.3549l28.189026 0l0 201.47751l-28.189026 0z" fill-rule="evenodd"/><path stroke="#595959" stroke-width="1.0" stroke-linejoin="round" stroke-linecap="butt" d="m573.37006 316.3549l28.189026 0l0 201.47751l-28.189026 0z" fill-rule="evenodd"/><path fill="#000000" fill-opacity="0.0" d="m534.0315 11.509187l106.86615 0l0 61.16535l-106.86615 0z" fill-rule="evenodd"/><path fill="#000000" d="m553.2243 43.549187l0 -7.28125l-6.609375 -9.90625l2.765625 0l3.375 5.1875q0.9375 1.453125 1.75 2.90625q0.78125 -1.34375 1.875 -3.03125l3.328125 -5.0625l2.65625 0l-6.859375 9.90625l0 7.28125l-2.28125 0zm17.226562 -4.015625l2.171875 0.28125q-0.515625 1.90625 -1.90625 2.96875q-1.390625 1.046875 -3.5625 1.046875q-2.734375 0 -4.34375 -1.671875q-1.59375 -1.6875 -1.59375 -4.734375q0 -3.140625 1.609375 -4.875q1.625 -1.734375 4.203125 -1.734375q2.5 0 4.078125 1.703125q1.59375 1.703125 1.59375 4.78125q0 0.1875 -0.015625 0.5625l-9.28125 0q0.109375 2.046875 1.15625 3.140625q1.046875 1.09375 2.609375 1.09375q1.15625 0 1.96875 -0.609375q0.828125 -0.609375 1.3125 -1.953125zm-6.9375 -3.40625l6.953125 0q-0.140625 -1.5625 -0.796875 -2.359375q-1.0 -1.21875 -2.609375 -1.21875q-1.453125 0 -2.453125 0.984375q-0.984375 0.96875 -1.09375 2.59375zm19.878906 5.890625q-1.171875 0.984375 -2.265625 1.40625q-1.078125 0.40625 -2.3125 0.40625q-2.046875 0 -3.15625 -1.0q-1.09375 -1.0 -1.09375 -2.5625q0 -0.921875 0.40625 -1.671875q0.421875 -0.75 1.09375 -1.203125q0.671875 -0.46875 1.515625 -0.703125q0.625 -0.15625 1.875 -0.3125q2.5625 -0.3125 3.765625 -0.734375q0.015625 -0.421875 0.015625 -0.546875q0 -1.28125 -0.609375 -1.8125q-0.796875 -0.71875 -2.390625 -0.71875q-1.5 0 -2.203125 0.53125q-0.703125 0.515625 -1.046875 1.84375l-2.0625 -0.28125q0.28125 -1.328125 0.921875 -2.140625q0.640625 -0.8125 1.859375 -1.25q1.21875 -0.453125 2.828125 -0.453125q1.59375 0 2.59375 0.375q1.0 0.375 1.46875 0.953125q0.46875 0.5625 0.65625 1.4375q0.09375 0.53125 0.09375 1.9375l0 2.8125q0 2.9375 0.140625 3.71875q0.140625 0.78125 0.53125 1.5l-2.203125 0q-0.328125 -0.65625 -0.421875 -1.53125zm-0.171875 -4.71875q-1.15625 0.46875 -3.453125 0.796875q-1.296875 0.1875 -1.84375 0.421875q-0.53125 0.234375 -0.828125 0.6875q-0.28125 0.453125 -0.28125 1.0q0 0.84375 0.625 1.40625q0.640625 0.5625 1.875 0.5625q1.21875 0 2.171875 -0.53125q0.953125 -0.53125 1.390625 -1.453125q0.34375 -0.71875 0.34375 -2.109375l0 -0.78125zm5.3789062 6.25l0 -12.453125l1.890625 0l0 1.890625q0.734375 -1.328125 1.34375 -1.75q0.625 -0.421875 1.359375 -0.421875q1.0625 0 2.171875 0.6875l-0.734375 1.953125q-0.765625 -0.453125 -1.546875 -0.453125q-0.6875 0 -1.25 0.421875q-0.546875 0.40625 -0.78125 1.140625q-0.34375 1.125 -0.34375 2.46875l0 6.515625l-2.109375 0zm25.175842 -2.03125l0 2.03125l-11.34375 0q-0.03125 -0.765625 0.234375 -1.46875q0.4375 -1.15625 1.390625 -2.28125q0.953125 -1.125 2.765625 -2.609375q2.796875 -2.296875 3.78125 -3.625q0.984375 -1.34375 0.984375 -2.546875q0 -1.25 -0.90625 -2.109375q-0.890625 -0.859375 -2.328125 -0.859375q-1.515625 0 -2.4375 0.921875q-0.90625 0.90625 -0.921875 2.515625l-2.171875 -0.21875q0.21875 -2.421875 1.671875 -3.6875q1.453125 -1.28125 3.90625 -1.28125q2.46875 0 3.90625 1.375q1.453125 1.359375 1.453125 3.390625q0 1.03125 -0.421875 2.03125q-0.421875 1.0 -1.40625 2.109375q-0.96875 1.09375 -3.25 3.015625q-1.890625 1.59375 -2.4375 2.15625q-0.53125 0.5625 -0.890625 1.140625l8.421875 0zm2.4101562 -12.90625l0 -2.015625l11.125 0l0 1.640625q-1.640625 1.734375 -3.265625 4.640625q-1.609375 2.890625 -2.484375 5.953125q-0.625 2.15625 -0.8125 4.71875l-2.15625 0q0.03125 -2.03125 0.78125 -4.890625q0.765625 -2.875 2.1875 -5.546875q1.4375 -2.671875 3.03125 -4.5l-8.40625 0z" fill-rule="nonzero"/><path fill="#000000" d="m558.446 72.54919l0 -17.1875l7.609375 0q2.296875 0 3.484375 0.46875q1.203125 0.46875 1.921875 1.640625q0.71875 1.171875 0.71875 2.578125q0 1.828125 -1.1875 3.09375q-1.1875 1.25 -3.65625 1.59375q0.90625 0.421875 1.375 0.84375q1.0 0.921875 1.890625 2.296875l2.984375 4.671875l-2.859375 0l-2.28125 -3.578125q-0.984375 -1.546875 -1.640625 -2.359375q-0.640625 -0.828125 -1.15625 -1.15625q-0.5 -0.328125 -1.03125 -0.453125q-0.390625 -0.078125 -1.265625 -0.078125l-2.640625 0l0 7.625l-2.265625 0zm2.265625 -9.59375l4.890625 0q1.5625 0 2.4375 -0.328125q0.875 -0.328125 1.328125 -1.03125q0.46875 -0.703125 0.46875 -1.546875q0 -1.21875 -0.890625 -2.0q-0.875 -0.78125 -2.796875 -0.78125l-5.4375 0l0 5.6875zm22.910156 9.59375l0 -1.828125q-1.453125 2.109375 -3.9375 2.109375q-1.109375 0 -2.0625 -0.421875q-0.953125 -0.421875 -1.421875 -1.0625q-0.453125 -0.640625 -0.640625 -1.5625q-0.140625 -0.625 -0.140625 -1.96875l0 -7.71875l2.109375 0l0 6.90625q0 1.65625 0.140625 2.234375q0.1875 0.828125 0.828125 1.3125q0.65625 0.46875 1.609375 0.46875q0.9375 0 1.765625 -0.484375q0.84375 -0.5 1.1875 -1.328125q0.34375 -0.84375 0.34375 -2.4375l0 -6.671875l2.109375 0l0 12.453125l-1.890625 0zm5.1914062 0l0 -12.453125l1.90625 0l0 1.78125q1.375 -2.0625 3.953125 -2.0625q1.125 0 2.0625 0.40625q0.953125 0.40625 1.421936 1.0625q0.46875 0.65625 0.65625 1.5625q0.125 0.578125 0.125 2.046875l0 7.65625l-2.109436 0l0 -7.578125q0 -1.28125 -0.25 -1.921875q-0.25 -0.640625 -0.875 -1.015625q-0.625 -0.390625 -1.46875 -0.390625q-1.34375 0 -2.328125 0.859375q-0.984375 0.859375 -0.984375 3.25l0 6.796875l-2.109375 0z" fill-rule="nonzero"/><path fill="#000000" d="m614.70386 72.54919l-1.765625 0l0 -11.203125q-0.625 0.609375 -1.65625 1.21875q-1.03125 0.59375 -1.859375 0.90625l0 -1.703125q1.484375 -0.6875 2.578125 -1.671875q1.109375 -1.0 1.5625 -1.921875l1.140625 0l0 14.375z" fill-rule="nonzero"/><path fill="#f6b26b" d="m701.37006 87.1814l28.189026 0l0 201.47751l-28.189026 0z" fill-rule="evenodd"/><path stroke="#595959" stroke-width="1.0" stroke-linejoin="round" stroke-linecap="butt" d="m701.37006 87.1814l28.189026 0l0 201.47751l-28.189026 0z" fill-rule="evenodd"/><path fill="#b45f06" d="m701.37006 289.3404l28.189026 0l0 28.322968l-28.189026 0z" fill-rule="evenodd"/><path stroke="#595959" stroke-width="1.0" stroke-linejoin="round" stroke-linecap="butt" d="m701.37006 289.3404l28.189026 0l0 28.322968l-28.189026 0z" fill-rule="evenodd"/><path fill="#6d9eeb" d="m701.37006 316.3549l28.189026 0l0 201.47751l-28.189026 0z" fill-rule="evenodd"/><path stroke="#595959" stroke-width="1.0" stroke-linejoin="round" stroke-linecap="butt" d="m701.37006 316.3549l28.189026 0l0 201.47751l-28.189026 0z" fill-rule="evenodd"/><path fill="#000000" fill-opacity="0.0" d="m662.0315 11.509187l106.86615 0l0 61.16535l-106.86615 0z" fill-rule="evenodd"/><path fill="#000000" d="m687.89813 43.549187l0 -7.28125l-6.609375 -9.90625l2.765625 0l3.375 5.1875q0.9375 1.453125 1.75 2.90625q0.78125 -1.34375 1.875 -3.03125l3.328125 -5.0625l2.65625 0l-6.859375 9.90625l0 7.28125l-2.28125 0zm17.226562 -4.015625l2.171875 0.28125q-0.515625 1.90625 -1.90625 2.96875q-1.390625 1.046875 -3.5625 1.046875q-2.734375 0 -4.34375 -1.671875q-1.59375 -1.6875 -1.59375 -4.734375q0 -3.140625 1.609375 -4.875q1.625 -1.734375 4.203125 -1.734375q2.5 0 4.078125 1.703125q1.59375 1.703125 1.59375 4.78125q0 0.1875 -0.015625 0.5625l-9.28125 0q0.109375 2.046875 1.15625 3.140625q1.046875 1.09375 2.609375 1.09375q1.15625 0 1.96875 -0.609375q0.828125 -0.609375 1.3125 -1.953125zm-6.9375 -3.40625l6.953125 0q-0.140625 -1.5625 -0.796875 -2.359375q-1.0 -1.21875 -2.609375 -1.21875q-1.453125 0 -2.453125 0.984375q-0.984375 0.96875 -1.09375 2.59375zm19.878906 5.890625q-1.171875 0.984375 -2.265625 1.40625q-1.078125 0.40625 -2.3125 0.40625q-2.046875 0 -3.15625 -1.0q-1.09375 -1.0 -1.09375 -2.5625q0 -0.921875 0.40625 -1.671875q0.421875 -0.75 1.09375 -1.203125q0.671875 -0.46875 1.515625 -0.703125q0.625 -0.15625 1.875 -0.3125q2.5625 -0.3125 3.765625 -0.734375q0.015625 -0.421875 0.015625 -0.546875q0 -1.28125 -0.609375 -1.8125q-0.796875 -0.71875 -2.390625 -0.71875q-1.5 0 -2.203125 0.53125q-0.703125 0.515625 -1.046875 1.84375l-2.0625 -0.28125q0.28125 -1.328125 0.921875 -2.140625q0.640625 -0.8125 1.859375 -1.25q1.21875 -0.453125 2.828125 -0.453125q1.59375 0 2.59375 0.375q1.0 0.375 1.46875 0.953125q0.46875 0.5625 0.65625 1.4375q0.09375 0.53125 0.09375 1.9375l0 2.8125q0 2.9375 0.140625 3.71875q0.140625 0.78125 0.53125 1.5l-2.203125 0q-0.328125 -0.65625 -0.421875 -1.53125zm-0.171875 -4.71875q-1.15625 0.46875 -3.453125 0.796875q-1.296875 0.1875 -1.84375 0.421875q-0.53125 0.234375 -0.828125 0.6875q-0.28125 0.453125 -0.28125 1.0q0 0.84375 0.625 1.40625q0.640625 0.5625 1.875 0.5625q1.21875 0 2.171875 -0.53125q0.953125 -0.53125 1.390625 -1.453125q0.34375 -0.71875 0.34375 -2.109375l0 -0.78125zm5.3789062 6.25l0 -12.453125l1.890625 0l0 1.890625q0.734375 -1.328125 1.343811 -1.75q0.625 -0.421875 1.359375 -0.421875q1.0625 0 2.171875 0.6875l-0.734375 1.953125q-0.765625 -0.453125 -1.546875 -0.453125q-0.6875 0 -1.25 0.421875q-0.54693604 0.40625 -0.78131104 1.140625q-0.34375 1.125 -0.34375 2.46875l0 6.515625l-2.109375 0zm22.035217 0l-2.109375 0l0 -13.4375q-0.75 0.71875 -2.0 1.453125q-1.234375 0.71875 -2.21875 1.078125l0 -2.03125q1.78125 -0.828125 3.09375 -2.015625q1.328125 -1.1875 1.875 -2.296875l1.359375 0l0 17.25z" fill-rule="nonzero"/><path fill="#000000" d="m686.446 72.54919l0 -17.1875l7.609375 0q2.296875 0 3.484375 0.46875q1.203125 0.46875 1.921875 1.640625q0.71875 1.171875 0.71875 2.578125q0 1.828125 -1.1875 3.09375q-1.1875 1.25 -3.65625 1.59375q0.90625 0.421875 1.375 0.84375q1.0 0.921875 1.890625 2.296875l2.984375 4.671875l-2.859375 0l-2.28125 -3.578125q-0.984375 -1.546875 -1.640625 -2.359375q-0.640625 -0.828125 -1.15625 -1.15625q-0.5 -0.328125 -1.03125 -0.453125q-0.390625 -0.078125 -1.265625 -0.078125l-2.640625 0l0 7.625l-2.265625 0zm2.265625 -9.59375l4.890625 0q1.5625 0 2.4375 -0.328125q0.875 -0.328125 1.328125 -1.03125q0.46875 -0.703125 0.46875 -1.546875q0 -1.21875 -0.890625 -2.0q-0.875 -0.78125 -2.796875 -0.78125l-5.4375 0l0 5.6875zm22.910156 9.59375l0 -1.828125q-1.453125 2.109375 -3.9375 2.109375q-1.109375 0 -2.0625 -0.421875q-0.953125 -0.421875 -1.421875 -1.0625q-0.453125 -0.640625 -0.640625 -1.5625q-0.140625 -0.625 -0.140625 -1.96875l0 -7.71875l2.109375 0l0 6.90625q0 1.65625 0.140625 2.234375q0.1875 0.828125 0.828125 1.3125q0.65625 0.46875 1.609375 0.46875q0.9375 0 1.765625 -0.484375q0.84375 -0.5 1.1875 -1.328125q0.34375 -0.84375 0.34375 -2.4375l0 -6.671875l2.109375 0l0 12.453125l-1.890625 0zm5.1914062 0l0 -12.453125l1.90625 0l0 1.78125q1.375 -2.0625 3.953125 -2.0625q1.125 0 2.0625 0.40625q0.953125 0.40625 1.421936 1.0625q0.46875 0.65625 0.65625 1.5625q0.125 0.578125 0.125 2.046875l0 7.65625l-2.109436 0l0 -7.578125q0 -1.28125 -0.25 -1.921875q-0.25 -0.640625 -0.875 -1.015625q-0.625 -0.390625 -1.46875 -0.390625q-1.34375 0 -2.328125 0.859375q-0.984375 0.859375 -0.984375 3.25l0 6.796875l-2.109375 0z" fill-rule="nonzero"/><path fill="#000000" d="m745.31323 70.86169l0 1.6875l-9.453125 0q-0.015625 -0.640625 0.203125 -1.21875q0.359375 -0.96875 1.15625 -1.90625q0.796875 -0.9375 2.296875 -2.171875q2.34375 -1.90625 3.15625 -3.015625q0.828125 -1.125 0.828125 -2.125q0 -1.046875 -0.75 -1.765625q-0.75 -0.71875 -1.953125 -0.71875q-1.265625 0 -2.03125 0.765625q-0.765625 0.765625 -0.765625 2.109375l-1.8125 -0.1875q0.1875 -2.015625 1.390625 -3.078125q1.21875 -1.0625 3.265625 -1.0625q2.046875 0 3.25 1.140625q1.203125 1.140625 1.203125 2.828125q0 0.859375 -0.359375 1.703125q-0.34375 0.828125 -1.15625 1.75q-0.8125 0.90625 -2.703125 2.515625q-1.59375 1.328125 -2.046875 1.796875q-0.4375 0.46875 -0.734375 0.953125l7.015625 0z" fill-rule="nonzero"/></g></svg>