<?xml version="1.0" encoding="UTF-8"?><svg id="a" xmlns="http://www.w3.org/2000/svg" viewBox="0 0 700 393.75"><defs><style>.b,.c,.d{font-family:ArialMT, Arial;}.b,.d{font-size:24px;}.e,.f,.d{stroke:#000;stroke-miterlimit:10;}.f{fill:none;stroke-width:2px;}.c{font-size:44px;}.d{stroke-width:.25px;}</style></defs><text class="d" transform="translate(10.49 71.33)"><tspan x="0" y="0">Reference Indices</tspan></text><text class="b" transform="translate(244.22 311.66)"><tspan x="0" y="0">Ensemble Dimension</tspan></text><g><line class="f" x1="19.89" y1="86.75" x2="19.89" y2="231.03"/><polygon points="14.08 227.07 19.89 248.75 25.7 227.07 14.08 227.07"/></g><g><line class="f" x1="244.28" y1="129.17" x2="244.19" y2="231.24"/><polygon points="238.38 227.27 244.17 248.96 250 227.28 238.38 227.27"/></g><g><line class="f" x1="468.45" y1="129.38" x2="468.35" y2="231.45"/><polygon points="462.55 227.48 468.34 249.17 474.17 227.49 462.55 227.48"/></g><g><line class="f" x1="20" y1="128.97" x2="612.13" y2="128.97"/><polygon points="608.17 134.78 629.85 128.97 608.17 123.15 608.17 134.78"/></g><text class="c" transform="translate(644.03 132.89)"><tspan x="0" y="0">...</tspan></text><g><g><circle class="e" cx="57.79" cy="270.73" r="5.42"/><circle class="e" cx="20.41" cy="270.73" r="5.42"/><circle class="e" cx="39.1" cy="270.73" r="5.42"/><circle class="e" cx="76.48" cy="270.73" r="5.42"/></g><g><circle class="e" cx="132.55" cy="270.73" r="5.42"/><circle class="e" cx="95.17" cy="270.73" r="5.42"/><circle class="e" cx="113.86" cy="270.73" r="5.42"/><circle class="e" cx="151.24" cy="270.73" r="5.42"/></g><g><circle class="e" cx="207.31" cy="270.73" r="5.42"/><circle class="e" cx="169.93" cy="270.73" r="5.42"/><circle class="e" cx="188.62" cy="270.73" r="5.42"/><circle class="e" cx="226" cy="270.73" r="5.42"/></g><g><circle class="e" cx="282.07" cy="270.73" r="5.42"/><circle class="e" cx="244.69" cy="270.73" r="5.42"/><circle class="e" cx="263.38" cy="270.73" r="5.42"/><circle class="e" cx="300.76" cy="270.73" r="5.42"/></g><g><circle class="e" cx="356.83" cy="270.73" r="5.42"/><circle class="e" cx="319.45" cy="270.73" r="5.42"/><circle class="e" cx="338.14" cy="270.73" r="5.42"/><circle class="e" cx="375.52" cy="270.73" r="5.42"/></g><g><circle class="e" cx="431.59" cy="270.73" r="5.42"/><circle class="e" cx="394.21" cy="270.73" r="5.42"/><circle class="e" cx="412.9" cy="270.73" r="5.42"/><circle class="e" cx="450.28" cy="270.73" r="5.42"/></g><g><circle class="e" cx="506.35" cy="270.73" r="5.42"/><circle class="e" cx="468.97" cy="270.73" r="5.42"/><circle class="e" cx="487.66" cy="270.73" r="5.42"/><circle class="e" cx="525.04" cy="270.73" r="5.42"/></g><g><circle class="e" cx="581.26" cy="270.73" r="5.42"/><circle class="e" cx="543.88" cy="270.73" r="5.42"/><circle class="e" cx="562.57" cy="270.73" r="5.42"/><circle class="e" cx="599.95" cy="270.73" r="5.42"/></g><g><circle class="e" cx="656.17" cy="270.73" r="5.42"/><circle class="e" cx="618.79" cy="270.73" r="5.42"/><circle class="e" cx="637.48" cy="270.73" r="5.42"/><circle class="e" cx="674.86" cy="270.73" r="5.42"/></g></g></svg>