<?xml version="1.0" encoding="UTF-8"?><svg id="a" xmlns="http://www.w3.org/2000/svg" viewBox="0 0 700 393.75"><defs><style>.b,.c,.d{font-family:ArialMT, Arial;}.b,.d{font-size:24px;}.e,.f,.g,.d,.h{stroke-miterlimit:10;}.e,.g,.d{stroke:#000;}.f{stroke:#0000c8;}.f,.g,.h{fill:none;stroke-width:2px;}.i{font-size:15px;}.i,.j{fill:#a00000;}.i,.k{font-family:Arial-BoldMT, Arial;}.c{font-size:44px;}.d{stroke-width:.25px;}.h{stroke:#a00000;}.k{fill:#0000c8;font-size:17px;}</style></defs><text class="d" transform="translate(10.49 71.33)"><tspan x="0" y="0">Reference Indices</tspan></text><text class="b" transform="translate(239.03 349.37)"><tspan x="0" y="0">Ensemble Dimension</tspan></text><g><line class="g" x1="19.89" y1="86.75" x2="19.89" y2="198.35"/><polygon points="14.08 194.39 19.89 216.07 25.7 194.39 14.08 194.39"/></g><g><line class="g" x1="244.28" y1="129.17" x2="244.28" y2="198.35"/><polygon points="238.47 194.39 244.28 216.07 250.09 194.39 238.47 194.39"/></g><g><line class="g" x1="468.45" y1="129.38" x2="468.45" y2="198.35"/><polygon points="462.64 194.39 468.45 216.07 474.26 194.39 462.64 194.39"/></g><g><line class="g" x1="20" y1="128.97" x2="612.13" y2="128.97"/><polygon points="608.17 134.78 629.85 128.97 608.17 123.15 608.17 134.78"/></g><text class="c" transform="translate(644.03 132.89)"><tspan x="0" y="0">...</tspan></text><g/><g/><g><circle class="e" cx="57.21" cy="268.32" r="5.42"/><circle class="e" cx="19.83" cy="268.32" r="5.42"/><circle class="e" cx="38.52" cy="268.32" r="5.42"/><circle class="e" cx="75.9" cy="268.32" r="5.42"/></g><g><circle class="e" cx="131.97" cy="268.32" r="5.42"/><circle class="e" cx="94.59" cy="268.32" r="5.42"/><circle class="e" cx="113.28" cy="268.32" r="5.42"/><circle class="e" cx="150.66" cy="268.32" r="5.42"/></g><g><circle class="e" cx="206.73" cy="268.32" r="5.42"/><circle class="e" cx="169.35" cy="268.32" r="5.42"/><circle class="e" cx="188.04" cy="268.32" r="5.42"/><circle class="e" cx="225.42" cy="268.32" r="5.42"/></g><g><circle class="e" cx="281.49" cy="268.32" r="5.42"/><circle class="e" cx="244.11" cy="268.32" r="5.42"/><circle class="e" cx="262.8" cy="268.32" r="5.42"/><circle class="e" cx="300.18" cy="268.32" r="5.42"/></g><g><circle class="e" cx="356.25" cy="268.32" r="5.42"/><circle class="e" cx="318.87" cy="268.32" r="5.42"/><circle class="e" cx="337.56" cy="268.32" r="5.42"/><circle class="e" cx="374.94" cy="268.32" r="5.42"/></g><g><circle class="e" cx="431.01" cy="268.32" r="5.42"/><circle class="e" cx="393.63" cy="268.32" r="5.42"/><circle class="e" cx="412.32" cy="268.32" r="5.42"/><circle class="e" cx="449.7" cy="268.32" r="5.42"/></g><g><circle class="e" cx="505.77" cy="268.32" r="5.42"/><circle class="e" cx="468.39" cy="268.32" r="5.42"/><circle class="e" cx="487.08" cy="268.32" r="5.42"/><circle class="e" cx="524.46" cy="268.32" r="5.42"/></g><g><circle class="e" cx="580.68" cy="268.32" r="5.42"/><circle class="e" cx="543.3" cy="268.32" r="5.42"/><circle class="e" cx="561.99" cy="268.32" r="5.42"/><circle class="e" cx="599.37" cy="268.32" r="5.42"/></g><g><circle class="e" cx="655.59" cy="268.32" r="5.42"/><circle class="e" cx="618.21" cy="268.32" r="5.42"/><circle class="e" cx="636.9" cy="268.32" r="5.42"/><circle class="e" cx="674.28" cy="268.32" r="5.42"/></g><g><g><line class="h" x1="19.89" y1="216.07" x2="150.8" y2="216.07"/><g><line class="h" x1="57.32" y1="216.07" x2="57.32" y2="236.51"/><polygon class="j" points="51.51 232.55 57.32 254.23 63.14 232.55 51.51 232.55"/></g><g><line class="h" x1="150.8" y1="216.07" x2="150.8" y2="236.51"/><polygon class="j" points="144.99 232.55 150.8 254.23 156.61 232.55 144.99 232.55"/></g></g><text class="i" transform="translate(29.18 207.87)"><tspan x="0" y="0">Sequence Indices</tspan></text></g><g/><g/><g><g><line class="h" x1="244.07" y1="216.07" x2="374.98" y2="216.07"/><g><line class="h" x1="281.51" y1="216.07" x2="281.51" y2="236.51"/><polygon class="j" points="275.7 232.55 281.51 254.23 287.32 232.55 275.7 232.55"/></g><g><line class="h" x1="374.98" y1="216.07" x2="374.98" y2="236.51"/><polygon class="j" points="369.17 232.55 374.98 254.23 380.8 232.55 369.17 232.55"/></g></g><text class="i" transform="translate(253.36 207.87)"><tspan x="0" y="0">Sequence Indices</tspan></text></g><g><g><line class="h" x1="468.35" y1="216.07" x2="599.26" y2="216.07"/><g><line class="h" x1="505.79" y1="216.07" x2="505.79" y2="236.51"/><polygon class="j" points="499.98 232.55 505.79 254.23 511.6 232.55 499.98 232.55"/></g><g><line class="h" x1="599.26" y1="216.07" x2="599.26" y2="236.51"/><polygon class="j" points="593.45 232.55 599.26 254.23 605.07 232.55 593.45 232.55"/></g></g><text class="i" transform="translate(477.64 207.87)"><tspan x="0" y="0">Sequence Indices</tspan></text></g><rect class="f" x="29.14" y="258.97" width="56.15" height="18.69"/><rect class="f" x="122.59" y="258.97" width="56.15" height="18.69"/><rect class="f" x="253.53" y="258.97" width="56.15" height="18.69"/><rect class="f" x="347.01" y="258.97" width="56.15" height="18.69"/><rect class="f" x="477.79" y="258.97" width="56.15" height="18.69"/><rect class="f" x="571.19" y="258.97" width="56.15" height="18.69"/><text class="k" transform="translate(33.11 297.78)"><tspan x="0" y="0">Mean</tspan></text><text class="k" transform="translate(126.56 297.78)"><tspan x="0" y="0">Mean</tspan></text><text class="k" transform="translate(257.39 297.78)"><tspan x="0" y="0">Mean</tspan></text><text class="k" transform="translate(350.84 297.78)"><tspan x="0" y="0">Mean</tspan></text><text class="k" transform="translate(481.67 297.78)"><tspan x="0" y="0">Mean</tspan></text><text class="k" transform="translate(575.26 298.01)"><tspan x="0" y="0">Mean</tspan></text></svg>