<svg version="1.1" viewBox="0.0 0.0 960.0 540.0" fill="none" stroke="none" stroke-linecap="square" stroke-miterlimit="10" xmlns:xlink="http://www.w3.org/1999/xlink" xmlns="http://www.w3.org/2000/svg"><clipPath id="ga70579723f_0_27.0"><path d="m0 0l960.0 0l0 540.0l-960.0 0l0 -540.0z" clip-rule="nonzero"/></clipPath><g clip-path="url(#ga70579723f_0_27.0)"><path fill="#ffffff" d="m0 0l960.0 0l0 540.0l-960.0 0z" fill-rule="evenodd"/><path fill="#000000" fill-opacity="0.0" d="m0 202.7874l960.0 0l0 67.2126l-960.0 0z" fill-rule="evenodd"/><path fill="#000000" d="m9.84375 233.99428l2.5 -0.34375q0.109375 2.40625 0.90625 3.296875q0.8125 0.875 2.21875 0.875q1.046875 0 1.796875 -0.46875q0.765625 -0.484375 1.046875 -1.296875q0.296875 -0.828125 0.296875 -2.640625l0 -14.46875l2.78125 0l0 14.3125q0 2.640625 -0.640625 4.09375q-0.640625 1.4375 -2.03125 2.203125q-1.375 0.75 -3.234375 0.75q-2.765625 0 -4.234375 -1.59375q-1.46875 -1.59375 -1.40625 -4.71875zm25.726562 5.953125l0 -2.234375q-1.78125 2.578125 -4.828125 2.578125q-1.34375 0 -2.515625 -0.515625q-1.171875 -0.515625 -1.734375 -1.296875q-0.5625 -0.78125 -0.796875 -1.90625q-0.15625 -0.765625 -0.15625 -2.40625l0 -9.421875l2.578125 0l0 8.421875q0 2.03125 0.15625 2.734375q0.25 1.015625 1.03125 1.59375q0.796875 0.578125 1.953125 0.578125q1.15625 0 2.171875 -0.59375q1.015625 -0.59375 1.4375 -1.609375q0.421875 -1.03125 0.421875 -2.984375l0 -8.140625l2.578125 0l0 15.203125l-2.296875 0zm6.342163 0l0 -15.203125l2.3125 0l0 2.15625q1.671875 -2.5 4.84375 -2.5q1.375 0 2.53125 0.5q1.15625 0.484375 1.71875 1.296875q0.578125 0.796875 0.8125 1.890625q0.140625 0.71875 0.140625 2.515625l0 9.34375l-2.578125 0l0 -9.25q0 -1.578125 -0.3125 -2.359375q-0.296875 -0.78125 -1.0625 -1.234375q-0.765625 -0.46875 -1.796875 -0.46875q-1.640625 0 -2.84375 1.046875q-1.1875 1.03125 -1.1875 3.953125l0 8.3125l-2.578125 0zm26.717163 -4.890625l2.65625 0.328125q-0.625 2.328125 -2.328125 3.625q-1.703125 1.28125 -4.359375 1.28125q-3.328125 0 -5.28125 -2.046875q-1.953125 -2.0625 -1.953125 -5.765625q0 -3.84375 1.96875 -5.953125q1.984375 -2.125 5.125 -2.125q3.0625 0 4.984375 2.078125q1.9375 2.0625 1.9375 5.84375q0 0.21875 -0.015625 0.671875l-11.34375 0q0.140625 2.515625 1.421875 3.84375q1.28125 1.328125 3.171875 1.328125q1.421875 0 2.421875 -0.734375q1.0 -0.75 1.59375 -2.375zm-8.46875 -4.171875l8.5 0q-0.171875 -1.921875 -0.96875 -2.875q-1.234375 -1.5 -3.203125 -1.5q-1.765625 0 -2.984375 1.1875q-1.203125 1.1875 -1.34375 3.1875zm25.771713 -2.328125q-1.609375 -0.578125 -2.390625 -1.671875q-0.765625 -1.09375 -0.765625 -2.609375q0 -2.28125 1.640625 -3.84375q1.65625 -1.5625 4.390625 -1.5625q2.75 0 4.421875 1.59375q1.671875 1.59375 1.671875 3.890625q0 1.453125 -0.765625 2.546875q-0.765625 1.078125 -2.328125 1.65625q1.9375 0.640625 2.9375 2.046875q1.015625 1.390625 1.015625 3.34375q0 2.6875 -1.90625 4.53125q-1.890625 1.828125 -5.0 1.828125q-3.109375 0 -5.015625 -1.84375q-1.90625 -1.84375 -1.90625 -4.59375q0 -2.046875 1.03125 -3.421875q1.046875 -1.390625 2.96875 -1.890625zm-0.515625 -4.359375q0 1.484375 0.953125 2.4375q0.96875 0.9375 2.5 0.9375q1.484375 0 2.4375 -0.9375q0.953125 -0.9375 0.953125 -2.296875q0 -1.421875 -0.984375 -2.375q-0.984375 -0.96875 -2.4375 -0.96875q-1.484375 0 -2.453125 0.953125q-0.96875 0.9375 -0.96875 2.25zm-0.828125 9.6875q0 1.109375 0.515625 2.140625q0.53125 1.03125 1.5625 1.59375q1.03125 0.5625 2.21875 0.5625q1.84375 0 3.046875 -1.1875q1.203125 -1.1875 1.203125 -3.015625q0 -1.859375 -1.25 -3.078125q-1.234375 -1.21875 -3.09375 -1.21875q-1.8125 0 -3.015625 1.203125q-1.1875 1.203125 -1.1875 3.0zm13.685913 0.5625l2.703125 -0.234375q0.296875 1.984375 1.390625 2.984375q1.109375 0.984375 2.65625 0.984375q1.859375 0 3.140625 -1.390625q1.296875 -1.40625 1.296875 -3.734375q0 -2.203125 -1.25 -3.46875q-1.234375 -1.28125 -3.234375 -1.28125q-1.25 0 -2.25 0.5625q-1.0 0.5625 -1.578125 1.46875l-2.421875 -0.3125l2.03125 -10.78125l10.453125 0l0 2.453125l-8.390625 0l-1.125 5.640625q1.890625 -1.3125 3.96875 -1.3125q2.75 0 4.640625 1.90625q1.890625 1.90625 1.890625 4.890625q0 2.859375 -1.671875 4.9375q-2.015625 2.546875 -5.5 2.546875q-2.875 0 -4.6875 -1.59375q-1.8125 -1.609375 -2.0625 -4.265625zm16.310913 -4.859375q0 -3.71875 0.765625 -5.984375q0.765625 -2.265625 2.265625 -3.5q1.515625 -1.234375 3.8125 -1.234375q1.6875 0 2.953125 0.6875q1.28125 0.671875 2.109375 1.953125q0.84375 1.28125 1.3125 3.125q0.46875 1.84375 0.46875 4.953125q0 3.703125 -0.765625 5.96875q-0.75 2.265625 -2.265625 3.515625q-1.5 1.234375 -3.8125 1.234375q-3.03125 0 -4.765625 -2.171875q-2.078125 -2.625 -2.078125 -8.546875zm2.640625 0q0 5.171875 1.203125 6.890625q1.21875 1.703125 3.0 1.703125q1.78125 0 2.984375 -1.71875q1.21875 -1.71875 1.21875 -6.875q0 -5.171875 -1.21875 -6.875q-1.203125 -1.71875 -3.015625 -1.71875q-1.765625 0 -2.828125 1.515625q-1.34375 1.921875 -1.34375 7.078125zm15.060913 10.359375l0 -2.9375l2.9375 0l0 2.9375q0 1.625 -0.578125 2.609375q-0.578125 1.0 -1.8125 1.546875l-0.71875 -1.109375q0.8125 -0.359375 1.203125 -1.0625q0.390625 -0.6875 0.421875 -1.984375l-1.453125 0zm22.679276 -5.953125l2.5 -0.34375q0.109375 2.40625 0.90625 3.296875q0.8125 0.875 2.21875 0.875q1.046875 0 1.796875 -0.46875q0.765625 -0.484375 1.046875 -1.296875q0.296875 -0.828125 0.296875 -2.640625l0 -14.46875l2.78125 0l0 14.3125q0 2.640625 -0.640625 4.09375q-0.640625 1.4375 -2.03125 2.203125q-1.375 0.75 -3.234375 0.75q-2.765625 0 -4.234375 -1.59375q-1.46875 -1.59375 -1.40625 -4.71875zm25.726562 5.953125l0 -2.234375q-1.78125 2.578125 -4.828125 2.578125q-1.34375 0 -2.515625 -0.515625q-1.171875 -0.515625 -1.734375 -1.296875q-0.5625 -0.78125 -0.796875 -1.90625q-0.15625 -0.765625 -0.15625 -2.40625l0 -9.421875l2.578125 0l0 8.421875q0 2.03125 0.15625 2.734375q0.25 1.015625 1.03125 1.59375q0.796875 0.578125 1.953125 0.578125q1.15625 0 2.171875 -0.59375q1.015625 -0.59375 1.4375 -1.609375q0.421875 -1.03125 0.421875 -2.984375l0 -8.140625l2.578125 0l0 15.203125l-2.296875 0zm6.342163 0l0 -15.203125l2.3125 0l0 2.15625q1.671875 -2.5 4.84375 -2.5q1.375 0 2.53125 0.5q1.15625 0.484375 1.71875 1.296875q0.578125 0.796875 0.8125 1.890625q0.140625 0.71875 0.140625 2.515625l0 9.34375l-2.578125 0l0 -9.25q0 -1.578125 -0.3125 -2.359375q-0.296875 -0.78125 -1.0625 -1.234375q-0.765625 -0.46875 -1.796875 -0.46875q-1.640625 0 -2.84375 1.046875q-1.1875 1.03125 -1.1875 3.953125l0 8.3125l-2.578125 0zm26.717163 -4.890625l2.65625 0.328125q-0.625 2.328125 -2.328125 3.625q-1.703125 1.28125 -4.359375 1.28125q-3.328125 0 -5.28125 -2.046875q-1.953125 -2.0625 -1.953125 -5.765625q0 -3.84375 1.96875 -5.953125q1.984375 -2.125 5.125 -2.125q3.0625 0 4.984375 2.078125q1.9375 2.0625 1.9375 5.84375q0 0.21875 -0.015625 0.671875l-11.34375 0q0.140625 2.515625 1.421875 3.84375q1.28125 1.328125 3.171875 1.328125q1.421875 0 2.421875 -0.734375q1.0 -0.75 1.59375 -2.375zm-8.46875 -4.171875l8.5 0q-0.171875 -1.921875 -0.96875 -2.875q-1.234375 -1.5 -3.203125 -1.5q-1.765625 0 -2.984375 1.1875q-1.203125 1.1875 -1.34375 3.1875zm25.771713 -2.328125q-1.609375 -0.578125 -2.390625 -1.671875q-0.765625 -1.09375 -0.765625 -2.609375q0 -2.28125 1.640625 -3.84375q1.65625 -1.5625 4.390625 -1.5625q2.75 0 4.421875 1.59375q1.671875 1.59375 1.671875 3.890625q0 1.453125 -0.765625 2.546875q-0.765625 1.078125 -2.328125 1.65625q1.9375 0.640625 2.9375 2.046875q1.015625 1.390625 1.015625 3.34375q0 2.6875 -1.90625 4.53125q-1.890625 1.828125 -5.0 1.828125q-3.109375 0 -5.015625 -1.84375q-1.90625 -1.84375 -1.90625 -4.59375q0 -2.046875 1.03125 -3.421875q1.046875 -1.390625 2.96875 -1.890625zm-0.515625 -4.359375q0 1.484375 0.953125 2.4375q0.96875 0.9375 2.5 0.9375q1.484375 0 2.4375 -0.9375q0.953125 -0.9375 0.953125 -2.296875q0 -1.421875 -0.984375 -2.375q-0.984375 -0.96875 -2.4375 -0.96875q-1.484375 0 -2.453125 0.953125q-0.96875 0.9375 -0.96875 2.25zm-0.828125 9.6875q0 1.109375 0.515625 2.140625q0.53125 1.03125 1.5625 1.59375q1.03125 0.5625 2.21875 0.5625q1.84375 0 3.046875 -1.1875q1.203125 -1.1875 1.203125 -3.015625q0 -1.859375 -1.25 -3.078125q-1.234375 -1.21875 -3.09375 -1.21875q-1.8125 0 -3.015625 1.203125q-1.1875 1.203125 -1.1875 3.0zm13.685913 0.5625l2.703125 -0.234375q0.296875 1.984375 1.390625 2.984375q1.109375 0.984375 2.65625 0.984375q1.859375 0 3.140625 -1.390625q1.296875 -1.40625 1.296875 -3.734375q0 -2.203125 -1.25 -3.46875q-1.234375 -1.28125 -3.234375 -1.28125q-1.25 0 -2.25 0.5625q-1.0 0.5625 -1.578125 1.46875l-2.421875 -0.3125l2.03125 -10.78125l10.45314 0l0 2.453125l-8.39064 0l-1.125 5.640625q1.890625 -1.3125 3.96875 -1.3125q2.75 0 4.640625 1.90625q1.8906403 1.90625 1.8906403 4.890625q0 2.859375 -1.6718903 4.9375q-2.015625 2.546875 -5.5 2.546875q-2.875 0 -4.6875 -1.59375q-1.8125 -1.609375 -2.0625 -4.265625zm26.014053 5.5l-2.578125 0l0 -16.421875q-0.921875 0.890625 -2.4375 1.78125q-1.515625 0.875 -2.71875 1.328125l0 -2.5q2.171875 -1.015625 3.78125 -2.453125q1.625 -1.453125 2.296875 -2.8125l1.65625 0l0 21.078125zm7.998413 0l0 -2.9375l2.9375 0l0 2.9375q0 1.625 -0.578125 2.609375q-0.578125 1.0 -1.8125 1.546875l-0.71875 -1.109375q0.8125 -0.359375 1.203125 -1.0625q0.390625 -0.6875 0.421875 -1.984375l-1.453125 0zm22.679321 -5.953125l2.5 -0.34375q0.109375 2.40625 0.90625 3.296875q0.8125 0.875 2.21875 0.875q1.046875 0 1.796875 -0.46875q0.765625 -0.484375 1.046875 -1.296875q0.296875 -0.828125 0.296875 -2.640625l0 -14.46875l2.78125 0l0 14.3125q0 2.640625 -0.640625 4.09375q-0.640625 1.4375 -2.03125 2.203125q-1.375 0.75 -3.234375 0.75q-2.765625 0 -4.234375 -1.59375q-1.46875 -1.59375 -1.40625 -4.71875zm25.726562 5.953125l0 -2.234375q-1.78125 2.578125 -4.828125 2.578125q-1.34375 0 -2.515625 -0.515625q-1.171875 -0.515625 -1.734375 -1.296875q-0.5625 -0.78125 -0.796875 -1.90625q-0.15625 -0.765625 -0.15625 -2.40625l0 -9.421875l2.578125 0l0 8.421875q0 2.03125 0.15625 2.734375q0.25 1.015625 1.03125 1.59375q0.796875 0.578125 1.953125 0.578125q1.15625 0 2.171875 -0.59375q1.015625 -0.59375 1.4375 -1.609375q0.421875 -1.03125 0.421875 -2.984375l0 -8.140625l2.578125 0l0 15.203125l-2.296875 0zm6.342163 0l0 -15.203125l2.3125 0l0 2.15625q1.671875 -2.5 4.84375 -2.5q1.375 0 2.53125 0.5q1.15625 0.484375 1.71875 1.296875q0.578125 0.796875 0.8125 1.890625q0.140625 0.71875 0.140625 2.515625l0 9.34375l-2.578125 0l0 -9.25q0 -1.578125 -0.3125 -2.359375q-0.296875 -0.78125 -1.0625 -1.234375q-0.765625 -0.46875 -1.796875 -0.46875q-1.640625 0 -2.84375 1.046875q-1.1875 1.03125 -1.1875 3.953125l0 8.3125l-2.578125 0zm26.717163 -4.890625l2.65625 0.328125q-0.625 2.328125 -2.328125 3.625q-1.703125 1.28125 -4.359375 1.28125q-3.328125 0 -5.28125 -2.046875q-1.953125 -2.0625 -1.953125 -5.765625q0 -3.84375 1.96875 -5.953125q1.984375 -2.125 5.125 -2.125q3.0625 0 4.984375 2.078125q1.9375 2.0625 1.9375 5.84375q0 0.21875 -0.015625 0.671875l-11.34375 0q0.140625 2.515625 1.421875 3.84375q1.28125 1.328125 3.171875 1.328125q1.421875 0 2.421875 -0.734375q1.0 -0.75 1.59375 -2.375zm-8.46875 -4.171875l8.5 0q-0.171875 -1.921875 -0.96875 -2.875q-1.234375 -1.5 -3.203125 -1.5q-1.765625 0 -2.984375 1.1875q-1.203125 1.1875 -1.34375 3.1875zm25.771729 -2.328125q-1.609375 -0.578125 -2.390625 -1.671875q-0.765625 -1.09375 -0.765625 -2.609375q0 -2.28125 1.640625 -3.84375q1.65625 -1.5625 4.390625 -1.5625q2.75 0 4.421875 1.59375q1.671875 1.59375 1.671875 3.890625q0 1.453125 -0.765625 2.546875q-0.765625 1.078125 -2.328125 1.65625q1.9375 0.640625 2.9375 2.046875q1.015625 1.390625 1.015625 3.34375q0 2.6875 -1.90625 4.53125q-1.890625 1.828125 -5.0 1.828125q-3.109375 0 -5.015625 -1.84375q-1.90625 -1.84375 -1.90625 -4.59375q0 -2.046875 1.03125 -3.421875q1.046875 -1.390625 2.96875 -1.890625zm-0.515625 -4.359375q0 1.484375 0.953125 2.4375q0.96875 0.9375 2.5 0.9375q1.484375 0 2.4375 -0.9375q0.953125 -0.9375 0.953125 -2.296875q0 -1.421875 -0.984375 -2.375q-0.984375 -0.96875 -2.4375 -0.96875q-1.484375 0 -2.453125 0.953125q-0.96875 0.9375 -0.96875 2.25zm-0.828125 9.6875q0 1.109375 0.515625 2.140625q0.53125 1.03125 1.5625 1.59375q1.03125 0.5625 2.21875 0.5625q1.84375 0 3.046875 -1.1875q1.203125 -1.1875 1.203125 -3.015625q0 -1.859375 -1.25 -3.078125q-1.234375 -1.21875 -3.09375 -1.21875q-1.8125 0 -3.015625 1.203125q-1.1875 1.203125 -1.1875 3.0zm13.685913 0.5625l2.703125 -0.234375q0.296875 1.984375 1.390625 2.984375q1.109375 0.984375 2.65625 0.984375q1.859375 0 3.140625 -1.390625q1.296875 -1.40625 1.296875 -3.734375q0 -2.203125 -1.25 -3.46875q-1.234375 -1.28125 -3.234375 -1.28125q-1.25 0 -2.25 0.5625q-1.0 0.5625 -1.578125 1.46875l-2.421875 -0.3125l2.03125 -10.78125l10.453125 0l0 2.453125l-8.390625 0l-1.125 5.640625q1.890625 -1.3125 3.96875 -1.3125q2.75 0 4.640625 1.90625q1.890625 1.90625 1.890625 4.890625q0 2.859375 -1.671875 4.9375q-2.015625 2.546875 -5.5 2.546875q-2.875 0 -4.6875 -1.59375q-1.8125 -1.609375 -2.0625 -4.265625zm29.857788 3.015625l0 2.484375l-13.875 0q-0.03125 -0.9375 0.296875 -1.796875q0.53125 -1.40625 1.6875 -2.78125q1.171875 -1.375 3.390625 -3.1875q3.421875 -2.796875 4.625 -4.4375q1.203125 -1.640625 1.203125 -3.109375q0 -1.53125 -1.109375 -2.578125q-1.09375 -1.0625 -2.84375 -1.0625q-1.875 0 -3.0 1.125q-1.109375 1.109375 -1.109375 3.09375l-2.65625 -0.265625q0.265625 -2.96875 2.046875 -4.515625q1.78125 -1.5625 4.765625 -1.5625q3.03125 0 4.78125 1.671875q1.765625 1.671875 1.765625 4.15625q0 1.265625 -0.515625 2.484375q-0.515625 1.203125 -1.71875 2.5625q-1.1875 1.34375 -3.96875 3.6875q-2.3125 1.953125 -2.984375 2.65625q-0.65625 0.6875 -1.078125 1.375l10.296875 0zm4.154663 2.484375l0 -2.9375l2.9375 0l0 2.9375q0 1.625 -0.578125 2.609375q-0.578125 1.0 -1.8125 1.546875l-0.71875 -1.109375q0.8125 -0.359375 1.203125 -1.0625q0.390625 -0.6875 0.421875 -1.984375l-1.453125 0zm17.10913 0l0 -2.9375l2.9375 0l0 2.9375l-2.9375 0zm9.78125 0l0 -2.9375l2.9375 0l0 2.9375l-2.9375 0zm9.765625 0l0 -2.9375l2.953125 0l0 2.9375l-2.953125 0zm8.96875 0l0 -2.9375l2.9375 0l0 2.9375q0 1.625 -0.578125 2.609375q-0.578125 1.0 -1.8125 1.546875l-0.71875 -1.109375q0.8125 -0.359375 1.203125 -1.0625q0.390625 -0.6875 0.421875 -1.984375l-1.453125 0zm14.531006 -5.953125l2.5 -0.34375q0.109375 2.40625 0.90625 3.296875q0.8125 0.875 2.21875 0.875q1.046875 0 1.796875 -0.46875q0.765625 -0.484375 1.046875 -1.296875q0.296875 -0.828125 0.296875 -2.640625l0 -14.46875l2.78125 0l0 14.3125q0 2.640625 -0.640625 4.09375q-0.640625 1.4375 -2.03125 2.203125q-1.375 0.75 -3.234375 0.75q-2.765625 0 -4.234375 -1.59375q-1.46875 -1.59375 -1.40625 -4.71875zm25.726562 5.953125l0 -2.234375q-1.78125 2.578125 -4.828125 2.578125q-1.34375 0 -2.515625 -0.515625q-1.171875 -0.515625 -1.734375 -1.296875q-0.5625 -0.78125 -0.796875 -1.90625q-0.15625 -0.765625 -0.15625 -2.40625l0 -9.421875l2.578125 0l0 8.421875q0 2.03125 0.15625 2.734375q0.25 1.015625 1.03125 1.59375q0.796875 0.578125 1.953125 0.578125q1.15625 0 2.171875 -0.59375q1.015625 -0.59375 1.4375 -1.609375q0.421875 -1.03125 0.421875 -2.984375l0 -8.140625l2.578125 0l0 15.203125l-2.296875 0zm6.342163 0l0 -15.203125l2.3125 0l0 2.15625q1.671875 -2.5 4.84375 -2.5q1.375 0 2.53125 0.5q1.15625 0.484375 1.71875 1.296875q0.578125 0.796875 0.8125 1.890625q0.140625 0.71875 0.140625 2.515625l0 9.34375l-2.578125 0l0 -9.25q0 -1.578125 -0.3125 -2.359375q-0.296875 -0.78125 -1.0625 -1.234375q-0.765625 -0.46875 -1.796875 -0.46875q-1.640625 0 -2.84375 1.046875q-1.1875 1.03125 -1.1875 3.953125l0 8.3125l-2.578125 0zm26.717163 -4.890625l2.65625 0.328125q-0.625 2.328125 -2.328125 3.625q-1.703125 1.28125 -4.359375 1.28125q-3.328125 0 -5.28125 -2.046875q-1.953125 -2.0625 -1.953125 -5.765625q0 -3.84375 1.96875 -5.953125q1.984375 -2.125 5.125 -2.125q3.0625 0 4.984375 2.078125q1.9375 2.0625 1.9375 5.84375q0 0.21875 -0.015625 0.671875l-11.34375 0q0.140625 2.515625 1.421875 3.84375q1.28125 1.328125 3.171875 1.328125q1.421875 0 2.421875 -0.734375q1.0 -0.75 1.59375 -2.375zm-8.46875 -4.171875l8.5 0q-0.171875 -1.921875 -0.96875 -2.875q-1.234375 -1.5 -3.203125 -1.5q-1.765625 0 -2.984375 1.1875q-1.203125 1.1875 -1.34375 3.1875zm35.349854 6.578125l0 2.484375l-13.875 0q-0.03125 -0.9375 0.296875 -1.796875q0.53125 -1.40625 1.6875 -2.78125q1.171875 -1.375 3.390625 -3.1875q3.421875 -2.796875 4.625 -4.4375q1.203125 -1.640625 1.203125 -3.109375q0 -1.53125 -1.109375 -2.578125q-1.09375 -1.0625 -2.84375 -1.0625q-1.875 0 -3.0 1.125q-1.109375 1.109375 -1.109375 3.09375l-2.65625 -0.265625q0.265625 -2.96875 2.046875 -4.515625q1.78125 -1.5625 4.765625 -1.5625q3.03125 0 4.78125 1.671875q1.765625 1.671875 1.765625 4.15625q0 1.265625 -0.515625 2.484375q-0.515625 1.203125 -1.71875 2.5625q-1.1875 1.34375 -3.96875 3.6875q-2.3125 1.953125 -2.984375 2.65625q-0.65625 0.6875 -1.078125 1.375l10.296875 0zm2.764038 -7.875q0 -3.71875 0.765625 -5.984375q0.765625 -2.265625 2.265625 -3.5q1.515625 -1.234375 3.8125 -1.234375q1.6875 0 2.953125 0.6875q1.28125 0.671875 2.109375 1.953125q0.84375 1.28125 1.3125 3.125q0.46875 1.84375 0.46875 4.953125q0 3.703125 -0.765625 5.96875q-0.75 2.265625 -2.265625 3.515625q-1.5 1.234375 -3.8125 1.234375q-3.03125 0 -4.765625 -2.171875q-2.078125 -2.625 -2.078125 -8.546875zm2.640625 0q0 5.171875 1.203125 6.890625q1.21875 1.703125 3.0 1.703125q1.78125 0 2.984375 -1.71875q1.21875 -1.71875 1.21875 -6.875q0 -5.171875 -1.21875 -6.875q-1.203125 -1.71875 -3.015625 -1.71875q-1.765625 0 -2.828125 1.515625q-1.34375 1.921875 -1.34375 7.078125zm13.670288 0q0 -3.71875 0.765625 -5.984375q0.765625 -2.265625 2.265625 -3.5q1.515625 -1.234375 3.8125 -1.234375q1.6875 0 2.953125 0.6875q1.28125 0.671875 2.109375 1.953125q0.84375 1.28125 1.3125 3.125q0.46875 1.84375 0.46875 4.953125q0 3.703125 -0.765625 5.96875q-0.75 2.265625 -2.265625 3.515625q-1.5 1.234375 -3.8125 1.234375q-3.03125 0 -4.765625 -2.171875q-2.078125 -2.625 -2.078125 -8.546875zm2.640625 0q0 5.171875 1.203125 6.890625q1.21875 1.703125 3.0 1.703125q1.78125 0 2.984375 -1.71875q1.21875 -1.71875 1.21875 -6.875q0 -5.171875 -1.21875 -6.875q-1.203125 -1.71875 -3.015625 -1.71875q-1.765625 0 -2.828125 1.515625q-1.34375 1.921875 -1.34375 7.078125zm13.685913 4.8125l2.578125 -0.34375q0.4375 2.203125 1.5 3.171875q1.078125 0.953125 2.609375 0.953125q1.8125 0 3.0625 -1.25q1.265625 -1.265625 1.265625 -3.125q0 -1.78125 -1.171875 -2.921875q-1.15625 -1.15625 -2.9375 -1.15625q-0.734375 0 -1.828125 0.28125l0.296875 -2.265625q0.25 0.03125 0.40625 0.03125q1.640625 0 2.953125 -0.859375q1.328125 -0.859375 1.328125 -2.65625q0 -1.40625 -0.96875 -2.328125q-0.953125 -0.9375 -2.46875 -0.9375q-1.5 0 -2.5 0.953125q-1.0 0.9375 -1.296875 2.828125l-2.578125 -0.46875q0.484375 -2.59375 2.15625 -4.015625q1.671875 -1.421875 4.15625 -1.421875q1.71875 0 3.171875 0.734375q1.453125 0.734375 2.21875 2.015625q0.765625 1.265625 0.765625 2.703125q0 1.359375 -0.734375 2.484375q-0.734375 1.109375 -2.15625 1.765625q1.859375 0.4375 2.890625 1.796875q1.03125 1.34375 1.03125 3.375q0 2.75 -2.015625 4.671875q-2.0 1.90625 -5.0625 1.90625q-2.765625 0 -4.59375 -1.640625q-1.828125 -1.65625 -2.078125 -4.28125zm17.685913 5.546875l0 -2.9375l2.9375 0l0 2.9375q0 1.625 -0.578125 2.609375q-0.578125 1.0 -1.8125 1.546875l-0.71875 -1.109375q0.8125 -0.359375 1.203125 -1.0625q0.390625 -0.6875 0.421875 -1.984375l-1.453125 0zm22.679321 -5.953125l2.5 -0.34375q0.109375 2.40625 0.90625 3.296875q0.8125 0.875 2.21875 0.875q1.046875 0 1.796875 -0.46875q0.765625 -0.484375 1.046875 -1.296875q0.296875 -0.828125 0.296875 -2.640625l0 -14.46875l2.78125 0l0 14.3125q0 2.640625 -0.640625 4.09375q-0.640625 1.4375 -2.03125 2.203125q-1.375 0.75 -3.234375 0.75q-2.765625 0 -4.234375 -1.59375q-1.46875 -1.59375 -1.40625 -4.71875zm25.726562 5.953125l0 -2.234375q-1.78125 2.578125 -4.828125 2.578125q-1.34375 0 -2.515625 -0.515625q-1.171875 -0.515625 -1.734375 -1.296875q-0.5625 -0.78125 -0.796875 -1.90625q-0.15625 -0.765625 -0.15625 -2.40625l0 -9.421875l2.578125 0l0 8.421875q0 2.03125 0.15625 2.734375q0.25 1.015625 1.03125 1.59375q0.796875 0.578125 1.953125 0.578125q1.15625 0 2.171875 -0.59375q1.015625 -0.59375 1.4375 -1.609375q0.421875 -1.03125 0.421875 -2.984375l0 -8.140625l2.578125 0l0 15.203125l-2.296875 0zm6.342163 0l0 -15.203125l2.3125 0l0 2.15625q1.671875 -2.5 4.84375 -2.5q1.375 0 2.53125 0.5q1.15625 0.484375 1.71875 1.296875q0.578125 0.796875 0.8125 1.890625q0.140625 0.71875 0.140625 2.515625l0 9.34375l-2.578125 0l0 -9.25q0 -1.578125 -0.3125 -2.359375q-0.296875 -0.78125 -1.0625 -1.234375q-0.765625 -0.46875 -1.796875 -0.46875q-1.640625 0 -2.84375 1.046875q-1.1875 1.03125 -1.1875 3.953125l0 8.3125l-2.578125 0zm26.717163 -4.890625l2.65625 0.328125q-0.625 2.328125 -2.328125 3.625q-1.703125 1.28125 -4.359375 1.28125q-3.328125 0 -5.28125 -2.046875q-1.953125 -2.0625 -1.953125 -5.765625q0 -3.84375 1.96875 -5.953125q1.984375 -2.125 5.125 -2.125q3.0625 0 4.984375 2.078125q1.9375 2.0625 1.9375 5.84375q0 0.21875 -0.015625 0.671875l-11.34375 0q0.140625 2.515625 1.421875 3.84375q1.28125 1.328125 3.171875 1.328125q1.421875 0 2.421875 -0.734375q1.0 -0.75 1.59375 -2.375zm-8.46875 -4.171875l8.5 0q-0.171875 -1.921875 -0.96875 -2.875q-1.234375 -1.5 -3.203125 -1.5q-1.765625 0 -2.984375 1.1875q-1.203125 1.1875 -1.34375 3.1875zm35.349854 6.578125l0 2.484375l-13.875 0q-0.03125 -0.9375 0.296875 -1.796875q0.53125 -1.40625 1.6875 -2.78125q1.171875 -1.375 3.390625 -3.1875q3.421875 -2.796875 4.625 -4.4375q1.203125 -1.640625 1.203125 -3.109375q0 -1.53125 -1.109375 -2.578125q-1.09375 -1.0625 -2.84375 -1.0625q-1.875 0 -3.0 1.125q-1.109375 1.109375 -1.109375 3.09375l-2.65625 -0.265625q0.265625 -2.96875 2.046875 -4.515625q1.78125 -1.5625 4.765625 -1.5625q3.03125 0 4.78125 1.671875q1.765625 1.671875 1.765625 4.15625q0 1.265625 -0.515625 2.484375q-0.515625 1.203125 -1.71875 2.5625q-1.1875 1.34375 -3.96875 3.6875q-2.3125 1.953125 -2.984375 2.65625q-0.65625 0.6875 -1.078125 1.375l10.296875 0zm2.764038 -7.875q0 -3.71875 0.765625 -5.984375q0.765625 -2.265625 2.265625 -3.5q1.515625 -1.234375 3.8125 -1.234375q1.6875 0 2.953125 0.6875q1.28125 0.671875 2.109375 1.953125q0.84375 1.28125 1.3125 3.125q0.46875 1.84375 0.46875 4.953125q0 3.703125 -0.765625 5.96875q-0.75 2.265625 -2.265625 3.515625q-1.5 1.234375 -3.8125 1.234375q-3.03125 0 -4.765625 -2.171875q-2.078125 -2.625 -2.078125 -8.546875zm2.640625 0q0 5.171875 1.203125 6.890625q1.21875 1.703125 3.0 1.703125q1.78125 0 2.984375 -1.71875q1.21875 -1.71875 1.21875 -6.875q0 -5.171875 -1.21875 -6.875q-1.203125 -1.71875 -3.015625 -1.71875q-1.765625 0 -2.828125 1.515625q-1.34375 1.921875 -1.34375 7.078125zm13.670288 0q0 -3.71875 0.765625 -5.984375q0.765625 -2.265625 2.265625 -3.5q1.515625 -1.234375 3.8125 -1.234375q1.6875 0 2.953125 0.6875q1.28125 0.671875 2.109375 1.953125q0.84375 1.28125 1.3125 3.125q0.46875 1.84375 0.46875 4.953125q0 3.703125 -0.765625 5.96875q-0.75 2.265625 -2.265625 3.515625q-1.5 1.234375 -3.8125 1.234375q-3.03125 0 -4.765625 -2.171875q-2.078125 -2.625 -2.078125 -8.546875zm2.640625 0q0 5.171875 1.203125 6.890625q1.21875 1.703125 3.0 1.703125q1.78125 0 2.984375 -1.71875q1.21875 -1.71875 1.21875 -6.875q0 -5.171875 -1.21875 -6.875q-1.203125 -1.71875 -3.015625 -1.71875q-1.765625 0 -2.828125 1.515625q-1.34375 1.921875 -1.34375 7.078125zm21.935913 10.359375l0 -5.03125l-9.109375 0l0 -2.359375l9.578125 -13.609375l2.109375 0l0 13.609375l2.828125 0l0 2.359375l-2.828125 0l0 5.03125l-2.578125 0zm0 -7.390625l0 -9.46875l-6.578125 9.46875l6.578125 0zm9.435913 7.390625l0 -2.9375l2.9375 0l0 2.9375q0 1.625 -0.578125 2.609375q-0.578125 1.0 -1.8125 1.546875l-0.71875 -1.109375q0.8125 -0.359375 1.203125 -1.0625q0.390625 -0.6875 0.421875 -1.984375l-1.453125 0zm22.679321 -5.953125l2.5 -0.34375q0.109375 2.40625 0.90625 3.296875q0.8125 0.875 2.21875 0.875q1.046875 0 1.796875 -0.46875q0.765625 -0.484375 1.046875 -1.296875q0.296875 -0.828125 0.296875 -2.640625l0 -14.46875l2.78125 0l0 14.3125q0 2.640625 -0.640625 4.09375q-0.640625 1.4375 -2.03125 2.203125q-1.375 0.75 -3.234375 0.75q-2.765625 0 -4.234375 -1.59375q-1.46875 -1.59375 -1.40625 -4.71875zm25.726562 5.953125l0 -2.234375q-1.78125 2.578125 -4.828125 2.578125q-1.34375 0 -2.515625 -0.515625q-1.171875 -0.515625 -1.734375 -1.296875q-0.5625 -0.78125 -0.796875 -1.90625q-0.15625 -0.765625 -0.15625 -2.40625l0 -9.421875l2.578125 0l0 8.421875q0 2.03125 0.15625 2.734375q0.25 1.015625 1.03125 1.59375q0.796875 0.578125 1.953125 0.578125q1.15625 0 2.171875 -0.59375q1.015625 -0.59375 1.4375 -1.609375q0.421875 -1.03125 0.421875 -2.984375l0 -8.140625l2.578125 0l0 15.203125l-2.296875 0zm6.342163 0l0 -15.203125l2.3125 0l0 2.15625q1.671875 -2.5 4.84375 -2.5q1.375 0 2.53125 0.5q1.15625 0.484375 1.71875 1.296875q0.578125 0.796875 0.8125 1.890625q0.140625 0.71875 0.140625 2.515625l0 9.34375l-2.578125 0l0 -9.25q0 -1.578125 -0.3125 -2.359375q-0.296875 -0.78125 -1.0625 -1.234375q-0.765625 -0.46875 -1.796875 -0.46875q-1.640625 0 -2.84375 1.046875q-1.1875 1.03125 -1.1875 3.953125l0 8.3125l-2.578125 0zm26.717163 -4.890625l2.65625 0.328125q-0.625 2.328125 -2.328125 3.625q-1.703125 1.28125 -4.359375 1.28125q-3.328125 0 -5.28125 -2.046875q-1.953125 -2.0625 -1.953125 -5.765625q0 -3.84375 1.96875 -5.953125q1.984375 -2.125 5.125 -2.125q3.0625 0 4.984375 2.078125q1.9375 2.0625 1.9375 5.84375q0 0.21875 -0.015625 0.671875l-11.34375 0q0.140625 2.515625 1.421875 3.84375q1.28125 1.328125 3.171875 1.328125q1.421875 0 2.421875 -0.734375q1.0 -0.75 1.59375 -2.375zm-8.46875 -4.171875l8.5 0q-0.171875 -1.921875 -0.96875 -2.875q-1.234375 -1.5 -3.203125 -1.5q-1.765625 0 -2.984375 1.1875q-1.203125 1.1875 -1.34375 3.1875zm35.349854 6.578125l0 2.484375l-13.875 0q-0.03125 -0.9375 0.296875 -1.796875q0.53125 -1.40625 1.6875 -2.78125q1.171875 -1.375 3.390625 -3.1875q3.421875 -2.796875 4.625 -4.4375q1.203125 -1.640625 1.203125 -3.109375q0 -1.53125 -1.109375 -2.578125q-1.09375 -1.0625 -2.84375 -1.0625q-1.875 0 -3.0 1.125q-1.109375 1.109375 -1.109375 3.09375l-2.65625 -0.265625q0.265625 -2.96875 2.046875 -4.515625q1.78125 -1.5625 4.765625 -1.5625q3.03125 0 4.78125 1.671875q1.765625 1.671875 1.765625 4.15625q0 1.265625 -0.515625 2.484375q-0.515625 1.203125 -1.71875 2.5625q-1.1875 1.34375 -3.96875 3.6875q-2.3125 1.953125 -2.984375 2.65625q-0.65625 0.6875 -1.078125 1.375l10.296875 0zm2.764038 -7.875q0 -3.71875 0.765625 -5.984375q0.765625 -2.265625 2.265625 -3.5q1.515625 -1.234375 3.8125 -1.234375q1.6875 0 2.953125 0.6875q1.28125 0.671875 2.109375 1.953125q0.84375 1.28125 1.3125 3.125q0.46875 1.84375 0.46875 4.953125q0 3.703125 -0.765625 5.96875q-0.75 2.265625 -2.265625 3.515625q-1.5 1.234375 -3.8125 1.234375q-3.03125 0 -4.765625 -2.171875q-2.078125 -2.625 -2.078125 -8.546875zm2.640625 0q0 5.171875 1.203125 6.890625q1.21875 1.703125 3.0 1.703125q1.78125 0 2.984375 -1.71875q1.21875 -1.71875 1.21875 -6.875q0 -5.171875 -1.21875 -6.875q-1.203125 -1.71875 -3.015625 -1.71875q-1.765625 0 -2.828125 1.515625q-1.34375 1.921875 -1.34375 7.078125zm13.670288 0q0 -3.71875 0.765625 -5.984375q0.765625 -2.265625 2.265625 -3.5q1.515625 -1.234375 3.8125 -1.234375q1.6875 0 2.953125 0.6875q1.28125 0.671875 2.109375 1.953125q0.84375 1.28125 1.3125 3.125q0.46875 1.84375 0.46875 4.953125q0 3.703125 -0.765625 5.96875q-0.75 2.265625 -2.265625 3.515625q-1.5 1.234375 -3.8125 1.234375q-3.03125 0 -4.765625 -2.171875q-2.078125 -2.625 -2.078125 -8.546875zm2.640625 0q0 5.171875 1.203125 6.890625q1.21875 1.703125 3.0 1.703125q1.78125 0 2.984375 -1.71875q1.21875 -1.71875 1.21875 -6.875q0 -5.171875 -1.21875 -6.875q-1.203125 -1.71875 -3.015625 -1.71875q-1.765625 0 -2.828125 1.515625q-1.34375 1.921875 -1.34375 7.078125zm13.670288 4.859375l2.703125 -0.234375q0.296875 1.984375 1.390625 2.984375q1.109375 0.984375 2.65625 0.984375q1.859375 0 3.140625 -1.390625q1.296875 -1.40625 1.296875 -3.734375q0 -2.203125 -1.25 -3.46875q-1.234375 -1.28125 -3.234375 -1.28125q-1.25 0 -2.25 0.5625q-1.0 0.5625 -1.578125 1.46875l-2.421875 -0.3125l2.03125 -10.78125l10.453125 0l0 2.453125l-8.390625 0l-1.125 5.640625q1.890625 -1.3125 3.96875 -1.3125q2.75 0 4.640625 1.90625q1.890625 1.90625 1.890625 4.890625q0 2.859375 -1.671875 4.9375q-2.015625 2.546875 -5.5 2.546875q-2.875 0 -4.6875 -1.59375q-1.8125 -1.609375 -2.0625 -4.265625z" fill-rule="nonzero"/><path fill="#000000" fill-opacity="0.0" d="m0 26.023623l551.71655 0l0 67.2126l-551.71655 0z" fill-rule="evenodd"/><path fill="#000000" d="m11.515625 68.30362l0 -24.8125l8.046875 0q4.5625 0 5.953125 0.375q2.125 0.5625 3.5625 2.4375q1.453125 1.859375 1.453125 4.828125q0 2.28125 -0.84375 3.84375q-0.828125 1.546875 -2.109375 2.4375q-1.265625 0.890625 -2.59375 1.171875q-1.78125 0.359375 -5.1875 0.359375l-3.265625 0l0 9.359375l-5.015625 0zm5.015625 -20.609375l0 7.03125l2.734375 0q2.96875 0 3.96875 -0.375q1.0 -0.390625 1.5625 -1.21875q0.5625 -0.84375 0.5625 -1.9375q0 -1.359375 -0.796875 -2.234375q-0.796875 -0.875 -2.015625 -1.09375q-0.890625 -0.171875 -3.59375 -0.171875l-2.421875 0zm16.974823 11.375q0 -2.375 1.15625 -4.59375q1.171875 -2.21875 3.3125 -3.375q2.140625 -1.171875 4.78125 -1.171875q4.078125 0 6.6875 2.65625q2.609375 2.640625 2.609375 6.6875q0 4.078125 -2.640625 6.765625q-2.625 2.671875 -6.625 2.671875q-2.46875 0 -4.71875 -1.109375q-2.234375 -1.125 -3.40625 -3.28125q-1.15625 -2.15625 -1.15625 -5.25zm4.875 0.25q0 2.671875 1.265625 4.09375q1.265625 1.421875 3.125 1.421875q1.859375 0 3.125 -1.421875q1.265625 -1.421875 1.265625 -4.125q0 -2.640625 -1.265625 -4.0625q-1.265625 -1.421875 -3.125 -1.421875q-1.859375 0 -3.125 1.421875q-1.265625 1.421875 -1.265625 4.09375zm15.716293 3.859375l4.765625 -0.734375q0.3125 1.390625 1.234375 2.109375q0.9375 0.71875 2.609375 0.71875q1.84375 0 2.78125 -0.671875q0.625 -0.484375 0.625 -1.265625q0 -0.546875 -0.34375 -0.90625q-0.34375 -0.328125 -1.59375 -0.625q-5.75 -1.265625 -7.28125 -2.3125q-2.140625 -1.453125 -2.140625 -4.046875q0 -2.34375 1.84375 -3.921875q1.84375 -1.59375 5.71875 -1.59375q3.6875 0 5.484375 1.203125q1.796875 1.203125 2.46875 3.546875l-4.484375 0.828125q-0.28125 -1.046875 -1.09375 -1.59375q-0.796875 -0.5625 -2.28125 -0.5625q-1.875 0 -2.6875 0.515625q-0.546875 0.375 -0.546875 0.96875q0 0.5 0.46875 0.859375q0.640625 0.46875 4.4375 1.34375q3.8125 0.859375 5.3125 2.109375q1.484375 1.265625 1.484375 3.53125q0 2.484375 -2.0625 4.265625q-2.0625 1.765625 -6.109375 1.765625q-3.671875 0 -5.8125 -1.484375q-2.140625 -1.5 -2.796875 -4.046875zm19.274155 0l4.765625 -0.734375q0.3125 1.390625 1.234375 2.109375q0.9375 0.71875 2.609375 0.71875q1.84375 0 2.78125 -0.671875q0.625 -0.484375 0.625 -1.265625q0 -0.546875 -0.34375 -0.90625q-0.34375 -0.328125 -1.59375 -0.625q-5.75 -1.265625 -7.28125 -2.3125q-2.140625 -1.453125 -2.140625 -4.046875q0 -2.34375 1.84375 -3.921875q1.84375 -1.59375 5.71875 -1.59375q3.6875 0 5.484375 1.203125q1.796875 1.203125 2.46875 3.546875l-4.484375 0.828125q-0.28125 -1.046875 -1.09375 -1.59375q-0.796875 -0.5625 -2.28125 -0.5625q-1.875 0 -2.6875 0.515625q-0.546875 0.375 -0.546875 0.96875q0 0.5 0.46875 0.859375q0.640625 0.46875 4.4375 1.34375q3.8125 0.859375 5.3125 2.109375q1.484375 1.265625 1.484375 3.53125q0 2.484375 -2.0625 4.265625q-2.0625 1.765625 -6.109375 1.765625q-3.671875 0 -5.8125 -1.484375q-2.140625 -1.5 -2.796875 -4.046875zm20.94603 -15.28125l0 -4.40625l4.765625 0l0 4.40625l-4.765625 0zm0 20.40625l0 -17.96875l4.765625 0l0 17.96875l-4.765625 0zm9.425491 0l0 -24.8125l4.765625 0l0 8.9375q2.1875 -2.5 5.203125 -2.5q3.28125 0 5.421875 2.375q2.15625 2.375 2.15625 6.828125q0 4.609375 -2.1875 7.09375q-2.1875 2.484375 -5.328125 2.484375q-1.53125 0 -3.03125 -0.765625q-1.5 -0.78125 -2.578125 -2.28125l0 2.640625l-4.421875 0zm4.71875 -9.375q0 2.796875 0.890625 4.125q1.234375 1.90625 3.28125 1.90625q1.578125 0 2.671875 -1.34375q1.109375 -1.359375 1.109375 -4.25q0 -3.078125 -1.125 -4.4375q-1.109375 -1.359375 -2.84375 -1.359375q-1.71875 0 -2.859375 1.328125q-1.125 1.328125 -1.125 4.03125zm16.653793 9.375l0 -24.8125l4.765625 0l0 24.8125l-4.765625 0zm20.034866 -5.71875l4.734375 0.796875q-0.90625 2.609375 -2.875 3.96875q-1.96875 1.359375 -4.9375 1.359375q-4.6875 0 -6.9375 -3.0625q-1.78125 -2.453125 -1.78125 -6.1875q0 -4.46875 2.328125 -7.0q2.34375 -2.53125 5.921875 -2.53125q4.0 0 6.3125 2.65625q2.328125 2.640625 2.234375 8.109375l-11.921875 0q0.0625 2.109375 1.15625 3.296875q1.09375 1.171875 2.734375 1.171875q1.125 0 1.875 -0.609375q0.765625 -0.609375 1.15625 -1.96875zm0.28125 -4.8125q-0.0625 -2.0625 -1.078125 -3.125q-1.015625 -1.078125 -2.46875 -1.078125q-1.546875 0 -2.5625 1.125q-1.015625 1.140625 -1.0 3.078125l7.109375 0zm18.246521 10.53125l0 -24.8125l18.40625 0l0 4.203125l-13.390625 0l0 5.5l12.453125 0l0 4.171875l-12.453125 0l0 6.75l13.859375 0l0 4.1875l-18.875 0zm39.427948 0l-4.75 0l0 -9.171875q0 -2.90625 -0.3125 -3.765625q-0.296875 -0.859375 -0.984375 -1.328125q-0.6875 -0.46875 -1.640625 -0.46875q-1.234375 0 -2.21875 0.671875q-0.984375 0.671875 -1.359375 1.796875q-0.359375 1.109375 -0.359375 4.125l0 8.140625l-4.75 0l0 -17.96875l4.421875 0l0 2.640625q2.34375 -3.046875 5.921875 -3.046875q1.5625 0 2.859375 0.5625q1.3125 0.5625 1.984375 1.453125q0.671875 0.875 0.921875 2.0q0.265625 1.109375 0.265625 3.1875l0 11.171875zm3.1537933 -5.125l4.765625 -0.734375q0.3125 1.390625 1.234375 2.109375q0.9375 0.71875 2.609375 0.71875q1.84375 0 2.78125 -0.671875q0.625 -0.484375 0.625 -1.265625q0 -0.546875 -0.34375 -0.90625q-0.34375 -0.328125 -1.59375 -0.625q-5.75 -1.265625 -7.28125 -2.3125q-2.140625 -1.453125 -2.140625 -4.046875q0 -2.34375 1.84375 -3.921875q1.84375 -1.59375 5.71875 -1.59375q3.6875 0 5.484375 1.203125q1.796875 1.203125 2.46875 3.546875l-4.484375 0.828125q-0.28125 -1.046875 -1.09375 -1.59375q-0.796875 -0.5625 -2.28125 -0.5625q-1.875 0 -2.6875 0.515625q-0.546875 0.375 -0.546875 0.96875q0 0.5 0.46875 0.859375q0.640625 0.46875 4.4375 1.34375q3.8125 0.859375 5.3125 2.109375q1.484375 1.265625 1.484375 3.53125q0 2.484375 -2.0625 4.265625q-2.0625 1.765625 -6.109375 1.765625q-3.671875 0 -5.8125 -1.484375q-2.140625 -1.5 -2.796875 -4.046875zm31.35228 -0.59375l4.734375 0.796875q-0.90625 2.609375 -2.875 3.96875q-1.96875 1.359375 -4.9375 1.359375q-4.6875 0 -6.9375 -3.0625q-1.78125 -2.453125 -1.78125 -6.1875q0 -4.46875 2.328125 -7.0q2.34375 -2.53125 5.921875 -2.53125q4.0 0 6.3125 2.65625q2.328125 2.640625 2.234375 8.109375l-11.921875 0q0.0625 2.109375 1.15625 3.296875q1.09375 1.171875 2.734375 1.171875q1.125 0 1.875 -0.609375q0.765625 -0.609375 1.15625 -1.96875zm0.28125 -4.8125q-0.0625 -2.0625 -1.078125 -3.125q-1.015625 -1.078125 -2.46875 -1.078125q-1.546875 0 -2.5625 1.125q-1.015625 1.140625 -1.0 3.078125l7.109375 0zm8.22728 -7.4375l4.390625 0l0 2.453125q2.34375 -2.859375 5.5937653 -2.859375q1.734375 0 3.0 0.71875q1.265625 0.703125 2.078125 2.140625q1.1875 -1.4375 2.5625 -2.140625q1.375 -0.71875 2.921875 -0.71875q1.984375 0 3.34375 0.8125q1.375 0.796875 2.0625 2.34375q0.484375 1.15625 0.484375 3.734375l0 11.484375l-4.75 0l0 -10.265625q0 -2.6875 -0.5 -3.453125q-0.65625 -1.015625 -2.03125 -1.015625q-0.984375 0 -1.875 0.609375q-0.875 0.609375 -1.265625 1.78125q-0.390625 1.171875 -0.390625 3.71875l0 8.625l-4.75 0l0 -9.84375q0 -2.625 -0.265625 -3.390625q-0.25 -0.765625 -0.78126526 -1.125q-0.53125 -0.375 -1.4375 -0.375q-1.109375 0 -1.984375 0.59375q-0.875 0.59375 -1.265625 1.703125q-0.375 1.109375 -0.375 3.703125l0 8.734375l-4.765625 0l0 -17.96875zm30.971207 17.96875l0 -24.8125l4.765625 0l0 8.9375q2.1875 -2.5 5.203125 -2.5q3.28125 0 5.421875 2.375q2.15625 2.375 2.15625 6.828125q0 4.609375 -2.1875 7.09375q-2.1875 2.484375 -5.328125 2.484375q-1.53125 0 -3.03125 -0.765625q-1.5 -0.78125 -2.578125 -2.28125l0 2.640625l-4.421875 0zm4.71875 -9.375q0 2.796875 0.890625 4.125q1.234375 1.90625 3.28125 1.90625q1.578125 0 2.671875 -1.34375q1.109375 -1.359375 1.109375 -4.25q0 -3.078125 -1.125 -4.4375q-1.109375 -1.359375 -2.84375 -1.359375q-1.71875 0 -2.859375 1.328125q-1.125 1.328125 -1.125 4.03125zm16.653809 9.375l0 -24.8125l4.765625 0l0 24.8125l-4.765625 0zm20.034851 -5.71875l4.734375 0.796875q-0.90625 2.609375 -2.875 3.96875q-1.96875 1.359375 -4.9375 1.359375q-4.6875 0 -6.9375 -3.0625q-1.78125 -2.453125 -1.78125 -6.1875q0 -4.46875 2.328125 -7.0q2.34375 -2.53125 5.921875 -2.53125q4.0 0 6.3125 2.65625q2.328125 2.640625 2.234375 8.109375l-11.921875 0q0.0625 2.109375 1.15625 3.296875q1.09375 1.171875 2.734375 1.171875q1.125 0 1.875 -0.609375q0.765625 -0.609375 1.15625 -1.96875zm0.28125 -4.8125q-0.0625 -2.0625 -1.078125 -3.125q-1.015625 -1.078125 -2.46875 -1.078125q-1.546875 0 -2.5625 1.125q-1.015625 1.140625 -1.0 3.078125l7.109375 0zm18.184021 10.53125l0 -24.8125l7.5 0l4.5 16.921875l4.453125 -16.921875l7.515625 0l0 24.8125l-4.65625 0l0 -19.53125l-4.921875 19.53125l-4.828125 0l-4.90625 -19.53125l0 19.53125l-4.65625 0zm39.306427 -5.71875l4.734375 0.796875q-0.90625 2.609375 -2.875 3.96875q-1.96875 1.359375 -4.9375 1.359375q-4.6875 0 -6.9375 -3.0625q-1.78125 -2.453125 -1.78125 -6.1875q0 -4.46875 2.328125 -7.0q2.34375 -2.53125 5.921875 -2.53125q4.0 0 6.3125 2.65625q2.328125 2.640625 2.234375 8.109375l-11.921875 0q0.0625 2.109375 1.15625 3.296875q1.09375 1.171875 2.734375 1.171875q1.125 0 1.875 -0.609375q0.765625 -0.609375 1.15625 -1.96875zm0.28125 -4.8125q-0.0625 -2.0625 -1.078125 -3.125q-1.015625 -1.078125 -2.46875 -1.078125q-1.546875 0 -2.5625 1.125q-1.015625 1.140625 -1.0 3.078125l7.109375 0zm8.227264 -7.4375l4.390625 0l0 2.453125q2.34375 -2.859375 5.59375 -2.859375q1.734375 0 3.0 0.71875q1.265625 0.703125 2.078125 2.140625q1.1875 -1.4375 2.5625 -2.140625q1.375 -0.71875 2.921875 -0.71875q1.984375 0 3.34375 0.8125q1.375 0.796875 2.0625 2.34375q0.484375 1.15625 0.484375 3.734375l0 11.484375l-4.75 0l0 -10.265625q0 -2.6875 -0.5 -3.453125q-0.65625 -1.015625 -2.03125 -1.015625q-0.984375 0 -1.875 0.609375q-0.875 0.609375 -1.265625 1.78125q-0.390625 1.171875 -0.390625 3.71875l0 8.625l-4.75 0l0 -9.84375q0 -2.625 -0.265625 -3.390625q-0.25 -0.765625 -0.78125 -1.125q-0.53125 -0.375 -1.4375 -0.375q-1.109375 0 -1.984375 0.59375q-0.875 0.59375 -1.265625 1.703125q-0.375 1.109375 -0.375 3.703125l0 8.734375l-4.765625 0l0 -17.96875zm30.971191 17.96875l0 -24.8125l4.765625 0l0 8.9375q2.1875 -2.5 5.203125 -2.5q3.28125 0 5.421875 2.375q2.15625 2.375 2.15625 6.828125q0 4.609375 -2.1875 7.09375q-2.1875 2.484375 -5.328125 2.484375q-1.53125 0 -3.03125 -0.765625q-1.5 -0.78125 -2.578125 -2.28125l0 2.640625l-4.421875 0zm4.71875 -9.375q0 2.796875 0.890625 4.125q1.234375 1.90625 3.28125 1.90625q1.578125 0 2.671875 -1.34375q1.109375 -1.359375 1.109375 -4.25q0 -3.078125 -1.125 -4.4375q-1.109375 -1.359375 -2.84375 -1.359375q-1.71875 0 -2.859375 1.328125q-1.125 1.328125 -1.125 4.03125zm27.060059 3.65625l4.734375 0.796875q-0.90625 2.609375 -2.875 3.96875q-1.96875 1.359375 -4.9375 1.359375q-4.6875 0 -6.9375 -3.0625q-1.78125 -2.453125 -1.78125 -6.1875q0 -4.46875 2.328125 -7.0q2.34375 -2.53125 5.921875 -2.53125q4.0 0 6.3125 2.65625q2.328125 2.640625 2.234375 8.109375l-11.921875 0q0.0625 2.109375 1.15625 3.296875q1.09375 1.171875 2.734375 1.171875q1.125 0 1.875 -0.609375q0.765625 -0.609375 1.15625 -1.96875zm0.28125 -4.8125q-0.0625 -2.0625 -1.078125 -3.125q-1.015625 -1.078125 -2.46875 -1.078125q-1.546875 0 -2.5625 1.125q-1.015625 1.140625 -1.0 3.078125l7.109375 0zm13.14917 10.53125l-4.765625 0l0 -17.96875l4.421875 0l0 2.546875q1.125 -1.8125 2.03125 -2.375q0.90625 -0.578125 2.0625 -0.578125q1.625 0 3.125 0.890625l-1.46875 4.15625q-1.203125 -0.78125 -2.234375 -0.78125q-1.0 0 -1.703125 0.546875q-0.6875 0.546875 -1.078125 1.984375q-0.390625 1.4375 -0.390625 6.03125l0 5.546875zm7.2524414 -5.125l4.765625 -0.734375q0.3125 1.390625 1.234375 2.109375q0.9375 0.71875 2.609375 0.71875q1.84375 0 2.78125 -0.671875q0.625 -0.484375 0.625 -1.265625q0 -0.546875 -0.34375 -0.90625q-0.34375 -0.328125 -1.59375 -0.625q-5.75 -1.265625 -7.28125 -2.3125q-2.140625 -1.453125 -2.140625 -4.046875q0 -2.34375 1.84375 -3.921875q1.84375 -1.59375 5.71875 -1.59375q3.6875 0 5.484375 1.203125q1.796875 1.203125 2.46875 3.546875l-4.484375 0.828125q-0.28125 -1.046875 -1.09375 -1.59375q-0.796875 -0.5625 -2.28125 -0.5625q-1.875 0 -2.6875 0.515625q-0.546875 0.375 -0.546875 0.96875q0 0.5 0.46875 0.859375q0.640625 0.46875 4.4375 1.34375q3.8125 0.859375 5.3125 2.109375q1.484375 1.265625 1.484375 3.53125q0 2.484375 -2.0625 4.265625q-2.0625 1.765625 -6.109375 1.765625q-3.671875 0 -5.8125 -1.484375q-2.140625 -1.5 -2.796875 -4.046875z" fill-rule="nonzero"/></g></svg>