<svg version="1.1" viewBox="0.0 0.0 960.0 540.0" fill="none" stroke="none" stroke-linecap="square" stroke-miterlimit="10" xmlns:xlink="http://www.w3.org/1999/xlink" xmlns="http://www.w3.org/2000/svg"><clipPath id="ga70579723f_0_129.0"><path d="m0 0l960.0 0l0 540.0l-960.0 0l0 -540.0z" clip-rule="nonzero"/></clipPath><g clip-path="url(#ga70579723f_0_129.0)"><path fill="#ffffff" d="m0 0l960.0 0l0 540.0l-960.0 0z" fill-rule="evenodd"/><path fill="#000000" fill-opacity="0.0" d="m98.267715 327.59055l763.4646 0l0 39.68506l-763.4646 0z" fill-rule="evenodd"/><path fill="#000000" d="m108.298965 363.83804l3.078125 -0.421875q0.125 2.953125 1.109375 4.046875q0.984375 1.078125 2.734375 1.078125q1.28125 0 2.203125 -0.578125q0.9375 -0.59375 1.28125 -1.59375q0.359375 -1.015625 0.359375 -3.234375l0 -17.75l3.40625 0l0 17.5625q0 3.234375 -0.78125 5.015625q-0.78125 1.765625 -2.484375 2.703125q-1.6875 0.921875 -3.96875 0.921875q-3.390625 0 -5.203125 -1.953125q-1.796875 -1.953125 -1.734375 -5.796875zm59.929688 7.3125l0 -25.765625l17.390625 0l0 3.03125l-13.984375 0l0 7.984375l12.09375 0l0 3.046875l-12.09375 0l0 11.703125l-3.40625 0zm61.716797 0l0 -25.765625l5.140625 0l6.09375 18.234375q0.84375 2.5625 1.234375 3.828125q0.4375 -1.40625 1.359375 -4.140625l6.171875 -17.921875l4.59375 0l0 25.765625l-3.28125 0l0 -21.5625l-7.5 21.5625l-3.078125 0l-7.453125 -21.9375l0 21.9375l-3.28125 0zm65.29103 0l9.890625 -25.765625l3.671875 0l10.546875 25.765625l-3.875 0l-3.015625 -7.8125l-10.765625 0l-2.84375 7.8125l-3.609375 0zm7.4375 -10.578125l8.734375 0l-2.6875 -7.140625q-1.234375 -3.25 -1.828125 -5.34375q-0.5 2.484375 -1.390625 4.921875l-2.828125 7.5625zm57.314453 10.578125l0 -25.765625l5.140625 0l6.09375 18.234375q0.84375 2.5625 1.234375 3.828125q0.4375 -1.40625 1.359375 -4.140625l6.171875 -17.921875l4.59375 0l0 25.765625l-3.28125 0l0 -21.5625l-7.5 21.5625l-3.078125 0l-7.453125 -21.9375l0 21.9375l-3.28125 0zm68.35547 -7.3125l3.078125 -0.421875q0.125 2.953125 1.109375 4.046875q0.984375 1.078125 2.734375 1.078125q1.28125 0 2.203125 -0.578125q0.9375 -0.59375 1.28125 -1.59375q0.359375 -1.015625 0.359375 -3.234375l0 -17.75l3.40625 0l0 17.5625q0 3.234375 -0.78125 5.015625q-0.78125 1.765625 -2.484375 2.703125q-1.6875 0.921875 -3.96875 0.921875q-3.390625 0 -5.203125 -1.953125q-1.796875 -1.953125 -1.734375 -5.796875zm58.007812 0l3.078125 -0.421875q0.125 2.953125 1.109375 4.046875q0.984375 1.078125 2.734375 1.078125q1.28125 0 2.203125 -0.578125q0.9375 -0.59375 1.28125 -1.59375q0.359375 -1.015625 0.359375 -3.234375l0 -17.75l3.40625 0l0 17.5625q0 3.234375 -0.78125 5.015625q-0.78125 1.765625 -2.484375 2.703125q-1.6875 0.921875 -3.96875 0.921875q-3.390625 0 -5.203125 -1.953125q-1.796875 -1.953125 -1.734375 -5.796875zm54.94333 7.3125l9.890625 -25.765625l3.671875 0l10.546875 25.765625l-3.875 0l-3.015625 -7.8125l-10.765625 0l-2.84375 7.8125l-3.609375 0zm7.4375 -10.578125l8.734375 0l-2.6875 -7.140625q-1.234375 -3.25 -1.828125 -5.34375q-0.5 2.484375 -1.390625 4.921875l-2.828125 7.5625zm56.26758 2.296875l3.203125 -0.28125q0.234375 1.9375 1.0625 3.171875q0.84375 1.234375 2.59375 2.0q1.765625 0.765625 3.96875 0.765625q1.9375 0 3.4375 -0.578125q1.5 -0.578125 2.21875 -1.578125q0.734375 -1.015625 0.734375 -2.21875q0 -1.203125 -0.703125 -2.109375q-0.703125 -0.90625 -2.3125 -1.53125q-1.046875 -0.40625 -4.59375 -1.25q-3.546875 -0.859375 -4.96875 -1.609375q-1.859375 -0.96875 -2.765625 -2.390625q-0.890625 -1.4375 -0.890625 -3.21875q0 -1.953125 1.09375 -3.640625q1.109375 -1.703125 3.234375 -2.578125q2.140625 -0.875 4.734375 -0.875q2.859375 0 5.046875 0.921875q2.203125 0.921875 3.375 2.71875q1.171875 1.78125 1.265625 4.046875l-3.265625 0.25q-0.265625 -2.4375 -1.796875 -3.6875q-1.515625 -1.25 -4.484375 -1.25q-3.09375 0 -4.515625 1.140625q-1.40625 1.125 -1.40625 2.71875q0 1.390625 1.0 2.296875q0.984375 0.890625 5.140625 1.828125q4.15625 0.9375 5.703125 1.640625q2.25 1.046875 3.3125 2.640625q1.078125 1.578125 1.078125 3.65625q0 2.0625 -1.171875 3.890625q-1.171875 1.8125 -3.390625 2.828125q-2.203125 1.0 -4.953125 1.0q-3.5 0 -5.875 -1.015625q-2.359375 -1.015625 -3.703125 -3.0625q-1.34375 -2.0625 -1.40625 -4.640625zm64.12891 -4.265625q0 -6.421875 3.4375 -10.046875q3.453125 -3.640625 8.90625 -3.640625q3.578125 0 6.4375 1.71875q2.859375 1.703125 4.359375 4.75q1.515625 3.046875 1.515625 6.921875q0 3.90625 -1.59375 7.0q-1.578125 3.09375 -4.484375 4.6875q-2.890625 1.59375 -6.25 1.59375q-3.640625 0 -6.515625 -1.75q-2.859375 -1.765625 -4.34375 -4.796875q-1.46875 -3.046875 -1.46875 -6.4375zm3.515625 0.046875q0 4.65625 2.5 7.34375q2.515625 2.671875 6.296875 2.671875q3.84375 0 6.328125 -2.703125q2.5 -2.703125 2.5 -7.6875q0 -3.140625 -1.0625 -5.484375q-1.0625 -2.34375 -3.125 -3.640625q-2.046875 -1.296875 -4.59375 -1.296875q-3.609375 0 -6.234375 2.5q-2.609375 2.484375 -2.609375 8.296875zm65.509766 12.5l0 -25.765625l3.484375 0l13.546875 20.234375l0 -20.234375l3.265625 0l0 25.765625l-3.5 0l-13.53125 -20.25l0 20.25l-3.265625 0zm66.03711 0l0 -25.765625l8.875 0q3.0 0 4.59375 0.359375q2.203125 0.515625 3.765625 1.84375q2.046875 1.734375 3.046875 4.421875q1.015625 2.671875 1.015625 6.109375q0 2.9375 -0.6875 5.203125q-0.671875 2.265625 -1.75 3.765625q-1.078125 1.484375 -2.359375 2.34375q-1.265625 0.84375 -3.0625 1.28125q-1.796875 0.4375 -4.140625 0.4375l-9.296875 0zm3.40625 -3.046875l5.5 0q2.546875 0 4.0 -0.46875q1.453125 -0.46875 2.3125 -1.34375q1.21875 -1.203125 1.890625 -3.25q0.671875 -2.046875 0.671875 -4.96875q0 -4.046875 -1.328125 -6.21875q-1.328125 -2.171875 -3.21875 -2.90625q-1.375 -0.53125 -4.40625 -0.53125l-5.421875 0l0 19.6875z" fill-rule="nonzero"/><path fill="#000000" fill-opacity="0.0" d="m24.82677 23.585302l166.33072 0l0 70.77165l-166.33072 0z" fill-rule="evenodd"/><path fill="#000000" d="m44.60802 72.2653l0 -12.453125l-10.84375 -17.125l7.0 0l6.96875 11.703125l6.8125 -11.703125l6.890625 0l-10.875 17.171875l0 12.40625l-5.953125 0zm29.878696 -6.828125l5.65625 0.953125q-1.09375 3.109375 -3.453125 4.734375q-2.34375 1.625 -5.875 1.625q-5.59375 0 -8.265629 -3.65625q-2.125 -2.921875 -2.125 -7.375q0 -5.328125 2.78125 -8.34375q2.7812538 -3.03125 7.046879 -3.03125q4.78125 0 7.546875 3.171875q2.765625 3.15625 2.640625 9.671875l-14.203125 0q0.0625 2.515625 1.375 3.921875q1.3125 1.40625 3.265625 1.40625q1.328125 0 2.234375 -0.71875q0.90625 -0.734375 1.375 -2.359375zm0.328125 -5.71875q-0.0625 -2.46875 -1.28125 -3.75q-1.203125 -1.28125 -2.9375 -1.28125q-1.859375 0 -3.0625 1.359375q-1.21875 1.34375 -1.203125 3.671875l8.484375 0zm14.484741 -2.34375l-5.140625 -0.9375q0.859375 -3.09375 2.96875 -4.59375q2.125 -1.5 6.3125 -1.5q3.796875 0 5.640625 0.90625q1.859375 0.890625 2.609375 2.28125q0.765625 1.375 0.765625 5.078125l-0.0625 6.609375q0 2.828125 0.265625 4.171875q0.28125 1.34375 1.03125 2.875l-5.609375 0q-0.21875 -0.5625 -0.546875 -1.671875q-0.140625 -0.5 -0.203125 -0.671875q-1.453125 1.421875 -3.109375 2.125q-1.65625 0.703125 -3.53125 0.703125q-3.3125 0 -5.21875 -1.796875q-1.90625 -1.796875 -1.90625 -4.546875q0 -1.8125 0.859375 -3.234375q0.875 -1.421875 2.4375 -2.171875q1.578125 -0.765625 4.515625 -1.328125q3.984375 -0.75 5.515625 -1.390625l0 -0.5625q0 -1.640625 -0.8125 -2.328125q-0.8125 -0.703125 -3.046875 -0.703125q-1.515625 0 -2.359375 0.59375q-0.84375 0.59375 -1.375 2.09375zm7.59375 4.59375q-1.09375 0.375 -3.453125 0.875q-2.359375 0.5 -3.09375 0.984375q-1.109375 0.796875 -1.109375 2.0q0 1.1875 0.890625 2.0625q0.890625 0.859375 2.265625 0.859375q1.53125 0 2.921875 -1.0q1.03125 -0.765625 1.34375 -1.875q0.234375 -0.734375 0.234375 -2.765625l0 -1.140625zm16.578491 10.296875l-5.671875 0l0 -21.4375l5.265625 0l0 3.046875q1.359375 -2.15625 2.4375 -2.84375q1.078125 -0.6875 2.453125 -0.6875q1.9375 0 3.734375 1.078125l-1.75 4.9375q-1.4375 -0.921875 -2.671875 -0.921875q-1.1875 0 -2.015625 0.65625q-0.828125 0.65625 -1.3125 2.375q-0.46875 1.703125 -0.46875 7.171875l0 6.625zm19.17492 0l10.109375 -15.4375l-9.15625 -14.140625l6.984375 0l5.921875 9.5l5.8125 -9.5l6.921875 0l-9.203125 14.359375l10.109375 15.21875l-7.203125 0l-6.546875 -10.234375l-6.59375 10.234375l-7.15625 0z" fill-rule="nonzero"/><path fill="#000000" fill-opacity="0.0" d="m440.69028 156.4147l0 162.61417" fill-rule="evenodd"/><path stroke="#000000" stroke-width="4.0" stroke-linejoin="round" stroke-linecap="butt" d="m440.69028 156.4147l0 138.61417" fill-rule="evenodd"/><path fill="#000000" stroke="#000000" stroke-width="4.0" stroke-linecap="butt" d="m434.08337 295.02887l6.606903 18.152405l6.6069336 -18.152405z" fill-rule="evenodd"/><path fill="#000000" fill-opacity="0.0" d="m337.65353 100.55118l228.40945 0l0 39.685043l-228.40945 0z" fill-rule="evenodd"/><path fill="#000000" d="m348.74728 135.15118l0 -19.078133l8.46875 0q2.546875 0 3.875 0.515625q1.328125 0.515625 2.109375 1.8125q0.796875 1.296875 0.796875 2.875q0 2.03125 -1.3125 3.421875q-1.3125 1.390625 -4.0625 1.765625q1.015625 0.484375 1.53125 0.953125q1.109375 1.0156326 2.09375 2.5468826l3.3125 5.1875l-3.171875 0l-2.515625 -3.96875q-1.109375 -1.71875 -1.828125 -2.625q-0.71875 -0.9218826 -1.28125 -1.2812576q-0.5625 -0.359375 -1.15625 -0.5q-0.421875 -0.09375 -1.40625 -0.09375l-2.921875 0l0 8.468758l-2.53125 0zm2.53125 -10.656258l5.421875 0q1.734375 0 2.703125 -0.359375q0.984375 -0.359375 1.484375 -1.140625q0.515625 -0.796875 0.515625 -1.71875q0 -1.359375 -0.984375 -2.21875q-0.984375 -0.875 -3.109375 -0.875l-6.03125 0l0 6.3125zm25.844055 6.2031326l2.421875 0.296875q-0.578125 2.125 -2.125 3.296875q-1.546875 1.171875 -3.953125 1.171875q-3.03125 0 -4.8125 -1.859375q-1.78125 -1.875 -1.78125 -5.25q0 -3.4843826 1.796875 -5.4062576q1.796875 -1.9375 4.671875 -1.9375q2.765625 0 4.515625 1.890625q1.765625 1.890625 1.765625 5.3125076q0 0.203125 -0.015625 0.625l-10.3125 0q0.140625 2.28125 1.296875 3.5q1.15625 1.203125 2.890625 1.203125q1.28125 0 2.1875 -0.671875q0.921875 -0.6875 1.453125 -2.171875zm-7.6875 -3.7812576l7.71875 0q-0.15625 -1.75 -0.890625 -2.625q-1.125 -1.34375 -2.90625 -1.34375q-1.609375 0 -2.71875 1.078125q-1.09375 1.078125 -1.203125 2.890625zm13.606171 8.234383l0 -12.000008l-2.0625 0l0 -1.828125l2.0625 0l0 -1.46875q0 -1.390625 0.25 -2.0625q0.34375 -0.921875 1.1875 -1.484375q0.859375 -0.5625 2.390625 -0.5625q0.984375 0 2.1875 0.234375l-0.34375 2.046875q-0.734375 -0.140625 -1.390625 -0.140625q-1.0625 0 -1.515625 0.46875q-0.4375 0.453125 -0.4375 1.703125l0 1.265625l2.703125 0l0 1.828125l-2.703125 0l0 12.000008l-2.328125 0zm16.312225 -4.453125l2.421875 0.296875q-0.578125 2.125 -2.125 3.296875q-1.546875 1.171875 -3.953125 1.171875q-3.03125 0 -4.8125 -1.859375q-1.78125 -1.875 -1.78125 -5.25q0 -3.4843826 1.796875 -5.4062576q1.796875 -1.9375 4.671875 -1.9375q2.765625 0 4.515625 1.890625q1.765625 1.890625 1.765625 5.3125076q0 0.203125 -0.015625 0.625l-10.3125 0q0.140625 2.28125 1.296875 3.5q1.15625 1.203125 2.890625 1.203125q1.28125 0 2.1875 -0.671875q0.921875 -0.6875 1.453125 -2.171875zm-7.6875 -3.7812576l7.71875 0q-0.15625 -1.75 -0.890625 -2.625q-1.125 -1.34375 -2.90625 -1.34375q-1.609375 0 -2.71875 1.078125q-1.09375 1.078125 -1.203125 2.890625zm13.028046 8.234383l0 -13.828133l2.109375 0l0 2.09375q0.796875 -1.46875 1.484375 -1.9375q0.6875 -0.46875 1.5 -0.46875q1.1875 0 2.40625 0.765625l-0.796875 2.171875q-0.859375 -0.515625 -1.71875 -0.515625q-0.765625 0 -1.390625 0.46875q-0.609375 0.453125 -0.859375 1.28125q-0.390625 1.25 -0.390625 2.734375l0 7.2343826l-2.34375 0zm18.361115 -4.453125l2.421875 0.296875q-0.578125 2.125 -2.125 3.296875q-1.546875 1.171875 -3.953125 1.171875q-3.03125 0 -4.8125 -1.859375q-1.78125 -1.875 -1.78125 -5.25q0 -3.4843826 1.796875 -5.4062576q1.796875 -1.9375 4.671875 -1.9375q2.765625 0 4.515625 1.890625q1.765625 1.890625 1.765625 5.3125076q0 0.203125 -0.015625 0.625l-10.3125 0q0.140625 2.28125 1.296875 3.5q1.15625 1.203125 2.890625 1.203125q1.28125 0 2.1875 -0.671875q0.921875 -0.6875 1.453125 -2.171875zm-7.6875 -3.7812576l7.71875 0q-0.15625 -1.75 -0.890625 -2.625q-1.125 -1.34375 -2.90625 -1.34375q-1.609375 0 -2.71875 1.078125q-1.09375 1.078125 -1.203125 2.890625zm13.043701 8.234383l0 -13.828133l2.109375 0l0 1.96875q1.53125 -2.28125 4.40625 -2.28125q1.25 0 2.296875 0.453125q1.046875 0.453125 1.5625 1.1875q0.53125 0.71875 0.734375 1.71875q0.125 0.65625 0.125 2.28125l0 8.500008l-2.34375 0l0 -8.406258q0 -1.4375 -0.28125 -2.140625q-0.265625 -0.71875 -0.96875 -1.140625q-0.6875 -0.421875 -1.625 -0.421875q-1.484375 0 -2.578125 0.953125q-1.09375 0.953125 -1.09375 3.609375l0 7.5468826l-2.34375 0zm23.85617 -5.0625l2.296875 0.296875q-0.375 2.390625 -1.9375 3.734375q-1.546875 1.34375 -3.8125 1.34375q-2.84375 0 -4.5625 -1.84375q-1.71875 -1.859375 -1.71875 -5.328125q0 -2.2343826 0.734375 -3.9062576q0.75 -1.6875 2.265625 -2.53125q1.515625 -0.84375 3.296875 -0.84375q2.25 0 3.671875 1.140625q1.4375 1.140625 1.84375 3.234375l-2.28125 0.359375q-0.328125 -1.390625 -1.15625 -2.09375q-0.8125 -0.703125 -1.984375 -0.703125q-1.78125 0 -2.890625 1.265625q-1.09375 1.265625 -1.09375 4.0156326q0 2.78125 1.0625 4.046875q1.0625 1.265625 2.78125 1.265625q1.390625 0 2.3125 -0.84375q0.921875 -0.859375 1.171875 -2.609375zm13.765625 0.609375l2.421875 0.296875q-0.578125 2.125 -2.125 3.296875q-1.546875 1.171875 -3.953125 1.171875q-3.03125 0 -4.8125 -1.859375q-1.78125 -1.875 -1.78125 -5.25q0 -3.4843826 1.796875 -5.4062576q1.796875 -1.9375 4.671875 -1.9375q2.765625 0 4.515625 1.890625q1.765625 1.890625 1.765625 5.3125076q0 0.203125 -0.015625 0.625l-10.3125 0q0.140625 2.28125 1.296875 3.5q1.15625 1.203125 2.890625 1.203125q1.28125 0 2.1875 -0.671875q0.921875 -0.6875 1.453125 -2.171875zm-7.6875 -3.7812576l7.71875 0q-0.15625 -1.75 -0.890625 -2.625q-1.125 -1.34375 -2.90625 -1.34375q-1.609375 0 -2.71875 1.078125q-1.09375 1.078125 -1.203125 2.890625zm21.184021 8.234383l0 -19.078133l2.53125 0l0 19.078133l-2.53125 0zm6.6716003 0l0 -13.828133l2.109375 0l0 1.96875q1.53125 -2.28125 4.40625 -2.28125q1.25 0 2.296875 0.453125q1.046875 0.453125 1.5625 1.1875q0.53125 0.71875 0.734375 1.71875q0.125 0.65625 0.125 2.28125l0 8.500008l-2.34375 0l0 -8.406258q0 -1.4375 -0.28125 -2.140625q-0.265625 -0.71875 -0.96875 -1.140625q-0.6875 -0.421875 -1.625 -0.421875q-1.484375 0 -2.578125 0.953125q-1.09375 0.953125 -1.09375 3.609375l0 7.5468826l-2.34375 0zm23.79367 0l0 -1.75q-1.3125 2.0625 -3.859375 2.0625q-1.65625 0 -3.046875 -0.90625q-1.375 -0.921875 -2.140625 -2.546875q-0.765625 -1.640625 -0.765625 -3.75q0 -2.0781326 0.6875 -3.7656326q0.703125 -1.6875 2.078125 -2.578125q1.375 -0.90625 3.078125 -0.90625q1.25 0 2.21875 0.53125q0.984375 0.53125 1.59375 1.375l0 -6.84375l2.34375 0l0 19.078133l-2.1875 0zm-7.40625 -6.890625q0 2.640625 1.125 3.96875q1.125 1.3125 2.640625 1.3125q1.53125 0 2.609375 -1.25q1.078125 -1.265625 1.078125 -3.84375q0 -2.8437576 -1.09375 -4.1718826q-1.09375 -1.328125 -2.703125 -1.328125q-1.546875 0 -2.609375 1.28125q-1.046875 1.28125 -1.046875 4.0312576zm22.731201 2.4375l2.421875 0.296875q-0.578125 2.125 -2.125 3.296875q-1.546875 1.171875 -3.953125 1.171875q-3.03125 0 -4.8125 -1.859375q-1.78125 -1.875 -1.78125 -5.25q0 -3.4843826 1.796875 -5.4062576q1.796875 -1.9375 4.671875 -1.9375q2.765625 0 4.515625 1.890625q1.765625 1.890625 1.765625 5.3125076q0 0.203125 -0.015625 0.625l-10.3125 0q0.140625 2.28125 1.296875 3.5q1.15625 1.203125 2.890625 1.203125q1.28125 0 2.1875 -0.671875q0.921875 -0.6875 1.453125 -2.171875zm-7.6875 -3.7812576l7.71875 0q-0.15625 -1.75 -0.890625 -2.625q-1.125 -1.34375 -2.90625 -1.34375q-1.609375 0 -2.71875 1.078125q-1.09375 1.078125 -1.203125 2.890625zm11.481201 8.234383l5.0625 -7.1875076l-4.671875 -6.640625l2.921875 0l2.125 3.25q0.59375 0.921875 0.96875 1.546875q0.5625 -0.859375 1.046875 -1.53125l2.328125 -3.265625l2.796875 0l-4.78125 6.515625l5.15625 7.3125076l-2.890625 0l-2.828125 -4.296875l-0.75 -1.15625l-3.640625 5.453125l-2.84375 0z" fill-rule="nonzero"/></g></svg>